<svg xmlns="http://www.w3.org/2000/svg" xmlns:xlink="http://www.w3.org/1999/xlink" version="1.1" width="595.276" height="841.89" viewBox="0 0 595.276 841.89">
<text xml:space="preserve" transform="matrix(1 0 -0 1 0 841.89)" font-size="14.3462" font-family="CMBX12" font-weight="bold"><tspan y="-759.927" x="208.071 220.19355 228.27045 235.63005 242.22931 248.59903 255.95864 268.69807 278.84083 283.33119 290.69078 298.05036 309.7138 321.83634 331.24745 338.60704 345.20628 353.05366 359.33729 363.82765 371.90455 380.8709">OverseeFleetOperations</tspan></text>
<path transform="matrix(1,0,0,-1,72,106.77301)" stroke-width=".398" stroke-linecap="butt" stroke-miterlimit="10" stroke-linejoin="miter" fill="none" stroke="#000000" d="M0 0H476.381"/>
<path transform="matrix(1,0,0,-1,72,106.77301)" stroke-width=".398" stroke-linecap="butt" stroke-miterlimit="10" stroke-linejoin="miter" fill="none" stroke="#000000" d="M0 0H476.381"/>
<path transform="matrix(1,0,0,-1,72.199,124.90503)" stroke-width=".398" stroke-linecap="butt" stroke-miterlimit="10" stroke-linejoin="miter" fill="none" stroke="#000000" d="M0 0V17.933"/>
<text xml:space="preserve" transform="matrix(1 0 -0 1 0 841.89)" font-size="9.9626" font-family="CMBX10" font-weight="bold"><tspan y="-722.365" x="78.376 87.1929 91.71592 100.78188 109.06081 114.6299 119.152919 128.22885 137.19519 142.76428 152.30846">UseCaseName</tspan></text>
<path transform="matrix(1,0,0,-1,197.372,124.90503)" stroke-width=".398" stroke-linecap="butt" stroke-miterlimit="10" stroke-linejoin="miter" fill="none" stroke="#000000" d="M0 0V17.933"/>
<text xml:space="preserve" transform="matrix(1 0 -0 1 0 841.89)" font-size="9.9626" font-family="CMR10"><tspan y="-722.365" x="203.549 211.2999 216.2812 220.7046 224.60994 228.5352 232.9586 240.70952 247.2151 249.98471 254.40811 258.8315 266.0245 273.77543 279.5936 284.017 287.92234 292.90364 296.77909 299.54869 304.52998 310.06919">OverseeFleetOperations</tspan></text>
<path transform="matrix(1,0,0,-1,548.182,124.90503)" stroke-width=".398" stroke-linecap="butt" stroke-miterlimit="10" stroke-linejoin="miter" fill="none" stroke="#000000" d="M0 0V17.933"/>
<path transform="matrix(1,0,0,-1,72,125.104007)" stroke-width=".398" stroke-linecap="butt" stroke-miterlimit="10" stroke-linejoin="miter" fill="none" stroke="#000000" d="M0 0H476.381"/>
<path transform="matrix(1,0,0,-1,72,125.104007)" stroke-width=".398" stroke-linecap="butt" stroke-miterlimit="10" stroke-linejoin="miter" fill="none" stroke="#000000" d="M0 0H476.381"/>
<path transform="matrix(1,0,0,-1,72.199,143.23603)" stroke-width=".398" stroke-linecap="butt" stroke-miterlimit="10" stroke-linejoin="miter" fill="none" stroke="#000000" d="M0 0V17.933"/>
<text xml:space="preserve" transform="matrix(1 0 -0 1 0 841.89)" font-size="9.9626" font-family="CMBX10" font-weight="bold"><tspan y="-704.034" x="78.376 84.7421 89.83299 95.561489 102.24639">Scope</tspan></text>
<path transform="matrix(1,0,0,-1,197.372,143.23603)" stroke-width=".398" stroke-linecap="butt" stroke-miterlimit="10" stroke-linejoin="miter" fill="none" stroke="#000000" d="M0 0V17.933"/>
<text xml:space="preserve" transform="matrix(1 0 -0 1 0 841.89)" font-size="9.9626" font-family="CMR10"><tspan y="-704.034" x="203.549 211.02095 215.7233 222.91629 228.17655 235.36954 246.169 252.39563 257.37693 262.35823 265.1278 269.05308 272.92854 275.69813 280.12153 287.36433 292.3456 297.88484 306.74159 314.353 318.7764 321.546 324.31559 329.29689 333.72029 337.6256 346.21339 355.3491 360.33039 365.8696 370.8509 375.83219 380.25559 388.55445 392.97785 398.2381 405.4311 410.9703 416.23057 420.15583 424.03129 428.45469">HawkTULogisticsandDeliveryManagementSystem</tspan></text>
<path transform="matrix(1,0,0,-1,548.182,143.23603)" stroke-width=".398" stroke-linecap="butt" stroke-miterlimit="10" stroke-linejoin="miter" fill="none" stroke="#000000" d="M0 0V17.933"/>
<path transform="matrix(1,0,0,-1,72,143.435)" stroke-width=".398" stroke-linecap="butt" stroke-miterlimit="10" stroke-linejoin="miter" fill="none" stroke="#000000" d="M0 0H476.381"/>
<path transform="matrix(1,0,0,-1,72,143.435)" stroke-width=".398" stroke-linecap="butt" stroke-miterlimit="10" stroke-linejoin="miter" fill="none" stroke="#000000" d="M0 0H476.381"/>
<path transform="matrix(1,0,0,-1,72.199,161.56702)" stroke-width=".398" stroke-linecap="butt" stroke-miterlimit="10" stroke-linejoin="miter" fill="none" stroke="#000000" d="M0 0V17.933"/>
<text xml:space="preserve" transform="matrix(1 0 -0 1 0 841.89)" font-size="9.9626" font-family="CMBX10" font-weight="bold"><tspan y="-685.703" x="78.376 85.27012 90.52041 96.2489 101.49919">Level</tspan></text>
<path transform="matrix(1,0,0,-1,197.372,161.56702)" stroke-width=".398" stroke-linecap="butt" stroke-miterlimit="10" stroke-linejoin="miter" fill="none" stroke="#000000" d="M0 0V17.933"/>
<text xml:space="preserve" transform="matrix(1 0 -0 1 0 841.89)" font-size="9.9626" font-family="CMR10"><tspan y="-685.703" x="203.549 211.02095 214.94622 219.36962 226.5925 234.41315 239.39444 244.37574">UserGoal</tspan></text>
<path transform="matrix(1,0,0,-1,548.182,161.56702)" stroke-width=".398" stroke-linecap="butt" stroke-miterlimit="10" stroke-linejoin="miter" fill="none" stroke="#000000" d="M0 0V17.933"/>
<path transform="matrix(1,0,0,-1,72,161.76599)" stroke-width=".398" stroke-linecap="butt" stroke-miterlimit="10" stroke-linejoin="miter" fill="none" stroke="#000000" d="M0 0H476.381"/>
<path transform="matrix(1,0,0,-1,72,161.76599)" stroke-width=".398" stroke-linecap="butt" stroke-miterlimit="10" stroke-linejoin="miter" fill="none" stroke="#000000" d="M0 0H476.381"/>
<path transform="matrix(1,0,0,-1,72.199,179.89801)" stroke-width=".398" stroke-linecap="butt" stroke-miterlimit="10" stroke-linejoin="miter" fill="none" stroke="#000000" d="M0 0V17.933"/>
<text xml:space="preserve" transform="matrix(1 0 -0 1 0 841.89)" font-size="9.9626" font-family="CMBX10" font-weight="bold"><tspan y="-667.372" x="78.376 86.206607 90.92888 94.10695 103.65112 109.220218 113.94249 123.81543 132.47293 137.56381 142.01709 147.74559">PrimaryActor</tspan></text>
<path transform="matrix(1,0,0,-1,197.372,179.89801)" stroke-width=".398" stroke-linecap="butt" stroke-miterlimit="10" stroke-linejoin="miter" fill="none" stroke="#000000" d="M0 0V17.933"/>
<text xml:space="preserve" transform="matrix(1 0 -0 1 0 841.89)" font-size="9.9626" font-family="CMR10"><tspan y="-667.372" x="203.549 210.05458 212.82419 217.24759 221.67099 228.864 237.99971 242.981 248.5202 253.5015 258.4828 262.9062">FleetManager</tspan></text>
<path transform="matrix(1,0,0,-1,548.182,179.89801)" stroke-width=".398" stroke-linecap="butt" stroke-miterlimit="10" stroke-linejoin="miter" fill="none" stroke="#000000" d="M0 0V17.933"/>
<path transform="matrix(1,0,0,-1,72,180.09803)" stroke-width=".398" stroke-linecap="butt" stroke-miterlimit="10" stroke-linejoin="miter" fill="none" stroke="#000000" d="M0 0H476.381"/>
<path transform="matrix(1,0,0,-1,72,180.09803)" stroke-width=".398" stroke-linecap="butt" stroke-miterlimit="10" stroke-linejoin="miter" fill="none" stroke="#000000" d="M0 0H476.381"/>
<path transform="matrix(1,0,0,-1,72.199,278.274)" stroke-width=".398" stroke-linecap="butt" stroke-miterlimit="10" stroke-linejoin="miter" fill="none" stroke="#000000" d="M0 0V97.977"/>
<text xml:space="preserve" transform="matrix(1 0 -0 1 0 841.89)" font-size="9.9626" font-family="CMBX10" font-weight="bold"><tspan y="-614.996" x="78.376 84.7421 89.19539 94.76448 100.49298 105.74327 112.109378 117.83787 121.01594 127.38204 132.63234 137.35462 145.69332 151.2624 157.62851">Stakeholdersand</tspan><tspan y="-603.04098" x="78.376 82.719699 88.767 93.22028 98.47057 103.19285 108.44314 112.966159 117.41944">Interests</tspan></text>
<path transform="matrix(1,0,0,-1,197.372,278.274)" stroke-width=".398" stroke-linecap="butt" stroke-miterlimit="10" stroke-linejoin="miter" fill="none" stroke="#000000" d="M0 0V97.977"/>
<text xml:space="preserve" transform="matrix(1 0 -0 1 0 841.89)" font-size="4.9813" font-family="CMSY5" font-style="italic"><tspan y="-645.975" x="203.549">&#x2022;</tspan></text>
<text xml:space="preserve" transform="matrix(1 0 -0 1 0 841.89)" font-size="9.9626" font-family="CMR10"><tspan y="-644.712" x="212.19699 218.70258 221.47219 225.89559 230.31899 237.69132 246.82703 251.80832 257.34754 262.32884 267.31013 271.73353 275.63887 283.1905 292.60514 297.58644 302.84669 306.72215 314.1443 318.01976 326.49794 330.92134 336.46055 340.3858 345.92503 349.83036 357.7606 362.184 364.9503 367.71659 370.48286 374.90626 377.67585 382.09925 387.3595 394.73185 399.71315 402.48274 405.25233 410.51258 414.93598 419.91728 423.79273 426.56233 431.5436 440.5797 445.561 452.10646 456.01179 460.43519 464.36045 469.34175 474.88096 478.7863 483.2097 487.6331 495.05525 500.03654 505.57575 514.62179 518.48727 521.25686 529.5656 533.989 536.7586">FleetManager:Wantstoensureefficientallocationofresourcesandtimely</tspan><tspan y="-632.75698" x="212.19699 217.73619 222.15959 224.9292 227.6988 232.68012 237.10352 241.00885 243.77846 248.20186 252.12712">deliveries.</tspan></text>
<text xml:space="preserve" transform="matrix(1 0 -0 1 0 841.89)" font-size="4.9813" font-family="CMSY5" font-style="italic"><tspan y="-614.09396" x="203.549">&#x2022;</tspan></text>
<text xml:space="preserve" transform="matrix(1 0 -0 1 0 841.89)" font-size="9.9626" font-family="CMR10"><tspan y="-612.8319" x="212.19699 219.80841 223.71375 226.48336 231.46466 235.88806 239.7934 246.99637 254.46833 258.89173 263.31513 268.85435 276.09715 279.9726 288.27143 294.0896 301.83055 304.60014 310.13935 313.1879 318.1692 322.07453 330.37339 334.79679 343.6635 348.6448 355.0109 359.9922 363.91746 367.8427 370.6123 375.5936 381.1328 389.43168 393.85508 399.11534 402.99079 410.24357 415.22486 420.76408 429.62083 433.52616 438.50746 444.04667 447.92213 452.34553 456.27079">Driver:Needstobeinformedofassignmentsandroutes.</tspan></text>
<text xml:space="preserve" transform="matrix(1 0 -0 1 0 841.89)" font-size="4.9813" font-family="CMSY5" font-style="italic"><tspan y="-594.1689" x="203.549">&#x2022;</tspan></text>
<text xml:space="preserve" transform="matrix(1 0 -0 1 0 841.89)" font-size="9.9626" font-family="CMR10"><tspan y="-592.9059" x="212.19699 217.73619 222.99645 226.9217 230.79717 235.22057 247.41478 254.88674 260.42594 268.7248 271.4944 277.0336 279.8032 283.72846 287.6039 291.50926 296.49055 300.366 305.3473 309.25263 317.5913 324.37586 329.90513 333.84034 339.3696 343.27494 347.70829 355.51896 359.3944 364.93363 373.2524 376.01704 378.79164 383.21504 387.63844 395.3993 403.69816 408.67945 414.21867 419.19996 424.18125 428.6146 436.91346 441.33686 446.5971 454.35798 458.28324 463.5435 467.46876 471.3442 475.7676 487.96186 490.73146 498.5521 501.60066 507.13987 512.6791 517.1025 520.9779 523.7475 528.7288 534.268 539.2493">SystemAdministrator:Ensuresthefleetmanagementsystemisfunctional</tspan><tspan y="-580.95089" x="212.19699 217.17829 222.71749 231.57424 235.4995 239.9229 244.3463 249.8855 253.79084 258.21424">andsecure.</tspan></text>
<path transform="matrix(1,0,0,-1,548.182,278.274)" stroke-width=".398" stroke-linecap="butt" stroke-miterlimit="10" stroke-linejoin="miter" fill="none" stroke="#000000" d="M0 0V97.977"/>
<path transform="matrix(1,0,0,-1,72,278.47303)" stroke-width=".398" stroke-linecap="butt" stroke-miterlimit="10" stroke-linejoin="miter" fill="none" stroke="#000000" d="M0 0H476.381"/>
<path transform="matrix(1,0,0,-1,72,278.47303)" stroke-width=".398" stroke-linecap="butt" stroke-miterlimit="10" stroke-linejoin="miter" fill="none" stroke="#000000" d="M0 0H476.381"/>
<path transform="matrix(1,0,0,-1,72.199,332.81404)" stroke-width=".398" stroke-linecap="butt" stroke-miterlimit="10" stroke-linejoin="miter" fill="none" stroke="#000000" d="M0 0V54.141"/>
<text xml:space="preserve" transform="matrix(1 0 -0 1 0 841.89)" font-size="9.9626" font-family="CMBX10" font-weight="bold"><tspan y="-532.56" x="78.376 86.206607 90.92888 96.17917 101.27006 106.99855 113.364658 119.73076 122.90883 127.362117 130.54018 136.26868 142.63478">Preconditions</tspan></text>
<path transform="matrix(1,0,0,-1,197.372,332.81404)" stroke-width=".398" stroke-linecap="butt" stroke-miterlimit="10" stroke-linejoin="miter" fill="none" stroke="#000000" d="M0 0V54.141"/>
<text xml:space="preserve" transform="matrix(1 0 -0 1 0 841.89)" font-size="4.9813" font-family="CMSY5" font-style="italic"><tspan y="-547.599" x="203.549">&#x2022;</tspan></text>
<text xml:space="preserve" transform="matrix(1 0 -0 1 0 841.89)" font-size="9.9626" font-family="CMR10"><tspan y="-546.336" x="212.19699 219.38999 224.92919 232.67014 235.43476 238.20934 242.63274 247.05614 254.25911 262.55796 267.53926 273.07847 278.05976 283.04106 287.46446 294.68733 297.4569 304.6997 307.4693 312.4506 317.4319 322.41319 326.83659 335.7033 338.4729 343.73316 347.6086 355.90745 359.7829 365.3221 373.07304 376.9983 382.25856 386.1838 390.05928 394.48268 402.78153">Thefleetmanagerisloggedintothesystem.</tspan></text>
<text xml:space="preserve" transform="matrix(1 0 -0 1 0 841.89)" font-size="4.9813" font-family="CMSY5" font-style="italic"><tspan y="-527.674" x="203.549">&#x2022;</tspan></text>
<text xml:space="preserve" transform="matrix(1 0 -0 1 0 841.89)" font-size="9.9626" font-family="CMR10"><tspan y="-526.411" x="212.19699 219.38999 224.92919 232.67014 235.43476 238.20934 242.63274 247.05614 254.25911 259.7983 264.7796 268.65507 276.9539 279.72349 286.96629 291.6786 296.38096 301.36225 304.13185 306.90144 311.88273 317.42195 320.19154 327.93247 332.91377 338.45298 347.3197 352.85893 358.38819 361.71568 365.59114 370.57243 373.88996 379.42918 384.41047 388.28593 392.70933">Thefleetdataisavailableandup-to-date.</tspan></text>
<path transform="matrix(1,0,0,-1,548.182,332.81404)" stroke-width=".398" stroke-linecap="butt" stroke-miterlimit="10" stroke-linejoin="miter" fill="none" stroke="#000000" d="M0 0V54.141"/>
<path transform="matrix(1,0,0,-1,72,333.013)" stroke-width=".398" stroke-linecap="butt" stroke-miterlimit="10" stroke-linejoin="miter" fill="none" stroke="#000000" d="M0 0H476.381"/>
<path transform="matrix(1,0,0,-1,72,333.013)" stroke-width=".398" stroke-linecap="butt" stroke-miterlimit="10" stroke-linejoin="miter" fill="none" stroke="#000000" d="M0 0H476.381"/>
<path transform="matrix(1,0,0,-1,72.199,387.354)" stroke-width=".398" stroke-linecap="butt" stroke-miterlimit="10" stroke-linejoin="miter" fill="none" stroke="#000000" d="M0 0V54.141"/>
<text xml:space="preserve" transform="matrix(1 0 -0 1 0 841.89)" font-size="9.9626" font-family="CMBX10" font-weight="bold"><tspan y="-478.02" x="78.376 85.8878 91.616298 96.13931 100.5926 105.68349 111.41198 117.77808 124.14419 127.32226 131.77555 134.95362 140.68212 147.04822">Postconditions</tspan></text>
<path transform="matrix(1,0,0,-1,197.372,387.354)" stroke-width=".398" stroke-linecap="butt" stroke-miterlimit="10" stroke-linejoin="miter" fill="none" stroke="#000000" d="M0 0V54.141"/>
<text xml:space="preserve" transform="matrix(1 0 -0 1 0 841.89)" font-size="4.9813" font-family="CMSY5" font-style="italic"><tspan y="-493.059" x="203.549">&#x2022;</tspan></text>
<text xml:space="preserve" transform="matrix(1 0 -0 1 0 841.89)" font-size="9.9626" font-family="CMR10"><tspan y="-491.796" x="212.19699 218.70258 221.47219 225.89559 230.31899 237.512 242.49329 248.31143 252.73484 256.64018 261.62147 265.49693 268.2665 273.2478 278.78703 286.02983 291.0111 294.91645 302.66737 310.96623 315.9475 321.48674 324.25633 328.13179 333.11308 337.0184 341.4418 346.98103 353.06816 358.04945 363.58866 372.4454 377.43669 381.86009 387.3993 390.15895 394.5923 397.36189 405.1028 407.8724 413.13267 417.55607 422.53736 426.4128 429.1824 434.1637 439.7029 446.9457 451.927 455.83235 463.57328 467.44874 471.35408 476.33537 480.48979 485.47108 489.89448 495.4337">Fleetoperationsaremonitored,andvehiclelocationsaretracked.</tspan></text>
<text xml:space="preserve" transform="matrix(1 0 -0 1 0 841.89)" font-size="4.9813" font-family="CMSY5" font-style="italic"><tspan y="-473.134" x="203.549">&#x2022;</tspan></text>
<text xml:space="preserve" transform="matrix(1 0 -0 1 0 841.89)" font-size="9.9626" font-family="CMR10"><tspan y="-471.871" x="212.19699 219.66895 225.48709 231.02629 236.00759 239.88304 244.30644 251.54926 256.53056 265.3873 269.29264 273.71604 277.6413 282.6226 288.1618 292.06715 296.49055 304.24147 309.22276 311.99235 314.76194 320.0222 324.4456 329.42689 333.30235 336.07194 341.05323 349.90998 354.89128 358.7966 366.53755 371.23988 375.95219 380.93348 383.70307 386.47267 391.45396 396.99317 399.76277 407.5037 411.37916 419.67799 423.55345 429.09266 436.84358 439.6082 442.38279 446.80619 451.22959 458.42259 466.72145 471.70274 477.24195 482.22325 487.20454 491.62794 495.53327">Updatesonresourceallocationareavailabletothefleetmanager.</tspan></text>
<path transform="matrix(1,0,0,-1,548.182,387.354)" stroke-width=".398" stroke-linecap="butt" stroke-miterlimit="10" stroke-linejoin="miter" fill="none" stroke="#000000" d="M0 0V54.141"/>
<path transform="matrix(1,0,0,-1,72,387.553)" stroke-width=".398" stroke-linecap="butt" stroke-miterlimit="10" stroke-linejoin="miter" fill="none" stroke="#000000" d="M0 0H476.381"/>
<path transform="matrix(1,0,0,-1,72,387.553)" stroke-width=".398" stroke-linecap="butt" stroke-miterlimit="10" stroke-linejoin="miter" fill="none" stroke="#000000" d="M0 0H476.381"/>
<path transform="matrix(1,0,0,-1,72,387.453)" stroke-width=".398" stroke-linecap="butt" stroke-miterlimit="10" stroke-linejoin="miter" fill="none" stroke="#000000" d="M0 0H476.381"/>
<path transform="matrix(1,0,0,-1,72,387.453)" stroke-width=".398" stroke-linecap="butt" stroke-miterlimit="10" stroke-linejoin="miter" fill="none" stroke="#000000" d="M0 0H476.381"/>
<path transform="matrix(1,0,0,-1,72.199,405.58503)" stroke-width=".398" stroke-linecap="butt" stroke-miterlimit="10" stroke-linejoin="miter" fill="none" stroke="#000000" d="M0 0V17.933"/>
<text xml:space="preserve" transform="matrix(1 0 -0 1 0 841.89)" font-size="9.9626" font-family="CMBX10" font-weight="bold"><tspan y="-441.684" x="253.638 264.51716 270.08625 273.2643 283.44609 289.81217 296.17826 301.26914 306.36003 311.61033 316.13334 324.482 330.84809 335.93898 341.18928 347.55537 353.12446 357.8467 361.02479">MainSuccessScenario</tspan></text>
<path transform="matrix(1,0,0,-1,548.182,405.58503)" stroke-width=".398" stroke-linecap="butt" stroke-miterlimit="10" stroke-linejoin="miter" fill="none" stroke="#000000" d="M0 0V17.933"/>
<path transform="matrix(1,0,0,-1,72,405.785)" stroke-width=".398" stroke-linecap="butt" stroke-miterlimit="10" stroke-linejoin="miter" fill="none" stroke="#000000" d="M0 0H476.381"/>
<path transform="matrix(1,0,0,-1,72,405.785)" stroke-width=".398" stroke-linecap="butt" stroke-miterlimit="10" stroke-linejoin="miter" fill="none" stroke="#000000" d="M0 0H476.381"/>
<path transform="matrix(1,0,0,-1,72.199,423.91703)" stroke-width=".398" stroke-linecap="butt" stroke-miterlimit="10" stroke-linejoin="miter" fill="none" stroke="#000000" d="M0 0V17.933"/>
<text xml:space="preserve" transform="matrix(1 0 -0 1 0 841.89)" font-size="9.9626" font-family="CMBX10" font-weight="bold"><tspan y="-423.353" x="121.779 130.4365 135.52738 139.98065 145.70915 154.2471 162.9046 167.99549 172.44876 175.62683 181.35533 191.54708 196.00035 201.72885 210.2668 214.61049 220.65779 225.11107 230.36136 236.40866 240.86194 244.04001 249.76851 256.1346">ActorAction(orIntention)</tspan></text>
<path transform="matrix(1,0,0,-1,310.191,423.91703)" stroke-width=".398" stroke-linecap="butt" stroke-miterlimit="10" stroke-linejoin="miter" fill="none" stroke="#000000" d="M0 0V17.933"/>
<text xml:space="preserve" transform="matrix(1 0 -0 1 0 841.89)" font-size="9.9626" font-family="CMBX10" font-weight="bold"><tspan y="-423.353" x="373.636 380.00209 386.04939 390.5724 395.02568 400.27598 413.6358 422.23353 427.48384 432.00685 438.69175 444.42024 450.78633 455.30934 458.4874 464.8535 468.03157 471.20964 474.3877 478.53215">SystemResponsibility</tspan></text>
<path transform="matrix(1,0,0,-1,548.182,423.91703)" stroke-width=".398" stroke-linecap="butt" stroke-miterlimit="10" stroke-linejoin="miter" fill="none" stroke="#000000" d="M0 0V17.933"/>
<path transform="matrix(1,0,0,-1,72,424.11604)" stroke-width=".398" stroke-linecap="butt" stroke-miterlimit="10" stroke-linejoin="miter" fill="none" stroke="#000000" d="M0 0H476.381"/>
<path transform="matrix(1,0,0,-1,72,424.11604)" stroke-width=".398" stroke-linecap="butt" stroke-miterlimit="10" stroke-linejoin="miter" fill="none" stroke="#000000" d="M0 0H476.381"/>
<path transform="matrix(1,0,0,-1,72.199,454.203)" stroke-width=".398" stroke-linecap="butt" stroke-miterlimit="10" stroke-linejoin="miter" fill="none" stroke="#000000" d="M0 0V29.888"/>
<text xml:space="preserve" transform="matrix(1 0 -0 1 0 841.89)" font-size="9.9626" font-family="CMR10"><tspan y="-405.022" x="78.376 83.3573 91.12813 97.633708 100.403308 104.8267 109.25009 116.64234 124.941188 129.92249 135.46169 140.44298 145.42427 149.84767 157.2698 162.53006 165.29967 169.72307 176.91606 184.34816 188.22362 193.76282 201.70302 206.12642 211.66562 215.57096 219.47629 223.89969 229.15995 236.5522 239.31682 242.0914 246.5148 250.9382 258.3205 262.24577 266.12123 271.1025 274.97798 280.51719 287.95924 292.94053 298.47975">1.Fleetmanagerviewsthecurrentfleetstatusand</tspan><tspan y="-393.06703" x="78.376 83.3573 87.78069 93.3199 96.0895 100.51289 103.28249 111.033397 113.80299 119.05328 123.47668 128.45798 132.33344 135.10305 140.08434 145.62354 149.5488">vehiclelocations.</tspan></text>
<path transform="matrix(1,0,0,-1,310.191,454.203)" stroke-width=".398" stroke-linecap="butt" stroke-miterlimit="10" stroke-linejoin="miter" fill="none" stroke="#000000" d="M0 0V29.888"/>
<text xml:space="preserve" transform="matrix(1 0 -0 1 0 841.89)" font-size="9.9626" font-family="CMR10"><tspan y="-405.022" x="316.368 321.3493 331.70045 337.23966 342.4999 346.42518 350.30064 354.73399 367.40644 372.94566 375.71525 379.6405 385.17973 387.93937 392.65168 397.91194 406.2108 410.11613 414.53953 419.5208 422.2904 425.60795 429.4834 432.253 440.55186 449.34886 454.33015 458.75355 464.29277 467.06236 471.48576 474.25535 483.05235 485.82194 491.08219 495.50559 500.48689 504.36235 507.13194 512.1132 517.6524 525.9513 530.9326 536.4718">2.Systemdisplaysreal-timevehiclelocationsand</tspan><tspan y="-393.06703" x="316.368 321.3493 327.16749 331.59089 335.49623 340.4775 344.35298 347.12257 352.10386 357.64308 362.62437 368.7115 372.63676 376.5122 381.4935 385.36897 390.90818 394.83345">operationalstatus.</tspan></text>
<path transform="matrix(1,0,0,-1,548.182,454.203)" stroke-width=".398" stroke-linecap="butt" stroke-miterlimit="10" stroke-linejoin="miter" fill="none" stroke="#000000" d="M0 0V29.888"/>
<path transform="matrix(1,0,0,-1,72,454.402)" stroke-width=".398" stroke-linecap="butt" stroke-miterlimit="10" stroke-linejoin="miter" fill="none" stroke="#000000" d="M0 0H476.381"/>
<path transform="matrix(1,0,0,-1,72,454.402)" stroke-width=".398" stroke-linecap="butt" stroke-miterlimit="10" stroke-linejoin="miter" fill="none" stroke="#000000" d="M0 0H476.381"/>
<path transform="matrix(1,0,0,-1,72.199,484.49003)" stroke-width=".398" stroke-linecap="butt" stroke-miterlimit="10" stroke-linejoin="miter" fill="none" stroke="#000000" d="M0 0V29.888"/>
<text xml:space="preserve" transform="matrix(1 0 -0 1 0 841.89)" font-size="9.9626" font-family="CMR10"><tspan y="-374.735" x="78.376 83.3573 90.440708 96.94628 99.71588 104.139278 108.56267 115.43686 123.7357 128.717 134.2562 139.23749 144.21878 148.64218 155.5363 160.5176 164.44286 168.36812 171.13773 176.11902 181.65822 188.57227 193.55358 197.97698 203.51618 206.28578 210.70919 213.47879 217.90219 224.8262 228.70166 236.67174 242.21094 246.63434 249.40395 252.17356 257.15486 261.57826 265.48359 268.25318 272.67658 279.5906 285.12983 290.1111 294.03639 298.45979">3.Fleetmanagerassignsvehiclestodeliveriesbased</tspan><tspan y="-362.78" x="78.376 83.3573 92.21405 96.92636 101.62871 106.61001 109.37961 112.14921 117.13051 122.669719 125.439319 128.20893 130.97853 134.57505 139.0084">onavailability.</tspan></text>
<path transform="matrix(1,0,0,-1,310.191,484.49003)" stroke-width=".398" stroke-linecap="butt" stroke-miterlimit="10" stroke-linejoin="miter" fill="none" stroke="#000000" d="M0 0V29.888"/>
<text xml:space="preserve" transform="matrix(1 0 -0 1 0 841.89)" font-size="9.9626" font-family="CMR10"><tspan y="-374.735" x="316.368 321.3493 328.4925 334.0317 339.29197 343.21723 347.09269 351.51609 362.96315 368.50236 374.32054 379.85975 384.84104 388.7165 393.1399 400.21336 404.0888 409.62803 417.20957 422.19087 426.11613 430.04139 432.81098 437.79228 443.33149 451.63035 456.05375 461.314 468.33766 473.31895 478.85816 487.5555 490.3251 495.86433 498.91288 503.89418 507.7995 516.0983 523.1718 527.07717 531.50057 534.27017 538.69357">4.Systemupdatestheassignmentandinformsrele-</tspan><tspan y="-362.78" x="316.368 321.07038 326.05168 331.3219 338.5149 344.0541 347.95945 350.72904 355.71034 360.13374 364.03907 367.96434">vantdrivers.</tspan></text>
<path transform="matrix(1,0,0,-1,548.182,484.49003)" stroke-width=".398" stroke-linecap="butt" stroke-miterlimit="10" stroke-linejoin="miter" fill="none" stroke="#000000" d="M0 0V29.888"/>
<path transform="matrix(1,0,0,-1,72,484.68904)" stroke-width=".398" stroke-linecap="butt" stroke-miterlimit="10" stroke-linejoin="miter" fill="none" stroke="#000000" d="M0 0H476.381"/>
<path transform="matrix(1,0,0,-1,72,484.68904)" stroke-width=".398" stroke-linecap="butt" stroke-miterlimit="10" stroke-linejoin="miter" fill="none" stroke="#000000" d="M0 0H476.381"/>
<path transform="matrix(1,0,0,-1,72.199,514.776)" stroke-width=".398" stroke-linecap="butt" stroke-miterlimit="10" stroke-linejoin="miter" fill="none" stroke="#000000" d="M0 0V29.888"/>
<path transform="matrix(1,0,0,-1,310.191,514.776)" stroke-width=".398" stroke-linecap="butt" stroke-miterlimit="10" stroke-linejoin="miter" fill="none" stroke="#000000" d="M0 0V29.888"/>
<text xml:space="preserve" transform="matrix(1 0 -0 1 0 841.89)" font-size="9.9626" font-family="CMR10"><tspan y="-344.449" x="316.368 321.3493 330.38539 335.9246 341.18486 345.1101 348.98558 353.40898 365.64308 369.51853 373.42387 378.40516 382.5496 387.80986 395.67036 401.20957 405.63298 408.40257 411.17216 416.15345 420.57685 424.48219 433.67768 439.2169 443.12223 448.10353 453.0848 456.99015 461.41355 465.3388 473.1993 478.1806 483.71983 493.19429 498.7335 503.71479 507.59025 510.35984 513.12448 515.89907 520.32247 528.183 532.0584 537.5976">5.Systemtracksdeliveryprogressandnotifiesthe</tspan><tspan y="-332.49403" x="316.368 324.66688 329.64817 335.18739 340.16868 345.14997 349.57337 356.79624 361.77754 368.1536 373.1349 378.39515 386.97294 392.51216 396.93556 399.70515 404.40748 409.66773 413.593">managerofanydelays.</tspan></text>
<path transform="matrix(1,0,0,-1,548.182,514.776)" stroke-width=".398" stroke-linecap="butt" stroke-miterlimit="10" stroke-linejoin="miter" fill="none" stroke="#000000" d="M0 0V29.888"/>
<path transform="matrix(1,0,0,-1,72,514.975)" stroke-width=".398" stroke-linecap="butt" stroke-miterlimit="10" stroke-linejoin="miter" fill="none" stroke="#000000" d="M0 0H476.381"/>
<path transform="matrix(1,0,0,-1,72,514.975)" stroke-width=".398" stroke-linecap="butt" stroke-miterlimit="10" stroke-linejoin="miter" fill="none" stroke="#000000" d="M0 0H476.381"/>
<path transform="matrix(1,0,0,-1,72.199,533.10708)" stroke-width=".398" stroke-linecap="butt" stroke-miterlimit="10" stroke-linejoin="miter" fill="none" stroke="#000000" d="M0 0V17.933"/>
<text xml:space="preserve" transform="matrix(1 0 -0 1 0 841.89)" font-size="9.9626" font-family="CMBX10" font-weight="bold"><tspan y="-314.163" x="283.211 290.74275 296.79005 301.24333 306.49363 312.8597 317.38273 320.5608 326.28929 332.65538">Extensions</tspan></text>
<path transform="matrix(1,0,0,-1,548.182,533.10708)" stroke-width=".398" stroke-linecap="butt" stroke-miterlimit="10" stroke-linejoin="miter" fill="none" stroke="#000000" d="M0 0V17.933"/>
<path transform="matrix(1,0,0,-1,72,533.306)" stroke-width=".398" stroke-linecap="butt" stroke-miterlimit="10" stroke-linejoin="miter" fill="none" stroke="#000000" d="M0 0H476.381"/>
<path transform="matrix(1,0,0,-1,72,533.306)" stroke-width=".398" stroke-linecap="butt" stroke-miterlimit="10" stroke-linejoin="miter" fill="none" stroke="#000000" d="M0 0H476.381"/>
<path transform="matrix(1,0,0,-1,72.199,551.438)" stroke-width=".398" stroke-linecap="butt" stroke-miterlimit="10" stroke-linejoin="miter" fill="none" stroke="#000000" d="M0 0V17.933"/>
<text xml:space="preserve" transform="matrix(1 0 -0 1 0 841.89)" font-size="9.9626" font-family="CMBX10" font-weight="bold"><tspan y="-295.831" x="121.779 130.4365 135.52738 139.98065 145.70915 154.2471 162.9046 167.99549 172.44876 175.62683 181.35533 191.54708 196.00035 201.72885 210.2668 214.61049 220.65779 225.11107 230.36136 236.40866 240.86194 244.04001 249.76851 256.1346">ActorAction(orIntention)</tspan></text>
<path transform="matrix(1,0,0,-1,310.191,551.438)" stroke-width=".398" stroke-linecap="butt" stroke-miterlimit="10" stroke-linejoin="miter" fill="none" stroke="#000000" d="M0 0V17.933"/>
<text xml:space="preserve" transform="matrix(1 0 -0 1 0 841.89)" font-size="9.9626" font-family="CMBX10" font-weight="bold"><tspan y="-295.831" x="373.636 380.00209 386.04939 390.5724 395.02568 400.27598 413.6358 422.23353 427.48384 432.00685 438.69175 444.42024 450.78633 455.30934 458.4874 464.8535 468.03157 471.20964 474.3877 478.53215">SystemResponsibility</tspan></text>
<path transform="matrix(1,0,0,-1,548.182,551.438)" stroke-width=".398" stroke-linecap="butt" stroke-miterlimit="10" stroke-linejoin="miter" fill="none" stroke="#000000" d="M0 0V17.933"/>
<path transform="matrix(1,0,0,-1,72,551.638)" stroke-width=".398" stroke-linecap="butt" stroke-miterlimit="10" stroke-linejoin="miter" fill="none" stroke="#000000" d="M0 0H476.381"/>
<path transform="matrix(1,0,0,-1,72,551.638)" stroke-width=".398" stroke-linecap="butt" stroke-miterlimit="10" stroke-linejoin="miter" fill="none" stroke="#000000" d="M0 0H476.381"/>
<path transform="matrix(1,0,0,-1,72.199,581.725)" stroke-width=".398" stroke-linecap="butt" stroke-miterlimit="10" stroke-linejoin="miter" fill="none" stroke="#000000" d="M0 0V29.888"/>
<text xml:space="preserve" transform="matrix(1 0 -0 1 0 841.89)" font-size="9.9626" font-family="CMBX10" font-weight="bold"><tspan y="-277.5" x="78.376 84.10449 89.673587">1a.</tspan></text>
<text xml:space="preserve" transform="matrix(1 0 -0 1 0 841.89)" font-size="9.9626" font-family="CMR10"><tspan y="-277.5" x="98.651 102.2475 109.07188 117.829 122.8103 127.233699 132.7729 135.54251 139.96591 142.73552 150.93474 153.70435 161.40543 166.94463 172.48383 177.19612 181.89847 186.87976 189.64937 192.41898 197.40027 202.93947 205.70908 210.13248 216.78749 220.66295 226.20215 234.40137 237.16599 239.94057 244.36397 248.79734 256.4486 264.74748 269.72877 275.26799 280.24928 285.23057 289.65397 297.3351 300.1047">Ifavehicleisunavailable,thefleetmanageris</tspan><tspan y="-265.545" x="78.376 83.91521 88.89651 92.77196 95.54156 98.306179 101.080768 105.50416 111.043369">notified.</tspan></text>
<path transform="matrix(1,0,0,-1,310.191,581.725)" stroke-width=".398" stroke-linecap="butt" stroke-miterlimit="10" stroke-linejoin="miter" fill="none" stroke="#000000" d="M0 0V29.888"/>
<text xml:space="preserve" transform="matrix(1 0 -0 1 0 841.89)" font-size="9.9626" font-family="CMBX10" font-weight="bold"><tspan y="-277.5" x="316.368 322.0965 327.6656">1a.</tspan></text>
<text xml:space="preserve" transform="matrix(1 0 -0 1 0 841.89)" font-size="9.9626" font-family="CMR10"><tspan y="-277.5" x="335.075 340.61424 345.87449 349.79975 353.6752 358.0986 369.11726 374.09855 376.86814 381.29154 385.19688 389.07234 395.71739 399.59284 405.13206 412.2653 415.0299 417.8045 422.2279 426.6513 433.24656 441.5454 446.5267 452.06593 457.0472 462.0285 466.4519 473.07704 478.05833 483.82667 488.80796 493.23136 498.77058 501.54017 505.96357 508.73316 515.87637 519.80166 523.67709 528.6584 532.5338 538.073">Systemalertsthefleetmanagerofvehiclestatus</tspan><tspan y="-265.545" x="316.368 321.3493 326.88853 335.74528 340.4476 345.1599 350.1412 352.9108 355.6804 360.66169 366.2009 368.9705 371.74009 374.50968 378.10618 382.53953">andavailability.</tspan></text>
<path transform="matrix(1,0,0,-1,548.182,581.725)" stroke-width=".398" stroke-linecap="butt" stroke-miterlimit="10" stroke-linejoin="miter" fill="none" stroke="#000000" d="M0 0V29.888"/>
<path transform="matrix(1,0,0,-1,72,581.924)" stroke-width=".398" stroke-linecap="butt" stroke-miterlimit="10" stroke-linejoin="miter" fill="none" stroke="#000000" d="M0 0H476.381"/>
<path transform="matrix(1,0,0,-1,72,581.924)" stroke-width=".398" stroke-linecap="butt" stroke-miterlimit="10" stroke-linejoin="miter" fill="none" stroke="#000000" d="M0 0H476.381"/>
<path transform="matrix(1,0,0,-1,72.199,612.011)" stroke-width=".398" stroke-linecap="butt" stroke-miterlimit="10" stroke-linejoin="miter" fill="none" stroke="#000000" d="M0 0V29.888"/>
<text xml:space="preserve" transform="matrix(1 0 -0 1 0 841.89)" font-size="9.9626" font-family="CMBX10" font-weight="bold"><tspan y="-247.214" x="78.376 84.10449 89.673587">3a.</tspan></text>
<text xml:space="preserve" transform="matrix(1 0 -0 1 0 841.89)" font-size="9.9626" font-family="CMR10"><tspan y="-247.214" x="99.212 102.808498 109.82217 114.80347 124.30779 129.2891 133.21436 137.13962 139.90923 144.89052 150.42972 158.72856 163.15196 168.41222 176.25279 179.30135 184.28264 187.05225 189.82186 193.74712 200.64124 204.5167 210.04593 218.43445 221.19907 223.97365 228.39705 232.82045 240.66103 248.95987 253.94116 259.48039 264.46168 269.44297 273.86637 281.73683 284.5064 292.3968 295.16639 300.7056">Ifanassignmentfails,thefleetmanagerisin-</tspan><tspan y="-235.259" x="78.376 81.42455 86.40585 90.311199 98.61004 103.03343 108.57264">formed.</tspan></text>
<path transform="matrix(1,0,0,-1,310.191,612.011)" stroke-width=".398" stroke-linecap="butt" stroke-miterlimit="10" stroke-linejoin="miter" fill="none" stroke="#000000" d="M0 0V29.888"/>
<text xml:space="preserve" transform="matrix(1 0 -0 1 0 841.89)" font-size="9.9626" font-family="CMBX10" font-weight="bold"><tspan y="-247.214" x="316.368 322.0965 327.6656">3a.</tspan></text>
<text xml:space="preserve" transform="matrix(1 0 -0 1 0 841.89)" font-size="9.9626" font-family="CMR10"><tspan y="-247.214" x="336.057 341.59623 346.85649 350.78175 354.6572 359.0806 370.966 376.50523 381.4865 385.36198 388.13157 390.89619 393.66084 398.09419 405.596 409.47148 415.01069 423.02064 425.78526 428.55986 432.98326 437.40666 444.85868 453.15754 458.13883 463.67805 468.65934 473.64064 478.06404 485.5559 490.5372 497.16233 501.03779 506.577 514.5869 517.6355 522.6168 525.37649 528.14608 533.68527 537.5906">Systemnotifiesthefleetmanagerofthefailure</tspan><tspan y="-235.259" x="316.368 321.3493 326.88853 335.74528 339.67054 345.20976 350.19105 355.17234 359.59574 363.521 367.39646 374.64924 379.63053 382.40013 386.27558 390.69898 394.6043 400.14353 405.12483 409.00028 411.76988 416.75117 421.17457 425.09983">andsuggestsalternatives.</tspan></text>
<path transform="matrix(1,0,0,-1,548.182,612.011)" stroke-width=".398" stroke-linecap="butt" stroke-miterlimit="10" stroke-linejoin="miter" fill="none" stroke="#000000" d="M0 0V29.888"/>
<path transform="matrix(1,0,0,-1,72,612.211)" stroke-width=".398" stroke-linecap="butt" stroke-miterlimit="10" stroke-linejoin="miter" fill="none" stroke="#000000" d="M0 0H476.381"/>
<path transform="matrix(1,0,0,-1,72,612.211)" stroke-width=".398" stroke-linecap="butt" stroke-miterlimit="10" stroke-linejoin="miter" fill="none" stroke="#000000" d="M0 0H476.381"/>
<text xml:space="preserve" transform="matrix(1 0 -0 1 0 841.89)" font-size="9.9626" font-family="CMR10"><tspan y="-42.112" x="292.656 297.6373">10</tspan></text>
</svg>
