<svg xmlns="http://www.w3.org/2000/svg" xmlns:xlink="http://www.w3.org/1999/xlink" version="1.1" width="595.276" height="841.89" viewBox="0 0 595.276 841.89">
<text xml:space="preserve" transform="matrix(1 0 -0 1 0 841.89)" font-size="14.3462" font-family="CMBX12" font-weight="bold"><tspan y="-759.927" x="156.192 168.81665 176.21929 187.88275 196.40439 207.62313 225.41242 235.11045 243.18735 251.26425 255.75461 262.12434 268.40797 272.89833 280.0714 291.82096 307.12837 314.97575 323.9421 331.7895 339.8664 347.22599 360.6827 368.0423 376.5496 388.21305 397.1794 405.70106 412.07078 418.3544 425.714">HawkTULogisticsManagementSystem</tspan></text>
<text xml:space="preserve" transform="matrix(1 0 -0 1 0 841.89)" font-size="20.6625" font-family="CMBX12" font-weight="bold"><tspan y="-515.021" x="117.223 129.88912 142.80318 149.27054 155.7379 175.75988 193.57096 203.0757 213.67557 222.84972 232.02387 242.62374 263.28623 281.1593 290.33348 308.68177 325.48039 336.78279 345.95695 356.5568 373.4794 391.29048 403.564 413.89524 426.8093 446.19075 456.7906 469.06413">FullyDressedUseCasesDocument</tspan></text>
<text xml:space="preserve" transform="matrix(1 0 -0 1 0 841.89)" font-size="14.3462" font-family="CMBX12" font-weight="bold"><tspan y="-329.965" x="268.925 281.11927 290.08564 296.36927 305.33564 313.41255 320.01179">Authors</tspan></text>
<text xml:space="preserve" transform="matrix(1 0 -0 1 0 841.89)" font-size="11.9552" font-family="CMR12"><tspan y="-303.90299" x="111.65599 120.59848 126.45653 132.96016 136.21198 140.82668 151.2277 160.00283 165.86087 170.4158 176.59664 182.45468">DanishHaroon</tspan><tspan y="-277.775" x="101.36299 109.64795 115.506 120.38372 126.24177 131.44228 137.93396 148.34694 157.28943 162.48995 168.34799 173.54851 176.80033 182.65837 189.48479 194.6853">BackendDeveloper</tspan><tspan y="-303.97" x="280.081 288.8561 293.41105 299.5919 305.44996">Arqam</tspan><tspan y="-277.841" x="257.807 265.1236 270.3241 276.18217 286.5832 295.5257 300.7262 306.58427 311.78477 315.03657 320.89463 327.72105 332.92155">LeadDeveloper</tspan><tspan y="-303.903" x="407.552 415.02403 420.88209 427.3857 430.6375 435.25224 445.66523 454.44035 460.2984 470.05384 475.9119">TabishNoman</tspan><tspan y="-277.77503" x="394.578 401.23707 405.792 411.65007 417.8309 422.38584 427.58634 434.08998 444.491 453.43348 458.63398 464.49205 469.69255 472.94435 478.8024 485.6288 490.8293">FrontendDeveloper</tspan></text>
<text xml:space="preserve" transform="matrix(1 0 -0 1 0 841.89)" font-size="11.9552" font-family="CMBX12" font-weight="bold"><tspan y="-176.15203" x="159.60701 169.32659 176.05736 183.52936 189.02875 194.33686 200.46987">Course:</tspan></text>
<text xml:space="preserve" transform="matrix(1 0 -0 1 0 841.89)" font-size="11.9552" font-family="CMR12"><tspan y="-176.15203" x="209.391 217.84334 224.34697 230.20502 236.06307 241.92111 251.67656 258.18019 264.03825 267.61286 271.845 279.97456 285.8326 290.38755 299.48545 308.42793 313.62843 319.48649 324.68699 327.93879 333.79685 340.30049 350.0559 355.2564 361.4253 369.8896 375.74766 382.25129 392.6523 401.42744 407.93107 413.78913 417.04093 423.22178 427.8365 431.0883">CS3004SoftwareDevelopmentandAnalysis</tspan></text>
<text xml:space="preserve" transform="matrix(1 0 -0 1 0 841.89)" font-size="11.9552" font-family="CMBX12" font-weight="bold"><tspan y="-150.02303" x="218.416 223.42523 230.89723 236.20534 241.44171 246.9411 254.4131 260.3907 265.62709 272.35786 277.85725">Instructor:</tspan></text>
<text xml:space="preserve" transform="matrix(1 0 -0 1 0 841.89)" font-size="11.9552" font-family="CMR12"><tspan y="-150.02303" x="286.762 295.04695 300.905 305.5197 312.02336 317.8814 322.43635 328.2944 336.74674 345.52186 352.02549 356.6402 361.2549 367.11299 370.36479">BasharatHussain</tspan></text>
<text xml:space="preserve" transform="matrix(1 0 -0 1 0 841.89)" font-size="11.9552" font-family="CMTI12" font-style="italic"><tspan y="-95.91003" x="72.02899 80.39763 86.37523 89.96179 98.92819 104.90579 110.28563 115.66547 121.94195 131.5061 136.88594 143.4613 151.53107 156.31314 162.29074 168.8661 172.75154 178.72914 182.3157 188.89107 197.85747 203.83507 209.2149 213.10034 219.07794 222.6645 225.6533 230.43538 240.5973 246.5749 251.95475 256.73683 262.11668 267.05418 270.64073 276.61833 280.50376 284.0903 290.0679 296.64326 305.60966 311.58726 319.35813 325.6346 330.4167 339.98088 344.76298 350.74058 355.52265 360.9025 369.8689 373.45545 379.43305 388.55488 392.4403 398.4179 407.9821 416.67353 422.65113 430.422 435.80186 444.1705 457.04627 463.77708 469.15693 474.53678 478.12333 482.9054 486.79084 490.37739 495.75724 504.72364 510.70124 517.2766">ThisdocumentcontainsdetaileddescriptionsofusecasesfortheHawkTULogisticsand</tspan><tspan y="-83.955028" x="81.74799 90.57093 95.95077 98.93957 102.52613 107.90597 113.285808 118.223308 128.08635 138.57106 144.54866 151.12403 157.10163 162.48146 167.8613 177.42546 182.8053 189.38066 197.45043 204.02579 209.70452 214.48659 218.37203 223.75186 233.31603 242.28243 250.20873 256.18635 261.5662 271.72813 278.0046 282.78669 292.35087 297.13298 303.11058 307.89265 317.45683 323.43443 329.7109 333.59635 336.58515 340.1717 346.74705 352.1269 361.0933 364.97874 370.95634 380.5205 384.10707 390.6824 394.56785 399.9477 404.28746 410.26506 415.6449 419.53034 423.11689 429.09449 435.66984 444.63624 449.41835 454.7982 458.68363 466.4545 471.2366 476.61647 487.37614 493.65263 498.4347 503.81455 508.75205">DeliveryManagementSystem.Eachusecaseoutlinestheinteractionsbetweenusers</tspan><tspan y="-72.00002" x="95.81799 101.79559 108.37096 118.532878 122.41831 128.3959 137.96007 142.74214 148.42087 153.20294 157.08838 162.46822 172.03238 179.80327 185.1831 191.75847 196.54055 202.81702 207.75452 211.34108 217.91645 227.4806 232.86045 235.84925 241.82685 246.76435 250.3509 254.23635 264.0994 270.077 276.65235 286.81428 293.09077 299.6661 305.6437 311.02357 315.96107 320.74314 324.62858 330.60618 337.18153 343.15913 346.74568 353.321 362.8852 368.8628 376.63368 380.2202 386.4967 393.07206 398.4519 402.33735 405.9239 411.9015 418.47685 424.45445 431.62757 435.96733 440.74943 446.12928 452.40577 455.9923 460.33207 465.7119 475.27607 480.6559 487.23127 491.1167 495.89878">andthesystem,ensuringclarityandunderstandingoffunctionalrequirements.</tspan></text>
</svg>
