<svg xmlns="http://www.w3.org/2000/svg" xmlns:xlink="http://www.w3.org/1999/xlink" version="1.1" width="595.276" height="841.89" viewBox="0 0 595.276 841.89">
<rect x="0" y="0" width="595.276" height="841.89" fill="white" />
<text xml:space="preserve" transform="matrix(1 0 -0 1 0 841.89)" font-size="14.3462" font-family="CMBX12" font-weight="bold"><tspan y="-759.927" x="180.54 191.12749 198.97486 205.57411 219.9203 227.76767 236.73404 251.08023 263.1167 270.4763 279.44267 286.80226 294.16184 312.99839 322.6964 330.32859 338.4055 346.25288 350.74324 356.56779 370.46925 381.05674 389.13365 393.624 402.14564 408.42927">EarnandRedeemLoyaltyPoints</tspan></text>
<path transform="matrix(1,0,0,-1,72,106.77301)" stroke-width=".398" stroke-linecap="butt" stroke-miterlimit="10" stroke-linejoin="miter" fill="none" stroke="#000000" d="M0 0H476.381"/>
<path transform="matrix(1,0,0,-1,72,106.77301)" stroke-width=".398" stroke-linecap="butt" stroke-miterlimit="10" stroke-linejoin="miter" fill="none" stroke="#000000" d="M0 0H476.381"/>
<path transform="matrix(1,0,0,-1,72.199,124.90503)" stroke-width=".398" stroke-linecap="butt" stroke-miterlimit="10" stroke-linejoin="miter" fill="none" stroke="#000000" d="M0 0V17.933"/>
<text xml:space="preserve" transform="matrix(1 0 -0 1 0 841.89)" font-size="9.9626" font-family="CMBX10" font-weight="bold"><tspan y="-722.365" x="78.376 87.1929 91.71592 100.78188 109.06081 114.6299 119.152919 128.22885 137.19519 142.76428 152.30846">UseCaseName</tspan></text>
<path transform="matrix(1,0,0,-1,197.372,124.90503)" stroke-width=".398" stroke-linecap="butt" stroke-miterlimit="10" stroke-linejoin="miter" fill="none" stroke="#000000" d="M0 0V17.933"/>
<text xml:space="preserve" transform="matrix(1 0 -0 1 0 841.89)" font-size="9.9626" font-family="CMR10"><tspan y="-722.365" x="203.549 210.33353 215.31482 219.22016 228.0769 233.0582 238.5974 247.45415 254.78662 259.21998 264.74925 269.1826 273.606 285.22239 291.449 296.15135 301.13264 306.11393 308.8835 312.49 321.06779 327.57337 332.55467 335.32426 340.5845 344.45997">EarnandRedeemLoyaltyPoints</tspan></text>
<path transform="matrix(1,0,0,-1,548.182,124.90503)" stroke-width=".398" stroke-linecap="butt" stroke-miterlimit="10" stroke-linejoin="miter" fill="none" stroke="#000000" d="M0 0V17.933"/>
<path transform="matrix(1,0,0,-1,72,125.104007)" stroke-width=".398" stroke-linecap="butt" stroke-miterlimit="10" stroke-linejoin="miter" fill="none" stroke="#000000" d="M0 0H476.381"/>
<path transform="matrix(1,0,0,-1,72,125.104007)" stroke-width=".398" stroke-linecap="butt" stroke-miterlimit="10" stroke-linejoin="miter" fill="none" stroke="#000000" d="M0 0H476.381"/>
<path transform="matrix(1,0,0,-1,72.199,143.23603)" stroke-width=".398" stroke-linecap="butt" stroke-miterlimit="10" stroke-linejoin="miter" fill="none" stroke="#000000" d="M0 0V17.933"/>
<text xml:space="preserve" transform="matrix(1 0 -0 1 0 841.89)" font-size="9.9626" font-family="CMBX10" font-weight="bold"><tspan y="-704.034" x="78.376 84.7421 89.83299 95.561489 102.24639">Scope</tspan></text>
<path transform="matrix(1,0,0,-1,197.372,143.23603)" stroke-width=".398" stroke-linecap="butt" stroke-miterlimit="10" stroke-linejoin="miter" fill="none" stroke="#000000" d="M0 0V17.933"/>
<text xml:space="preserve" transform="matrix(1 0 -0 1 0 841.89)" font-size="9.9626" font-family="CMR10"><tspan y="-704.034" x="203.549 211.02095 215.7233 222.91629 228.17655 235.36954 246.169 252.39563 257.37693 262.35823 265.1278 269.05308 272.92854 275.69813 280.12153 287.36433 292.3456 297.88484 306.74159 314.353 318.7764 321.546 324.31559 329.29689 333.72029 337.6256 346.21339 355.3491 360.33039 365.8696 370.8509 375.83219 380.25559 388.55445 392.97785 398.2381 405.4311 410.9703 416.23057 420.15583 424.03129 428.45469">HawkTULogisticsandDeliveryManagementSystem</tspan></text>
<path transform="matrix(1,0,0,-1,548.182,143.23603)" stroke-width=".398" stroke-linecap="butt" stroke-miterlimit="10" stroke-linejoin="miter" fill="none" stroke="#000000" d="M0 0V17.933"/>
<path transform="matrix(1,0,0,-1,72,143.435)" stroke-width=".398" stroke-linecap="butt" stroke-miterlimit="10" stroke-linejoin="miter" fill="none" stroke="#000000" d="M0 0H476.381"/>
<path transform="matrix(1,0,0,-1,72,143.435)" stroke-width=".398" stroke-linecap="butt" stroke-miterlimit="10" stroke-linejoin="miter" fill="none" stroke="#000000" d="M0 0H476.381"/>
<path transform="matrix(1,0,0,-1,72.199,161.56702)" stroke-width=".398" stroke-linecap="butt" stroke-miterlimit="10" stroke-linejoin="miter" fill="none" stroke="#000000" d="M0 0V17.933"/>
<text xml:space="preserve" transform="matrix(1 0 -0 1 0 841.89)" font-size="9.9626" font-family="CMBX10" font-weight="bold"><tspan y="-685.703" x="78.376 85.27012 90.52041 96.2489 101.49919">Level</tspan></text>
<path transform="matrix(1,0,0,-1,197.372,161.56702)" stroke-width=".398" stroke-linecap="butt" stroke-miterlimit="10" stroke-linejoin="miter" fill="none" stroke="#000000" d="M0 0V17.933"/>
<text xml:space="preserve" transform="matrix(1 0 -0 1 0 841.89)" font-size="9.9626" font-family="CMR10"><tspan y="-685.703" x="203.549 211.02095 214.94622 219.36962 226.5925 234.41315 239.39444 244.37574">UserGoal</tspan></text>
<path transform="matrix(1,0,0,-1,548.182,161.56702)" stroke-width=".398" stroke-linecap="butt" stroke-miterlimit="10" stroke-linejoin="miter" fill="none" stroke="#000000" d="M0 0V17.933"/>
<path transform="matrix(1,0,0,-1,72,161.76599)" stroke-width=".398" stroke-linecap="butt" stroke-miterlimit="10" stroke-linejoin="miter" fill="none" stroke="#000000" d="M0 0H476.381"/>
<path transform="matrix(1,0,0,-1,72,161.76599)" stroke-width=".398" stroke-linecap="butt" stroke-miterlimit="10" stroke-linejoin="miter" fill="none" stroke="#000000" d="M0 0H476.381"/>
<path transform="matrix(1,0,0,-1,72.199,179.89801)" stroke-width=".398" stroke-linecap="butt" stroke-miterlimit="10" stroke-linejoin="miter" fill="none" stroke="#000000" d="M0 0V17.933"/>
<text xml:space="preserve" transform="matrix(1 0 -0 1 0 841.89)" font-size="9.9626" font-family="CMBX10" font-weight="bold"><tspan y="-667.372" x="78.376 86.206607 90.92888 94.10695 103.65112 109.220218 113.94249 123.81543 132.47293 137.56381 142.01709 147.74559">PrimaryActor</tspan></text>
<path transform="matrix(1,0,0,-1,197.372,179.89801)" stroke-width=".398" stroke-linecap="butt" stroke-miterlimit="10" stroke-linejoin="miter" fill="none" stroke="#000000" d="M0 0V17.933"/>
<text xml:space="preserve" transform="matrix(1 0 -0 1 0 841.89)" font-size="9.9626" font-family="CMR10"><tspan y="-667.372" x="203.549 210.74199 216.28119 220.20645 224.08191 229.0632 237.36205 241.78545">Customer</tspan></text>
<path transform="matrix(1,0,0,-1,548.182,179.89801)" stroke-width=".398" stroke-linecap="butt" stroke-miterlimit="10" stroke-linejoin="miter" fill="none" stroke="#000000" d="M0 0V17.933"/>
<path transform="matrix(1,0,0,-1,72,180.09803)" stroke-width=".398" stroke-linecap="butt" stroke-miterlimit="10" stroke-linejoin="miter" fill="none" stroke="#000000" d="M0 0H476.381"/>
<path transform="matrix(1,0,0,-1,72,180.09803)" stroke-width=".398" stroke-linecap="butt" stroke-miterlimit="10" stroke-linejoin="miter" fill="none" stroke="#000000" d="M0 0H476.381"/>
<path transform="matrix(1,0,0,-1,72.199,290.229)" stroke-width=".398" stroke-linecap="butt" stroke-miterlimit="10" stroke-linejoin="miter" fill="none" stroke="#000000" d="M0 0V109.932"/>
<text xml:space="preserve" transform="matrix(1 0 -0 1 0 841.89)" font-size="9.9626" font-family="CMBX10" font-weight="bold"><tspan y="-609.018" x="78.376 84.7421 89.19539 94.76448 100.49298 105.74327 112.109378 117.83787 121.01594 127.38204 132.63234 137.35462 145.69332 151.2624 157.62851">Stakeholdersand</tspan><tspan y="-597.063" x="78.376 82.719699 88.767 93.22028 98.47057 103.19285 108.44314 112.966159 117.41944">Interests</tspan></text>
<path transform="matrix(1,0,0,-1,197.372,290.229)" stroke-width=".398" stroke-linecap="butt" stroke-miterlimit="10" stroke-linejoin="miter" fill="none" stroke="#000000" d="M0 0V109.932"/>
<text xml:space="preserve" transform="matrix(1 0 -0 1 0 841.89)" font-size="4.9813" font-family="CMSY5" font-style="italic"><tspan y="-645.975" x="203.549">&#x2022;</tspan></text>
<text xml:space="preserve" transform="matrix(1 0 -0 1 0 841.89)" font-size="9.9626" font-family="CMR10"><tspan y="-644.712" x="212.19699 219.38999 224.92919 228.85445 232.7299 237.7112 246.01004 250.43344 254.33878 260.99378 270.40843 275.3897 280.64997 284.52543 290.6823 294.55778 301.7707 306.1941 311.17539 315.08073 322.85157 328.66975 333.65104 336.42063 341.68089 345.55635 351.72319 354.77174 358.67707 363.65837 374.18885 379.72807 385.26728 389.1726 393.31706 398.85627 403.83757 407.76283 412.18623 418.3431 423.3244 428.86363 436.6444 440.5398 444.97315 450.5024 454.93577 459.35917 469.88966 473.7651 479.30433 483.72773 494.2582 497.30677 502.28807 508.42503 512.3304 516.7538 523.6778 528.6591 532.56448 538.0937">Customer:Wantstoearnpointsfrompurchasesandredeemthemforrewards</tspan><tspan y="-632.75698" x="212.19699 217.17829 224.40117 229.94037 232.70998 236.63524 241.05864 246.03993 251.57913 256.8394 260.71485 267.96763 272.9489 281.80567 284.85423 290.39344 294.2689 299.8081 303.71345 311.45439 316.9936 322.5328 326.43815 330.59257 336.12184 341.10313 345.03834 349.46174 353.387">ordiscountsonfuturepurchases.</tspan></text>
<text xml:space="preserve" transform="matrix(1 0 -0 1 0 841.89)" font-size="4.9813" font-family="CMSY5" font-style="italic"><tspan y="-614.09396" x="203.549">&#x2022;</tspan></text>
<text xml:space="preserve" transform="matrix(1 0 -0 1 0 841.89)" font-size="9.9626" font-family="CMR10"><tspan y="-612.8319" x="212.19699 217.73619 222.15959 224.9292 227.6988 232.12221 236.02754 246.19936 252.97393 258.51313 262.93653 267.91783 273.45704 277.36238 282.34367 287.32496 291.74836 300.48558 304.90898 310.44819 314.37345 318.2489 323.2302 331.52906 335.95246 344.65977 347.42936 352.14167 357.12297 362.10426 364.87385 368.47035 378.53257 383.8028 393.86503 398.8463 401.7504 404.6545 409.0779 412.98326 415.75285 421.29206 431.07533 436.8935 441.8748 444.64439 449.90464 453.7801 462.5173 465.56587 470.54716 479.25447 484.79368 490.3329 494.23823 498.38267 503.92189 508.90318 512.8284 517.25186 525.9891 530.9704 536.5096">Seller:Encouragescustomerloyaltybyofferingpointsforpurchasesand</tspan><tspan y="-600.8759" x="212.19699 217.73619 221.64153 226.34387 231.60413 234.37374 239.91294 242.68254 248.22174 256.52058 259.29017 264.82939 269.25279 273.67619 278.9464 282.82188 285.59147 290.57276 294.99617 302.23896 306.1144 314.41325 318.31858 322.74198 328.2812 332.7046 337.13795 348.75434 352.6298 358.169 362.5924 370.89128">providingincentivestoredeemthem.</tspan></text>
<text xml:space="preserve" transform="matrix(1 0 -0 1 0 841.89)" font-size="4.9813" font-family="CMSY5" font-style="italic"><tspan y="-582.2139" x="203.549">&#x2022;</tspan></text>
<text xml:space="preserve" transform="matrix(1 0 -0 1 0 841.89)" font-size="9.9626" font-family="CMR10"><tspan y="-580.9509" x="212.19699 217.73619 222.99645 226.9217 230.79717 235.22057 246.30893 253.78089 259.3201 267.61897 270.38856 275.92778 278.69737 282.62263 286.49809 290.4034 295.3847 299.26017 304.24147 308.1468 315.08076 321.8653 327.4045 331.32978 336.869 340.77433 345.19773 351.9125 355.78797 361.31724 368.53016 373.51145 377.9448 382.3682 387.9074 391.8028 396.7841 401.21745 409.25727 414.23857 420.07664 425.8948 430.8761 433.6457 438.90596 442.7814 449.4962 453.37165 457.27699 462.25828 466.4027 471.66297 474.43257 479.97178 487.74259 492.72389 498.2631 506.59184 510.49717 514.92056 520.4597 524.8831 533.18197 538.7211">SystemAdministrator:Ensurestheaccuracyofpointstrackingandredemp-</tspan><tspan y="-568.9959" x="212.19699 216.07245 218.84206 223.82335 229.36255 235.4497 243.74855 248.72985 251.49945 256.7597 260.63517 265.61647 268.38606 273.92527 276.69486 282.23408 290.54289 296.0821 301.0634 304.93885 313.23768 316.00727 321.26753 325.14299 329.56639 334.54768 338.453 341.2226 344.8191 349.25245">tion,maintainingdataintegrity.</tspan></text>
<path transform="matrix(1,0,0,-1,548.182,290.229)" stroke-width=".398" stroke-linecap="butt" stroke-miterlimit="10" stroke-linejoin="miter" fill="none" stroke="#000000" d="M0 0V109.932"/>
<path transform="matrix(1,0,0,-1,72,290.42805)" stroke-width=".398" stroke-linecap="butt" stroke-miterlimit="10" stroke-linejoin="miter" fill="none" stroke="#000000" d="M0 0H476.381"/>
<path transform="matrix(1,0,0,-1,72,290.42805)" stroke-width=".398" stroke-linecap="butt" stroke-miterlimit="10" stroke-linejoin="miter" fill="none" stroke="#000000" d="M0 0H476.381"/>
<path transform="matrix(1,0,0,-1,72.199,344.769)" stroke-width=".398" stroke-linecap="butt" stroke-miterlimit="10" stroke-linejoin="miter" fill="none" stroke="#000000" d="M0 0V54.141"/>
<text xml:space="preserve" transform="matrix(1 0 -0 1 0 841.89)" font-size="9.9626" font-family="CMBX10" font-weight="bold"><tspan y="-520.605" x="78.376 86.206607 90.92888 96.17917 101.27006 106.99855 113.364658 119.73076 122.90883 127.362117 130.54018 136.26868 142.63478">Preconditions</tspan></text>
<path transform="matrix(1,0,0,-1,197.372,344.769)" stroke-width=".398" stroke-linecap="butt" stroke-miterlimit="10" stroke-linejoin="miter" fill="none" stroke="#000000" d="M0 0V54.141"/>
<text xml:space="preserve" transform="matrix(1 0 -0 1 0 841.89)" font-size="4.9813" font-family="CMSY5" font-style="italic"><tspan y="-535.644" x="203.549">&#x2022;</tspan></text>
<text xml:space="preserve" transform="matrix(1 0 -0 1 0 841.89)" font-size="9.9626" font-family="CMR10"><tspan y="-534.381" x="212.19699 219.38999 224.92919 232.67014 237.09354 242.63274 246.558 250.43346 255.41475 263.7136 268.137 275.36985 278.13945 285.38224 288.15184 293.13313 298.1144 303.0957 307.5191 316.37586 319.14546 324.41569 328.29115 336.58998 340.46543 346.00465 353.74559 357.67085 362.9311 366.85636 370.7318 375.1552 383.45408">Thecustomerisloggedintothesystem.</tspan></text>
<text xml:space="preserve" transform="matrix(1 0 -0 1 0 841.89)" font-size="4.9813" font-family="CMSY5" font-style="italic"><tspan y="-515.719" x="203.549">&#x2022;</tspan></text>
<text xml:space="preserve" transform="matrix(1 0 -0 1 0 841.89)" font-size="9.9626" font-family="CMR10"><tspan y="-514.456" x="212.19699 219.38999 224.92919 232.45096 236.87436 242.41356 246.33882 250.21428 255.19557 263.49443 267.91783 274.9315 280.4707 285.452 292.47563 300.77449 305.75578 311.29499 318.81675 323.79804 330.77186 333.54145 337.96485 342.94615 346.8714 353.8552 358.8365 364.3757 371.89747 376.32087 379.09046 381.86006 386.84135 389.61094 395.15016 397.91975 405.4415 410.9807 416.51994 420.42527 424.5697 430.10893 435.0902 439.01548 446.5472 450.42268 458.50233 462.92573 467.907 471.81236 480.44993 483.2195 487.92185 492.91313 497.8944 500.664 504.2605 512.61917 518.43728 523.4186 526.1882 531.4484 535.32388 539.24917">Thecustomerhasmadeatleastoneeligiblepurchasetoearnloyaltypoints.</tspan></text>
<path transform="matrix(1,0,0,-1,548.182,344.769)" stroke-width=".398" stroke-linecap="butt" stroke-miterlimit="10" stroke-linejoin="miter" fill="none" stroke="#000000" d="M0 0V54.141"/>
<path transform="matrix(1,0,0,-1,72,344.96803)" stroke-width=".398" stroke-linecap="butt" stroke-miterlimit="10" stroke-linejoin="miter" fill="none" stroke="#000000" d="M0 0H476.381"/>
<path transform="matrix(1,0,0,-1,72,344.96803)" stroke-width=".398" stroke-linecap="butt" stroke-miterlimit="10" stroke-linejoin="miter" fill="none" stroke="#000000" d="M0 0H476.381"/>
<path transform="matrix(1,0,0,-1,72.199,411.264)" stroke-width=".398" stroke-linecap="butt" stroke-miterlimit="10" stroke-linejoin="miter" fill="none" stroke="#000000" d="M0 0V66.097"/>
<text xml:space="preserve" transform="matrix(1 0 -0 1 0 841.89)" font-size="9.9626" font-family="CMBX10" font-weight="bold"><tspan y="-460.088" x="78.376 85.8878 91.616298 96.13931 100.5926 105.68349 111.41198 117.77808 124.14419 127.32226 131.77555 134.95362 140.68212 147.04822">Postconditions</tspan></text>
<path transform="matrix(1,0,0,-1,197.372,411.264)" stroke-width=".398" stroke-linecap="butt" stroke-miterlimit="10" stroke-linejoin="miter" fill="none" stroke="#000000" d="M0 0V66.097"/>
<text xml:space="preserve" transform="matrix(1 0 -0 1 0 841.89)" font-size="4.9813" font-family="CMSY5" font-style="italic"><tspan y="-481.104" x="203.549">&#x2022;</tspan></text>
<text xml:space="preserve" transform="matrix(1 0 -0 1 0 841.89)" font-size="9.9626" font-family="CMR10"><tspan y="-479.841" x="212.19699 218.42362 223.12596 228.10727 233.08856 235.85817 239.46463 248.04244 253.86058 258.8419 261.61149 266.87174 270.7472 277.99 282.97129 286.87663 294.62754 300.16676 305.97496 311.51417 316.49546 320.3709 324.7943 333.66105 336.43064 345.28739 349.16285 354.70207 362.443 366.8664 372.4056 376.33088 380.20634 385.18763 393.48649 397.90989 401.81523 404.5848 411.8376 416.81889 421.24229 425.66569 430.64698 436.1862 441.44645 448.63945 453.62074 456.66929 460.54475 464.96815 472.191 480.49983 486.03904 491.57826 495.48359 499.62803 505.16725 510.14854 514.0738 518.4972">Loyaltypointsareupdatedinthecustomer&#x2019;saccountafterapurchase.</tspan></text>
<text xml:space="preserve" transform="matrix(1 0 -0 1 0 841.89)" font-size="4.9813" font-family="CMSY5" font-style="italic"><tspan y="-461.17903" x="203.549">&#x2022;</tspan></text>
<text xml:space="preserve" transform="matrix(1 0 -0 1 0 841.89)" font-size="9.9626" font-family="CMR10"><tspan y="-459.91603" x="212.19699 218.70258 223.68387 226.45348 231.71373 235.58919 242.74234 247.72364 251.62897 259.28025 263.18559 267.60899 273.1482 277.5716 281.995 290.29386 294.71726 303.48435 306.5329 311.5142 318.6474 322.55274 326.97615 333.90016 338.88145 342.78678 348.326 355.47914 360.46043 367.58369 373.1229 375.8925 379.81776 384.2511 389.2324 394.76167 400.0319 403.90736 407.8326 413.85 418.8313 424.36058 433.12767 437.0031 442.54234 450.1936 454.617 460.15623 464.08149 467.95695 472.93824 481.2371 485.67045 489.56584 492.33543 499.48857 505.30674 510.28804 513.0576 518.3179 525.4212 530.9604 535.9417 538.7113">Pointsareredeemedforrewardsordiscounts,andthecustomer&#x2019;spointbal-</tspan><tspan y="-447.96104" x="212.19699 217.17829 222.71749 227.14089 234.88184 237.65145 244.90422 249.88552 255.42472 258.47328 264.01249 267.93775 271.8132 276.2366 281.77583">anceisadjusted.</tspan></text>
<path transform="matrix(1,0,0,-1,548.182,411.264)" stroke-width=".398" stroke-linecap="butt" stroke-miterlimit="10" stroke-linejoin="miter" fill="none" stroke="#000000" d="M0 0V66.097"/>
<path transform="matrix(1,0,0,-1,72,411.463)" stroke-width=".398" stroke-linecap="butt" stroke-miterlimit="10" stroke-linejoin="miter" fill="none" stroke="#000000" d="M0 0H476.381"/>
<path transform="matrix(1,0,0,-1,72,411.463)" stroke-width=".398" stroke-linecap="butt" stroke-miterlimit="10" stroke-linejoin="miter" fill="none" stroke="#000000" d="M0 0H476.381"/>
<path transform="matrix(1,0,0,-1,72,411.364)" stroke-width=".398" stroke-linecap="butt" stroke-miterlimit="10" stroke-linejoin="miter" fill="none" stroke="#000000" d="M0 0H476.381"/>
<path transform="matrix(1,0,0,-1,72,411.364)" stroke-width=".398" stroke-linecap="butt" stroke-miterlimit="10" stroke-linejoin="miter" fill="none" stroke="#000000" d="M0 0H476.381"/>
<path transform="matrix(1,0,0,-1,72.199,429.496)" stroke-width=".398" stroke-linecap="butt" stroke-miterlimit="10" stroke-linejoin="miter" fill="none" stroke="#000000" d="M0 0V17.933"/>
<text xml:space="preserve" transform="matrix(1 0 -0 1 0 841.89)" font-size="9.9626" font-family="CMBX10" font-weight="bold"><tspan y="-417.774" x="253.638 264.51716 270.08625 273.2643 283.44609 289.81217 296.17826 301.26914 306.36003 311.61033 316.13334 324.482 330.84809 335.93898 341.18928 347.55537 353.12446 357.8467 361.02479">MainSuccessScenario</tspan></text>
<path transform="matrix(1,0,0,-1,548.182,429.496)" stroke-width=".398" stroke-linecap="butt" stroke-miterlimit="10" stroke-linejoin="miter" fill="none" stroke="#000000" d="M0 0V17.933"/>
<path transform="matrix(1,0,0,-1,72,429.695)" stroke-width=".398" stroke-linecap="butt" stroke-miterlimit="10" stroke-linejoin="miter" fill="none" stroke="#000000" d="M0 0H476.381"/>
<path transform="matrix(1,0,0,-1,72,429.695)" stroke-width=".398" stroke-linecap="butt" stroke-miterlimit="10" stroke-linejoin="miter" fill="none" stroke="#000000" d="M0 0H476.381"/>
<path transform="matrix(1,0,0,-1,72.199,447.82704)" stroke-width=".398" stroke-linecap="butt" stroke-miterlimit="10" stroke-linejoin="miter" fill="none" stroke="#000000" d="M0 0V17.933"/>
<text xml:space="preserve" transform="matrix(1 0 -0 1 0 841.89)" font-size="9.9626" font-family="CMBX10" font-weight="bold"><tspan y="-399.443" x="121.779 130.4365 135.52738 139.98065 145.70915 154.2471 162.9046 167.99549 172.44876 175.62683 181.35533 191.54708 196.00035 201.72885 210.2668 214.61049 220.65779 225.11107 230.36136 236.40866 240.86194 244.04001 249.76851 256.1346">ActorAction(orIntention)</tspan></text>
<path transform="matrix(1,0,0,-1,310.191,447.82704)" stroke-width=".398" stroke-linecap="butt" stroke-miterlimit="10" stroke-linejoin="miter" fill="none" stroke="#000000" d="M0 0V17.933"/>
<text xml:space="preserve" transform="matrix(1 0 -0 1 0 841.89)" font-size="9.9626" font-family="CMBX10" font-weight="bold"><tspan y="-399.443" x="373.636 380.00209 386.04939 390.5724 395.02568 400.27598 413.6358 422.23353 427.48384 432.00685 438.69175 444.42024 450.78633 455.30934 458.4874 464.8535 468.03157 471.20964 474.3877 478.53215">SystemResponsibility</tspan></text>
<path transform="matrix(1,0,0,-1,548.182,447.82704)" stroke-width=".398" stroke-linecap="butt" stroke-miterlimit="10" stroke-linejoin="miter" fill="none" stroke="#000000" d="M0 0V17.933"/>
<path transform="matrix(1,0,0,-1,72,448.026)" stroke-width=".398" stroke-linecap="butt" stroke-miterlimit="10" stroke-linejoin="miter" fill="none" stroke="#000000" d="M0 0H476.381"/>
<path transform="matrix(1,0,0,-1,72,448.026)" stroke-width=".398" stroke-linecap="butt" stroke-miterlimit="10" stroke-linejoin="miter" fill="none" stroke="#000000" d="M0 0H476.381"/>
<path transform="matrix(1,0,0,-1,72.199,478.113)" stroke-width=".398" stroke-linecap="butt" stroke-miterlimit="10" stroke-linejoin="miter" fill="none" stroke="#000000" d="M0 0V29.888"/>
<text xml:space="preserve" transform="matrix(1 0 -0 1 0 841.89)" font-size="9.9626" font-family="CMR10"><tspan y="-375.134" x="78.376 83.3573 90.55029 97.74329 103.2825 107.20776 111.08321 116.064517 124.36336 128.79673 136.0196 140.44301 145.4243 153.72315 159.26235 162.03195 166.45536 170.33081 174.75421 181.99703 190.30583 195.84503 201.38423 205.28957 209.43402 214.97322 219.95452 223.87978 228.30318">1.Customercompletesapurchase.</tspan></text>
<path transform="matrix(1,0,0,-1,310.191,478.113)" stroke-width=".398" stroke-linecap="butt" stroke-miterlimit="10" stroke-linejoin="miter" fill="none" stroke="#000000" d="M0 0V29.888"/>
<text xml:space="preserve" transform="matrix(1 0 -0 1 0 841.89)" font-size="9.9626" font-family="CMR10"><tspan y="-381.112" x="316.368 321.3493 329.2596 334.79884 340.05909 343.98435 347.8598 352.2832 364.1387 368.5621 373.5434 376.313 380.7364 386.2756 389.0452 394.0265 397.90196 402.32536 409.80726 414.78855 420.32777 429.4236 434.4049 439.94413 445.48335 452.96525 455.73484 460.43717 465.41847 470.39976 473.16935 476.76585 485.58274 491.4009 496.3822 499.1518 504.41206 508.2875 515.7694 519.64486 528.19277 532.0682 537.5974">2.Systemcalculatesandaddsloyaltypointstothe</tspan><tspan y="-369.156" x="316.368 320.7914 326.33064 330.2559 334.13136 339.11265 347.4115 351.8349 355.74024 358.50984 365.75263 370.73393 375.15733 379.59068 384.57197 390.10124 395.37147 399.24693">customer&#x2019;saccount.</tspan></text>
<path transform="matrix(1,0,0,-1,548.182,478.113)" stroke-width=".398" stroke-linecap="butt" stroke-miterlimit="10" stroke-linejoin="miter" fill="none" stroke="#000000" d="M0 0V29.888"/>
<path transform="matrix(1,0,0,-1,72,478.31303)" stroke-width=".398" stroke-linecap="butt" stroke-miterlimit="10" stroke-linejoin="miter" fill="none" stroke="#000000" d="M0 0H476.381"/>
<path transform="matrix(1,0,0,-1,72,478.31303)" stroke-width=".398" stroke-linecap="butt" stroke-miterlimit="10" stroke-linejoin="miter" fill="none" stroke="#000000" d="M0 0H476.381"/>
<path transform="matrix(1,0,0,-1,72.199,508.40003)" stroke-width=".398" stroke-linecap="butt" stroke-miterlimit="10" stroke-linejoin="miter" fill="none" stroke="#000000" d="M0 0V29.888"/>
<text xml:space="preserve" transform="matrix(1 0 -0 1 0 841.89)" font-size="9.9626" font-family="CMR10"><tspan y="-344.848" x="78.376 83.3573 90.55029 97.74329 103.2825 107.20776 111.08321 116.064517 124.36336 128.79673 136.0196 141.27986 144.04947 148.47287 155.66587 162.90868 166.78414 172.32334 176.74674 179.51634 186.74919 189.5188 194.22115 199.20246 204.18375 206.95336 210.54987 219.12767 224.94582 229.92711 232.69672 237.95697 241.83243 249.0852 254.6244 259.6057 262.3753 267.3566 272.8958 277.3192 281.7426">3.Customerviewstheirloyaltypointsbalance.</tspan></text>
<path transform="matrix(1,0,0,-1,310.191,508.40003)" stroke-width=".398" stroke-linecap="butt" stroke-miterlimit="10" stroke-linejoin="miter" fill="none" stroke="#000000" d="M0 0V29.888"/>
<text xml:space="preserve" transform="matrix(1 0 -0 1 0 841.89)" font-size="9.9626" font-family="CMR10"><tspan y="-350.825" x="316.368 321.3493 332.92585 338.46507 343.7253 347.65058 351.52604 355.94944 369.0204 374.5596 377.3292 381.25447 386.79368 389.56327 394.27558 399.53584 408.2332 412.10865 417.64787 426.8533 431.2767 436.81593 440.72126 444.6266 449.05 454.31025 462.96775 468.50697 473.48826 476.25785 481.23915 486.77836 491.20176 500.4072 505.3885 513.2191 517.6425 522.62387 526.5292 532.06838 536.49179">4.Systemdisplaysthecurrentbalanceofearned</tspan><tspan y="-338.87004" x="316.368 322.1862 327.16749 329.93708 335.19734 339.07279 342.99806">points.</tspan></text>
<path transform="matrix(1,0,0,-1,548.182,508.40003)" stroke-width=".398" stroke-linecap="butt" stroke-miterlimit="10" stroke-linejoin="miter" fill="none" stroke="#000000" d="M0 0V29.888"/>
<path transform="matrix(1,0,0,-1,72,508.59904)" stroke-width=".398" stroke-linecap="butt" stroke-miterlimit="10" stroke-linejoin="miter" fill="none" stroke="#000000" d="M0 0H476.381"/>
<path transform="matrix(1,0,0,-1,72,508.59904)" stroke-width=".398" stroke-linecap="butt" stroke-miterlimit="10" stroke-linejoin="miter" fill="none" stroke="#000000" d="M0 0H476.381"/>
<path transform="matrix(1,0,0,-1,72.199,538.68606)" stroke-width=".398" stroke-linecap="butt" stroke-miterlimit="10" stroke-linejoin="miter" fill="none" stroke="#000000" d="M0 0V29.888"/>
<text xml:space="preserve" transform="matrix(1 0 -0 1 0 841.89)" font-size="9.9626" font-family="CMR10"><tspan y="-320.539" x="78.376 83.3573 91.38715 98.580158 104.11936 108.044628 111.920078 116.901378 125.20022 129.62361 137.12545 141.27985 146.81905 152.06934 157.05063 160.97589 165.40926 172.93102 176.80648 185.38426 189.2896 193.713 199.2522 203.6756 208.099 219.99434 225.81249 230.79378 233.56339 238.82364 242.6991 250.22086 253.26941 258.2507 265.7625 274.3403 278.24565 282.66905 289.58308 294.56437 298.4697">5.Customerchoosestoredeempointsforareward</tspan><tspan y="-308.584" x="78.376 83.3573 90.580188 96.11939 98.88899 102.814258 107.23765 112.21895 117.758159 123.01841 126.89386">ordiscount.</tspan></text>
<path transform="matrix(1,0,0,-1,310.191,538.68606)" stroke-width=".398" stroke-linecap="butt" stroke-miterlimit="10" stroke-linejoin="miter" fill="none" stroke="#000000" d="M0 0V29.888"/>
<text xml:space="preserve" transform="matrix(1 0 -0 1 0 841.89)" font-size="9.9626" font-family="CMR10"><tspan y="-320.539" x="316.368 321.3493 334.9283 340.46754 345.72779 349.65306 353.5285 357.9519 371.71028 376.41264 381.39393 384.1635 386.9331 392.47233 397.4536 401.32908 405.75248 415.1273 419.00276 424.54197 434.41493 438.32026 442.74366 448.28288 452.70628 461.00514 466.54435 470.4198 473.1894 478.1707 489.15946 493.0648 497.4882 502.74845 508.28767 512.71109 516.63638 525.9613 530.9426 536.4818">6.Systemvalidatestheredemptionrequestand</tspan><tspan y="-308.584" x="316.368 321.90724 326.33064 331.86985 337.40907 341.83247 345.70793 352.9507 356.82618 362.3654 370.1163 375.0976 380.6368 386.17604 390.08137 395.06266 400.59193 404.49726 407.26686 412.24815 416.1236 423.8745 429.13478 434.67399 442.69389 448.51206 452.93547 460.15834 465.13963 471.5157 477.32389 482.30519 485.07478 490.33503 494.21049 498.1457">deductstheappropriatenumberofpoints.</tspan></text>
<path transform="matrix(1,0,0,-1,548.182,538.68606)" stroke-width=".398" stroke-linecap="butt" stroke-miterlimit="10" stroke-linejoin="miter" fill="none" stroke="#000000" d="M0 0V29.888"/>
<path transform="matrix(1,0,0,-1,72,538.886)" stroke-width=".398" stroke-linecap="butt" stroke-miterlimit="10" stroke-linejoin="miter" fill="none" stroke="#000000" d="M0 0H476.381"/>
<path transform="matrix(1,0,0,-1,72,538.886)" stroke-width=".398" stroke-linecap="butt" stroke-miterlimit="10" stroke-linejoin="miter" fill="none" stroke="#000000" d="M0 0H476.381"/>
<path transform="matrix(1,0,0,-1,72.199,557.018)" stroke-width=".398" stroke-linecap="butt" stroke-miterlimit="10" stroke-linejoin="miter" fill="none" stroke="#000000" d="M0 0V17.933"/>
<text xml:space="preserve" transform="matrix(1 0 -0 1 0 841.89)" font-size="9.9626" font-family="CMBX10" font-weight="bold"><tspan y="-290.252" x="283.211 290.74275 296.79005 301.24333 306.49363 312.8597 317.38273 320.5608 326.28929 332.65538">Extensions</tspan></text>
<path transform="matrix(1,0,0,-1,548.182,557.018)" stroke-width=".398" stroke-linecap="butt" stroke-miterlimit="10" stroke-linejoin="miter" fill="none" stroke="#000000" d="M0 0V17.933"/>
<path transform="matrix(1,0,0,-1,72,557.21707)" stroke-width=".398" stroke-linecap="butt" stroke-miterlimit="10" stroke-linejoin="miter" fill="none" stroke="#000000" d="M0 0H476.381"/>
<path transform="matrix(1,0,0,-1,72,557.21707)" stroke-width=".398" stroke-linecap="butt" stroke-miterlimit="10" stroke-linejoin="miter" fill="none" stroke="#000000" d="M0 0H476.381"/>
<path transform="matrix(1,0,0,-1,72.199,575.349)" stroke-width=".398" stroke-linecap="butt" stroke-miterlimit="10" stroke-linejoin="miter" fill="none" stroke="#000000" d="M0 0V17.933"/>
<text xml:space="preserve" transform="matrix(1 0 -0 1 0 841.89)" font-size="9.9626" font-family="CMBX10" font-weight="bold"><tspan y="-271.921" x="121.779 130.4365 135.52738 139.98065 145.70915 154.2471 162.9046 167.99549 172.44876 175.62683 181.35533 191.54708 196.00035 201.72885 210.2668 214.61049 220.65779 225.11107 230.36136 236.40866 240.86194 244.04001 249.76851 256.1346">ActorAction(orIntention)</tspan></text>
<path transform="matrix(1,0,0,-1,310.191,575.349)" stroke-width=".398" stroke-linecap="butt" stroke-miterlimit="10" stroke-linejoin="miter" fill="none" stroke="#000000" d="M0 0V17.933"/>
<text xml:space="preserve" transform="matrix(1 0 -0 1 0 841.89)" font-size="9.9626" font-family="CMBX10" font-weight="bold"><tspan y="-271.921" x="373.636 380.00209 386.04939 390.5724 395.02568 400.27598 413.6358 422.23353 427.48384 432.00685 438.69175 444.42024 450.78633 455.30934 458.4874 464.8535 468.03157 471.20964 474.3877 478.53215">SystemResponsibility</tspan></text>
<path transform="matrix(1,0,0,-1,548.182,575.349)" stroke-width=".398" stroke-linecap="butt" stroke-miterlimit="10" stroke-linejoin="miter" fill="none" stroke="#000000" d="M0 0V17.933"/>
<path transform="matrix(1,0,0,-1,72,575.548)" stroke-width=".398" stroke-linecap="butt" stroke-miterlimit="10" stroke-linejoin="miter" fill="none" stroke="#000000" d="M0 0H476.381"/>
<path transform="matrix(1,0,0,-1,72,575.548)" stroke-width=".398" stroke-linecap="butt" stroke-miterlimit="10" stroke-linejoin="miter" fill="none" stroke="#000000" d="M0 0H476.381"/>
<path transform="matrix(1,0,0,-1,72.199,605.635)" stroke-width=".398" stroke-linecap="butt" stroke-miterlimit="10" stroke-linejoin="miter" fill="none" stroke="#000000" d="M0 0V29.888"/>
<text xml:space="preserve" transform="matrix(1 0 -0 1 0 841.89)" font-size="9.9626" font-family="CMBX10" font-weight="bold"><tspan y="-253.59" x="78.376 84.10449 89.673587">3a.</tspan></text>
<text xml:space="preserve" transform="matrix(1 0 -0 1 0 841.89)" font-size="9.9626" font-family="CMR10"><tspan y="-253.59" x="101.138 104.7345 112.38577 116.26122 121.80043 126.22382 130.12917 139.15529 141.9249 150.46285 155.44414 165.58606 170.00946 173.9148 177.82013 182.80142 191.30948 194.07909 204.22101 208.64441 213.6257 216.39531 220.81871 226.35791 229.12752 234.10881 237.98427 240.75388 246.29308 255.88706 261.69526 266.67655 269.44615 274.71638 278.59184 282.5171 290.20823 294.08369 299.6229">Ifthereisanerrorincalculatingpoints,the</tspan><tspan y="-241.635" x="78.376 82.79939 88.3386 92.26386 96.13931 101.12061 109.41946 113.84285 121.065738 125.48913 130.47043 135.74063 139.61609 144.59738 149.02079 152.89624 160.13906 164.06432 169.60352 175.14272 180.96086 185.94216 189.84749 193.72295">customercontactssupport.</tspan></text>
<path transform="matrix(1,0,0,-1,310.191,605.635)" stroke-width=".398" stroke-linecap="butt" stroke-miterlimit="10" stroke-linejoin="miter" fill="none" stroke="#000000" d="M0 0V29.888"/>
<text xml:space="preserve" transform="matrix(1 0 -0 1 0 841.89)" font-size="9.9626" font-family="CMBX10" font-weight="bold"><tspan y="-253.59" x="316.368 322.0965 327.6656">3a.</tspan></text>
<text xml:space="preserve" transform="matrix(1 0 -0 1 0 841.89)" font-size="9.9626" font-family="CMR10"><tspan y="-253.59" x="337.66 343.19923 348.45948 352.38475 356.2602 360.6836 373.09703 375.8666 380.8479 385.8292 393.86903 397.74449 403.2837 411.82167 416.24507 420.1504 424.05574 429.03703 437.05693 442.0382 447.57743 457.2312 462.77043 467.7517 471.62718 474.39677 477.16139 479.93598 484.35939 492.40916 496.3344 501.87364 507.41285 513.221 518.20236 522.10769 530.09768 533.14627 538.12759">Systemlogstheerrorandnotifiessupportfor</tspan><tspan y="-241.635" x="316.368 320.7914 325.7727 329.67805 333.58338 338.00679 342.43019 346.30564 349.07524 354.05653 359.59574">correction.</tspan></text>
<path transform="matrix(1,0,0,-1,548.182,605.635)" stroke-width=".398" stroke-linecap="butt" stroke-miterlimit="10" stroke-linejoin="miter" fill="none" stroke="#000000" d="M0 0V29.888"/>
<path transform="matrix(1,0,0,-1,72,605.834)" stroke-width=".398" stroke-linecap="butt" stroke-miterlimit="10" stroke-linejoin="miter" fill="none" stroke="#000000" d="M0 0H476.381"/>
<path transform="matrix(1,0,0,-1,72,605.834)" stroke-width=".398" stroke-linecap="butt" stroke-miterlimit="10" stroke-linejoin="miter" fill="none" stroke="#000000" d="M0 0H476.381"/>
<path transform="matrix(1,0,0,-1,72.199,635.922)" stroke-width=".398" stroke-linecap="butt" stroke-miterlimit="10" stroke-linejoin="miter" fill="none" stroke="#000000" d="M0 0V29.888"/>
<text xml:space="preserve" transform="matrix(1 0 -0 1 0 841.89)" font-size="9.9626" font-family="CMBX10" font-weight="bold"><tspan y="-223.303" x="78.376 84.10449 89.673587">5a.</tspan></text>
<text xml:space="preserve" transform="matrix(1 0 -0 1 0 841.89)" font-size="9.9626" font-family="CMR10"><tspan y="-223.303" x="97.019 100.61549 106.184589 110.060039 115.59924 122.55314 126.97653 132.51573 136.441 140.31645 145.29775 153.59659 158.01999 164.44586 168.32132 172.22666 174.99626 179.41967 185.87543 189.75089 197.25272 201.15805 205.58145 211.12065 215.54405 219.96746 230.78684 239.09564 244.07694 247.98227 254.92621 260.7444 265.72569 268.49528 273.75553 277.63099 284.07679 287.95225 293.49147 298.47276">Ifthecustomertriestoredeemmorepointsthan</tspan><tspan y="-211.34799" x="78.376 83.07835 87.79066 92.77196 95.54156 98.31116 103.29246 108.831668 111.601268 116.02466 122.1118 125.98725 131.52646 135.94986 144.52767 148.95107 154.21132 158.08678 162.51018 169.74303 178.04187 182.75418 187.73548 190.50508 193.27469 202.13144 207.11273 215.41158 220.39287 225.93207 231.19232 235.06778">available,theyenteravalidamount.</tspan></text>
<path transform="matrix(1,0,0,-1,310.191,635.922)" stroke-width=".398" stroke-linecap="butt" stroke-miterlimit="10" stroke-linejoin="miter" fill="none" stroke="#000000" d="M0 0V29.888"/>
<text xml:space="preserve" transform="matrix(1 0 -0 1 0 841.89)" font-size="9.9626" font-family="CMBX10" font-weight="bold"><tspan y="-223.303" x="316.368 322.0965 327.6656">5a.</tspan></text>
<text xml:space="preserve" transform="matrix(1 0 -0 1 0 841.89)" font-size="9.9626" font-family="CMR10"><tspan y="-223.303" x="337.195 342.73423 347.99449 351.91975 355.7952 360.2186 372.48258 378.0218 381.92713 386.90843 395.20729 400.7465 404.62196 412.50236 416.3778 421.91703 430.30555 434.72895 440.26817 444.19343 448.06889 453.05018 461.34904 465.77244 473.6329 477.50837 486.45478 490.87818 496.13844 500.0139 504.4373 512.30776 521.2442 525.95657 530.93789 533.70748 536.47708">Systempromptsthecustomertoenteravalid</tspan><tspan y="-211.34799" x="316.368 320.27336 324.69676 330.23597 334.65937 342.95823 348.49745 352.3729 355.1425 360.12379 368.98054 373.96183 382.26069 387.24198 392.7812 398.04145 401.9169">redemptionamount.</tspan></text>
<path transform="matrix(1,0,0,-1,548.182,635.922)" stroke-width=".398" stroke-linecap="butt" stroke-miterlimit="10" stroke-linejoin="miter" fill="none" stroke="#000000" d="M0 0V29.888"/>
<path transform="matrix(1,0,0,-1,72,636.12106)" stroke-width=".398" stroke-linecap="butt" stroke-miterlimit="10" stroke-linejoin="miter" fill="none" stroke="#000000" d="M0 0H476.381"/>
<path transform="matrix(1,0,0,-1,72,636.12106)" stroke-width=".398" stroke-linecap="butt" stroke-miterlimit="10" stroke-linejoin="miter" fill="none" stroke="#000000" d="M0 0H476.381"/>
<path transform="matrix(1,0,0,-1,72.199,666.208)" stroke-width=".398" stroke-linecap="butt" stroke-miterlimit="10" stroke-linejoin="miter" fill="none" stroke="#000000" d="M0 0V29.888"/>
<text xml:space="preserve" transform="matrix(1 0 -0 1 0 841.89)" font-size="9.9626" font-family="CMBX10" font-weight="bold"><tspan y="-193.017" x="78.376 84.10449 89.673587">6a.</tspan></text>
<text xml:space="preserve" transform="matrix(1 0 -0 1 0 841.89)" font-size="9.9626" font-family="CMR10"><tspan y="-193.017" x="101.458 109.06943 111.83903 115.76429 120.18768 125.16898 130.70819 135.96845 144.55622 152.02817 157.56737 163.10657 165.87618 168.64579 173.06919 178.05048 181.92594 184.69554 189.67684 199.92835 205.60704 210.58834 213.35794 216.12755 224.76512 229.74642 235.28562 245.53713 252.73012 258.26933 262.19459 266.07005 271.05134 279.3502 283.7736 292.39125 296.29658 300.71998">DiscountApplicationFailsandCustomerre-</tspan><tspan y="-181.062" x="78.376 82.25145 86.15679 88.92639 93.349788 97.27505">tries.</tspan></text>
<path transform="matrix(1,0,0,-1,310.191,666.208)" stroke-width=".398" stroke-linecap="butt" stroke-miterlimit="10" stroke-linejoin="miter" fill="none" stroke="#000000" d="M0 0V29.888"/>
<text xml:space="preserve" transform="matrix(1 0 -0 1 0 841.89)" font-size="9.9626" font-family="CMBX10" font-weight="bold"><tspan y="-193.017" x="316.368 322.0965 327.6656">6a.</tspan></text>
<text xml:space="preserve" transform="matrix(1 0 -0 1 0 841.89)" font-size="9.9626" font-family="CMR10"><tspan y="-193.017" x="336.04103 341.58024 346.84049 350.76576 354.6412 359.0646 370.94004 376.47926 381.46055 385.336 388.1056 390.8702 393.6448 398.0682 405.57005 409.4455 414.9847 422.98469 427.40809 432.9473 436.87257 440.74803 445.7293 454.02818 458.45158 465.93348 470.91477 477.5399 481.41535 486.95457 494.95454 498.00309 502.98439 505.75398 508.52357 514.06277 517.9681 525.9681 530.9494 536.47866">Systemnotifiesthecustomerofthefailureand</tspan><tspan y="-181.062" x="316.368 321.3493 326.88853 332.14878 334.91838 338.84364 343.26704 350.50984 354.41517 358.83857 362.71403 366.61936 371.8796 374.6492 380.18843 385.1697">advisesretrying.</tspan></text>
<path transform="matrix(1,0,0,-1,548.182,666.208)" stroke-width=".398" stroke-linecap="butt" stroke-miterlimit="10" stroke-linejoin="miter" fill="none" stroke="#000000" d="M0 0V29.888"/>
<path transform="matrix(1,0,0,-1,72,666.407)" stroke-width=".398" stroke-linecap="butt" stroke-miterlimit="10" stroke-linejoin="miter" fill="none" stroke="#000000" d="M0 0H476.381"/>
<path transform="matrix(1,0,0,-1,72,666.407)" stroke-width=".398" stroke-linecap="butt" stroke-miterlimit="10" stroke-linejoin="miter" fill="none" stroke="#000000" d="M0 0H476.381"/>
<text xml:space="preserve" transform="matrix(1 0 -0 1 0 841.89)" font-size="9.9626" font-family="CMR10"><tspan y="-42.112" x="295.147">3</tspan></text>
</svg>
