<svg xmlns="http://www.w3.org/2000/svg" xmlns:xlink="http://www.w3.org/1999/xlink" version="1.1" width="595.276" height="841.89" viewBox="0 0 595.276 841.89">
<text xml:space="preserve" transform="matrix(1 0 -0 1 0 841.89)" font-size="14.3462" font-family="CMBX12" font-weight="bold"><tspan y="-759.927" x="210.01 222.41947 231.83057 240.79694 248.6443 254.92794 267.66737 278.6996 285.29884 293.82048 302.78684 311.7532 318.9263 330.58976 340.28779 344.77815 351.14787 357.4315 361.92185 370.8882 378.96513">UpdateProductListings</tspan></text>
<path transform="matrix(1,0,0,-1,72,106.77301)" stroke-width=".398" stroke-linecap="butt" stroke-miterlimit="10" stroke-linejoin="miter" fill="none" stroke="#000000" d="M0 0H476.381"/>
<path transform="matrix(1,0,0,-1,72,106.77301)" stroke-width=".398" stroke-linecap="butt" stroke-miterlimit="10" stroke-linejoin="miter" fill="none" stroke="#000000" d="M0 0H476.381"/>
<path transform="matrix(1,0,0,-1,72.199,124.90503)" stroke-width=".398" stroke-linecap="butt" stroke-miterlimit="10" stroke-linejoin="miter" fill="none" stroke="#000000" d="M0 0V17.933"/>
<text xml:space="preserve" transform="matrix(1 0 -0 1 0 841.89)" font-size="9.9626" font-family="CMBX10" font-weight="bold"><tspan y="-722.365" x="78.376 87.1929 91.71592 100.78188 109.06081 114.6299 119.152919 128.22885 137.19519 142.76428 152.30846">UseCaseName</tspan></text>
<path transform="matrix(1,0,0,-1,197.372,124.90503)" stroke-width=".398" stroke-linecap="butt" stroke-miterlimit="10" stroke-linejoin="miter" fill="none" stroke="#000000" d="M0 0V17.933"/>
<text xml:space="preserve" transform="matrix(1 0 -0 1 0 841.89)" font-size="9.9626" font-family="CMR10"><tspan y="-722.365" x="203.549 211.02095 216.8391 222.3783 227.35959 231.23505 238.976 245.76053 249.66587 254.9261 260.4653 266.00453 270.42793 277.6209 283.84754 286.61714 290.5424 294.41786 297.18745 302.72666 307.70796">UpdateProductListings</tspan></text>
<path transform="matrix(1,0,0,-1,548.182,124.90503)" stroke-width=".398" stroke-linecap="butt" stroke-miterlimit="10" stroke-linejoin="miter" fill="none" stroke="#000000" d="M0 0V17.933"/>
<path transform="matrix(1,0,0,-1,72,125.104007)" stroke-width=".398" stroke-linecap="butt" stroke-miterlimit="10" stroke-linejoin="miter" fill="none" stroke="#000000" d="M0 0H476.381"/>
<path transform="matrix(1,0,0,-1,72,125.104007)" stroke-width=".398" stroke-linecap="butt" stroke-miterlimit="10" stroke-linejoin="miter" fill="none" stroke="#000000" d="M0 0H476.381"/>
<path transform="matrix(1,0,0,-1,72.199,143.23603)" stroke-width=".398" stroke-linecap="butt" stroke-miterlimit="10" stroke-linejoin="miter" fill="none" stroke="#000000" d="M0 0V17.933"/>
<text xml:space="preserve" transform="matrix(1 0 -0 1 0 841.89)" font-size="9.9626" font-family="CMBX10" font-weight="bold"><tspan y="-704.034" x="78.376 84.7421 89.83299 95.561489 102.24639">Scope</tspan></text>
<path transform="matrix(1,0,0,-1,197.372,143.23603)" stroke-width=".398" stroke-linecap="butt" stroke-miterlimit="10" stroke-linejoin="miter" fill="none" stroke="#000000" d="M0 0V17.933"/>
<text xml:space="preserve" transform="matrix(1 0 -0 1 0 841.89)" font-size="9.9626" font-family="CMR10"><tspan y="-704.034" x="203.549 211.02095 215.7233 222.91629 228.17655 235.36954 246.169 252.39563 257.37693 262.35823 265.1278 269.05308 272.92854 275.69813 280.12153 287.36433 292.3456 297.88484 306.74159 314.353 318.7764 321.546 324.31559 329.29689 333.72029 337.6256 346.21339 355.3491 360.33039 365.8696 370.8509 375.83219 380.25559 388.55445 392.97785 398.2381 405.4311 410.9703 416.23057 420.15583 424.03129 428.45469">HawkTULogisticsandDeliveryManagementSystem</tspan></text>
<path transform="matrix(1,0,0,-1,548.182,143.23603)" stroke-width=".398" stroke-linecap="butt" stroke-miterlimit="10" stroke-linejoin="miter" fill="none" stroke="#000000" d="M0 0V17.933"/>
<path transform="matrix(1,0,0,-1,72,143.435)" stroke-width=".398" stroke-linecap="butt" stroke-miterlimit="10" stroke-linejoin="miter" fill="none" stroke="#000000" d="M0 0H476.381"/>
<path transform="matrix(1,0,0,-1,72,143.435)" stroke-width=".398" stroke-linecap="butt" stroke-miterlimit="10" stroke-linejoin="miter" fill="none" stroke="#000000" d="M0 0H476.381"/>
<path transform="matrix(1,0,0,-1,72.199,161.56702)" stroke-width=".398" stroke-linecap="butt" stroke-miterlimit="10" stroke-linejoin="miter" fill="none" stroke="#000000" d="M0 0V17.933"/>
<text xml:space="preserve" transform="matrix(1 0 -0 1 0 841.89)" font-size="9.9626" font-family="CMBX10" font-weight="bold"><tspan y="-685.703" x="78.376 85.27012 90.52041 96.2489 101.49919">Level</tspan></text>
<path transform="matrix(1,0,0,-1,197.372,161.56702)" stroke-width=".398" stroke-linecap="butt" stroke-miterlimit="10" stroke-linejoin="miter" fill="none" stroke="#000000" d="M0 0V17.933"/>
<text xml:space="preserve" transform="matrix(1 0 -0 1 0 841.89)" font-size="9.9626" font-family="CMR10"><tspan y="-685.703" x="203.549 211.02095 214.94622 219.36962 226.5925 234.41315 239.39444 244.37574">UserGoal</tspan></text>
<path transform="matrix(1,0,0,-1,548.182,161.56702)" stroke-width=".398" stroke-linecap="butt" stroke-miterlimit="10" stroke-linejoin="miter" fill="none" stroke="#000000" d="M0 0V17.933"/>
<path transform="matrix(1,0,0,-1,72,161.76599)" stroke-width=".398" stroke-linecap="butt" stroke-miterlimit="10" stroke-linejoin="miter" fill="none" stroke="#000000" d="M0 0H476.381"/>
<path transform="matrix(1,0,0,-1,72,161.76599)" stroke-width=".398" stroke-linecap="butt" stroke-miterlimit="10" stroke-linejoin="miter" fill="none" stroke="#000000" d="M0 0H476.381"/>
<path transform="matrix(1,0,0,-1,72.199,179.89801)" stroke-width=".398" stroke-linecap="butt" stroke-miterlimit="10" stroke-linejoin="miter" fill="none" stroke="#000000" d="M0 0V17.933"/>
<text xml:space="preserve" transform="matrix(1 0 -0 1 0 841.89)" font-size="9.9626" font-family="CMBX10" font-weight="bold"><tspan y="-667.372" x="78.376 86.206607 90.92888 94.10695 103.65112 109.220218 113.94249 123.81543 132.47293 137.56381 142.01709 147.74559">PrimaryActor</tspan></text>
<path transform="matrix(1,0,0,-1,197.372,179.89801)" stroke-width=".398" stroke-linecap="butt" stroke-miterlimit="10" stroke-linejoin="miter" fill="none" stroke="#000000" d="M0 0V17.933"/>
<text xml:space="preserve" transform="matrix(1 0 -0 1 0 841.89)" font-size="9.9626" font-family="CMR10"><tspan y="-667.372" x="203.549 209.0882 213.5116 216.2812 219.05081 223.47422">Seller</tspan></text>
<path transform="matrix(1,0,0,-1,548.182,179.89801)" stroke-width=".398" stroke-linecap="butt" stroke-miterlimit="10" stroke-linejoin="miter" fill="none" stroke="#000000" d="M0 0V17.933"/>
<path transform="matrix(1,0,0,-1,72,180.09803)" stroke-width=".398" stroke-linecap="butt" stroke-miterlimit="10" stroke-linejoin="miter" fill="none" stroke="#000000" d="M0 0H476.381"/>
<path transform="matrix(1,0,0,-1,72,180.09803)" stroke-width=".398" stroke-linecap="butt" stroke-miterlimit="10" stroke-linejoin="miter" fill="none" stroke="#000000" d="M0 0H476.381"/>
<path transform="matrix(1,0,0,-1,72.199,278.274)" stroke-width=".398" stroke-linecap="butt" stroke-miterlimit="10" stroke-linejoin="miter" fill="none" stroke="#000000" d="M0 0V97.977"/>
<text xml:space="preserve" transform="matrix(1 0 -0 1 0 841.89)" font-size="9.9626" font-family="CMBX10" font-weight="bold"><tspan y="-614.996" x="78.376 84.7421 89.19539 94.76448 100.49298 105.74327 112.109378 117.83787 121.01594 127.38204 132.63234 137.35462 145.69332 151.2624 157.62851">Stakeholdersand</tspan><tspan y="-603.04098" x="78.376 82.719699 88.767 93.22028 98.47057 103.19285 108.44314 112.966159 117.41944">Interests</tspan></text>
<path transform="matrix(1,0,0,-1,197.372,278.274)" stroke-width=".398" stroke-linecap="butt" stroke-miterlimit="10" stroke-linejoin="miter" fill="none" stroke="#000000" d="M0 0V97.977"/>
<text xml:space="preserve" transform="matrix(1 0 -0 1 0 841.89)" font-size="4.9813" font-family="CMSY5" font-style="italic"><tspan y="-645.975" x="203.549">&#x2022;</tspan></text>
<text xml:space="preserve" transform="matrix(1 0 -0 1 0 841.89)" font-size="9.9626" font-family="CMR10"><tspan y="-644.712" x="212.19699 217.73619 222.15959 224.9292 227.6988 232.12221 236.02754 243.24047 252.65512 257.6364 262.89668 266.77214 274.0249 277.90037 286.20918 290.64253 295.6238 299.54908 302.31867 305.08827 313.67604 321.97489 326.95619 332.4954 337.47669 342.45799 350.2089 354.08436 359.62358 364.04698 366.81657 374.0494 379.58863 383.49397 388.7542 394.29344 399.83265 404.25605 411.459 414.2286 416.9982 420.92347 424.79893 427.5685 433.10774 438.08903 442.01429 448.1114 453.10264 458.6319 464.1711 466.9407 472.47993 480.79869 486.3379 490.7613 501.2818 506.821 510.72636 515.9866 521.52578 527.055 531.48837 535.3638 539.28909">Seller:Wantstoeasilymanagetheirproductlistings,addingnewproducts,</tspan><tspan y="-632.75698" x="212.19699 217.73619 223.55434 229.09354 234.07483 237.95029 240.7199 246.2591 254.55794 260.09715 264.00248 266.77207 271.19548 275.61888 279.54414 285.63127 290.61256 296.15177 305.0185 308.91389 313.34724 321.6461 326.34843 331.60868 334.37828 339.91749 348.2163 353.1976 358.73683 362.61228 368.1515 373.13279 377.00825 381.43165 390.2884 395.26969 402.50254 408.04176 413.58097 418.2833 422.98567 427.96696 430.73655 433.50614 438.48744 444.02665 446.79624 454.53718 457.30677 461.18223 465.60563 473.91444 477.8397">updatingprices,andremovingoutdatedorunavailableitems.</tspan></text>
<text xml:space="preserve" transform="matrix(1 0 -0 1 0 841.89)" font-size="4.9813" font-family="CMSY5" font-style="italic"><tspan y="-614.09396" x="203.549">&#x2022;</tspan></text>
<text xml:space="preserve" transform="matrix(1 0 -0 1 0 841.89)" font-size="9.9626" font-family="CMR10"><tspan y="-612.8319" x="212.19699 219.38999 224.92919 228.85445 232.7299 237.7112 246.01004 250.43344 254.33878 260.99378 267.77833 273.03858 278.85676 283.28016 287.70356 291.579 297.7359 301.61137 307.15058 313.8056 318.229 323.2103 327.08576 332.06706 334.83665 339.81794 344.79924 350.33845 356.99348 360.86894 368.08186 373.90003 380.55506 386.09428 391.63349 394.95103 398.82649 403.80778 407.1253 412.66453 417.6458 421.52128 428.1763 435.3693 438.1389 442.01435 449.7852 454.76649 459.18989 463.61329 469.1525 473.05784 478.03913 481.91459 488.5696 491.3392 496.87843 499.92698 504.90827 508.8136 517.1124 522.09378 525.9692 528.7388 533.7201 539.2593">Customer:Expectsthecataloguetobeup-to-datewithaccurateinformation.</tspan></text>
<text xml:space="preserve" transform="matrix(1 0 -0 1 0 841.89)" font-size="4.9813" font-family="CMSY5" font-style="italic"><tspan y="-594.1689" x="203.549">&#x2022;</tspan></text>
<text xml:space="preserve" transform="matrix(1 0 -0 1 0 841.89)" font-size="9.9626" font-family="CMR10"><tspan y="-592.9059" x="212.19699 217.73619 222.99645 226.9217 230.79717 235.22057 246.00009 253.47205 259.01127 267.31013 270.0797 275.61894 278.38853 282.31379 286.18925 290.09458 295.07588 298.95133 303.93263 307.83796 314.61253 321.39707 326.93629 330.86155 336.40077 340.3061 344.7295 351.13545 356.67466 361.65596 365.5314 372.99339 375.76298 381.02323 384.89869 389.32209 394.30339 398.2087 400.9783 404.5748 412.31575 417.29704 422.83625 430.85615 436.39537 440.3007 444.7241 449.70539 454.12879 459.38905 463.2645 469.67045 474.09385 477.99919 481.9045 486.8858 490.79115 497.19709 499.96669 507.98658 513.52578 517.4311 522.69137 528.2305 533.7697 538.1931">SystemAdministrator:Ensuresdataintegrityandpreventserrorsinproduct</tspan><tspan y="-580.95089" x="212.19699 214.9666 217.7362 221.66147 225.53693 228.30654 233.84574 238.82703 242.75229">listings.</tspan></text>
<path transform="matrix(1,0,0,-1,548.182,278.274)" stroke-width=".398" stroke-linecap="butt" stroke-miterlimit="10" stroke-linejoin="miter" fill="none" stroke="#000000" d="M0 0V97.977"/>
<path transform="matrix(1,0,0,-1,72,278.47303)" stroke-width=".398" stroke-linecap="butt" stroke-miterlimit="10" stroke-linejoin="miter" fill="none" stroke="#000000" d="M0 0H476.381"/>
<path transform="matrix(1,0,0,-1,72,278.47303)" stroke-width=".398" stroke-linecap="butt" stroke-miterlimit="10" stroke-linejoin="miter" fill="none" stroke="#000000" d="M0 0H476.381"/>
<path transform="matrix(1,0,0,-1,72.199,332.81404)" stroke-width=".398" stroke-linecap="butt" stroke-miterlimit="10" stroke-linejoin="miter" fill="none" stroke="#000000" d="M0 0V54.141"/>
<text xml:space="preserve" transform="matrix(1 0 -0 1 0 841.89)" font-size="9.9626" font-family="CMBX10" font-weight="bold"><tspan y="-532.56" x="78.376 86.206607 90.92888 96.17917 101.27006 106.99855 113.364658 119.73076 122.90883 127.362117 130.54018 136.26868 142.63478">Preconditions</tspan></text>
<path transform="matrix(1,0,0,-1,197.372,332.81404)" stroke-width=".398" stroke-linecap="butt" stroke-miterlimit="10" stroke-linejoin="miter" fill="none" stroke="#000000" d="M0 0V54.141"/>
<text xml:space="preserve" transform="matrix(1 0 -0 1 0 841.89)" font-size="4.9813" font-family="CMSY5" font-style="italic"><tspan y="-547.599" x="203.549">&#x2022;</tspan></text>
<text xml:space="preserve" transform="matrix(1 0 -0 1 0 841.89)" font-size="9.9626" font-family="CMR10"><tspan y="-546.336" x="212.19699 219.38999 224.92919 232.67014 236.5954 241.0188 243.7884 246.55802 250.98142 258.21427 260.98387 268.22666 270.99626 275.97755 280.95884 285.94013 290.36354 299.22029 301.98988 307.2601 311.13557 319.4344 323.30986 328.84907 336.59 340.51527 345.7755 349.70079 353.57624 357.99964 366.2985">Thesellerisloggedintothesystem.</tspan></text>
<text xml:space="preserve" transform="matrix(1 0 -0 1 0 841.89)" font-size="4.9813" font-family="CMSY5" font-style="italic"><tspan y="-527.674" x="203.549">&#x2022;</tspan></text>
<text xml:space="preserve" transform="matrix(1 0 -0 1 0 841.89)" font-size="9.9626" font-family="CMR10"><tspan y="-526.411" x="212.19699 219.38999 224.92919 232.67014 236.5954 241.0188 243.7884 246.55802 250.98142 258.21427 263.75349 268.73478 275.97758 280.95887 285.38227 289.80567 294.22908 298.15434 305.4071 309.28257 317.5814 321.45686 326.99607 334.737 340.2762 344.18156 349.4418 354.98103 360.52024 364.94364 372.13664 380.4355 385.41679 390.956 395.9373 400.91859 405.34199 413.64085 418.06425 423.33448 430.52748 433.29707 438.5573 442.43278 446.85618 450.7615 453.81007 458.79136 463.21476 467.63816">Thesellerhasaccesstotheproductmanagementinterface.</tspan></text>
<path transform="matrix(1,0,0,-1,548.182,332.81404)" stroke-width=".398" stroke-linecap="butt" stroke-miterlimit="10" stroke-linejoin="miter" fill="none" stroke="#000000" d="M0 0V54.141"/>
<path transform="matrix(1,0,0,-1,72,333.013)" stroke-width=".398" stroke-linecap="butt" stroke-miterlimit="10" stroke-linejoin="miter" fill="none" stroke="#000000" d="M0 0H476.381"/>
<path transform="matrix(1,0,0,-1,72,333.013)" stroke-width=".398" stroke-linecap="butt" stroke-miterlimit="10" stroke-linejoin="miter" fill="none" stroke="#000000" d="M0 0H476.381"/>
<path transform="matrix(1,0,0,-1,72.199,387.354)" stroke-width=".398" stroke-linecap="butt" stroke-miterlimit="10" stroke-linejoin="miter" fill="none" stroke="#000000" d="M0 0V54.141"/>
<text xml:space="preserve" transform="matrix(1 0 -0 1 0 841.89)" font-size="9.9626" font-family="CMBX10" font-weight="bold"><tspan y="-478.02" x="78.376 85.8878 91.616298 96.13931 100.5926 105.68349 111.41198 117.77808 124.14419 127.32226 131.77555 134.95362 140.68212 147.04822">Postconditions</tspan></text>
<path transform="matrix(1,0,0,-1,197.372,387.354)" stroke-width=".398" stroke-linecap="butt" stroke-miterlimit="10" stroke-linejoin="miter" fill="none" stroke="#000000" d="M0 0V54.141"/>
<text xml:space="preserve" transform="matrix(1 0 -0 1 0 841.89)" font-size="4.9813" font-family="CMSY5" font-style="italic"><tspan y="-493.059" x="203.549">&#x2022;</tspan></text>
<text xml:space="preserve" transform="matrix(1 0 -0 1 0 841.89)" font-size="9.9626" font-family="CMR10"><tspan y="-491.796" x="212.19699 219.38999 224.92919 232.67014 238.20934 242.11467 247.37491 252.91411 258.4533 262.8767 270.0697 272.8393 275.6089 279.53416 283.4096 286.1792 291.7184 296.6997 303.95249 308.93379 312.8391 320.58006 326.11927 331.93745 337.47666 342.45796 346.3334 350.7568 359.61357 366.80656 369.57615 373.4516 382.30836 387.84757 392.27098 399.46397 405.56108 413.85993 419.1102 424.6494 427.419 430.18363 432.95823 437.38163 442.92085 449.01795 453.99925 461.2221 465.12745 469.55085 477.8497 482.55204 487.53334 491.96669 500.82344 503.59303 507.46849 511.89189 520.19076 524.116">Theproductlistingsareupdatedwithnew,modified,orremoveditems.</tspan></text>
<text xml:space="preserve" transform="matrix(1 0 -0 1 0 841.89)" font-size="4.9813" font-family="CMSY5" font-style="italic"><tspan y="-473.134" x="203.549">&#x2022;</tspan></text>
<text xml:space="preserve" transform="matrix(1 0 -0 1 0 841.89)" font-size="9.9626" font-family="CMR10"><tspan y="-471.871" x="212.19699 219.38999 224.92919 229.91048 235.44968 240.43097 244.85437 252.09719 257.0785 260.98384 268.73475 272.66 277.36235 282.34364 286.76704 295.63377 299.55903 303.98243 308.40583 313.94505 317.85038 322.27378 325.04338 333.62117 336.39076 345.2475 349.12297 354.66218 362.4131 367.94236 372.92366 376.7991 381.7804 387.3196 392.3009 396.22618 403.97709 408.95838 414.4976 423.35435 427.25968 431.68309 434.4477 437.2223 441.6457 446.0691 449.94456 454.36796 463.23469 466.00428 474.86103 478.73649 484.2757 492.01664 495.9419 501.20216 505.1274 509.00288 513.4263 521.7251">Changesaresavedsecurelyinthedatabaseandreflectedinthesystem.</tspan></text>
<path transform="matrix(1,0,0,-1,548.182,387.354)" stroke-width=".398" stroke-linecap="butt" stroke-miterlimit="10" stroke-linejoin="miter" fill="none" stroke="#000000" d="M0 0V54.141"/>
<path transform="matrix(1,0,0,-1,72,387.553)" stroke-width=".398" stroke-linecap="butt" stroke-miterlimit="10" stroke-linejoin="miter" fill="none" stroke="#000000" d="M0 0H476.381"/>
<path transform="matrix(1,0,0,-1,72,387.553)" stroke-width=".398" stroke-linecap="butt" stroke-miterlimit="10" stroke-linejoin="miter" fill="none" stroke="#000000" d="M0 0H476.381"/>
<path transform="matrix(1,0,0,-1,72,387.453)" stroke-width=".398" stroke-linecap="butt" stroke-miterlimit="10" stroke-linejoin="miter" fill="none" stroke="#000000" d="M0 0H476.381"/>
<path transform="matrix(1,0,0,-1,72,387.453)" stroke-width=".398" stroke-linecap="butt" stroke-miterlimit="10" stroke-linejoin="miter" fill="none" stroke="#000000" d="M0 0H476.381"/>
<path transform="matrix(1,0,0,-1,72.199,405.58503)" stroke-width=".398" stroke-linecap="butt" stroke-miterlimit="10" stroke-linejoin="miter" fill="none" stroke="#000000" d="M0 0V17.933"/>
<text xml:space="preserve" transform="matrix(1 0 -0 1 0 841.89)" font-size="9.9626" font-family="CMBX10" font-weight="bold"><tspan y="-441.684" x="253.638 264.51716 270.08625 273.2643 283.44609 289.81217 296.17826 301.26914 306.36003 311.61033 316.13334 324.482 330.84809 335.93898 341.18928 347.55537 353.12446 357.8467 361.02479">MainSuccessScenario</tspan></text>
<path transform="matrix(1,0,0,-1,548.182,405.58503)" stroke-width=".398" stroke-linecap="butt" stroke-miterlimit="10" stroke-linejoin="miter" fill="none" stroke="#000000" d="M0 0V17.933"/>
<path transform="matrix(1,0,0,-1,72,405.785)" stroke-width=".398" stroke-linecap="butt" stroke-miterlimit="10" stroke-linejoin="miter" fill="none" stroke="#000000" d="M0 0H476.381"/>
<path transform="matrix(1,0,0,-1,72,405.785)" stroke-width=".398" stroke-linecap="butt" stroke-miterlimit="10" stroke-linejoin="miter" fill="none" stroke="#000000" d="M0 0H476.381"/>
<path transform="matrix(1,0,0,-1,72.199,423.91703)" stroke-width=".398" stroke-linecap="butt" stroke-miterlimit="10" stroke-linejoin="miter" fill="none" stroke="#000000" d="M0 0V17.933"/>
<text xml:space="preserve" transform="matrix(1 0 -0 1 0 841.89)" font-size="9.9626" font-family="CMBX10" font-weight="bold"><tspan y="-423.353" x="121.779 130.4365 135.52738 139.98065 145.70915 154.2471 162.9046 167.99549 172.44876 175.62683 181.35533 191.54708 196.00035 201.72885 210.2668 214.61049 220.65779 225.11107 230.36136 236.40866 240.86194 244.04001 249.76851 256.1346">ActorAction(orIntention)</tspan></text>
<path transform="matrix(1,0,0,-1,310.191,423.91703)" stroke-width=".398" stroke-linecap="butt" stroke-miterlimit="10" stroke-linejoin="miter" fill="none" stroke="#000000" d="M0 0V17.933"/>
<text xml:space="preserve" transform="matrix(1 0 -0 1 0 841.89)" font-size="9.9626" font-family="CMBX10" font-weight="bold"><tspan y="-423.353" x="373.636 380.00209 386.04939 390.5724 395.02568 400.27598 413.6358 422.23353 427.48384 432.00685 438.69175 444.42024 450.78633 455.30934 458.4874 464.8535 468.03157 471.20964 474.3877 478.53215">SystemResponsibility</tspan></text>
<path transform="matrix(1,0,0,-1,548.182,423.91703)" stroke-width=".398" stroke-linecap="butt" stroke-miterlimit="10" stroke-linejoin="miter" fill="none" stroke="#000000" d="M0 0V17.933"/>
<path transform="matrix(1,0,0,-1,72,424.11604)" stroke-width=".398" stroke-linecap="butt" stroke-miterlimit="10" stroke-linejoin="miter" fill="none" stroke="#000000" d="M0 0H476.381"/>
<path transform="matrix(1,0,0,-1,72,424.11604)" stroke-width=".398" stroke-linecap="butt" stroke-miterlimit="10" stroke-linejoin="miter" fill="none" stroke="#000000" d="M0 0H476.381"/>
<path transform="matrix(1,0,0,-1,72.199,454.203)" stroke-width=".398" stroke-linecap="butt" stroke-miterlimit="10" stroke-linejoin="miter" fill="none" stroke="#000000" d="M0 0V29.888"/>
<text xml:space="preserve" transform="matrix(1 0 -0 1 0 841.89)" font-size="9.9626" font-family="CMR10"><tspan y="-405.022" x="78.376 83.3573 90.98865 96.527858 100.95125 103.72085 106.49045 110.91384 118.28617 123.82538 128.52773 133.78798 136.55759 141.53888 146.52017 150.39563 154.81903 162.21128 166.08673 174.535 178.41046 183.94966 191.84004 197.37924 201.28458 206.54482 212.08402 217.62322 222.04662 229.38906 237.6879 242.66919 248.20839 253.18968 258.171 262.5944 270.89326 275.31666 280.5769 287.91935 291.8446 296.268 300.6914">1.Sellernavigatestotheproductmanagementsec-</tspan><tspan y="-393.06703" x="78.376 82.25145 85.02105 90.00235 95.54156">tion.</tspan></text>
<path transform="matrix(1,0,0,-1,310.191,454.203)" stroke-width=".398" stroke-linecap="butt" stroke-miterlimit="10" stroke-linejoin="miter" fill="none" stroke="#000000" d="M0 0V29.888"/>
<text xml:space="preserve" transform="matrix(1 0 -0 1 0 841.89)" font-size="9.9626" font-family="CMR10"><tspan y="-405.022" x="316.368 321.3493 328.34306 333.88227 339.14253 343.06779 346.94325 351.36665 362.38529 367.9245 370.6941 374.61936 380.15858 382.92817 387.6305 392.89076 399.52586 403.4013 408.94053 416.0837 421.62294 425.52827 430.7885 436.32774 441.86695 446.29035 452.87565 455.64524 458.41484 462.3401 466.21556 468.98515 474.52436 479.50566 486.1507 488.9203 494.18055 498.056 502.4794 506.38475 509.4333 514.4146 518.838 525.9812 530.9625 536.49179">2.Systemdisplaystheproductlistingsinterfaceand</tspan><tspan y="-393.06703" x="316.368 321.90724 325.81257 330.79386 339.0927 344.63194 348.5074 355.75019 358.79875 363.78004 371.01289 376.54216 380.47737 384.90077 392.12364 397.10493 401.52833 405.40379 408.17338 413.15467">promptsforuseraction</tspan></text>
<path transform="matrix(1,0,0,-1,548.182,454.203)" stroke-width=".398" stroke-linecap="butt" stroke-miterlimit="10" stroke-linejoin="miter" fill="none" stroke="#000000" d="M0 0V29.888"/>
<path transform="matrix(1,0,0,-1,72,454.402)" stroke-width=".398" stroke-linecap="butt" stroke-miterlimit="10" stroke-linejoin="miter" fill="none" stroke="#000000" d="M0 0H476.381"/>
<path transform="matrix(1,0,0,-1,72,454.402)" stroke-width=".398" stroke-linecap="butt" stroke-miterlimit="10" stroke-linejoin="miter" fill="none" stroke="#000000" d="M0 0H476.381"/>
<path transform="matrix(1,0,0,-1,72.199,484.49003)" stroke-width=".398" stroke-linecap="butt" stroke-miterlimit="10" stroke-linejoin="miter" fill="none" stroke="#000000" d="M0 0V29.888"/>
<text xml:space="preserve" transform="matrix(1 0 -0 1 0 841.89)" font-size="9.9626" font-family="CMR10"><tspan y="-374.735" x="78.376 83.3573 90.19164 95.73085 100.15424 102.92384 105.69344 110.11684 116.27373 120.41817 125.957378 131.21762 136.19892 140.12418 144.54758 150.71443 156.25363 160.67704 164.6023 167.3719 171.27724 175.70064 183.49138 188.47267 194.01187 197.88733 200.65694 205.63823 211.17743 218.01178 221.88724 226.86853 232.40773 237.94693 243.1773 248.7165 253.13991 255.90952 260.33293 264.20838 268.63179 273.86213 282.16099 287.42124 292.96046 295.73005 298.7786">3.Sellerchoosesdesiredoption.(add,delete,modify</tspan><tspan y="-362.78" x="78.376 81.1456 83.9152 87.84046 91.71591 94.48551 100.02472 105.00602">listing)</tspan></text>
<path transform="matrix(1,0,0,-1,310.191,484.49003)" stroke-width=".398" stroke-linecap="butt" stroke-miterlimit="10" stroke-linejoin="miter" fill="none" stroke="#000000" d="M0 0V29.888"/>
<text xml:space="preserve" transform="matrix(1 0 -0 1 0 841.89)" font-size="9.9626" font-family="CMR10"><tspan y="-374.735" x="316.368 321.3493 328.4327 333.97193 339.23219 343.15745 347.0329 351.4563 362.73399 368.2732 372.17854 377.15983 385.45869 390.9979 394.87336 401.78739 404.83595 409.81724 416.7014 422.2406 426.14595 431.4062 436.9454 442.48463 446.90803 453.7623 459.3015 463.7249 467.60038 472.58168 475.35127 478.12086 485.02494 490.00624 495.54545 504.06349 508.7758 513.7571 516.5267 519.29629 524.83547 529.8168 533.6922 538.1156">4.Systempromptsforproductdetailsandvalidates</tspan><tspan y="-362.78" x="316.368 319.1376 324.67683 330.21604 335.75526 339.6307">input.</tspan></text>
<path transform="matrix(1,0,0,-1,548.182,484.49003)" stroke-width=".398" stroke-linecap="butt" stroke-miterlimit="10" stroke-linejoin="miter" fill="none" stroke="#000000" d="M0 0V29.888"/>
<path transform="matrix(1,0,0,-1,72,484.68904)" stroke-width=".398" stroke-linecap="butt" stroke-miterlimit="10" stroke-linejoin="miter" fill="none" stroke="#000000" d="M0 0H476.381"/>
<path transform="matrix(1,0,0,-1,72,484.68904)" stroke-width=".398" stroke-linecap="butt" stroke-miterlimit="10" stroke-linejoin="miter" fill="none" stroke="#000000" d="M0 0H476.381"/>
<path transform="matrix(1,0,0,-1,72.199,514.776)" stroke-width=".398" stroke-linecap="butt" stroke-miterlimit="10" stroke-linejoin="miter" fill="none" stroke="#000000" d="M0 0V29.888"/>
<text xml:space="preserve" transform="matrix(1 0 -0 1 0 841.89)" font-size="9.9626" font-family="CMR10"><tspan y="-338.471" x="78.376 83.3573 90.55029 96.0895 100.51289 103.28249 106.05209 110.47549 117.708339 122.13173 127.39198 131.26744 135.69084 139.59618 146.83899 150.74433 155.16773 157.93733 162.36074 167.07305 172.05434 177.31459 184.5076 187.2772 192.8164 195.86496 200.84626 204.75159 213.05043 218.03173 221.90718 224.67679 229.65808 235.19728">5.Sellerentersrelevantinformation.</tspan></text>
<path transform="matrix(1,0,0,-1,310.191,514.776)" stroke-width=".398" stroke-linecap="butt" stroke-miterlimit="10" stroke-linejoin="miter" fill="none" stroke="#000000" d="M0 0V29.888"/>
<text xml:space="preserve" transform="matrix(1 0 -0 1 0 841.89)" font-size="9.9626" font-family="CMR10"><tspan y="-344.449" x="316.368 321.3493 333.3044 338.84364 344.10389 348.02915 351.9046 356.328 369.52848 374.50978 380.04899 383.92445 389.46366 393.88706 399.1573 403.03276 405.80235 410.22575 415.20704 419.0825 423.5059 432.33277 436.20823 441.74745 451.0824 453.852 459.3912 462.43977 467.42106 471.3264 479.62525 484.60655 488.482 491.2516 496.23289 506.6737 511.655 517.1942 527.635 533.1742 538.7134">6.Systemauthenticatestheinformationandup-</tspan><tspan y="-332.49403" x="316.368 321.90724 326.88853 330.76399 335.18739 342.43019 346.30564 351.84486 359.59577 364.01918 369.00047 372.87593 377.8572 380.6268 385.6081 390.5894 396.1286 400.552">datesthecatalogue.</tspan></text>
<path transform="matrix(1,0,0,-1,548.182,514.776)" stroke-width=".398" stroke-linecap="butt" stroke-miterlimit="10" stroke-linejoin="miter" fill="none" stroke="#000000" d="M0 0V29.888"/>
<path transform="matrix(1,0,0,-1,72,514.975)" stroke-width=".398" stroke-linecap="butt" stroke-miterlimit="10" stroke-linejoin="miter" fill="none" stroke="#000000" d="M0 0H476.381"/>
<path transform="matrix(1,0,0,-1,72,514.975)" stroke-width=".398" stroke-linecap="butt" stroke-miterlimit="10" stroke-linejoin="miter" fill="none" stroke="#000000" d="M0 0H476.381"/>
<path transform="matrix(1,0,0,-1,72.199,533.10708)" stroke-width=".398" stroke-linecap="butt" stroke-miterlimit="10" stroke-linejoin="miter" fill="none" stroke="#000000" d="M0 0V17.933"/>
<text xml:space="preserve" transform="matrix(1 0 -0 1 0 841.89)" font-size="9.9626" font-family="CMBX10" font-weight="bold"><tspan y="-314.163" x="283.211 290.74275 296.79005 301.24333 306.49363 312.8597 317.38273 320.5608 326.28929 332.65538">Extensions</tspan></text>
<path transform="matrix(1,0,0,-1,548.182,533.10708)" stroke-width=".398" stroke-linecap="butt" stroke-miterlimit="10" stroke-linejoin="miter" fill="none" stroke="#000000" d="M0 0V17.933"/>
<path transform="matrix(1,0,0,-1,72,533.306)" stroke-width=".398" stroke-linecap="butt" stroke-miterlimit="10" stroke-linejoin="miter" fill="none" stroke="#000000" d="M0 0H476.381"/>
<path transform="matrix(1,0,0,-1,72,533.306)" stroke-width=".398" stroke-linecap="butt" stroke-miterlimit="10" stroke-linejoin="miter" fill="none" stroke="#000000" d="M0 0H476.381"/>
<path transform="matrix(1,0,0,-1,72.199,551.438)" stroke-width=".398" stroke-linecap="butt" stroke-miterlimit="10" stroke-linejoin="miter" fill="none" stroke="#000000" d="M0 0V17.933"/>
<text xml:space="preserve" transform="matrix(1 0 -0 1 0 841.89)" font-size="9.9626" font-family="CMBX10" font-weight="bold"><tspan y="-295.831" x="121.779 130.4365 135.52738 139.98065 145.70915 154.2471 162.9046 167.99549 172.44876 175.62683 181.35533 191.54708 196.00035 201.72885 210.2668 214.61049 220.65779 225.11107 230.36136 236.40866 240.86194 244.04001 249.76851 256.1346">ActorAction(orIntention)</tspan></text>
<path transform="matrix(1,0,0,-1,310.191,551.438)" stroke-width=".398" stroke-linecap="butt" stroke-miterlimit="10" stroke-linejoin="miter" fill="none" stroke="#000000" d="M0 0V17.933"/>
<text xml:space="preserve" transform="matrix(1 0 -0 1 0 841.89)" font-size="9.9626" font-family="CMBX10" font-weight="bold"><tspan y="-295.831" x="373.636 380.00209 386.04939 390.5724 395.02568 400.27598 413.6358 422.23353 427.48384 432.00685 438.69175 444.42024 450.78633 455.30934 458.4874 464.8535 468.03157 471.20964 474.3877 478.53215">SystemResponsibility</tspan></text>
<path transform="matrix(1,0,0,-1,548.182,551.438)" stroke-width=".398" stroke-linecap="butt" stroke-miterlimit="10" stroke-linejoin="miter" fill="none" stroke="#000000" d="M0 0V17.933"/>
<path transform="matrix(1,0,0,-1,72,551.638)" stroke-width=".398" stroke-linecap="butt" stroke-miterlimit="10" stroke-linejoin="miter" fill="none" stroke="#000000" d="M0 0H476.381"/>
<path transform="matrix(1,0,0,-1,72,551.638)" stroke-width=".398" stroke-linecap="butt" stroke-miterlimit="10" stroke-linejoin="miter" fill="none" stroke="#000000" d="M0 0H476.381"/>
<path transform="matrix(1,0,0,-1,72.199,569.77)" stroke-width=".398" stroke-linecap="butt" stroke-miterlimit="10" stroke-linejoin="miter" fill="none" stroke="#000000" d="M0 0V17.933"/>
<text xml:space="preserve" transform="matrix(1 0 -0 1 0 841.89)" font-size="9.9626" font-family="CMBX10" font-weight="bold"><tspan y="-277.5" x="78.376 84.10449 89.673587">3a.</tspan></text>
<text xml:space="preserve" transform="matrix(1 0 -0 1 0 841.89)" font-size="9.9626" font-family="CMR10"><tspan y="-277.5" x="97.284 100.88049 107.24659 111.12204 116.66125 124.41215 128.33742 132.76082 135.53043 138.30004 142.72344 149.94632 153.82178 157.72711 160.49672 164.92012 172.16294 176.03839 184.3472 189.32849 194.86769 203.72444 208.14785 213.4081 216.1777 220.10297 223.97843 226.74803 232.28723 240.58608 243.35569 247.23114 251.65454 259.9534">Ifthesellertriestoaddexistingitem.</tspan></text>
<path transform="matrix(1,0,0,-1,310.191,569.77)" stroke-width=".398" stroke-linecap="butt" stroke-miterlimit="10" stroke-linejoin="miter" fill="none" stroke="#000000" d="M0 0V17.933"/>
<text xml:space="preserve" transform="matrix(1 0 -0 1 0 841.89)" font-size="9.9626" font-family="CMBX10" font-weight="bold"><tspan y="-277.5" x="316.368 322.0965 327.6656">3a.</tspan></text>
<text xml:space="preserve" transform="matrix(1 0 -0 1 0 841.89)" font-size="9.9626" font-family="CMR10"><tspan y="-277.5" x="335.276 340.81523 346.07548 350.00074 353.8762 358.2996 369.916 375.4552 379.36054 384.34184 392.6407 398.1799 402.05537 409.30815 413.73155 417.63688 421.5422 426.5235 430.42884">Systempromptserror.</tspan></text>
<path transform="matrix(1,0,0,-1,548.182,569.77)" stroke-width=".398" stroke-linecap="butt" stroke-miterlimit="10" stroke-linejoin="miter" fill="none" stroke="#000000" d="M0 0V17.933"/>
<path transform="matrix(1,0,0,-1,72,569.969)" stroke-width=".398" stroke-linecap="butt" stroke-miterlimit="10" stroke-linejoin="miter" fill="none" stroke="#000000" d="M0 0H476.381"/>
<path transform="matrix(1,0,0,-1,72,569.969)" stroke-width=".398" stroke-linecap="butt" stroke-miterlimit="10" stroke-linejoin="miter" fill="none" stroke="#000000" d="M0 0H476.381"/>
<path transform="matrix(1,0,0,-1,72.199,588.101)" stroke-width=".398" stroke-linecap="butt" stroke-miterlimit="10" stroke-linejoin="miter" fill="none" stroke="#000000" d="M0 0V17.933"/>
<text xml:space="preserve" transform="matrix(1 0 -0 1 0 841.89)" font-size="9.9626" font-family="CMBX10" font-weight="bold"><tspan y="-259.169" x="78.376 84.10449 89.673587">5a.</tspan></text>
<text xml:space="preserve" transform="matrix(1 0 -0 1 0 841.89)" font-size="9.9626" font-family="CMR10"><tspan y="-259.169" x="97.284 102.823207 107.2466 110.0162 112.7858 117.20919 124.432079 130.11077 135.09206 137.86167 140.63127 147.87409 151.74954 160.05835 164.48175 169.742 173.61746 178.04087 185.26375 190.24504 193.01465 199.11177 203.00714 207.4405 212.70076 218.23 220.9996 224.90494 229.32834 238.19506 243.73426 248.15766 252.03311 257.0144 259.784 262.5536 266.47886">SellerFailstoenterallrequireddetails.</tspan></text>
<path transform="matrix(1,0,0,-1,310.191,588.101)" stroke-width=".398" stroke-linecap="butt" stroke-miterlimit="10" stroke-linejoin="miter" fill="none" stroke="#000000" d="M0 0V17.933"/>
<text xml:space="preserve" transform="matrix(1 0 -0 1 0 841.89)" font-size="9.9626" font-family="CMBX10" font-weight="bold"><tspan y="-259.169" x="316.368 322.0965 327.6656">5a.</tspan></text>
<text xml:space="preserve" transform="matrix(1 0 -0 1 0 841.89)" font-size="9.9626" font-family="CMR10"><tspan y="-259.169" x="335.224 340.7632 346.02348 349.94874 353.8242 358.2476 369.71458 375.25379 379.15913 384.1404 392.43928 397.9785 401.85395 408.93736 414.47657 418.40184 422.82524 429.89869 434.87998 441.38557 444.15516 446.92475 452.85249 455.62208 464.3294 471.6619 476.0853 481.34556 486.88478 489.65437 493.5597 497.9831 506.69044 514.3019 518.7253 522.6007 527.58206 530.3516 533.1212 537.0465">Systempromptsuser&#x201d;FillinRequiredDetails&#x201d;</tspan></text>
<path transform="matrix(1,0,0,-1,548.182,588.101)" stroke-width=".398" stroke-linecap="butt" stroke-miterlimit="10" stroke-linejoin="miter" fill="none" stroke="#000000" d="M0 0V17.933"/>
<path transform="matrix(1,0,0,-1,72,588.30007)" stroke-width=".398" stroke-linecap="butt" stroke-miterlimit="10" stroke-linejoin="miter" fill="none" stroke="#000000" d="M0 0H476.381"/>
<path transform="matrix(1,0,0,-1,72,588.30007)" stroke-width=".398" stroke-linecap="butt" stroke-miterlimit="10" stroke-linejoin="miter" fill="none" stroke="#000000" d="M0 0H476.381"/>
<text xml:space="preserve" transform="matrix(1 0 -0 1 0 841.89)" font-size="9.9626" font-family="CMR10"><tspan y="-42.112" x="295.147">2</tspan></text>
</svg>
