<svg xmlns="http://www.w3.org/2000/svg" xmlns:xlink="http://www.w3.org/1999/xlink" version="1.1" width="595.276" height="841.89" viewBox="0 0 595.276 841.89">
<text xml:space="preserve" transform="matrix(1 0 -0 1 0 841.89)" font-size="14.3462" font-family="CMBX12" font-weight="bold"><tspan y="-759.927" x="186.05 198.67465 206.52202 215.48839 224.45476 228.94512 241.68454 253.72101 261.0806 266.0157 274.98207 283.94844 292.9148 304.66435 312.51173 321.4781 335.82429 346.41178 354.9334 361.66178 370.62815 378.47554 387.4419 395.5188 402.8784">HandleRefundsandExchanges</tspan></text>
<path transform="matrix(1,0,0,-1,72,106.77301)" stroke-width=".398" stroke-linecap="butt" stroke-miterlimit="10" stroke-linejoin="miter" fill="none" stroke="#000000" d="M0 0H476.381"/>
<path transform="matrix(1,0,0,-1,72,106.77301)" stroke-width=".398" stroke-linecap="butt" stroke-miterlimit="10" stroke-linejoin="miter" fill="none" stroke="#000000" d="M0 0H476.381"/>
<path transform="matrix(1,0,0,-1,72.199,124.90503)" stroke-width=".398" stroke-linecap="butt" stroke-miterlimit="10" stroke-linejoin="miter" fill="none" stroke="#000000" d="M0 0V17.933"/>
<text xml:space="preserve" transform="matrix(1 0 -0 1 0 841.89)" font-size="9.9626" font-family="CMBX10" font-weight="bold"><tspan y="-722.365" x="78.376 87.1929 91.71592 100.78188 109.06081 114.6299 119.152919 128.22885 137.19519 142.76428 152.30846">UseCaseName</tspan></text>
<path transform="matrix(1,0,0,-1,197.372,124.90503)" stroke-width=".398" stroke-linecap="butt" stroke-miterlimit="10" stroke-linejoin="miter" fill="none" stroke="#000000" d="M0 0V17.933"/>
<text xml:space="preserve" transform="matrix(1 0 -0 1 0 841.89)" font-size="9.9626" font-family="CMR10"><tspan y="-722.365" x="203.549 211.02095 216.00225 221.54145 227.08065 229.85025 237.5912 244.92368 249.34708 252.39563 257.93486 263.47407 269.01329 276.26606 281.24736 286.7766 295.64335 302.4279 307.68815 311.83259 317.3718 322.3531 327.8923 332.8736 337.297">HandleRefundsandExchanges</tspan></text>
<path transform="matrix(1,0,0,-1,548.182,124.90503)" stroke-width=".398" stroke-linecap="butt" stroke-miterlimit="10" stroke-linejoin="miter" fill="none" stroke="#000000" d="M0 0V17.933"/>
<path transform="matrix(1,0,0,-1,72,125.104007)" stroke-width=".398" stroke-linecap="butt" stroke-miterlimit="10" stroke-linejoin="miter" fill="none" stroke="#000000" d="M0 0H476.381"/>
<path transform="matrix(1,0,0,-1,72,125.104007)" stroke-width=".398" stroke-linecap="butt" stroke-miterlimit="10" stroke-linejoin="miter" fill="none" stroke="#000000" d="M0 0H476.381"/>
<path transform="matrix(1,0,0,-1,72.199,143.23603)" stroke-width=".398" stroke-linecap="butt" stroke-miterlimit="10" stroke-linejoin="miter" fill="none" stroke="#000000" d="M0 0V17.933"/>
<text xml:space="preserve" transform="matrix(1 0 -0 1 0 841.89)" font-size="9.9626" font-family="CMBX10" font-weight="bold"><tspan y="-704.034" x="78.376 84.7421 89.83299 95.561489 102.24639">Scope</tspan></text>
<path transform="matrix(1,0,0,-1,197.372,143.23603)" stroke-width=".398" stroke-linecap="butt" stroke-miterlimit="10" stroke-linejoin="miter" fill="none" stroke="#000000" d="M0 0V17.933"/>
<text xml:space="preserve" transform="matrix(1 0 -0 1 0 841.89)" font-size="9.9626" font-family="CMR10"><tspan y="-704.034" x="203.549 211.02095 215.7233 222.91629 228.17655 235.36954 246.169 252.39563 257.37693 262.35823 265.1278 269.05308 272.92854 275.69813 280.12153 287.36433 292.3456 297.88484 306.74159 314.353 318.7764 321.546 324.31559 329.29689 333.72029 337.6256 346.21339 355.3491 360.33039 365.8696 370.8509 375.83219 380.25559 388.55445 392.97785 398.2381 405.4311 410.9703 416.23057 420.15583 424.03129 428.45469">HawkTULogisticsandDeliveryManagementSystem</tspan></text>
<path transform="matrix(1,0,0,-1,548.182,143.23603)" stroke-width=".398" stroke-linecap="butt" stroke-miterlimit="10" stroke-linejoin="miter" fill="none" stroke="#000000" d="M0 0V17.933"/>
<path transform="matrix(1,0,0,-1,72,143.435)" stroke-width=".398" stroke-linecap="butt" stroke-miterlimit="10" stroke-linejoin="miter" fill="none" stroke="#000000" d="M0 0H476.381"/>
<path transform="matrix(1,0,0,-1,72,143.435)" stroke-width=".398" stroke-linecap="butt" stroke-miterlimit="10" stroke-linejoin="miter" fill="none" stroke="#000000" d="M0 0H476.381"/>
<path transform="matrix(1,0,0,-1,72.199,161.56702)" stroke-width=".398" stroke-linecap="butt" stroke-miterlimit="10" stroke-linejoin="miter" fill="none" stroke="#000000" d="M0 0V17.933"/>
<text xml:space="preserve" transform="matrix(1 0 -0 1 0 841.89)" font-size="9.9626" font-family="CMBX10" font-weight="bold"><tspan y="-685.703" x="78.376 85.27012 90.52041 96.2489 101.49919">Level</tspan></text>
<path transform="matrix(1,0,0,-1,197.372,161.56702)" stroke-width=".398" stroke-linecap="butt" stroke-miterlimit="10" stroke-linejoin="miter" fill="none" stroke="#000000" d="M0 0V17.933"/>
<text xml:space="preserve" transform="matrix(1 0 -0 1 0 841.89)" font-size="9.9626" font-family="CMR10"><tspan y="-685.703" x="203.549 211.02095 214.94622 219.36962 226.5925 234.41315 239.39444 244.37574">UserGoal</tspan></text>
<path transform="matrix(1,0,0,-1,548.182,161.56702)" stroke-width=".398" stroke-linecap="butt" stroke-miterlimit="10" stroke-linejoin="miter" fill="none" stroke="#000000" d="M0 0V17.933"/>
<path transform="matrix(1,0,0,-1,72,161.76599)" stroke-width=".398" stroke-linecap="butt" stroke-miterlimit="10" stroke-linejoin="miter" fill="none" stroke="#000000" d="M0 0H476.381"/>
<path transform="matrix(1,0,0,-1,72,161.76599)" stroke-width=".398" stroke-linecap="butt" stroke-miterlimit="10" stroke-linejoin="miter" fill="none" stroke="#000000" d="M0 0H476.381"/>
<path transform="matrix(1,0,0,-1,72.199,179.89801)" stroke-width=".398" stroke-linecap="butt" stroke-miterlimit="10" stroke-linejoin="miter" fill="none" stroke="#000000" d="M0 0V17.933"/>
<text xml:space="preserve" transform="matrix(1 0 -0 1 0 841.89)" font-size="9.9626" font-family="CMBX10" font-weight="bold"><tspan y="-667.372" x="78.376 86.206607 90.92888 94.10695 103.65112 109.220218 113.94249 123.81543 132.47293 137.56381 142.01709 147.74559">PrimaryActor</tspan></text>
<path transform="matrix(1,0,0,-1,197.372,179.89801)" stroke-width=".398" stroke-linecap="butt" stroke-miterlimit="10" stroke-linejoin="miter" fill="none" stroke="#000000" d="M0 0V17.933"/>
<text xml:space="preserve" transform="matrix(1 0 -0 1 0 841.89)" font-size="9.9626" font-family="CMR10"><tspan y="-667.372" x="203.549 210.74199 216.28119 220.20645 224.08191 229.0632 237.36205 241.78545 245.69078 250.67208 256.21128 260.63468 263.40428 266.17387 270.59727">Customer/Seller</tspan></text>
<path transform="matrix(1,0,0,-1,548.182,179.89801)" stroke-width=".398" stroke-linecap="butt" stroke-miterlimit="10" stroke-linejoin="miter" fill="none" stroke="#000000" d="M0 0V17.933"/>
<path transform="matrix(1,0,0,-1,72,180.09803)" stroke-width=".398" stroke-linecap="butt" stroke-miterlimit="10" stroke-linejoin="miter" fill="none" stroke="#000000" d="M0 0H476.381"/>
<path transform="matrix(1,0,0,-1,72,180.09803)" stroke-width=".398" stroke-linecap="butt" stroke-miterlimit="10" stroke-linejoin="miter" fill="none" stroke="#000000" d="M0 0H476.381"/>
<path transform="matrix(1,0,0,-1,72.199,278.274)" stroke-width=".398" stroke-linecap="butt" stroke-miterlimit="10" stroke-linejoin="miter" fill="none" stroke="#000000" d="M0 0V97.977"/>
<text xml:space="preserve" transform="matrix(1 0 -0 1 0 841.89)" font-size="9.9626" font-family="CMBX10" font-weight="bold"><tspan y="-614.996" x="78.376 84.7421 89.19539 94.76448 100.49298 105.74327 112.109378 117.83787 121.01594 127.38204 132.63234 137.35462 145.69332 151.2624 157.62851">Stakeholdersand</tspan><tspan y="-603.04098" x="78.376 82.719699 88.767 93.22028 98.47057 103.19285 108.44314 112.966159 117.41944">Interests</tspan></text>
<path transform="matrix(1,0,0,-1,197.372,278.274)" stroke-width=".398" stroke-linecap="butt" stroke-miterlimit="10" stroke-linejoin="miter" fill="none" stroke="#000000" d="M0 0V97.977"/>
<text xml:space="preserve" transform="matrix(1 0 -0 1 0 841.89)" font-size="4.9813" font-family="CMSY5" font-style="italic"><tspan y="-645.975" x="203.549">&#x2022;</tspan></text>
<text xml:space="preserve" transform="matrix(1 0 -0 1 0 841.89)" font-size="9.9626" font-family="CMR10"><tspan y="-644.712" x="212.19699 219.38999 224.92919 228.85445 232.7299 237.7112 246.01004 250.43344 254.33878 261.53178 270.9464 275.9277 281.18797 285.06343 292.3162 300.61503 304.54029 307.30989 315.60874 321.14796 323.91755 331.65849 337.1977 341.10304 346.36329 350.78669 355.21009 359.13536 366.38813 369.43669 374.41798 381.64085 385.54618 389.96958 393.84504 399.38426 403.28959 408.8288 412.75407 418.8412 422.74653 427.16993 430.21849 435.7577 441.2969 446.83613 450.76139 456.8485 461.8298 469.06266 473.48606 478.7463 482.89076 488.42997 493.41127 498.95048 503.93177 508.35517 512.28048">Customer:Wantsasimpleprocessforreturns,refunds,orexchanges.</tspan></text>
<text xml:space="preserve" transform="matrix(1 0 -0 1 0 841.89)" font-size="4.9813" font-family="CMSY5" font-style="italic"><tspan y="-626.04898" x="203.549">&#x2022;</tspan></text>
<text xml:space="preserve" transform="matrix(1 0 -0 1 0 841.89)" font-size="9.9626" font-family="CMR10"><tspan y="-624.7869" x="212.19699 217.73619 222.15959 224.9292 227.6988 232.12221 236.02754 244.57546 252.04741 256.4708 260.8942 266.4334 274.36366 278.2391 287.2154 295.51426 300.49555 306.03477 311.01606 315.99736 324.41575 328.32109 332.74449 336.61994 342.15916 346.06449 351.6037 359.52397 363.9573 366.7236 369.4899 372.25617 376.67958 379.44917 383.87257 389.1328 393.00828 395.77787 405.0331 410.0144 415.55363 425.08784 430.62705 436.16627 441.70549 446.12889 450.0342 453.95948 457.83494 462.81623 468.35545 477.88966 482.31306 487.85227 491.77754 495.65299 500.63429 508.93315 513.36648 521.2668 524.31539 528.7388 533.1622 538.70138">Seller:Needstomanagereturnsefficientlyandunderstandcustomerfeed-</tspan><tspan y="-612.8319" x="212.19699 217.73619 222.71749 226.86194 232.1222">back.</tspan></text>
<text xml:space="preserve" transform="matrix(1 0 -0 1 0 841.89)" font-size="4.9813" font-family="CMSY5" font-style="italic"><tspan y="-594.1689" x="203.549">&#x2022;</tspan></text>
<text xml:space="preserve" transform="matrix(1 0 -0 1 0 841.89)" font-size="9.9626" font-family="CMR10"><tspan y="-592.9059" x="212.19699 217.73619 222.99645 226.9217 230.79717 235.22057 245.83074 253.30269 258.8419 267.14076 269.91035 275.44956 278.21916 282.1444 286.01988 289.9252 294.9065 298.78196 303.76325 307.66859 314.3535 321.13804 326.67726 330.6025 336.14173 340.04707 344.47047 350.70704 355.13044 360.11174 368.41059 373.9498 376.7194 379.48899 384.47029 390.0095 394.4329 401.1676 408.3606 411.1302 415.00566 422.84623 426.75157 431.17497 435.0504 440.58964 444.49497 452.3455 458.16368 463.14497 465.91456 468.68415 473.10755 475.87715 480.30055 486.5371 491.5184 497.04768 504.8982 513.197 518.17837 523.7175 528.69888 533.6802 538.1036">SystemAdministrator:Ensurescompliancewithreturnpoliciesandmanages</tspan><tspan y="-580.95089" x="212.19699 216.10233 220.52573 224.94913 229.93042 233.83576 239.37496 243.30022">records.</tspan></text>
<path transform="matrix(1,0,0,-1,548.182,278.274)" stroke-width=".398" stroke-linecap="butt" stroke-miterlimit="10" stroke-linejoin="miter" fill="none" stroke="#000000" d="M0 0V97.977"/>
<path transform="matrix(1,0,0,-1,72,278.47303)" stroke-width=".398" stroke-linecap="butt" stroke-miterlimit="10" stroke-linejoin="miter" fill="none" stroke="#000000" d="M0 0H476.381"/>
<path transform="matrix(1,0,0,-1,72,278.47303)" stroke-width=".398" stroke-linecap="butt" stroke-miterlimit="10" stroke-linejoin="miter" fill="none" stroke="#000000" d="M0 0H476.381"/>
<path transform="matrix(1,0,0,-1,72.199,332.81404)" stroke-width=".398" stroke-linecap="butt" stroke-miterlimit="10" stroke-linejoin="miter" fill="none" stroke="#000000" d="M0 0V54.141"/>
<text xml:space="preserve" transform="matrix(1 0 -0 1 0 841.89)" font-size="9.9626" font-family="CMBX10" font-weight="bold"><tspan y="-532.56" x="78.376 86.206607 90.92888 96.17917 101.27006 106.99855 113.364658 119.73076 122.90883 127.362117 130.54018 136.26868 142.63478">Preconditions</tspan></text>
<path transform="matrix(1,0,0,-1,197.372,332.81404)" stroke-width=".398" stroke-linecap="butt" stroke-miterlimit="10" stroke-linejoin="miter" fill="none" stroke="#000000" d="M0 0V54.141"/>
<text xml:space="preserve" transform="matrix(1 0 -0 1 0 841.89)" font-size="4.9813" font-family="CMSY5" font-style="italic"><tspan y="-547.599" x="203.549">&#x2022;</tspan></text>
<text xml:space="preserve" transform="matrix(1 0 -0 1 0 841.89)" font-size="9.9626" font-family="CMR10"><tspan y="-546.336" x="212.19699 219.38999 224.92919 232.67014 237.09354 242.63274 246.558 250.43346 255.41475 263.7136 268.137 275.36985 278.13945 285.38224 288.15184 293.13313 298.1144 303.0957 307.5191 316.37586 319.14546 324.41569 328.29115 336.58998 340.46543 346.00465 353.74559 357.67085 362.9311 366.85636 370.7318 375.1552 383.45408">Thecustomerisloggedintothesystem.</tspan></text>
<text xml:space="preserve" transform="matrix(1 0 -0 1 0 841.89)" font-size="4.9813" font-family="CMSY5" font-style="italic"><tspan y="-527.674" x="203.549">&#x2022;</tspan></text>
<text xml:space="preserve" transform="matrix(1 0 -0 1 0 841.89)" font-size="9.9626" font-family="CMR10"><tspan y="-526.411" x="212.19699 219.38999 224.92919 232.67014 237.65143 241.55677 247.09597 251.51937 258.7522 261.5218 268.7646 273.188 275.95759 278.72718 283.70848 286.47807 292.01728 294.78688 302.5278 305.57637 310.55766 317.7905 326.08934 329.99467 334.41807 337.4666 343.00584 348.54505 357.4018 362.3831 369.60597 374.02937 379.2896 383.44404 388.98326 393.96455 399.50376 404.48506 412.22599 417.7652 422.7465 426.67176 431.09516 439.9519 444.9332 453.79994 457.67539 463.2146 470.95555 476.7737 481.755 484.5246 487.2942 491.7176 496.141">Theorderiseligibleforarefundorexchangebasedonthepolicy.</tspan></text>
<path transform="matrix(1,0,0,-1,548.182,332.81404)" stroke-width=".398" stroke-linecap="butt" stroke-miterlimit="10" stroke-linejoin="miter" fill="none" stroke="#000000" d="M0 0V54.141"/>
<path transform="matrix(1,0,0,-1,72,333.013)" stroke-width=".398" stroke-linecap="butt" stroke-miterlimit="10" stroke-linejoin="miter" fill="none" stroke="#000000" d="M0 0H476.381"/>
<path transform="matrix(1,0,0,-1,72,333.013)" stroke-width=".398" stroke-linecap="butt" stroke-miterlimit="10" stroke-linejoin="miter" fill="none" stroke="#000000" d="M0 0H476.381"/>
<path transform="matrix(1,0,0,-1,72.199,387.354)" stroke-width=".398" stroke-linecap="butt" stroke-miterlimit="10" stroke-linejoin="miter" fill="none" stroke="#000000" d="M0 0V54.141"/>
<text xml:space="preserve" transform="matrix(1 0 -0 1 0 841.89)" font-size="9.9626" font-family="CMBX10" font-weight="bold"><tspan y="-478.02" x="78.376 85.8878 91.616298 96.13931 100.5926 105.68349 111.41198 117.77808 124.14419 127.32226 131.77555 134.95362 140.68212 147.04822">Postconditions</tspan></text>
<path transform="matrix(1,0,0,-1,197.372,387.354)" stroke-width=".398" stroke-linecap="butt" stroke-miterlimit="10" stroke-linejoin="miter" fill="none" stroke="#000000" d="M0 0V54.141"/>
<text xml:space="preserve" transform="matrix(1 0 -0 1 0 841.89)" font-size="4.9813" font-family="CMSY5" font-style="italic"><tspan y="-493.059" x="203.549">&#x2022;</tspan></text>
<text xml:space="preserve" transform="matrix(1 0 -0 1 0 841.89)" font-size="9.9626" font-family="CMR10"><tspan y="-491.796" x="212.19699 219.38999 224.92919 232.67014 236.57547 240.99887 244.04743 249.58663 255.12583 263.99256 268.97386 276.19673 280.62013 285.88038 290.0248 295.56404 300.54533 306.08454 311.06584 318.80677 321.57637 328.82914 334.36836 338.27369 343.53395 347.95735 352.38075 356.306 360.23127 364.65467 373.5114 378.4927 384.03193 392.88868 396.794 401.2174 405.6408 410.6221 414.52745 420.06666 424.49006 433.35679 436.12638 444.98313 448.85859 454.3978 462.13874 466.064 471.32426 475.2495 479.12498 483.54838 491.84724">Therefundorexchangeisprocessedandrecordedinthesystem.</tspan></text>
<text xml:space="preserve" transform="matrix(1 0 -0 1 0 841.89)" font-size="4.9813" font-family="CMSY5" font-style="italic"><tspan y="-473.134" x="203.549">&#x2022;</tspan></text>
<text xml:space="preserve" transform="matrix(1 0 -0 1 0 841.89)" font-size="9.9626" font-family="CMR10"><tspan y="-471.871" x="212.19699 219.66895 224.65024 228.5257 231.2953 234.05992 236.8345 241.2579 246.2392 250.11466 252.88426 257.86558 263.4048 270.64759 275.62889 279.5342 287.28514 291.2104 295.6338 300.89405 308.08705 311.9625 320.2713 324.14677 329.68598 337.4269 341.8503 347.38954 351.3148 355.19026 360.17155 368.4704 372.8938 380.11668 385.09797 390.63719 399.5039 403.42918 407.85258 410.62217 413.39176 417.81517 425.03804 428.94337 433.36677 438.34806 443.32936 447.23469 452.7739 455.5435 461.0827 469.38154 473.257 478.7962 486.54713 491.5284 497.05769 500.93315 505.3665 510.34779 518.6466 523.07">Notificationsaresenttothecustomerandsellerregardingtheoutcome.</tspan></text>
<path transform="matrix(1,0,0,-1,548.182,387.354)" stroke-width=".398" stroke-linecap="butt" stroke-miterlimit="10" stroke-linejoin="miter" fill="none" stroke="#000000" d="M0 0V54.141"/>
<path transform="matrix(1,0,0,-1,72,387.553)" stroke-width=".398" stroke-linecap="butt" stroke-miterlimit="10" stroke-linejoin="miter" fill="none" stroke="#000000" d="M0 0H476.381"/>
<path transform="matrix(1,0,0,-1,72,387.553)" stroke-width=".398" stroke-linecap="butt" stroke-miterlimit="10" stroke-linejoin="miter" fill="none" stroke="#000000" d="M0 0H476.381"/>
<path transform="matrix(1,0,0,-1,72,387.453)" stroke-width=".398" stroke-linecap="butt" stroke-miterlimit="10" stroke-linejoin="miter" fill="none" stroke="#000000" d="M0 0H476.381"/>
<path transform="matrix(1,0,0,-1,72,387.453)" stroke-width=".398" stroke-linecap="butt" stroke-miterlimit="10" stroke-linejoin="miter" fill="none" stroke="#000000" d="M0 0H476.381"/>
<path transform="matrix(1,0,0,-1,72.199,405.58503)" stroke-width=".398" stroke-linecap="butt" stroke-miterlimit="10" stroke-linejoin="miter" fill="none" stroke="#000000" d="M0 0V17.933"/>
<text xml:space="preserve" transform="matrix(1 0 -0 1 0 841.89)" font-size="9.9626" font-family="CMBX10" font-weight="bold"><tspan y="-441.684" x="253.638 264.51716 270.08625 273.2643 283.44609 289.81217 296.17826 301.26914 306.36003 311.61033 316.13334 324.482 330.84809 335.93898 341.18928 347.55537 353.12446 357.8467 361.02479">MainSuccessScenario</tspan></text>
<path transform="matrix(1,0,0,-1,548.182,405.58503)" stroke-width=".398" stroke-linecap="butt" stroke-miterlimit="10" stroke-linejoin="miter" fill="none" stroke="#000000" d="M0 0V17.933"/>
<path transform="matrix(1,0,0,-1,72,405.785)" stroke-width=".398" stroke-linecap="butt" stroke-miterlimit="10" stroke-linejoin="miter" fill="none" stroke="#000000" d="M0 0H476.381"/>
<path transform="matrix(1,0,0,-1,72,405.785)" stroke-width=".398" stroke-linecap="butt" stroke-miterlimit="10" stroke-linejoin="miter" fill="none" stroke="#000000" d="M0 0H476.381"/>
<path transform="matrix(1,0,0,-1,72.199,423.91703)" stroke-width=".398" stroke-linecap="butt" stroke-miterlimit="10" stroke-linejoin="miter" fill="none" stroke="#000000" d="M0 0V17.933"/>
<text xml:space="preserve" transform="matrix(1 0 -0 1 0 841.89)" font-size="9.9626" font-family="CMBX10" font-weight="bold"><tspan y="-423.353" x="121.779 130.4365 135.52738 139.98065 145.70915 154.2471 162.9046 167.99549 172.44876 175.62683 181.35533 191.54708 196.00035 201.72885 210.2668 214.61049 220.65779 225.11107 230.36136 236.40866 240.86194 244.04001 249.76851 256.1346">ActorAction(orIntention)</tspan></text>
<path transform="matrix(1,0,0,-1,310.191,423.91703)" stroke-width=".398" stroke-linecap="butt" stroke-miterlimit="10" stroke-linejoin="miter" fill="none" stroke="#000000" d="M0 0V17.933"/>
<text xml:space="preserve" transform="matrix(1 0 -0 1 0 841.89)" font-size="9.9626" font-family="CMBX10" font-weight="bold"><tspan y="-423.353" x="373.636 380.00209 386.04939 390.5724 395.02568 400.27598 413.6358 422.23353 427.48384 432.00685 438.69175 444.42024 450.78633 455.30934 458.4874 464.8535 468.03157 471.20964 474.3877 478.53215">SystemResponsibility</tspan></text>
<path transform="matrix(1,0,0,-1,548.182,423.91703)" stroke-width=".398" stroke-linecap="butt" stroke-miterlimit="10" stroke-linejoin="miter" fill="none" stroke="#000000" d="M0 0V17.933"/>
<path transform="matrix(1,0,0,-1,72,424.11604)" stroke-width=".398" stroke-linecap="butt" stroke-miterlimit="10" stroke-linejoin="miter" fill="none" stroke="#000000" d="M0 0H476.381"/>
<path transform="matrix(1,0,0,-1,72,424.11604)" stroke-width=".398" stroke-linecap="butt" stroke-miterlimit="10" stroke-linejoin="miter" fill="none" stroke="#000000" d="M0 0H476.381"/>
<path transform="matrix(1,0,0,-1,72.199,454.203)" stroke-width=".398" stroke-linecap="butt" stroke-miterlimit="10" stroke-linejoin="miter" fill="none" stroke="#000000" d="M0 0V29.888"/>
<text xml:space="preserve" transform="matrix(1 0 -0 1 0 841.89)" font-size="9.9626" font-family="CMR10"><tspan y="-405.022" x="78.376 83.3573 94.97369 102.16669 107.705898 111.63116 115.50661 120.48791 128.78676 133.21016 141.9075 145.81284 150.23624 155.49649 161.03569 165.45909 169.38436 173.25981 181.98705 191.76035 195.66568 200.08908 203.13764 208.67684 214.21604 224.54724 229.52854 238.22588 242.64928 247.90953 252.06394 257.5932 262.5745 268.1137 273.095 282.32038 285.36894 290.35023 299.04759">1.Customerrequestsarefundorexchangefora</tspan><tspan y="-393.06703" x="78.376 83.91521 87.82055 93.0808 98.62001 104.15922 108.58261 112.45806">product.</tspan></text>
<path transform="matrix(1,0,0,-1,310.191,454.203)" stroke-width=".398" stroke-linecap="butt" stroke-miterlimit="10" stroke-linejoin="miter" fill="none" stroke="#000000" d="M0 0V29.888"/>
<text xml:space="preserve" transform="matrix(1 0 -0 1 0 841.89)" font-size="9.9626" font-family="CMR10"><tspan y="-399.044" x="316.368 321.3493 328.5423 334.0815 339.34178 343.26704 347.1425 351.5659 363.19227 368.17356 372.09883 377.35908 384.60188 387.65043 392.6317 399.85459 403.75993 408.18333 410.9529 415.3763 420.08863 425.06993 430.33018 437.52317 440.29277 445.83198 448.88053 453.86183 457.76716 466.066 471.0473 474.92277 477.69236 482.67366 488.21287">2.Systemasksforrelevantinformation.</tspan></text>
<path transform="matrix(1,0,0,-1,548.182,454.203)" stroke-width=".398" stroke-linecap="butt" stroke-miterlimit="10" stroke-linejoin="miter" fill="none" stroke="#000000" d="M0 0V29.888"/>
<path transform="matrix(1,0,0,-1,72,454.402)" stroke-width=".398" stroke-linecap="butt" stroke-miterlimit="10" stroke-linejoin="miter" fill="none" stroke="#000000" d="M0 0H476.381"/>
<path transform="matrix(1,0,0,-1,72,454.402)" stroke-width=".398" stroke-linecap="butt" stroke-miterlimit="10" stroke-linejoin="miter" fill="none" stroke="#000000" d="M0 0H476.381"/>
<path transform="matrix(1,0,0,-1,72.199,484.49003)" stroke-width=".398" stroke-linecap="butt" stroke-miterlimit="10" stroke-linejoin="miter" fill="none" stroke="#000000" d="M0 0V29.888"/>
<text xml:space="preserve" transform="matrix(1 0 -0 1 0 841.89)" font-size="9.9626" font-family="CMR10"><tspan y="-374.735" x="78.376 83.3573 90.45067 97.64367 103.18288 107.10814 110.98359 115.96489 124.26373 128.68714 135.61113 141.15033 145.05567 149.75801 155.01827 157.78787 163.32707 167.75048 174.6944 178.59973 183.02313 188.28339 193.82259 196.5922 200.49753 204.92093 213.47879 216.23844 221.77764 224.82619 229.80748 233.71282 242.01166 246.99295 250.86841 253.63802 258.61933 267.17723 271.05268 275.47608 278.24568 283.22697 285.99656 291.84458 296.82588 300.7312">3.Customerprovidesrequiredinformation(e.g.,or-</tspan><tspan y="-362.78" x="78.376 83.91521 88.3386 95.561489 100.82174 106.36095 114.3908 120.199 124.62239 128.52773 134.62485 138.53018 142.95359 147.93488 151.86014 156.84143 162.38063 166.25609">dernumber,reason).</tspan></text>
<path transform="matrix(1,0,0,-1,310.191,484.49003)" stroke-width=".398" stroke-linecap="butt" stroke-miterlimit="10" stroke-linejoin="miter" fill="none" stroke="#000000" d="M0 0V29.888"/>
<text xml:space="preserve" transform="matrix(1 0 -0 1 0 841.89)" font-size="9.9626" font-family="CMR10"><tspan y="-374.735" x="316.368 321.3493 329.99684 335.53605 340.7963 344.72157 348.59703 353.02043 365.125 370.6642 374.56956 379.8298 384.2532 388.6766 392.60188 396.52714 400.95054 408.68153 412.55699 418.0962 426.32533 430.23066 434.65406 439.9143 445.45353 449.87693 453.8022 461.48338 466.46467 472.00389 481.34883 486.88804 492.69624 498.23545 503.21675 507.0922 511.5156 519.2466 524.2279 528.13327 533.6724 538.0958">4.Systemprocessestherequestandupdatesorder</tspan><tspan y="-362.78" x="316.368 320.29328 324.16874 329.15003 333.02549 338.5647 342.48997">status.</tspan></text>
<path transform="matrix(1,0,0,-1,548.182,484.49003)" stroke-width=".398" stroke-linecap="butt" stroke-miterlimit="10" stroke-linejoin="miter" fill="none" stroke="#000000" d="M0 0V29.888"/>
<path transform="matrix(1,0,0,-1,72,484.68904)" stroke-width=".398" stroke-linecap="butt" stroke-miterlimit="10" stroke-linejoin="miter" fill="none" stroke="#000000" d="M0 0H476.381"/>
<path transform="matrix(1,0,0,-1,72,484.68904)" stroke-width=".398" stroke-linecap="butt" stroke-miterlimit="10" stroke-linejoin="miter" fill="none" stroke="#000000" d="M0 0H476.381"/>
<path transform="matrix(1,0,0,-1,72.199,514.776)" stroke-width=".398" stroke-linecap="butt" stroke-miterlimit="10" stroke-linejoin="miter" fill="none" stroke="#000000" d="M0 0V29.888"/>
<path transform="matrix(1,0,0,-1,310.191,514.776)" stroke-width=".398" stroke-linecap="butt" stroke-miterlimit="10" stroke-linejoin="miter" fill="none" stroke="#000000" d="M0 0V29.888"/>
<text xml:space="preserve" transform="matrix(1 0 -0 1 0 841.89)" font-size="9.9626" font-family="CMR10"><tspan y="-344.449" x="316.368 321.3493 329.82746 335.36668 340.62693 344.5522 348.42765 352.85105 364.89585 369.31925 374.30055 379.83976 382.60438 385.37898 389.2843 397.58317 405.25437 409.12983 414.66905 422.84834 426.75367 431.17707 434.22563 439.75489 445.2941 450.8333 455.8146 460.238 465.49827 469.65269 475.1919 480.1732 485.7124 490.6937 498.86305 503.84434 509.38356 518.66867 522.59396 527.01736 532.5565 538.0957">5.Systemconfirmstherefund/exchangeandsends</tspan><tspan y="-332.49403" x="316.368 321.90724 326.88853 330.76399 333.53358 336.2982 339.07279 343.4962 348.47749 352.35295 355.12254 360.10383 365.64305 369.5683">notifications.</tspan></text>
<path transform="matrix(1,0,0,-1,548.182,514.776)" stroke-width=".398" stroke-linecap="butt" stroke-miterlimit="10" stroke-linejoin="miter" fill="none" stroke="#000000" d="M0 0V29.888"/>
<path transform="matrix(1,0,0,-1,72,514.975)" stroke-width=".398" stroke-linecap="butt" stroke-miterlimit="10" stroke-linejoin="miter" fill="none" stroke="#000000" d="M0 0H476.381"/>
<path transform="matrix(1,0,0,-1,72,514.975)" stroke-width=".398" stroke-linecap="butt" stroke-miterlimit="10" stroke-linejoin="miter" fill="none" stroke="#000000" d="M0 0H476.381"/>
<path transform="matrix(1,0,0,-1,72.199,533.10708)" stroke-width=".398" stroke-linecap="butt" stroke-miterlimit="10" stroke-linejoin="miter" fill="none" stroke="#000000" d="M0 0V17.933"/>
<text xml:space="preserve" transform="matrix(1 0 -0 1 0 841.89)" font-size="9.9626" font-family="CMBX10" font-weight="bold"><tspan y="-314.163" x="283.211 290.74275 296.79005 301.24333 306.49363 312.8597 317.38273 320.5608 326.28929 332.65538">Extensions</tspan></text>
<path transform="matrix(1,0,0,-1,548.182,533.10708)" stroke-width=".398" stroke-linecap="butt" stroke-miterlimit="10" stroke-linejoin="miter" fill="none" stroke="#000000" d="M0 0V17.933"/>
<path transform="matrix(1,0,0,-1,72,533.306)" stroke-width=".398" stroke-linecap="butt" stroke-miterlimit="10" stroke-linejoin="miter" fill="none" stroke="#000000" d="M0 0H476.381"/>
<path transform="matrix(1,0,0,-1,72,533.306)" stroke-width=".398" stroke-linecap="butt" stroke-miterlimit="10" stroke-linejoin="miter" fill="none" stroke="#000000" d="M0 0H476.381"/>
<path transform="matrix(1,0,0,-1,72.199,551.438)" stroke-width=".398" stroke-linecap="butt" stroke-miterlimit="10" stroke-linejoin="miter" fill="none" stroke="#000000" d="M0 0V17.933"/>
<text xml:space="preserve" transform="matrix(1 0 -0 1 0 841.89)" font-size="9.9626" font-family="CMBX10" font-weight="bold"><tspan y="-295.831" x="121.779 130.4365 135.52738 139.98065 145.70915 154.2471 162.9046 167.99549 172.44876 175.62683 181.35533 191.54708 196.00035 201.72885 210.2668 214.61049 220.65779 225.11107 230.36136 236.40866 240.86194 244.04001 249.76851 256.1346">ActorAction(orIntention)</tspan></text>
<path transform="matrix(1,0,0,-1,310.191,551.438)" stroke-width=".398" stroke-linecap="butt" stroke-miterlimit="10" stroke-linejoin="miter" fill="none" stroke="#000000" d="M0 0V17.933"/>
<text xml:space="preserve" transform="matrix(1 0 -0 1 0 841.89)" font-size="9.9626" font-family="CMBX10" font-weight="bold"><tspan y="-295.831" x="373.636 380.00209 386.04939 390.5724 395.02568 400.27598 413.6358 422.23353 427.48384 432.00685 438.69175 444.42024 450.78633 455.30934 458.4874 464.8535 468.03157 471.20964 474.3877 478.53215">SystemResponsibility</tspan></text>
<path transform="matrix(1,0,0,-1,548.182,551.438)" stroke-width=".398" stroke-linecap="butt" stroke-miterlimit="10" stroke-linejoin="miter" fill="none" stroke="#000000" d="M0 0V17.933"/>
<path transform="matrix(1,0,0,-1,72,551.638)" stroke-width=".398" stroke-linecap="butt" stroke-miterlimit="10" stroke-linejoin="miter" fill="none" stroke="#000000" d="M0 0H476.381"/>
<path transform="matrix(1,0,0,-1,72,551.638)" stroke-width=".398" stroke-linecap="butt" stroke-miterlimit="10" stroke-linejoin="miter" fill="none" stroke="#000000" d="M0 0H476.381"/>
<path transform="matrix(1,0,0,-1,72.199,569.77)" stroke-width=".398" stroke-linecap="butt" stroke-miterlimit="10" stroke-linejoin="miter" fill="none" stroke="#000000" d="M0 0V17.933"/>
<text xml:space="preserve" transform="matrix(1 0 -0 1 0 841.89)" font-size="9.9626" font-family="CMBX10" font-weight="bold"><tspan y="-277.5" x="78.376 84.10449 89.673587">1a.</tspan></text>
<text xml:space="preserve" transform="matrix(1 0 -0 1 0 841.89)" font-size="9.9626" font-family="CMR10"><tspan y="-277.5" x="97.284 104.61647 109.03986 114.30012 119.839328 124.26272 128.18799 132.06345 139.30626 143.73963 148.72092 154.25016 159.78936 164.77065 171.97362 177.79177 185.53272 193.83156 198.81285 204.35205 208.77545">Requestscannotbemade.</tspan></text>
<path transform="matrix(1,0,0,-1,310.191,569.77)" stroke-width=".398" stroke-linecap="butt" stroke-miterlimit="10" stroke-linejoin="miter" fill="none" stroke="#000000" d="M0 0V17.933"/>
<text xml:space="preserve" transform="matrix(1 0 -0 1 0 841.89)" font-size="9.9626" font-family="CMBX10" font-weight="bold"><tspan y="-277.5" x="316.368 322.0965 327.6656">1a.</tspan></text>
<text xml:space="preserve" transform="matrix(1 0 -0 1 0 841.89)" font-size="9.9626" font-family="CMR10"><tspan y="-277.5" x="335.276 340.81523 346.07548 350.00074 353.8762 358.2996 369.916 377.5274 381.9508 385.82627 390.24967 394.67308 398.54853 405.8013 409.67677 415.21598 419.63938 423.5447 431.28565 436.26695 440.17228 447.9232 453.4624 461.76124 467.30046 471.20579 475.62919 480.88945 483.65904 488.64033 494.17955 501.42234 506.40364 510.30897 515.84817 520.27157 524.1769 528.1022">SystemDetectstherearenopreviousorders.</tspan></text>
<path transform="matrix(1,0,0,-1,548.182,569.77)" stroke-width=".398" stroke-linecap="butt" stroke-miterlimit="10" stroke-linejoin="miter" fill="none" stroke="#000000" d="M0 0V17.933"/>
<path transform="matrix(1,0,0,-1,72,569.969)" stroke-width=".398" stroke-linecap="butt" stroke-miterlimit="10" stroke-linejoin="miter" fill="none" stroke="#000000" d="M0 0H476.381"/>
<path transform="matrix(1,0,0,-1,72,569.969)" stroke-width=".398" stroke-linecap="butt" stroke-miterlimit="10" stroke-linejoin="miter" fill="none" stroke="#000000" d="M0 0H476.381"/>
<path transform="matrix(1,0,0,-1,72.199,600.056)" stroke-width=".398" stroke-linecap="butt" stroke-miterlimit="10" stroke-linejoin="miter" fill="none" stroke="#000000" d="M0 0V29.888"/>
<text xml:space="preserve" transform="matrix(1 0 -0 1 0 841.89)" font-size="9.9626" font-family="CMBX10" font-weight="bold"><tspan y="-259.169" x="78.376 84.10449 89.673587">3a.</tspan></text>
<text xml:space="preserve" transform="matrix(1 0 -0 1 0 841.89)" font-size="9.9626" font-family="CMR10"><tspan y="-259.169" x="100.382 103.9785 111.38071 115.25616 120.795368 129.57242 133.47776 137.90116 143.1614 148.7006 151.47022 155.37555 159.79895 169.6918 172.46141 178.00061 181.04917 186.03046 189.93579 198.23464 203.21593 207.09139 209.861 214.84229 224.73514 227.50475 235.78366 238.55327 244.09247 248.51587 253.49716 261.79603 267.33525 270.10484 274.52824 278.4037 282.8271 290.20936 294.0848 299.62403">Iftherequiredinformationisincomplete,the</tspan><tspan y="-247.214" x="78.37601 82.7994 88.33861 92.26387 96.13932 101.12062 109.419467 113.84286 121.06574 123.83534 131.08812 136.62732 140.53266 145.51395 153.81279 159.35199 163.22745 167.65085 176.5076 180.38306 188.6819 194.2211 198.12644 202.83873 208.09899 210.85863 216.39783 224.14875 226.91835 230.79381">customerispromptedtoprovideit.</tspan></text>
<path transform="matrix(1,0,0,-1,310.191,600.056)" stroke-width=".398" stroke-linecap="butt" stroke-miterlimit="10" stroke-linejoin="miter" fill="none" stroke="#000000" d="M0 0V29.888"/>
<text xml:space="preserve" transform="matrix(1 0 -0 1 0 841.89)" font-size="9.9626" font-family="CMBX10" font-weight="bold"><tspan y="-259.169" x="316.368 322.0965 327.6656">3a.</tspan></text>
<text xml:space="preserve" transform="matrix(1 0 -0 1 0 841.89)" font-size="9.9626" font-family="CMR10"><tspan y="-259.169" x="337.737 343.2762 348.53648 352.46174 356.3372 360.7606 373.2039 377.10923 381.53263 386.79289 392.3321 396.7555 400.68077 404.5562 412.62593 416.49143 422.03065 430.59849 438.89735 441.66694 445.5922 449.51747 452.28706 457.82627 466.952 469.7216 475.2608 478.30937 483.29066 487.19599 495.49485 500.47615 504.3516 507.1212 512.1025 521.7761 524.8247 528.73007 533.71139">Systemrequeststhemissinginformationfrom</tspan><tspan y="-247.214" x="316.368 320.24348 325.78269 333.52363 337.94703 343.48625 347.4115 351.28697 356.26826 364.5671 368.9905 372.89585">thecustomer.</tspan></text>
<path transform="matrix(1,0,0,-1,548.182,600.056)" stroke-width=".398" stroke-linecap="butt" stroke-miterlimit="10" stroke-linejoin="miter" fill="none" stroke="#000000" d="M0 0V29.888"/>
<path transform="matrix(1,0,0,-1,72,600.255)" stroke-width=".398" stroke-linecap="butt" stroke-miterlimit="10" stroke-linejoin="miter" fill="none" stroke="#000000" d="M0 0H476.381"/>
<path transform="matrix(1,0,0,-1,72,600.255)" stroke-width=".398" stroke-linecap="butt" stroke-miterlimit="10" stroke-linejoin="miter" fill="none" stroke="#000000" d="M0 0H476.381"/>
<path transform="matrix(1,0,0,-1,72.199,630.343)" stroke-width=".398" stroke-linecap="butt" stroke-miterlimit="10" stroke-linejoin="miter" fill="none" stroke="#000000" d="M0 0V29.888"/>
<text xml:space="preserve" transform="matrix(1 0 -0 1 0 841.89)" font-size="9.9626" font-family="CMBX10" font-weight="bold"><tspan y="-228.882" x="78.376 84.10449 89.673587">4a.</tspan></text>
<text xml:space="preserve" transform="matrix(1 0 -0 1 0 841.89)" font-size="9.9626" font-family="CMR10"><tspan y="-228.882" x="109.701007 113.2975 123.808048 127.683498 133.2227 145.1081 150.63733 154.54267 159.8029 165.3421 170.8813 175.3047 186.64215 189.41176 200.79901 206.33821 211.3195 222.65695 227.08036 229.84996 232.61957 237.60086 240.37047 245.8997 248.66931 260.5547 263.60325 268.58454 279.95185 292.3951 296.30046 300.72386">Iftheproductisnoteligibleforare-</tspan><tspan y="-216.927" x="78.37601 81.42456 86.96377 92.502979 98.04218 103.02348 107.44688 112.70713 116.85157 122.39078 127.37208 132.91129 137.89258 142.31598 148.40314 152.2786 157.8178 165.56871 169.99211 175.53131 179.45658 183.33203 188.31333 196.61217 201.03557 208.25846 211.02806 218.28084 221.05045 226.57968 229.62824 234.60953 238.51486 246.8137 251.2371 256.7763">fund/exchange,thecustomerisinformed.</tspan></text>
<path transform="matrix(1,0,0,-1,310.191,630.343)" stroke-width=".398" stroke-linecap="butt" stroke-miterlimit="10" stroke-linejoin="miter" fill="none" stroke="#000000" d="M0 0V29.888"/>
<text xml:space="preserve" transform="matrix(1 0 -0 1 0 841.89)" font-size="9.9626" font-family="CMBX10" font-weight="bold"><tspan y="-228.882" x="316.368 322.0965 327.6656">4a.</tspan></text>
<text xml:space="preserve" transform="matrix(1 0 -0 1 0 841.89)" font-size="9.9626" font-family="CMR10"><tspan y="-228.882" x="335.29603 340.83525 346.0955 350.02076 353.8962 358.3196 369.94599 375.4852 380.4665 384.34196 387.11155 389.87617 392.65077 397.07417 404.32695 408.2024 413.7416 421.49253 425.91593 431.45515 435.3804 439.25587 444.23716 452.536 456.9594 464.19227 469.17356 475.54963 479.97303 482.7426 485.5122 490.4935 493.2631 498.8023 501.5719 504.3415 507.11109 510.70759 519.29537 523.71878 527.6241 530.3937 534.2691 538.6925">Systemnotifiesthecustomerofeligibilitycrite-</tspan><tspan y="-216.927" x="316.368 320.27336 323.04295 328.02424">ria.</tspan></text>
<path transform="matrix(1,0,0,-1,548.182,630.343)" stroke-width=".398" stroke-linecap="butt" stroke-miterlimit="10" stroke-linejoin="miter" fill="none" stroke="#000000" d="M0 0V29.888"/>
<path transform="matrix(1,0,0,-1,72,630.542)" stroke-width=".398" stroke-linecap="butt" stroke-miterlimit="10" stroke-linejoin="miter" fill="none" stroke="#000000" d="M0 0H476.381"/>
<path transform="matrix(1,0,0,-1,72,630.542)" stroke-width=".398" stroke-linecap="butt" stroke-miterlimit="10" stroke-linejoin="miter" fill="none" stroke="#000000" d="M0 0H476.381"/>
<text xml:space="preserve" transform="matrix(1 0 -0 1 0 841.89)" font-size="9.9626" font-family="CMR10"><tspan y="-42.112" x="295.147">8</tspan></text>
</svg>
