<svg xmlns="http://www.w3.org/2000/svg" xmlns:xlink="http://www.w3.org/1999/xlink" version="1.1" width="595.276" height="841.89" viewBox="0 0 595.276 841.89">
<rect x="0" y="0" width="595.276" height="841.89" fill="white" />
<text xml:space="preserve" transform="matrix(1 0 -0 1 0 841.89)" font-size="14.3462" font-family="CMBX12" font-weight="bold"><tspan y="-759.927" x="228.079 237.94919 244.54845 252.39582 259.12419 273.02565 285.14817 291.7474 300.71379 308.07337 314.6726 326.42216 334.9438 348.84526 354.8563">TrackOrdersbyID</tspan></text>
<path transform="matrix(1,0,0,-1,72,106.77301)" stroke-width=".398" stroke-linecap="butt" stroke-miterlimit="10" stroke-linejoin="miter" fill="none" stroke="#000000" d="M0 0H476.381"/>
<path transform="matrix(1,0,0,-1,72,106.77301)" stroke-width=".398" stroke-linecap="butt" stroke-miterlimit="10" stroke-linejoin="miter" fill="none" stroke="#000000" d="M0 0H476.381"/>
<path transform="matrix(1,0,0,-1,72.199,124.90503)" stroke-width=".398" stroke-linecap="butt" stroke-miterlimit="10" stroke-linejoin="miter" fill="none" stroke="#000000" d="M0 0V17.933"/>
<text xml:space="preserve" transform="matrix(1 0 -0 1 0 841.89)" font-size="9.9626" font-family="CMBX10" font-weight="bold"><tspan y="-722.365" x="78.376 87.1929 91.71592 100.78188 109.06081 114.6299 119.152919 128.22885 137.19519 142.76428 152.30846">UseCaseName</tspan></text>
<path transform="matrix(1,0,0,-1,197.372,124.90503)" stroke-width=".398" stroke-linecap="butt" stroke-miterlimit="10" stroke-linejoin="miter" fill="none" stroke="#000000" d="M0 0V17.933"/>
<text xml:space="preserve" transform="matrix(1 0 -0 1 0 841.89)" font-size="9.9626" font-family="CMR10"><tspan y="-722.365" x="203.549 209.9151 213.82044 218.80173 222.94618 231.52399 239.27489 243.18022 248.71942 253.14282 257.04817 264.30094 269.5612 278.13899 281.73548">TrackOrdersbyID</tspan></text>
<path transform="matrix(1,0,0,-1,548.182,124.90503)" stroke-width=".398" stroke-linecap="butt" stroke-miterlimit="10" stroke-linejoin="miter" fill="none" stroke="#000000" d="M0 0V17.933"/>
<path transform="matrix(1,0,0,-1,72,125.104007)" stroke-width=".398" stroke-linecap="butt" stroke-miterlimit="10" stroke-linejoin="miter" fill="none" stroke="#000000" d="M0 0H476.381"/>
<path transform="matrix(1,0,0,-1,72,125.104007)" stroke-width=".398" stroke-linecap="butt" stroke-miterlimit="10" stroke-linejoin="miter" fill="none" stroke="#000000" d="M0 0H476.381"/>
<path transform="matrix(1,0,0,-1,72.199,143.23603)" stroke-width=".398" stroke-linecap="butt" stroke-miterlimit="10" stroke-linejoin="miter" fill="none" stroke="#000000" d="M0 0V17.933"/>
<text xml:space="preserve" transform="matrix(1 0 -0 1 0 841.89)" font-size="9.9626" font-family="CMBX10" font-weight="bold"><tspan y="-704.034" x="78.376 84.7421 89.83299 95.561489 102.24639">Scope</tspan></text>
<path transform="matrix(1,0,0,-1,197.372,143.23603)" stroke-width=".398" stroke-linecap="butt" stroke-miterlimit="10" stroke-linejoin="miter" fill="none" stroke="#000000" d="M0 0V17.933"/>
<text xml:space="preserve" transform="matrix(1 0 -0 1 0 841.89)" font-size="9.9626" font-family="CMR10"><tspan y="-704.034" x="203.549 211.02095 215.7233 222.91629 228.17655 235.36954 246.169 252.39563 257.37693 262.35823 265.1278 269.05308 272.92854 275.69813 280.12153 287.36433 292.3456 297.88484 306.74159 314.353 318.7764 321.546 324.31559 329.29689 333.72029 337.6256 346.21339 355.3491 360.33039 365.8696 370.8509 375.83219 380.25559 388.55445 392.97785 398.2381 405.4311 410.9703 416.23057 420.15583 424.03129 428.45469">HawkTULogisticsandDeliveryManagementSystem</tspan></text>
<path transform="matrix(1,0,0,-1,548.182,143.23603)" stroke-width=".398" stroke-linecap="butt" stroke-miterlimit="10" stroke-linejoin="miter" fill="none" stroke="#000000" d="M0 0V17.933"/>
<path transform="matrix(1,0,0,-1,72,143.435)" stroke-width=".398" stroke-linecap="butt" stroke-miterlimit="10" stroke-linejoin="miter" fill="none" stroke="#000000" d="M0 0H476.381"/>
<path transform="matrix(1,0,0,-1,72,143.435)" stroke-width=".398" stroke-linecap="butt" stroke-miterlimit="10" stroke-linejoin="miter" fill="none" stroke="#000000" d="M0 0H476.381"/>
<path transform="matrix(1,0,0,-1,72.199,161.56702)" stroke-width=".398" stroke-linecap="butt" stroke-miterlimit="10" stroke-linejoin="miter" fill="none" stroke="#000000" d="M0 0V17.933"/>
<text xml:space="preserve" transform="matrix(1 0 -0 1 0 841.89)" font-size="9.9626" font-family="CMBX10" font-weight="bold"><tspan y="-685.703" x="78.376 85.27012 90.52041 96.2489 101.49919">Level</tspan></text>
<path transform="matrix(1,0,0,-1,197.372,161.56702)" stroke-width=".398" stroke-linecap="butt" stroke-miterlimit="10" stroke-linejoin="miter" fill="none" stroke="#000000" d="M0 0V17.933"/>
<text xml:space="preserve" transform="matrix(1 0 -0 1 0 841.89)" font-size="9.9626" font-family="CMR10"><tspan y="-685.703" x="203.549 211.02095 214.94622 219.36962 226.5925 234.41315 239.39444 244.37574">UserGoal</tspan></text>
<path transform="matrix(1,0,0,-1,548.182,161.56702)" stroke-width=".398" stroke-linecap="butt" stroke-miterlimit="10" stroke-linejoin="miter" fill="none" stroke="#000000" d="M0 0V17.933"/>
<path transform="matrix(1,0,0,-1,72,161.76599)" stroke-width=".398" stroke-linecap="butt" stroke-miterlimit="10" stroke-linejoin="miter" fill="none" stroke="#000000" d="M0 0H476.381"/>
<path transform="matrix(1,0,0,-1,72,161.76599)" stroke-width=".398" stroke-linecap="butt" stroke-miterlimit="10" stroke-linejoin="miter" fill="none" stroke="#000000" d="M0 0H476.381"/>
<path transform="matrix(1,0,0,-1,72.199,179.89801)" stroke-width=".398" stroke-linecap="butt" stroke-miterlimit="10" stroke-linejoin="miter" fill="none" stroke="#000000" d="M0 0V17.933"/>
<text xml:space="preserve" transform="matrix(1 0 -0 1 0 841.89)" font-size="9.9626" font-family="CMBX10" font-weight="bold"><tspan y="-667.372" x="78.376 86.206607 90.92888 94.10695 103.65112 109.220218 113.94249 123.81543 132.47293 137.56381 142.01709 147.74559">PrimaryActor</tspan></text>
<path transform="matrix(1,0,0,-1,197.372,179.89801)" stroke-width=".398" stroke-linecap="butt" stroke-miterlimit="10" stroke-linejoin="miter" fill="none" stroke="#000000" d="M0 0V17.933"/>
<text xml:space="preserve" transform="matrix(1 0 -0 1 0 841.89)" font-size="9.9626" font-family="CMR10"><tspan y="-667.372" x="203.549 210.74199 216.28119 220.20645 224.08191 229.0632 237.36205 241.78545 245.69078 250.67208 258.4927 264.03193 268.45533 272.38059">Customer/Guest</tspan></text>
<path transform="matrix(1,0,0,-1,548.182,179.89801)" stroke-width=".398" stroke-linecap="butt" stroke-miterlimit="10" stroke-linejoin="miter" fill="none" stroke="#000000" d="M0 0V17.933"/>
<path transform="matrix(1,0,0,-1,72,180.09803)" stroke-width=".398" stroke-linecap="butt" stroke-miterlimit="10" stroke-linejoin="miter" fill="none" stroke="#000000" d="M0 0H476.381"/>
<path transform="matrix(1,0,0,-1,72,180.09803)" stroke-width=".398" stroke-linecap="butt" stroke-miterlimit="10" stroke-linejoin="miter" fill="none" stroke="#000000" d="M0 0H476.381"/>
<path transform="matrix(1,0,0,-1,72.199,278.274)" stroke-width=".398" stroke-linecap="butt" stroke-miterlimit="10" stroke-linejoin="miter" fill="none" stroke="#000000" d="M0 0V97.977"/>
<text xml:space="preserve" transform="matrix(1 0 -0 1 0 841.89)" font-size="9.9626" font-family="CMBX10" font-weight="bold"><tspan y="-614.996" x="78.376 84.7421 89.19539 94.76448 100.49298 105.74327 112.109378 117.83787 121.01594 127.38204 132.63234 137.35462 145.69332 151.2624 157.62851">Stakeholdersand</tspan><tspan y="-603.04098" x="78.376 82.719699 88.767 93.22028 98.47057 103.19285 108.44314 112.966159 117.41944">Interests</tspan></text>
<path transform="matrix(1,0,0,-1,197.372,278.274)" stroke-width=".398" stroke-linecap="butt" stroke-miterlimit="10" stroke-linejoin="miter" fill="none" stroke="#000000" d="M0 0V97.977"/>
<text xml:space="preserve" transform="matrix(1 0 -0 1 0 841.89)" font-size="4.9813" font-family="CMSY5" font-style="italic"><tspan y="-645.975" x="203.549">&#x2022;</tspan></text>
<text xml:space="preserve" transform="matrix(1 0 -0 1 0 841.89)" font-size="9.9626" font-family="CMR10"><tspan y="-644.712" x="212.19699 219.38999 224.92919 228.85445 232.7299 237.7112 246.01004 250.43344 254.33878 261.19303 270.60768 275.58897 280.8492 284.72468 291.28007 295.15553 302.76695 311.0658 316.0471 321.5863 324.3559 328.23136 333.21266 339.7481 343.62358 349.16279 356.2163 360.14158 364.01704 368.99833 372.87379 378.413 384.97834 389.95964 395.4889 403.66819 406.43778 411.68806 416.11146 421.09275 424.9682 427.7378 432.7191 440.89839 445.87968 451.55836 455.4338 460.97303 465.39643 468.16603 474.70149 479.68278 483.5881 489.12733 493.55073 500.08619 503.13475 508.11604 514.6515 518.5269 521.2965 529.59536 534.01876 536.7883">Customer:Wantstomonitorthestatusandlocationoftheirorderfortimely</tspan><tspan y="-632.75698" x="212.19699 217.73619 223.55434 229.09354 234.07483 237.95029 242.37369 246.29895">updates.</tspan></text>
<text xml:space="preserve" transform="matrix(1 0 -0 1 0 841.89)" font-size="4.9813" font-family="CMSY5" font-style="italic"><tspan y="-614.09396" x="203.549">&#x2022;</tspan></text>
<text xml:space="preserve" transform="matrix(1 0 -0 1 0 841.89)" font-size="9.9626" font-family="CMR10"><tspan y="-612.8319" x="212.19699 220.01764 225.55684 229.98024 233.9055 237.78096 244.97397 252.44593 255.21553 263.51438 270.76716 274.6426 282.94145 287.08589 292.6251 297.0485 301.2029 309.7807 314.762 318.66734 324.20655 328.62995 335.8528 339.77809 343.65354 348.63484 352.51029 358.0495 365.30229 372.49528 375.26487 379.14033 384.67955 389.66084 395.20005 402.39305 407.93226 412.35566 416.77906 422.31828 425.08787 430.62709 438.9259 442.80137 451.11018 453.87977 458.86106 467.15989 469.92948 475.4687">Guest:Aimstocheckorderstatuswithoutneedingtologin.</tspan></text>
<text xml:space="preserve" transform="matrix(1 0 -0 1 0 841.89)" font-size="4.9813" font-family="CMSY5" font-style="italic"><tspan y="-594.1689" x="203.549">&#x2022;</tspan></text>
<text xml:space="preserve" transform="matrix(1 0 -0 1 0 841.89)" font-size="9.9626" font-family="CMR10"><tspan y="-592.9059" x="212.19699 217.73619 222.99645 226.9217 230.79717 235.22057 246.77718 254.24913 259.78834 268.0872 270.85679 276.396 279.1656 283.09086 286.9663 290.87165 295.85295 299.7284 304.7097 308.61503 315.7781 322.56266 328.10188 332.02714 337.56636 341.47169 345.89509 353.07814 356.95359 362.4928 370.17399 374.04945 377.95478 382.93608 387.0805 392.34077 395.11036 400.64958 408.88865 412.8139 418.07417 421.99943 425.87489 430.29829 441.85493 444.90348 450.4427 455.9819 460.4053 464.28077 467.05036 472.03166 477.57087 484.7539 489.1773 494.1586 498.06394 501.96928 506.39268 510.81608 514.6915 517.4611 525.9791 530.96047 536.49966">SystemAdministrator:Ensuresthetrackingsystemfunctionscorrectlyand</tspan><tspan y="-580.95089" x="212.19699 216.12226 220.54566 224.96906 230.50826 234.41359 238.83699 241.6066 246.03997">securely.</tspan></text>
<path transform="matrix(1,0,0,-1,548.182,278.274)" stroke-width=".398" stroke-linecap="butt" stroke-miterlimit="10" stroke-linejoin="miter" fill="none" stroke="#000000" d="M0 0V97.977"/>
<path transform="matrix(1,0,0,-1,72,278.47303)" stroke-width=".398" stroke-linecap="butt" stroke-miterlimit="10" stroke-linejoin="miter" fill="none" stroke="#000000" d="M0 0H476.381"/>
<path transform="matrix(1,0,0,-1,72,278.47303)" stroke-width=".398" stroke-linecap="butt" stroke-miterlimit="10" stroke-linejoin="miter" fill="none" stroke="#000000" d="M0 0H476.381"/>
<path transform="matrix(1,0,0,-1,72.199,312.88905)" stroke-width=".398" stroke-linecap="butt" stroke-miterlimit="10" stroke-linejoin="miter" fill="none" stroke="#000000" d="M0 0V34.216"/>
<text xml:space="preserve" transform="matrix(1 0 -0 1 0 841.89)" font-size="9.9626" font-family="CMBX10" font-weight="bold"><tspan y="-542.523" x="78.376 86.206607 90.92888 96.17917 101.27006 106.99855 113.364658 119.73076 122.90883 127.362117 130.54018 136.26868 142.63478">Preconditions</tspan></text>
<path transform="matrix(1,0,0,-1,197.372,312.88905)" stroke-width=".398" stroke-linecap="butt" stroke-miterlimit="10" stroke-linejoin="miter" fill="none" stroke="#000000" d="M0 0V34.216"/>
<text xml:space="preserve" transform="matrix(1 0 -0 1 0 841.89)" font-size="4.9813" font-family="CMSY5" font-style="italic"><tspan y="-547.599" x="203.549">&#x2022;</tspan></text>
<text xml:space="preserve" transform="matrix(1 0 -0 1 0 841.89)" font-size="9.9626" font-family="CMR10"><tspan y="-546.336" x="212.19699 219.38999 224.92919 232.67014 237.65143 241.55677 247.09597 251.51937 258.7522 264.2914 269.2727 276.5155 282.33369 286.75709 291.18049 300.03724 305.57646 308.34605 313.32734 317.75074 322.17414 331.03089 336.01219 341.5514 350.41813 355.3994 359.32469 363.24995 366.01954 371.00083 376.54005 380.96345 389.8202 398.11903 403.65824 409.19746 411.96705 417.2273 422.7665 430.51744 434.39289 438.29823 443.2795 447.42396 452.6842 455.4538 460.993 469.29185 472.88835 480.49977">TheorderhasbeenplacedandassignedauniquetrackingID.</tspan></text>
<path transform="matrix(1,0,0,-1,548.182,312.88905)" stroke-width=".398" stroke-linecap="butt" stroke-miterlimit="10" stroke-linejoin="miter" fill="none" stroke="#000000" d="M0 0V34.216"/>
<path transform="matrix(1,0,0,-1,72,313.088)" stroke-width=".398" stroke-linecap="butt" stroke-miterlimit="10" stroke-linejoin="miter" fill="none" stroke="#000000" d="M0 0H476.381"/>
<path transform="matrix(1,0,0,-1,72,313.088)" stroke-width=".398" stroke-linecap="butt" stroke-miterlimit="10" stroke-linejoin="miter" fill="none" stroke="#000000" d="M0 0H476.381"/>
<path transform="matrix(1,0,0,-1,72.199,347.50303)" stroke-width=".398" stroke-linecap="butt" stroke-miterlimit="10" stroke-linejoin="miter" fill="none" stroke="#000000" d="M0 0V34.216"/>
<text xml:space="preserve" transform="matrix(1 0 -0 1 0 841.89)" font-size="9.9626" font-family="CMBX10" font-weight="bold"><tspan y="-507.908" x="78.376 85.8878 91.616298 96.13931 100.5926 105.68349 111.41198 117.77808 124.14419 127.32226 131.77555 134.95362 140.68212 147.04822">Postconditions</tspan></text>
<path transform="matrix(1,0,0,-1,197.372,347.50303)" stroke-width=".398" stroke-linecap="butt" stroke-miterlimit="10" stroke-linejoin="miter" fill="none" stroke="#000000" d="M0 0V34.216"/>
<text xml:space="preserve" transform="matrix(1 0 -0 1 0 841.89)" font-size="4.9813" font-family="CMSY5" font-style="italic"><tspan y="-512.984" x="203.549">&#x2022;</tspan></text>
<text xml:space="preserve" transform="matrix(1 0 -0 1 0 841.89)" font-size="9.9626" font-family="CMR10"><tspan y="-511.72203" x="212.19699 219.38999 224.92919 232.25171 236.67511 242.21431 246.13957 250.01503 254.99633 263.29518 267.72853 274.53297 279.51426 286.3187 291.3 296.8392 301.2626 305.18788 311.9724 316.3958 321.3771 329.81544 335.07569 337.84529 342.26869 352.36079 356.23625 361.77546 369.10795 373.53135 379.07057 382.9759 386.88124 391.30464 396.56489 403.33946 407.2647 411.14018 416.12147 419.99693 425.53614 432.37049 437.35179 442.891 451.3293 454.0989 459.35917 463.78257 468.76387 472.6393 475.4089 480.3902 488.82853 493.8098 499.75749 503.63294 509.17216 516.5046 521.4859 525.39126 530.9304 535.3538 539.25918">Thecustomerorguestcanviewthecurrentstatusandlocationoftheorder.</tspan></text>
<path transform="matrix(1,0,0,-1,548.182,347.50303)" stroke-width=".398" stroke-linecap="butt" stroke-miterlimit="10" stroke-linejoin="miter" fill="none" stroke="#000000" d="M0 0V34.216"/>
<path transform="matrix(1,0,0,-1,72,347.703)" stroke-width=".398" stroke-linecap="butt" stroke-miterlimit="10" stroke-linejoin="miter" fill="none" stroke="#000000" d="M0 0H476.381"/>
<path transform="matrix(1,0,0,-1,72,347.703)" stroke-width=".398" stroke-linecap="butt" stroke-miterlimit="10" stroke-linejoin="miter" fill="none" stroke="#000000" d="M0 0H476.381"/>
<path transform="matrix(1,0,0,-1,72,347.60304)" stroke-width=".398" stroke-linecap="butt" stroke-miterlimit="10" stroke-linejoin="miter" fill="none" stroke="#000000" d="M0 0H476.381"/>
<path transform="matrix(1,0,0,-1,72,347.60304)" stroke-width=".398" stroke-linecap="butt" stroke-miterlimit="10" stroke-linejoin="miter" fill="none" stroke="#000000" d="M0 0H476.381"/>
<path transform="matrix(1,0,0,-1,72.199,365.73503)" stroke-width=".398" stroke-linecap="butt" stroke-miterlimit="10" stroke-linejoin="miter" fill="none" stroke="#000000" d="M0 0V17.933"/>
<text xml:space="preserve" transform="matrix(1 0 -0 1 0 841.89)" font-size="9.9626" font-family="CMBX10" font-weight="bold"><tspan y="-481.535" x="253.638 264.51716 270.08625 273.2643 283.44609 289.81217 296.17826 301.26914 306.36003 311.61033 316.13334 324.482 330.84809 335.93898 341.18928 347.55537 353.12446 357.8467 361.02479">MainSuccessScenario</tspan></text>
<path transform="matrix(1,0,0,-1,548.182,365.73503)" stroke-width=".398" stroke-linecap="butt" stroke-miterlimit="10" stroke-linejoin="miter" fill="none" stroke="#000000" d="M0 0V17.933"/>
<path transform="matrix(1,0,0,-1,72,365.93403)" stroke-width=".398" stroke-linecap="butt" stroke-miterlimit="10" stroke-linejoin="miter" fill="none" stroke="#000000" d="M0 0H476.381"/>
<path transform="matrix(1,0,0,-1,72,365.93403)" stroke-width=".398" stroke-linecap="butt" stroke-miterlimit="10" stroke-linejoin="miter" fill="none" stroke="#000000" d="M0 0H476.381"/>
<path transform="matrix(1,0,0,-1,72.199,384.066)" stroke-width=".398" stroke-linecap="butt" stroke-miterlimit="10" stroke-linejoin="miter" fill="none" stroke="#000000" d="M0 0V17.933"/>
<text xml:space="preserve" transform="matrix(1 0 -0 1 0 841.89)" font-size="9.9626" font-family="CMBX10" font-weight="bold"><tspan y="-463.204" x="121.779 130.4365 135.52738 139.98065 145.70915 154.2471 162.9046 167.99549 172.44876 175.62683 181.35533 191.54708 196.00035 201.72885 210.2668 214.61049 220.65779 225.11107 230.36136 236.40866 240.86194 244.04001 249.76851 256.1346">ActorAction(orIntention)</tspan></text>
<path transform="matrix(1,0,0,-1,310.191,384.066)" stroke-width=".398" stroke-linecap="butt" stroke-miterlimit="10" stroke-linejoin="miter" fill="none" stroke="#000000" d="M0 0V17.933"/>
<text xml:space="preserve" transform="matrix(1 0 -0 1 0 841.89)" font-size="9.9626" font-family="CMBX10" font-weight="bold"><tspan y="-463.204" x="373.636 380.00209 386.04939 390.5724 395.02568 400.27598 413.6358 422.23353 427.48384 432.00685 438.69175 444.42024 450.78633 455.30934 458.4874 464.8535 468.03157 471.20964 474.3877 478.53215">SystemResponsibility</tspan></text>
<path transform="matrix(1,0,0,-1,548.182,384.066)" stroke-width=".398" stroke-linecap="butt" stroke-miterlimit="10" stroke-linejoin="miter" fill="none" stroke="#000000" d="M0 0V17.933"/>
<path transform="matrix(1,0,0,-1,72,384.265)" stroke-width=".398" stroke-linecap="butt" stroke-miterlimit="10" stroke-linejoin="miter" fill="none" stroke="#000000" d="M0 0H476.381"/>
<path transform="matrix(1,0,0,-1,72,384.265)" stroke-width=".398" stroke-linecap="butt" stroke-miterlimit="10" stroke-linejoin="miter" fill="none" stroke="#000000" d="M0 0H476.381"/>
<path transform="matrix(1,0,0,-1,72.199,414.35304)" stroke-width=".398" stroke-linecap="butt" stroke-miterlimit="10" stroke-linejoin="miter" fill="none" stroke="#000000" d="M0 0V29.888"/>
<text xml:space="preserve" transform="matrix(1 0 -0 1 0 841.89)" font-size="9.9626" font-family="CMR10"><tspan y="-444.872" x="78.376 83.3573 91.21779 98.41079 103.95 107.87526 111.75071 116.73201 125.03085 129.46422 136.90628 141.88758 149.3396 154.32089 159.86009 164.2835 168.20876 175.62094 180.0543 185.31456 189.19002 193.61342 197.51876 204.98075 208.8562 214.3954 222.3655 226.24095 230.14629 235.12758 239.27204 244.53229 247.3019 252.8411 261.36909 264.96559 276.1237 281.10499 290.1809 294.05638 299.59559">1.CustomerorguestentersthetrackingIDonthe</tspan><tspan y="-432.91703" x="78.376 82.25145 86.15679 91.13809 95.28253 100.542789 103.312389 108.85159 117.15044 122.689647 127.670948 132.65224 137.0856">trackingpage.</tspan></text>
<path transform="matrix(1,0,0,-1,310.191,414.35304)" stroke-width=".398" stroke-linecap="butt" stroke-miterlimit="10" stroke-linejoin="miter" fill="none" stroke="#000000" d="M0 0V29.888"/>
<text xml:space="preserve" transform="matrix(1 0 -0 1 0 841.89)" font-size="9.9626" font-family="CMR10"><tspan y="-444.872" x="316.368 321.3493 328.4028 333.94203 339.20228 343.12754 347.003 351.4264 362.60444 366.50978 370.93318 374.80863 378.71397 381.48356 385.90696 390.88825 395.31166 402.1161 405.99156 411.53077 418.84333 423.82463 427.72996 433.26918 437.69258 444.47709 450.0163 454.4397 458.31517 463.29646 466.06605 468.83564 475.64009 480.62138 484.54664 488.4719 493.73216 498.15556 500.92515 505.90644 509.7819 514.20529 522.62368 529.81668 532.58627 536.4617">2.Systemretrievestheorderdetailsassociatedwith</tspan><tspan y="-432.91703" x="316.368 320.24348 325.78269 333.52363 337.39909 341.3044 346.2857 350.44013 355.69044 358.46003 363.99925 372.30805 375.90455 383.51597">thetrackingID.</tspan></text>
<path transform="matrix(1,0,0,-1,548.182,414.35304)" stroke-width=".398" stroke-linecap="butt" stroke-miterlimit="10" stroke-linejoin="miter" fill="none" stroke="#000000" d="M0 0V29.888"/>
<path transform="matrix(1,0,0,-1,72,414.552)" stroke-width=".398" stroke-linecap="butt" stroke-miterlimit="10" stroke-linejoin="miter" fill="none" stroke="#000000" d="M0 0H476.381"/>
<path transform="matrix(1,0,0,-1,72,414.552)" stroke-width=".398" stroke-linecap="butt" stroke-miterlimit="10" stroke-linejoin="miter" fill="none" stroke="#000000" d="M0 0H476.381"/>
<path transform="matrix(1,0,0,-1,72.199,444.639)" stroke-width=".398" stroke-linecap="butt" stroke-miterlimit="10" stroke-linejoin="miter" fill="none" stroke="#000000" d="M0 0V29.888"/>
<path transform="matrix(1,0,0,-1,310.191,444.639)" stroke-width=".398" stroke-linecap="butt" stroke-miterlimit="10" stroke-linejoin="miter" fill="none" stroke="#000000" d="M0 0V29.888"/>
<text xml:space="preserve" transform="matrix(1 0 -0 1 0 841.89)" font-size="9.9626" font-family="CMR10"><tspan y="-414.586" x="316.368 321.3493 330.49497 336.03419 341.29444 345.2197 349.09516 353.51856 365.79249 371.3317 374.1013 378.02656 383.56578 386.33537 391.0377 396.29795 404.19828 408.07374 413.603 422.00148 426.42488 431.96409 435.86943 439.77476 444.19816 449.4584 457.30894 461.2342 465.10966 470.09095 473.9664 479.5056 487.396 492.3773 497.9165 507.4308 510.20039 515.46066 519.88406 524.86538 528.7408 531.5104 536.4917">3.Systemdisplaysthecurrentstatusandlocation</tspan><tspan y="-402.631" x="316.368 321.3493 327.7154 331.59086 337.13008 344.88099 349.86228 353.7676 359.30683 363.73023 367.63557">oftheorder.</tspan></text>
<path transform="matrix(1,0,0,-1,548.182,444.639)" stroke-width=".398" stroke-linecap="butt" stroke-miterlimit="10" stroke-linejoin="miter" fill="none" stroke="#000000" d="M0 0V29.888"/>
<path transform="matrix(1,0,0,-1,72,444.838)" stroke-width=".398" stroke-linecap="butt" stroke-miterlimit="10" stroke-linejoin="miter" fill="none" stroke="#000000" d="M0 0H476.381"/>
<path transform="matrix(1,0,0,-1,72,444.838)" stroke-width=".398" stroke-linecap="butt" stroke-miterlimit="10" stroke-linejoin="miter" fill="none" stroke="#000000" d="M0 0H476.381"/>
<path transform="matrix(1,0,0,-1,72.199,474.92503)" stroke-width=".398" stroke-linecap="butt" stroke-miterlimit="10" stroke-linejoin="miter" fill="none" stroke="#000000" d="M0 0V29.888"/>
<text xml:space="preserve" transform="matrix(1 0 -0 1 0 841.89)" font-size="9.9626" font-family="CMR10"><tspan y="-384.3" x="78.376 83.3573 92.28378 99.47678 105.01599 108.94125 112.8167 117.798007 126.09685 130.52025 138.32096 143.30225 151.11292 156.09421 161.6334 166.05681 169.98207 177.7529 181.65824 186.08164 191.34189 194.1115 198.5349 205.72789 213.54853 217.42398 222.96318 231.28195 236.26325 240.16858 245.70778 250.13118 257.94187 261.86714 265.74259 270.72389 274.59934 280.13856 287.9592 292.9405 298.4797">4.Customerorguestreviewstheorderstatusand</tspan><tspan y="-372.344" x="78.376 82.79939 86.724658 90.600109 93.369709 101.66855 106.64985 110.5253 114.94869 123.80544 129.34465 133.76805 136.53766 139.30727 144.29853 148.72193 152.62726 161.20507 165.08052 167.85013 176.14897 180.57238">estimateddeliverytime.</tspan></text>
<path transform="matrix(1,0,0,-1,310.191,474.92503)" stroke-width=".398" stroke-linecap="butt" stroke-miterlimit="10" stroke-linejoin="miter" fill="none" stroke="#000000" d="M0 0V29.888"/>
<path transform="matrix(1,0,0,-1,548.182,474.92503)" stroke-width=".398" stroke-linecap="butt" stroke-miterlimit="10" stroke-linejoin="miter" fill="none" stroke="#000000" d="M0 0V29.888"/>
<path transform="matrix(1,0,0,-1,72,475.125)" stroke-width=".398" stroke-linecap="butt" stroke-miterlimit="10" stroke-linejoin="miter" fill="none" stroke="#000000" d="M0 0H476.381"/>
<path transform="matrix(1,0,0,-1,72,475.125)" stroke-width=".398" stroke-linecap="butt" stroke-miterlimit="10" stroke-linejoin="miter" fill="none" stroke="#000000" d="M0 0H476.381"/>
<path transform="matrix(1,0,0,-1,72.199,493.25703)" stroke-width=".398" stroke-linecap="butt" stroke-miterlimit="10" stroke-linejoin="miter" fill="none" stroke="#000000" d="M0 0V17.933"/>
<text xml:space="preserve" transform="matrix(1 0 -0 1 0 841.89)" font-size="9.9626" font-family="CMBX10" font-weight="bold"><tspan y="-354.013" x="283.211 290.74275 296.79005 301.24333 306.49363 312.8597 317.38273 320.5608 326.28929 332.65538">Extensions</tspan></text>
<path transform="matrix(1,0,0,-1,548.182,493.25703)" stroke-width=".398" stroke-linecap="butt" stroke-miterlimit="10" stroke-linejoin="miter" fill="none" stroke="#000000" d="M0 0V17.933"/>
<path transform="matrix(1,0,0,-1,72,493.45603)" stroke-width=".398" stroke-linecap="butt" stroke-miterlimit="10" stroke-linejoin="miter" fill="none" stroke="#000000" d="M0 0H476.381"/>
<path transform="matrix(1,0,0,-1,72,493.45603)" stroke-width=".398" stroke-linecap="butt" stroke-miterlimit="10" stroke-linejoin="miter" fill="none" stroke="#000000" d="M0 0H476.381"/>
<path transform="matrix(1,0,0,-1,72.199,511.588)" stroke-width=".398" stroke-linecap="butt" stroke-miterlimit="10" stroke-linejoin="miter" fill="none" stroke="#000000" d="M0 0V17.933"/>
<text xml:space="preserve" transform="matrix(1 0 -0 1 0 841.89)" font-size="9.9626" font-family="CMBX10" font-weight="bold"><tspan y="-335.682" x="121.779 130.4365 135.52738 139.98065 145.70915 154.2471 162.9046 167.99549 172.44876 175.62683 181.35533 191.54708 196.00035 201.72885 210.2668 214.61049 220.65779 225.11107 230.36136 236.40866 240.86194 244.04001 249.76851 256.1346">ActorAction(orIntention)</tspan></text>
<path transform="matrix(1,0,0,-1,310.191,511.588)" stroke-width=".398" stroke-linecap="butt" stroke-miterlimit="10" stroke-linejoin="miter" fill="none" stroke="#000000" d="M0 0V17.933"/>
<text xml:space="preserve" transform="matrix(1 0 -0 1 0 841.89)" font-size="9.9626" font-family="CMBX10" font-weight="bold"><tspan y="-335.682" x="373.636 380.00209 386.04939 390.5724 395.02568 400.27598 413.6358 422.23353 427.48384 432.00685 438.69175 444.42024 450.78633 455.30934 458.4874 464.8535 468.03157 471.20964 474.3877 478.53215">SystemResponsibility</tspan></text>
<path transform="matrix(1,0,0,-1,548.182,511.588)" stroke-width=".398" stroke-linecap="butt" stroke-miterlimit="10" stroke-linejoin="miter" fill="none" stroke="#000000" d="M0 0V17.933"/>
<path transform="matrix(1,0,0,-1,72,511.78703)" stroke-width=".398" stroke-linecap="butt" stroke-miterlimit="10" stroke-linejoin="miter" fill="none" stroke="#000000" d="M0 0H476.381"/>
<path transform="matrix(1,0,0,-1,72,511.78703)" stroke-width=".398" stroke-linecap="butt" stroke-miterlimit="10" stroke-linejoin="miter" fill="none" stroke="#000000" d="M0 0H476.381"/>
<path transform="matrix(1,0,0,-1,72.199,541.874)" stroke-width=".398" stroke-linecap="butt" stroke-miterlimit="10" stroke-linejoin="miter" fill="none" stroke="#000000" d="M0 0V29.888"/>
<text xml:space="preserve" transform="matrix(1 0 -0 1 0 841.89)" font-size="9.9626" font-family="CMBX10" font-weight="bold"><tspan y="-317.351" x="78.376 84.10449 89.673587">1a.</tspan></text>
<text xml:space="preserve" transform="matrix(1 0 -0 1 0 841.89)" font-size="9.9626" font-family="CMR10"><tspan y="-317.351" x="97.33 100.9265 107.31252 111.18797 116.72718 124.488048 128.3635 132.26883 137.25012 141.39458 146.65483 149.42444 154.96364 163.28241 166.8789 177.82779 180.5974 187.85018 190.61978 195.88999 200.59233 205.57363 208.34323 211.11284 216.65204 222.75913 226.63459 232.17378 239.93466 243.85993 249.12018 253.04544 256.9209 261.3443 272.98063 278.51985 283.50114 287.3766 290.14619 292.9108 295.6854 300.1088">IfthetrackingIDisinvalid,thesystemnotifies</tspan><tspan y="-305.39604" x="78.376 82.25145 87.79066 95.53159 101.0708 104.99606 109.41946 113.3248">theuser.</tspan></text>
<path transform="matrix(1,0,0,-1,310.191,541.874)" stroke-width=".398" stroke-linecap="butt" stroke-miterlimit="10" stroke-linejoin="miter" fill="none" stroke="#000000" d="M0 0V29.888"/>
<text xml:space="preserve" transform="matrix(1 0 -0 1 0 841.89)" font-size="9.9626" font-family="CMBX10" font-weight="bold"><tspan y="-317.351" x="316.368 322.0965 327.6656">1a.</tspan></text>
<text xml:space="preserve" transform="matrix(1 0 -0 1 0 841.89)" font-size="9.9626" font-family="CMR10"><tspan y="-317.351" x="335.14 340.67924 345.93949 349.86476 353.7402 358.1636 369.3815 374.92073 377.6903 381.61558 387.1548 389.92439 394.6267 399.88697 406.73127 411.71257 420.16087 424.58427 428.4896 432.39494 437.37623 444.2006 452.49946 456.92286 460.8481 464.77339 469.75468 474.73597 482.0784 484.83805 490.37727 495.91648 498.68608 503.10948 508.09077 511.96623 514.73587 520.275 528.1754 532.05087 537.59">Systemdisplaysanerrormessageindicatingthe</tspan><tspan y="-305.39604" x="316.368 320.24348 324.1488 329.1301 333.27455 338.5348 341.30439 346.8436 355.14244 358.73893 369.67787 372.44746 379.69026 385.22947 390.21076 397.40376 400.4523 405.4336 410.9728 416.51203 422.05125">trackingIDisnotfound.</tspan></text>
<path transform="matrix(1,0,0,-1,548.182,541.874)" stroke-width=".398" stroke-linecap="butt" stroke-miterlimit="10" stroke-linejoin="miter" fill="none" stroke="#000000" d="M0 0V29.888"/>
<path transform="matrix(1,0,0,-1,72,542.074)" stroke-width=".398" stroke-linecap="butt" stroke-miterlimit="10" stroke-linejoin="miter" fill="none" stroke="#000000" d="M0 0H476.381"/>
<path transform="matrix(1,0,0,-1,72,542.074)" stroke-width=".398" stroke-linecap="butt" stroke-miterlimit="10" stroke-linejoin="miter" fill="none" stroke="#000000" d="M0 0H476.381"/>
<path transform="matrix(1,0,0,-1,72.199,572.161)" stroke-width=".398" stroke-linecap="butt" stroke-miterlimit="10" stroke-linejoin="miter" fill="none" stroke="#000000" d="M0 0V29.888"/>
<text xml:space="preserve" transform="matrix(1 0 -0 1 0 841.89)" font-size="9.9626" font-family="CMBX10" font-weight="bold"><tspan y="-287.064" x="78.376 84.10449 89.673587">3a.</tspan></text>
<text xml:space="preserve" transform="matrix(1 0 -0 1 0 841.89)" font-size="9.9626" font-family="CMR10"><tspan y="-287.064" x="97.208 100.8045 106.94146 110.81691 116.35612 120.77951 124.68485 132.19666 134.96627 141.9899 150.0596 153.98487 159.24512 163.17038 167.04584 171.46924 182.85649 187.28986 191.18523 195.09056 200.07186 203.97719 209.88501 213.76047 219.29967 226.82144 231.24485 236.78404 240.7093 244.58477 249.56606 257.8649 262.2883 269.28205 274.26335 281.25709 286.23838 291.7776 296.201 300.12626">Ifthereisasystemerror,thecustomerorguest</tspan><tspan y="-275.109" x="78.376 81.1456 88.388408 91.158008 96.69721 99.745769 104.727069 108.63241 116.93125 121.354648 126.89385">isinformed.</tspan></text>
<path transform="matrix(1,0,0,-1,310.191,572.161)" stroke-width=".398" stroke-linecap="butt" stroke-miterlimit="10" stroke-linejoin="miter" fill="none" stroke="#000000" d="M0 0V29.888"/>
<text xml:space="preserve" transform="matrix(1 0 -0 1 0 841.89)" font-size="9.9626" font-family="CMBX10" font-weight="bold"><tspan y="-287.064" x="316.368 322.0965 327.6656">3a.</tspan></text>
<text xml:space="preserve" transform="matrix(1 0 -0 1 0 841.89)" font-size="9.9626" font-family="CMR10"><tspan y="-287.064" x="337.303 342.84223 348.10249 352.02775 355.9032 360.3266 372.62046 377.60176 380.37135 384.79475 388.70008 392.57554 400.4958 404.37126 409.91047 418.33885 423.87806 427.8033 432.2267 440.12705 445.10835 452.1519 457.13319 462.39344 471.64869 474.41828 478.34355 482.2688 487.808 492.2314 500.15168 504.057 508.4804 512.35586 516.26119 519.03079 523.45419 528.7144 531.484 537.0232">Systemalertstheuserofanyissuesretrieving</tspan><tspan y="-275.109" x="316.368 321.3493 325.25465 330.79386 335.21726 342.44013 347.97935 352.40275 356.2782 361.2595 364.02909 366.79869 370.72395">orderdetails.</tspan></text>
<path transform="matrix(1,0,0,-1,548.182,572.161)" stroke-width=".398" stroke-linecap="butt" stroke-miterlimit="10" stroke-linejoin="miter" fill="none" stroke="#000000" d="M0 0V29.888"/>
<path transform="matrix(1,0,0,-1,72,572.36)" stroke-width=".398" stroke-linecap="butt" stroke-miterlimit="10" stroke-linejoin="miter" fill="none" stroke="#000000" d="M0 0H476.381"/>
<path transform="matrix(1,0,0,-1,72,572.36)" stroke-width=".398" stroke-linecap="butt" stroke-miterlimit="10" stroke-linejoin="miter" fill="none" stroke="#000000" d="M0 0H476.381"/>
<text xml:space="preserve" transform="matrix(1 0 -0 1 0 841.89)" font-size="9.9626" font-family="CMR10"><tspan y="-42.112" x="292.656 297.6373">11</tspan></text>
</svg>
