<svg xmlns="http://www.w3.org/2000/svg" xmlns:xlink="http://www.w3.org/1999/xlink" version="1.1" width="595.276" height="841.89" viewBox="0 0 595.276 841.89">
<rect x="0" y="0" width="595.276" height="841.89" fill="white" />
<text xml:space="preserve" transform="matrix(1 0 -0 1 0 841.89)" font-size="14.3462" font-family="CMBX12" font-weight="bold"><tspan y="-759.927" x="171.155 180.12137 189.08774 198.05411 211.51085 216.0012 227.66466 238.69689 245.29615 253.81778 262.78416 271.75053 278.9236 290.58708 298.43446 307.40083 321.747 330.71339 338.07298 342.56333 347.05369 354.41328 366.39234 378.4288 385.7884 394.31004 398.80039 406.15998 417.82344">SubmitProductandSellerReviews</tspan></text>
<path transform="matrix(1,0,0,-1,72,103.98303)" stroke-width=".398" stroke-linecap="butt" stroke-miterlimit="10" stroke-linejoin="miter" fill="none" stroke="#000000" d="M0 0H476.381"/>
<path transform="matrix(1,0,0,-1,72,103.98303)" stroke-width=".398" stroke-linecap="butt" stroke-miterlimit="10" stroke-linejoin="miter" fill="none" stroke="#000000" d="M0 0H476.381"/>
<path transform="matrix(1,0,0,-1,72.199,122.11499)" stroke-width=".398" stroke-linecap="butt" stroke-miterlimit="10" stroke-linejoin="miter" fill="none" stroke="#000000" d="M0 0V17.933"/>
<text xml:space="preserve" transform="matrix(1 0 -0 1 0 841.89)" font-size="9.9626" font-family="CMBX10" font-weight="bold"><tspan y="-725.155" x="78.376 87.1929 91.71592 100.78188 109.06081 114.6299 119.152919 128.22885 137.19519 142.76428 152.30846">UseCaseName</tspan></text>
<path transform="matrix(1,0,0,-1,197.372,122.11499)" stroke-width=".398" stroke-linecap="butt" stroke-miterlimit="10" stroke-linejoin="miter" fill="none" stroke="#000000" d="M0 0V17.933"/>
<text xml:space="preserve" transform="matrix(1 0 -0 1 0 841.89)" font-size="9.9626" font-family="CMR10"><tspan y="-725.155" x="203.549 209.0882 214.6274 220.1666 228.46544 231.23505 238.42806 245.21259 249.11792 254.37816 259.91737 265.45658 269.87998 277.07298 282.05427 287.59349 296.45024 301.98945 306.41285 309.18244 311.95204 316.37544 323.60829 330.94078 335.36418 340.62443 343.394 347.8174 355.0104">SubmitProductandSellerReviews</tspan></text>
<path transform="matrix(1,0,0,-1,548.182,122.11499)" stroke-width=".398" stroke-linecap="butt" stroke-miterlimit="10" stroke-linejoin="miter" fill="none" stroke="#000000" d="M0 0V17.933"/>
<path transform="matrix(1,0,0,-1,72,122.314029)" stroke-width=".398" stroke-linecap="butt" stroke-miterlimit="10" stroke-linejoin="miter" fill="none" stroke="#000000" d="M0 0H476.381"/>
<path transform="matrix(1,0,0,-1,72,122.314029)" stroke-width=".398" stroke-linecap="butt" stroke-miterlimit="10" stroke-linejoin="miter" fill="none" stroke="#000000" d="M0 0H476.381"/>
<path transform="matrix(1,0,0,-1,72.199,140.44605)" stroke-width=".398" stroke-linecap="butt" stroke-miterlimit="10" stroke-linejoin="miter" fill="none" stroke="#000000" d="M0 0V17.933"/>
<text xml:space="preserve" transform="matrix(1 0 -0 1 0 841.89)" font-size="9.9626" font-family="CMBX10" font-weight="bold"><tspan y="-706.824" x="78.376 84.7421 89.83299 95.561489 102.24639">Scope</tspan></text>
<path transform="matrix(1,0,0,-1,197.372,140.44605)" stroke-width=".398" stroke-linecap="butt" stroke-miterlimit="10" stroke-linejoin="miter" fill="none" stroke="#000000" d="M0 0V17.933"/>
<text xml:space="preserve" transform="matrix(1 0 -0 1 0 841.89)" font-size="9.9626" font-family="CMR10"><tspan y="-706.824" x="203.549 211.02095 215.7233 222.91629 228.17655 235.36954 246.169 252.39563 257.37693 262.35823 265.1278 269.05308 272.92854 275.69813 280.12153 287.36433 292.3456 297.88484 306.74159 314.353 318.7764 321.546 324.31559 329.29689 333.72029 337.6256 346.21339 355.3491 360.33039 365.8696 370.8509 375.83219 380.25559 388.55445 392.97785 398.2381 405.4311 410.9703 416.23057 420.15583 424.03129 428.45469">HawkTULogisticsandDeliveryManagementSystem</tspan></text>
<path transform="matrix(1,0,0,-1,548.182,140.44605)" stroke-width=".398" stroke-linecap="butt" stroke-miterlimit="10" stroke-linejoin="miter" fill="none" stroke="#000000" d="M0 0V17.933"/>
<path transform="matrix(1,0,0,-1,72,140.646)" stroke-width=".398" stroke-linecap="butt" stroke-miterlimit="10" stroke-linejoin="miter" fill="none" stroke="#000000" d="M0 0H476.381"/>
<path transform="matrix(1,0,0,-1,72,140.646)" stroke-width=".398" stroke-linecap="butt" stroke-miterlimit="10" stroke-linejoin="miter" fill="none" stroke="#000000" d="M0 0H476.381"/>
<path transform="matrix(1,0,0,-1,72.199,158.77802)" stroke-width=".398" stroke-linecap="butt" stroke-miterlimit="10" stroke-linejoin="miter" fill="none" stroke="#000000" d="M0 0V17.933"/>
<text xml:space="preserve" transform="matrix(1 0 -0 1 0 841.89)" font-size="9.9626" font-family="CMBX10" font-weight="bold"><tspan y="-688.492" x="78.376 85.27012 90.52041 96.2489 101.49919">Level</tspan></text>
<path transform="matrix(1,0,0,-1,197.372,158.77802)" stroke-width=".398" stroke-linecap="butt" stroke-miterlimit="10" stroke-linejoin="miter" fill="none" stroke="#000000" d="M0 0V17.933"/>
<text xml:space="preserve" transform="matrix(1 0 -0 1 0 841.89)" font-size="9.9626" font-family="CMR10"><tspan y="-688.492" x="203.549 211.02095 214.94622 219.36962 226.5925 234.41315 239.39444 244.37574">UserGoal</tspan></text>
<path transform="matrix(1,0,0,-1,548.182,158.77802)" stroke-width=".398" stroke-linecap="butt" stroke-miterlimit="10" stroke-linejoin="miter" fill="none" stroke="#000000" d="M0 0V17.933"/>
<path transform="matrix(1,0,0,-1,72,158.97699)" stroke-width=".398" stroke-linecap="butt" stroke-miterlimit="10" stroke-linejoin="miter" fill="none" stroke="#000000" d="M0 0H476.381"/>
<path transform="matrix(1,0,0,-1,72,158.97699)" stroke-width=".398" stroke-linecap="butt" stroke-miterlimit="10" stroke-linejoin="miter" fill="none" stroke="#000000" d="M0 0H476.381"/>
<path transform="matrix(1,0,0,-1,72.199,177.10901)" stroke-width=".398" stroke-linecap="butt" stroke-miterlimit="10" stroke-linejoin="miter" fill="none" stroke="#000000" d="M0 0V17.933"/>
<text xml:space="preserve" transform="matrix(1 0 -0 1 0 841.89)" font-size="9.9626" font-family="CMBX10" font-weight="bold"><tspan y="-670.161" x="78.376 86.206607 90.92888 94.10695 103.65112 109.220218 113.94249 123.81543 132.47293 137.56381 142.01709 147.74559">PrimaryActor</tspan></text>
<path transform="matrix(1,0,0,-1,197.372,177.10901)" stroke-width=".398" stroke-linecap="butt" stroke-miterlimit="10" stroke-linejoin="miter" fill="none" stroke="#000000" d="M0 0V17.933"/>
<text xml:space="preserve" transform="matrix(1 0 -0 1 0 841.89)" font-size="9.9626" font-family="CMR10"><tspan y="-670.161" x="203.549 210.74199 216.28119 220.20645 224.08191 229.0632 237.36205 241.78545">Customer</tspan></text>
<path transform="matrix(1,0,0,-1,548.182,177.10901)" stroke-width=".398" stroke-linecap="butt" stroke-miterlimit="10" stroke-linejoin="miter" fill="none" stroke="#000000" d="M0 0V17.933"/>
<path transform="matrix(1,0,0,-1,72,177.30805)" stroke-width=".398" stroke-linecap="butt" stroke-miterlimit="10" stroke-linejoin="miter" fill="none" stroke="#000000" d="M0 0H476.381"/>
<path transform="matrix(1,0,0,-1,72,177.30805)" stroke-width=".398" stroke-linecap="butt" stroke-miterlimit="10" stroke-linejoin="miter" fill="none" stroke="#000000" d="M0 0H476.381"/>
<path transform="matrix(1,0,0,-1,72.199,319.32)" stroke-width=".398" stroke-linecap="butt" stroke-miterlimit="10" stroke-linejoin="miter" fill="none" stroke="#000000" d="M0 0V141.813"/>
<text xml:space="preserve" transform="matrix(1 0 -0 1 0 841.89)" font-size="9.9626" font-family="CMBX10" font-weight="bold"><tspan y="-595.867" x="78.376 84.7421 89.19539 94.76448 100.49298 105.74327 112.109378 117.83787 121.01594 127.38204 132.63234 137.35462 145.69332 151.2624 157.62851">Stakeholdersand</tspan><tspan y="-583.912" x="78.376 82.719699 88.767 93.22028 98.47057 103.19285 108.44314 112.966159 117.41944">Interests</tspan></text>
<path transform="matrix(1,0,0,-1,197.372,319.32)" stroke-width=".398" stroke-linecap="butt" stroke-miterlimit="10" stroke-linejoin="miter" fill="none" stroke="#000000" d="M0 0V141.813"/>
<text xml:space="preserve" transform="matrix(1 0 -0 1 0 841.89)" font-size="4.9813" font-family="CMSY5" font-style="italic"><tspan y="-648.764" x="203.549">&#x2022;</tspan></text>
<text xml:space="preserve" transform="matrix(1 0 -0 1 0 841.89)" font-size="9.9626" font-family="CMR10"><tspan y="-647.50198" x="212.19699 219.38999 224.92919 228.85445 232.7299 237.7112 246.01004 250.43344 254.33878 261.39228 270.80693 275.7882 281.04847 284.92393 291.8778 295.75328 303.77317 309.31239 313.2177 317.92005 323.1803 325.9499 331.4891 338.94114 341.9897 346.4131 350.8365 356.3757 361.91493 366.8962 371.04066 379.3395 384.3208 392.88865 398.42787 402.3332 407.59346 413.13267 418.67189 423.09529 426.97074 433.92463 438.9059 444.44514 453.02296 456.9482 461.3716 464.1412 466.9108 471.3342 475.23954 482.19343 486.06889 494.0788 499.618 504.0414 506.811 515.3888 520.3701 524.24557 529.7847 534.2081 538.11349">Customer:Wantstoprovidefeedbackonproductsandsellerstohelpothers</tspan><tspan y="-635.54598" x="212.19699 220.49584 225.47713 230.45844 238.20935 240.97896 246.51816 249.56671 254.548 258.4434 266.7522 271.1756 280.03236 285.57157 289.99497 294.41838 297.18797 301.11323 303.8828 308.8641 314.40333 321.64613 326.6274 332.16664 341.03337 343.793 349.3322 352.09684 354.87144 360.41065 364.83406 370.37327 374.79667 382.54759 386.42304 391.96226 399.7032 404.96345 410.50267 415.48396 418.25355 421.02314 424.61964 433.2074 438.1887 444.55479 448.48005 452.90345 456.80879 462.06904 464.83863 469.26203 473.68544">makeinformeddecisionsandinfluencethequalityofservice.</tspan></text>
<text xml:space="preserve" transform="matrix(1 0 -0 1 0 841.89)" font-size="4.9813" font-family="CMSY5" font-style="italic"><tspan y="-616.884" x="203.549">&#x2022;</tspan></text>
<text xml:space="preserve" transform="matrix(1 0 -0 1 0 841.89)" font-size="9.9626" font-family="CMR10"><tspan y="-615.621" x="212.19699 217.73619 222.15959 224.9292 227.6988 232.12221 236.02754 244.61531 254.02997 259.01127 264.2715 268.14698 276.08717 279.96263 288.95884 292.86418 297.28758 301.71098 306.13438 308.90397 313.89524 322.33357 325.3821 329.8055 334.2289 339.76814 345.30735 350.28865 354.43309 363.70826 367.5837 376.57994 379.34953 387.64839 393.1876 397.09294 401.80525 406.78654 415.22486 419.15013 423.57353 427.47886 432.7391 435.5087 439.9321 448.37043 453.63069 459.1699 464.15119 466.92079 469.69038 473.28688 482.57203 487.5533 493.09254 502.64668 507.07008 512.60928 516.53457 520.41 525.3913 533.6901 538.1135">Seller:Wantstoreceivefeedbacktoimproveservicequalityandcustomer</tspan><tspan y="-603.66598" x="212.19699 216.07245 219.97779 225.51699 229.44225 233.3177">trust.</tspan></text>
<text xml:space="preserve" transform="matrix(1 0 -0 1 0 841.89)" font-size="4.9813" font-family="CMSY5" font-style="italic"><tspan y="-585.0029" x="203.549">&#x2022;</tspan></text>
<text xml:space="preserve" transform="matrix(1 0 -0 1 0 841.89)" font-size="9.9626" font-family="CMR10"><tspan y="-583.7409" x="212.19699 219.94789 223.82335 229.36255 233.78595 241.54682 248.7398 254.279 258.20429 262.07975 267.06105 275.3599 279.7833 283.68864 287.6139 295.8928 303.22529 307.64869 310.41828 319.53407 324.51536 333.9101 339.4493 344.4306 349.96983 354.39323 358.31849 366.04948 369.9548 374.3782 379.63847 382.40806 386.83146 394.0344 401.8152 405.69065 414.52748 418.95088 423.66319 428.64448 431.41407 436.95329 441.93458 445.81004 454.08897 459.62818 463.5335 468.79377 474.33299 479.86225 484.2956 488.17106 495.95185 500.93315 506.47236 515.86709 519.79238 524.21578 526.98538 529.75497 534.17837 538.0837">OtherCustomers:Relyonhonestreviewstoevaluateproductsandsellers</tspan><tspan y="-571.7849" x="212.19699 218.01514 222.43854 225.48709 230.46839 234.37372 242.11467 247.65387 253.19307 257.09843 261.24287 266.78208 271.76338 275.68864 278.45823 283.99745 288.97874">beforepurchasing.</tspan></text>
<text xml:space="preserve" transform="matrix(1 0 -0 1 0 841.89)" font-size="4.9813" font-family="CMSY5" font-style="italic"><tspan y="-553.1229" x="203.549">&#x2022;</tspan></text>
<text xml:space="preserve" transform="matrix(1 0 -0 1 0 841.89)" font-size="9.9626" font-family="CMR10"><tspan y="-551.8599" x="212.19699 217.73619 222.99645 226.9217 230.79717 235.22057 247.30519 254.77715 260.31636 268.6152 271.3848 276.924 279.6936 283.61888 287.49433 291.39967 296.38096 300.2564 305.2377 309.14305 317.26255 324.0471 329.57637 333.51158 339.04084 342.94618 347.36958 355.08064 358.98597 363.40937 368.66963 371.4392 375.8626 383.0556 390.76667 395.74797 399.6533 407.8525 416.16133 421.4116 426.9508 431.3742 435.27955 440.26084 444.1363 448.5597 457.8847 462.866 468.4052 477.72026 483.25947 492.02656 497.56578 502.54707 510.2083 514.6317 519.61306 524.8733 528.7487 533.73007 536.49966">SystemAdministrator:Ensuresreviewsaremoderatedanddonotcontain</tspan><tspan y="-539.9049" x="212.19699 214.9666 220.5058 225.48709 231.02629 236.56549 240.47083 245.45212 250.99132 254.89665 257.66627 262.64756 266.523 274.26396 278.68736 283.66865 288.9289 292.80436 297.22776 302.498 306.37345">inappropriatecontent.</tspan></text>
<path transform="matrix(1,0,0,-1,548.182,319.32)" stroke-width=".398" stroke-linecap="butt" stroke-miterlimit="10" stroke-linejoin="miter" fill="none" stroke="#000000" d="M0 0V141.813"/>
<path transform="matrix(1,0,0,-1,72,319.51905)" stroke-width=".398" stroke-linecap="butt" stroke-miterlimit="10" stroke-linejoin="miter" fill="none" stroke="#000000" d="M0 0H476.381"/>
<path transform="matrix(1,0,0,-1,72,319.51905)" stroke-width=".398" stroke-linecap="butt" stroke-miterlimit="10" stroke-linejoin="miter" fill="none" stroke="#000000" d="M0 0H476.381"/>
<path transform="matrix(1,0,0,-1,72.199,373.86003)" stroke-width=".398" stroke-linecap="butt" stroke-miterlimit="10" stroke-linejoin="miter" fill="none" stroke="#000000" d="M0 0V54.141"/>
<text xml:space="preserve" transform="matrix(1 0 -0 1 0 841.89)" font-size="9.9626" font-family="CMBX10" font-weight="bold"><tspan y="-491.514" x="78.376 86.206607 90.92888 96.17917 101.27006 106.99855 113.364658 119.73076 122.90883 127.362117 130.54018 136.26868 142.63478">Preconditions</tspan></text>
<path transform="matrix(1,0,0,-1,197.372,373.86003)" stroke-width=".398" stroke-linecap="butt" stroke-miterlimit="10" stroke-linejoin="miter" fill="none" stroke="#000000" d="M0 0V54.141"/>
<text xml:space="preserve" transform="matrix(1 0 -0 1 0 841.89)" font-size="4.9813" font-family="CMSY5" font-style="italic"><tspan y="-506.553" x="203.549">&#x2022;</tspan></text>
<text xml:space="preserve" transform="matrix(1 0 -0 1 0 841.89)" font-size="9.9626" font-family="CMR10"><tspan y="-505.29" x="212.19699 219.38999 224.92919 232.67014 237.09354 242.63274 246.558 250.43346 255.41475 263.7136 268.137 275.36985 278.13945 285.38224 288.15184 293.13313 298.1144 303.0957 307.5191 316.37586 319.14546 324.41569 328.29115 336.58998 340.46543 346.00465 353.74559 357.67085 362.9311 366.85636 370.7318 375.1552 383.45408">Thecustomerisloggedintothesystem.</tspan></text>
<text xml:space="preserve" transform="matrix(1 0 -0 1 0 841.89)" font-size="4.9813" font-family="CMSY5" font-style="italic"><tspan y="-486.62803" x="203.549">&#x2022;</tspan></text>
<text xml:space="preserve" transform="matrix(1 0 -0 1 0 841.89)" font-size="9.9626" font-family="CMR10"><tspan y="-485.36503" x="212.19699 219.38999 224.92919 232.67014 237.09354 242.63274 246.558 250.43346 255.41475 263.7136 268.137 275.36985 280.90907 285.89036 293.13316 301.432 306.4133 311.9525 319.69346 328.00227 333.54148 339.0807 342.98603 347.13047 352.66969 357.65098 361.57624 369.31718 374.29847 381.5313 384.3009 389.56117 393.4366 397.86003 401.76536 406.74665 411.17005 415.0455 419.4689 428.32566 435.51866 438.28825 442.1637 451.03044 459.32926 463.25453 467.67793 470.4475 473.2171 477.6405 481.54585">Thecustomerhasmadeapurchaseorinteractedwithaseller.</tspan></text>
<path transform="matrix(1,0,0,-1,548.182,373.86003)" stroke-width=".398" stroke-linecap="butt" stroke-miterlimit="10" stroke-linejoin="miter" fill="none" stroke="#000000" d="M0 0V54.141"/>
<path transform="matrix(1,0,0,-1,72,374.05903)" stroke-width=".398" stroke-linecap="butt" stroke-miterlimit="10" stroke-linejoin="miter" fill="none" stroke="#000000" d="M0 0H476.381"/>
<path transform="matrix(1,0,0,-1,72,374.05903)" stroke-width=".398" stroke-linecap="butt" stroke-miterlimit="10" stroke-linejoin="miter" fill="none" stroke="#000000" d="M0 0H476.381"/>
<path transform="matrix(1,0,0,-1,72.199,428.40003)" stroke-width=".398" stroke-linecap="butt" stroke-miterlimit="10" stroke-linejoin="miter" fill="none" stroke="#000000" d="M0 0V54.141"/>
<text xml:space="preserve" transform="matrix(1 0 -0 1 0 841.89)" font-size="9.9626" font-family="CMBX10" font-weight="bold"><tspan y="-436.974" x="78.376 85.8878 91.616298 96.13931 100.5926 105.68349 111.41198 117.77808 124.14419 127.32226 131.77555 134.95362 140.68212 147.04822">Postconditions</tspan></text>
<path transform="matrix(1,0,0,-1,197.372,428.40003)" stroke-width=".398" stroke-linecap="butt" stroke-miterlimit="10" stroke-linejoin="miter" fill="none" stroke="#000000" d="M0 0V54.141"/>
<text xml:space="preserve" transform="matrix(1 0 -0 1 0 841.89)" font-size="4.9813" font-family="CMSY5" font-style="italic"><tspan y="-452.013" x="203.549">&#x2022;</tspan></text>
<text xml:space="preserve" transform="matrix(1 0 -0 1 0 841.89)" font-size="9.9626" font-family="CMR10"><tspan y="-450.75" x="212.19699 219.38999 224.92919 232.67014 236.57547 240.99887 246.25913 249.02873 253.45214 263.97267 266.74226 273.98506 277.9103 283.44953 288.98875 297.2876 300.0572 303.93266 307.8081 312.2315 321.08827 326.06956 331.60877 340.4755 344.40077 348.2762 353.2575 357.16285 361.58625 370.443 373.2126 382.06935 385.9448 391.484 399.23493 404.77415 409.75544 413.6309 418.61219 424.1514 429.1327 433.05796 437.48136">Thereviewissubmittedandstoredinthedatabase.</tspan></text>
<text xml:space="preserve" transform="matrix(1 0 -0 1 0 841.89)" font-size="4.9813" font-family="CMSY5" font-style="italic"><tspan y="-432.088" x="203.549">&#x2022;</tspan></text>
<text xml:space="preserve" transform="matrix(1 0 -0 1 0 841.89)" font-size="9.9626" font-family="CMR10"><tspan y="-430.825" x="212.19699 219.38999 224.92919 232.67014 236.5954 241.0188 243.7884 246.55802 250.98142 258.21427 266.51313 271.21546 279.79325 285.0535 287.8231 292.2465 302.767 307.7483 313.2875 322.14427 326.0496 330.473 334.39826 340.21644 345.19773 350.73695 359.5937 363.46916 371.76799 375.64344 381.18266 388.93357 392.8389 397.2623 402.52256 405.29216 409.71556 416.90855">Thesellermayviewandrespondtothereview.</tspan></text>
<path transform="matrix(1,0,0,-1,548.182,428.40003)" stroke-width=".398" stroke-linecap="butt" stroke-miterlimit="10" stroke-linejoin="miter" fill="none" stroke="#000000" d="M0 0V54.141"/>
<path transform="matrix(1,0,0,-1,72,428.59904)" stroke-width=".398" stroke-linecap="butt" stroke-miterlimit="10" stroke-linejoin="miter" fill="none" stroke="#000000" d="M0 0H476.381"/>
<path transform="matrix(1,0,0,-1,72,428.59904)" stroke-width=".398" stroke-linecap="butt" stroke-miterlimit="10" stroke-linejoin="miter" fill="none" stroke="#000000" d="M0 0H476.381"/>
<path transform="matrix(1,0,0,-1,72,428.5)" stroke-width=".398" stroke-linecap="butt" stroke-miterlimit="10" stroke-linejoin="miter" fill="none" stroke="#000000" d="M0 0H476.381"/>
<path transform="matrix(1,0,0,-1,72,428.5)" stroke-width=".398" stroke-linecap="butt" stroke-miterlimit="10" stroke-linejoin="miter" fill="none" stroke="#000000" d="M0 0H476.381"/>
<path transform="matrix(1,0,0,-1,72.199,446.63203)" stroke-width=".398" stroke-linecap="butt" stroke-miterlimit="10" stroke-linejoin="miter" fill="none" stroke="#000000" d="M0 0V17.933"/>
<text xml:space="preserve" transform="matrix(1 0 -0 1 0 841.89)" font-size="9.9626" font-family="CMBX10" font-weight="bold"><tspan y="-400.638" x="253.638 264.51716 270.08625 273.2643 283.44609 289.81217 296.17826 301.26914 306.36003 311.61033 316.13334 324.482 330.84809 335.93898 341.18928 347.55537 353.12446 357.8467 361.02479">MainSuccessScenario</tspan></text>
<path transform="matrix(1,0,0,-1,548.182,446.63203)" stroke-width=".398" stroke-linecap="butt" stroke-miterlimit="10" stroke-linejoin="miter" fill="none" stroke="#000000" d="M0 0V17.933"/>
<path transform="matrix(1,0,0,-1,72,446.83103)" stroke-width=".398" stroke-linecap="butt" stroke-miterlimit="10" stroke-linejoin="miter" fill="none" stroke="#000000" d="M0 0H476.381"/>
<path transform="matrix(1,0,0,-1,72,446.83103)" stroke-width=".398" stroke-linecap="butt" stroke-miterlimit="10" stroke-linejoin="miter" fill="none" stroke="#000000" d="M0 0H476.381"/>
<path transform="matrix(1,0,0,-1,72.199,464.963)" stroke-width=".398" stroke-linecap="butt" stroke-miterlimit="10" stroke-linejoin="miter" fill="none" stroke="#000000" d="M0 0V17.933"/>
<text xml:space="preserve" transform="matrix(1 0 -0 1 0 841.89)" font-size="9.9626" font-family="CMBX10" font-weight="bold"><tspan y="-382.307" x="121.779 130.4365 135.52738 139.98065 145.70915 154.2471 162.9046 167.99549 172.44876 175.62683 181.35533 191.54708 196.00035 201.72885 210.2668 214.61049 220.65779 225.11107 230.36136 236.40866 240.86194 244.04001 249.76851 256.1346">ActorAction(orIntention)</tspan></text>
<path transform="matrix(1,0,0,-1,310.191,464.963)" stroke-width=".398" stroke-linecap="butt" stroke-miterlimit="10" stroke-linejoin="miter" fill="none" stroke="#000000" d="M0 0V17.933"/>
<text xml:space="preserve" transform="matrix(1 0 -0 1 0 841.89)" font-size="9.9626" font-family="CMBX10" font-weight="bold"><tspan y="-382.307" x="373.636 380.00209 386.04939 390.5724 395.02568 400.27598 413.6358 422.23353 427.48384 432.00685 438.69175 444.42024 450.78633 455.30934 458.4874 464.8535 468.03157 471.20964 474.3877 478.53215">SystemResponsibility</tspan></text>
<path transform="matrix(1,0,0,-1,548.182,464.963)" stroke-width=".398" stroke-linecap="butt" stroke-miterlimit="10" stroke-linejoin="miter" fill="none" stroke="#000000" d="M0 0V17.933"/>
<path transform="matrix(1,0,0,-1,72,465.16203)" stroke-width=".398" stroke-linecap="butt" stroke-miterlimit="10" stroke-linejoin="miter" fill="none" stroke="#000000" d="M0 0H476.381"/>
<path transform="matrix(1,0,0,-1,72,465.16203)" stroke-width=".398" stroke-linecap="butt" stroke-miterlimit="10" stroke-linejoin="miter" fill="none" stroke="#000000" d="M0 0H476.381"/>
<path transform="matrix(1,0,0,-1,72.199,495.24903)" stroke-width=".398" stroke-linecap="butt" stroke-miterlimit="10" stroke-linejoin="miter" fill="none" stroke="#000000" d="M0 0V29.888"/>
<text xml:space="preserve" transform="matrix(1 0 -0 1 0 841.89)" font-size="9.9626" font-family="CMR10"><tspan y="-363.976" x="78.376 83.3573 92.98117 100.17417 105.71338 109.63864 113.51409 118.49539 126.794239 131.21764 139.25745 144.79665 149.499 154.75925 157.52886 162.51015 167.49144 171.3669 175.7903 183.85004 187.7255 196.8313 200.70676 206.24596 214.80384 220.34304 224.24837 229.49866 235.03786 240.57706 245.00046 253.01039 257.9917 266.02156 269.9468 274.3702 277.1398 279.9094 284.34275 292.3726 296.27793 300.70133">1.Customernavigatestotheproductorsellerre-</tspan><tspan y="-352.02104" x="78.376 83.63625 86.40585 90.82925 101.33979 105.26505 109.688449 114.1218 117.98729 120.75689 125.73819 131.27739">viewsection.</tspan></text>
<path transform="matrix(1,0,0,-1,310.191,495.24903)" stroke-width=".398" stroke-linecap="butt" stroke-miterlimit="10" stroke-linejoin="miter" fill="none" stroke="#000000" d="M0 0V29.888"/>
<text xml:space="preserve" transform="matrix(1 0 -0 1 0 841.89)" font-size="9.9626" font-family="CMR10"><tspan y="-357.998" x="316.368 321.3493 328.5423 334.0815 339.34178 343.26704 347.1425 351.5659 363.19227 368.73149 371.50108 375.42634 380.96556 383.73515 388.43748 393.69773 400.94053 404.81599 410.3552 418.1061 422.01145 426.43486 431.6951 434.4647 438.8881 449.39863 453.32389 458.8631 464.4023 472.70118 475.47077 479.39604 483.3213 486.09089 491.07218 499.92893 502.97749 507.95878 511.8641 520.16299">2.Systemdisplaysthereviewsubmissionform.</tspan></text>
<path transform="matrix(1,0,0,-1,548.182,495.24903)" stroke-width=".398" stroke-linecap="butt" stroke-miterlimit="10" stroke-linejoin="miter" fill="none" stroke="#000000" d="M0 0V29.888"/>
<path transform="matrix(1,0,0,-1,72,495.44804)" stroke-width=".398" stroke-linecap="butt" stroke-miterlimit="10" stroke-linejoin="miter" fill="none" stroke="#000000" d="M0 0H476.381"/>
<path transform="matrix(1,0,0,-1,72,495.44804)" stroke-width=".398" stroke-linecap="butt" stroke-miterlimit="10" stroke-linejoin="miter" fill="none" stroke="#000000" d="M0 0H476.381"/>
<path transform="matrix(1,0,0,-1,72.199,525.536)" stroke-width=".398" stroke-linecap="butt" stroke-miterlimit="10" stroke-linejoin="miter" fill="none" stroke="#000000" d="M0 0V29.888"/>
<text xml:space="preserve" transform="matrix(1 0 -0 1 0 841.89)" font-size="9.9626" font-family="CMR10"><tspan y="-327.712" x="78.376 83.3573 90.55029 97.74329 103.2825 107.20776 111.08321 116.064517 124.36336 128.79673 136.0196 143.2126 147.11794 149.88755 153.763 158.1864 165.42922 168.47777 172.90117 177.32457 182.86377 188.40297 193.38426 197.52872 206.11649 211.09778 216.63698 225.49373 231.03293 234.93827 239.64061 244.90087 247.67047 253.20967 257.63307 264.88584 273.18467 277.09 282.0713 285.94676 288.71635 294.25556 299.23686">3.Customerwritesfeedbackandprovidesarating.</tspan></text>
<path transform="matrix(1,0,0,-1,310.191,525.536)" stroke-width=".398" stroke-linecap="butt" stroke-miterlimit="10" stroke-linejoin="miter" fill="none" stroke="#000000" d="M0 0V29.888"/>
<text xml:space="preserve" transform="matrix(1 0 -0 1 0 841.89)" font-size="9.9626" font-family="CMR10"><tspan y="-333.689" x="316.368 321.3493 332.7266 338.2658 343.52607 347.45133 351.32679 355.75019 368.76136 373.47367 378.45497 381.22456 383.99415 389.5234 394.5047 398.38017 402.8135 411.45109 415.32655 420.86576 430.00148 432.77107 438.31028 443.8495 449.3887 457.97648 462.95777 468.49699 478.7485 483.1719 488.71113 492.63639 498.1756 502.08094 506.50434 515.1419 520.1232 522.8928 530.3747 534.28 538.7034">4.Systemvalidatestheinputandensuresallre-</tspan><tspan y="-321.734" x="316.368 321.62828 327.16749 329.93708 333.8424 338.2658 347.12257 349.88719 352.66178 357.08518 359.85478 365.39399 372.64677 377.62806 381.52345 389.27436 393.69776 398.67906 406.9779 412.51713 415.2867 419.7101 423.58558 428.00898 433.5482">quiredfieldsarecompleted.</tspan></text>
<path transform="matrix(1,0,0,-1,548.182,525.536)" stroke-width=".398" stroke-linecap="butt" stroke-miterlimit="10" stroke-linejoin="miter" fill="none" stroke="#000000" d="M0 0V29.888"/>
<path transform="matrix(1,0,0,-1,72,525.735)" stroke-width=".398" stroke-linecap="butt" stroke-miterlimit="10" stroke-linejoin="miter" fill="none" stroke="#000000" d="M0 0H476.381"/>
<path transform="matrix(1,0,0,-1,72,525.735)" stroke-width=".398" stroke-linecap="butt" stroke-miterlimit="10" stroke-linejoin="miter" fill="none" stroke="#000000" d="M0 0H476.381"/>
<path transform="matrix(1,0,0,-1,72.199,555.822)" stroke-width=".398" stroke-linecap="butt" stroke-miterlimit="10" stroke-linejoin="miter" fill="none" stroke="#000000" d="M0 0V29.888"/>
<text xml:space="preserve" transform="matrix(1 0 -0 1 0 841.89)" font-size="9.9626" font-family="CMR10"><tspan y="-297.425" x="78.376 83.3573 90.55029 97.74329 103.2825 107.20776 111.08321 116.064517 124.36336 128.79673 136.0196 139.94487 145.48407 151.02327 159.32212 162.09172 165.96718 173.20999 177.08545 182.62465 190.37557 194.27094 198.7043 203.96456 206.73416 211.15756 218.35056">5.Customersubmitsthereview.</tspan></text>
<path transform="matrix(1,0,0,-1,310.191,555.822)" stroke-width=".398" stroke-linecap="butt" stroke-miterlimit="10" stroke-linejoin="miter" fill="none" stroke="#000000" d="M0 0V29.888"/>
<text xml:space="preserve" transform="matrix(1 0 -0 1 0 841.89)" font-size="9.9626" font-family="CMR10"><tspan y="-303.403" x="316.368 321.3493 328.5124 334.0516 339.31187 343.23713 347.11259 351.53599 363.0727 366.99797 371.7003 376.68159 381.10499 388.25813 392.13359 397.6728 405.32408 409.2294 413.6528 418.91307 421.68266 426.10606 436.5369 440.41236 448.62153 452.49699 458.0362 465.68748 471.22669 476.20799 480.08345 485.06474 490.60395 495.58525 499.5105 507.16178 512.14309 517.68228 526.44937 531.9885 534.7581 538.6834">6.Systemsavesthereviewtothedatabaseanddis-</tspan><tspan y="-291.44804" x="316.368 321.90724 324.67683 329.37916 334.6394 341.8822 350.191 354.6144 359.5957 365.13493 367.89955 370.67414 374.57948 382.87834 387.85963 391.73509 394.50468 399.48597 408.3427 416.64158 421.06498 424.99024 428.9155 433.8968 438.87809 443.30149">playsaconfirmationmessage.</tspan></text>
<path transform="matrix(1,0,0,-1,548.182,555.822)" stroke-width=".398" stroke-linecap="butt" stroke-miterlimit="10" stroke-linejoin="miter" fill="none" stroke="#000000" d="M0 0V29.888"/>
<path transform="matrix(1,0,0,-1,72,556.021)" stroke-width=".398" stroke-linecap="butt" stroke-miterlimit="10" stroke-linejoin="miter" fill="none" stroke="#000000" d="M0 0H476.381"/>
<path transform="matrix(1,0,0,-1,72,556.021)" stroke-width=".398" stroke-linecap="butt" stroke-miterlimit="10" stroke-linejoin="miter" fill="none" stroke="#000000" d="M0 0H476.381"/>
<path transform="matrix(1,0,0,-1,72.199,574.153)" stroke-width=".398" stroke-linecap="butt" stroke-miterlimit="10" stroke-linejoin="miter" fill="none" stroke="#000000" d="M0 0V17.933"/>
<text xml:space="preserve" transform="matrix(1 0 -0 1 0 841.89)" font-size="9.9626" font-family="CMBX10" font-weight="bold"><tspan y="-273.117" x="283.211 290.74275 296.79005 301.24333 306.49363 312.8597 317.38273 320.5608 326.28929 332.65538">Extensions</tspan></text>
<path transform="matrix(1,0,0,-1,548.182,574.153)" stroke-width=".398" stroke-linecap="butt" stroke-miterlimit="10" stroke-linejoin="miter" fill="none" stroke="#000000" d="M0 0V17.933"/>
<path transform="matrix(1,0,0,-1,72,574.353)" stroke-width=".398" stroke-linecap="butt" stroke-miterlimit="10" stroke-linejoin="miter" fill="none" stroke="#000000" d="M0 0H476.381"/>
<path transform="matrix(1,0,0,-1,72,574.353)" stroke-width=".398" stroke-linecap="butt" stroke-miterlimit="10" stroke-linejoin="miter" fill="none" stroke="#000000" d="M0 0H476.381"/>
<path transform="matrix(1,0,0,-1,72.199,592.485)" stroke-width=".398" stroke-linecap="butt" stroke-miterlimit="10" stroke-linejoin="miter" fill="none" stroke="#000000" d="M0 0V17.933"/>
<text xml:space="preserve" transform="matrix(1 0 -0 1 0 841.89)" font-size="9.9626" font-family="CMBX10" font-weight="bold"><tspan y="-254.785" x="121.779 130.4365 135.52738 139.98065 145.70915 154.2471 162.9046 167.99549 172.44876 175.62683 181.35533 191.54708 196.00035 201.72885 210.2668 214.61049 220.65779 225.11107 230.36136 236.40866 240.86194 244.04001 249.76851 256.1346">ActorAction(orIntention)</tspan></text>
<path transform="matrix(1,0,0,-1,310.191,592.485)" stroke-width=".398" stroke-linecap="butt" stroke-miterlimit="10" stroke-linejoin="miter" fill="none" stroke="#000000" d="M0 0V17.933"/>
<text xml:space="preserve" transform="matrix(1 0 -0 1 0 841.89)" font-size="9.9626" font-family="CMBX10" font-weight="bold"><tspan y="-254.785" x="373.636 380.00209 386.04939 390.5724 395.02568 400.27598 413.6358 422.23353 427.48384 432.00685 438.69175 444.42024 450.78633 455.30934 458.4874 464.8535 468.03157 471.20964 474.3877 478.53215">SystemResponsibility</tspan></text>
<path transform="matrix(1,0,0,-1,548.182,592.485)" stroke-width=".398" stroke-linecap="butt" stroke-miterlimit="10" stroke-linejoin="miter" fill="none" stroke="#000000" d="M0 0V17.933"/>
<path transform="matrix(1,0,0,-1,72,592.684)" stroke-width=".398" stroke-linecap="butt" stroke-miterlimit="10" stroke-linejoin="miter" fill="none" stroke="#000000" d="M0 0H476.381"/>
<path transform="matrix(1,0,0,-1,72,592.684)" stroke-width=".398" stroke-linecap="butt" stroke-miterlimit="10" stroke-linejoin="miter" fill="none" stroke="#000000" d="M0 0H476.381"/>
<path transform="matrix(1,0,0,-1,72.199,622.771)" stroke-width=".398" stroke-linecap="butt" stroke-miterlimit="10" stroke-linejoin="miter" fill="none" stroke="#000000" d="M0 0V29.888"/>
<text xml:space="preserve" transform="matrix(1 0 -0 1 0 841.89)" font-size="9.9626" font-family="CMBX10" font-weight="bold"><tspan y="-236.454" x="78.376 84.10449 89.673587">3a.</tspan></text>
<text xml:space="preserve" transform="matrix(1 0 -0 1 0 841.89)" font-size="9.9626" font-family="CMR10"><tspan y="-236.454" x="97.020999 100.61749 106.19655 110.072 115.611209 122.5651 126.47044 130.89385 136.1541 138.9237 143.3471 153.0706 157.50397 162.48526 167.74552 171.62097 176.60227 179.37187 184.91107 191.36684 194.13645 199.67565 204.65694 210.19614 215.73534 219.64067 224.62197 230.16117 234.0665 236.8361 241.8174 245.69286 252.64676 257.07017 262.05146 267.3117 271.18717 275.61058 280.87083 284.74629 290.20579 294.08125 299.62046">Ifthereviewcontainsinappropriatecontent,the</tspan><tspan y="-224.499" x="78.37599 82.799388 88.33859 92.263858 96.139308 101.120609 109.41945 113.84284 121.06573 124.97107 129.39447 134.65473 137.42433 141.3496 145.773 153.02577 155.79538 159.67084">customerrevisesit.</tspan></text>
<path transform="matrix(1,0,0,-1,310.191,622.771)" stroke-width=".398" stroke-linecap="butt" stroke-miterlimit="10" stroke-linejoin="miter" fill="none" stroke="#000000" d="M0 0V29.888"/>
<text xml:space="preserve" transform="matrix(1 0 -0 1 0 841.89)" font-size="9.9626" font-family="CMBX10" font-weight="bold"><tspan y="-236.454" x="316.368 322.0965 327.6656">3a.</tspan></text>
<text xml:space="preserve" transform="matrix(1 0 -0 1 0 841.89)" font-size="9.9626" font-family="CMR10"><tspan y="-236.454" x="345.881 351.42024 356.68049 360.60575 364.4812 368.9046 384.05775 389.59696 394.02037 397.8958 402.3192 406.7426 410.61808 421.3976 424.1672 429.70643 434.6877 440.22694 445.76615 449.67149 454.65278 460.192 464.09733 466.8669 471.8482 475.72367 487.00135 491.42475 496.40605 501.67628 505.55174 509.97514 515.2354 525.9651 530.9464 536.4856">Systemdetectsinappropriatecontentand</tspan><tspan y="-224.499" x="316.368 321.90724 325.81257 330.79386 339.0927 344.63194 348.5074 355.75019 359.62565 365.16487 372.91578 377.33918 382.8784 386.80366 390.6791 395.6604 403.95927 408.38267 415.60554 419.481 427.77983 432.20323 437.74244 440.51203 444.38749">promptsthecustomertoedit.</tspan></text>
<path transform="matrix(1,0,0,-1,548.182,622.771)" stroke-width=".398" stroke-linecap="butt" stroke-miterlimit="10" stroke-linejoin="miter" fill="none" stroke="#000000" d="M0 0V29.888"/>
<path transform="matrix(1,0,0,-1,72,622.97006)" stroke-width=".398" stroke-linecap="butt" stroke-miterlimit="10" stroke-linejoin="miter" fill="none" stroke="#000000" d="M0 0H476.381"/>
<path transform="matrix(1,0,0,-1,72,622.97006)" stroke-width=".398" stroke-linecap="butt" stroke-miterlimit="10" stroke-linejoin="miter" fill="none" stroke="#000000" d="M0 0H476.381"/>
<path transform="matrix(1,0,0,-1,72.199,653.057)" stroke-width=".398" stroke-linecap="butt" stroke-miterlimit="10" stroke-linejoin="miter" fill="none" stroke="#000000" d="M0 0V29.888"/>
<text xml:space="preserve" transform="matrix(1 0 -0 1 0 841.89)" font-size="9.9626" font-family="CMBX10" font-weight="bold"><tspan y="-206.168" x="78.376 84.10449 89.673587">5a.</tspan></text>
<text xml:space="preserve" transform="matrix(1 0 -0 1 0 841.89)" font-size="9.9626" font-family="CMR10"><tspan y="-206.168" x="101.305 104.9015 112.61255 116.488 122.02721 131.1131 135.03836 140.29862 144.22388 148.09934 152.52274 165.48407 168.53263 173.51392 176.28353 179.05313 187.64089 191.51634 201.15018 205.07544 209.78774 214.76905 223.85494 227.7304 233.26959 242.35549 246.26082 250.68422 255.94448 258.71409 263.13749 274.99299 280.5322 286.06147 295.14738 299.02284">Ifthesystemfailstosavethereviewdueto</tspan><tspan y="-194.212" x="78.376 82.30126 86.724658 90.63 95.6113 100.03469 107.26754 110.03714 113.9624 117.887668 123.42687 127.850269 131.77553 137.86269 141.73815 147.27735 155.0183 159.4417 164.9809 168.90616 172.78162 177.76291 186.06175 190.49512 197.718 201.59346 205.4988 208.2684 212.6918 219.93462 224.91591 229.8972 234.8785 237.6481 246.50485 249.27446 254.25576 258.1312 262.5546 266.45994">serverissues,thecustomertriesagainlater.</tspan></text>
<path transform="matrix(1,0,0,-1,310.191,653.057)" stroke-width=".398" stroke-linecap="butt" stroke-miterlimit="10" stroke-linejoin="miter" fill="none" stroke="#000000" d="M0 0V29.888"/>
<text xml:space="preserve" transform="matrix(1 0 -0 1 0 841.89)" font-size="9.9626" font-family="CMBX10" font-weight="bold"><tspan y="-206.168" x="316.368 322.0965 327.6656">5a.</tspan></text>
<text xml:space="preserve" transform="matrix(1 0 -0 1 0 841.89)" font-size="9.9626" font-family="CMR10"><tspan y="-206.168" x="336.04103 341.58024 346.84049 350.76576 354.6412 359.0646 370.94004 376.47926 381.46055 385.336 388.1056 390.8702 393.6448 398.0682 405.57005 409.4455 414.9847 422.98469 427.40809 432.9473 436.87257 440.74803 445.7293 454.02818 458.45158 465.93348 470.91477 477.5399 481.41535 486.95457 494.95454 498.00309 502.98439 505.75398 508.52357 514.06277 517.9681 525.9681 530.9494 536.47866">Systemnotifiesthecustomerofthefailureand</tspan><tspan y="-194.212" x="316.368 321.3493 326.88853 332.14878 334.91838 338.84364 343.26704 350.50984 354.41517 358.83857 362.71403 366.61936 371.8796 374.6492 380.18843 385.1697">advisesretrying.</tspan></text>
<path transform="matrix(1,0,0,-1,548.182,653.057)" stroke-width=".398" stroke-linecap="butt" stroke-miterlimit="10" stroke-linejoin="miter" fill="none" stroke="#000000" d="M0 0V29.888"/>
<path transform="matrix(1,0,0,-1,72,653.257)" stroke-width=".398" stroke-linecap="butt" stroke-miterlimit="10" stroke-linejoin="miter" fill="none" stroke="#000000" d="M0 0H476.381"/>
<path transform="matrix(1,0,0,-1,72,653.257)" stroke-width=".398" stroke-linecap="butt" stroke-miterlimit="10" stroke-linejoin="miter" fill="none" stroke="#000000" d="M0 0H476.381"/>
<text xml:space="preserve" transform="matrix(1 0 -0 1 0 841.89)" font-size="9.9626" font-family="CMR10"><tspan y="-42.112" x="295.147">4</tspan></text>
</svg>
