<svg xmlns="http://www.w3.org/2000/svg" xmlns:xlink="http://www.w3.org/1999/xlink" version="1.1" width="595.276" height="841.89" viewBox="0 0 595.276 841.89">
<rect x="0" y="0" width="595.276" height="841.89" fill="white" />
<text xml:space="preserve" transform="matrix(1 0 -0 1 0 841.89)" font-size="14.3462" font-family="CMBX12" font-weight="bold"><tspan y="-759.927" x="212.312 227.61939 236.14102 245.10739 249.59775 254.53284 268.4343 276.5112 288.49028 300.15373 308.0011 316.96748 324.14057 331.50016 341.37034 353.49287 360.0921 369.05848 376.41807">ModifyorCancelOrder</tspan></text>
<path transform="matrix(1,0,0,-1,72,106.77301)" stroke-width=".398" stroke-linecap="butt" stroke-miterlimit="10" stroke-linejoin="miter" fill="none" stroke="#000000" d="M0 0H476.381"/>
<path transform="matrix(1,0,0,-1,72,106.77301)" stroke-width=".398" stroke-linecap="butt" stroke-miterlimit="10" stroke-linejoin="miter" fill="none" stroke="#000000" d="M0 0H476.381"/>
<path transform="matrix(1,0,0,-1,72.199,124.90503)" stroke-width=".398" stroke-linecap="butt" stroke-miterlimit="10" stroke-linejoin="miter" fill="none" stroke="#000000" d="M0 0V17.933"/>
<text xml:space="preserve" transform="matrix(1 0 -0 1 0 841.89)" font-size="9.9626" font-family="CMBX10" font-weight="bold"><tspan y="-722.365" x="78.376 87.1929 91.71592 100.78188 109.06081 114.6299 119.152919 128.22885 137.19519 142.76428 152.30846">UseCaseName</tspan></text>
<path transform="matrix(1,0,0,-1,197.372,124.90503)" stroke-width=".398" stroke-linecap="butt" stroke-miterlimit="10" stroke-linejoin="miter" fill="none" stroke="#000000" d="M0 0V17.933"/>
<text xml:space="preserve" transform="matrix(1 0 -0 1 0 841.89)" font-size="9.9626" font-family="CMR10"><tspan y="-722.365" x="203.549 212.68471 217.666 223.2052 228.1865 233.16779 240.90874 248.65964 252.56497 258.1042 262.5276">ManageOrder</tspan></text>
<path transform="matrix(1,0,0,-1,548.182,124.90503)" stroke-width=".398" stroke-linecap="butt" stroke-miterlimit="10" stroke-linejoin="miter" fill="none" stroke="#000000" d="M0 0V17.933"/>
<path transform="matrix(1,0,0,-1,72,125.104007)" stroke-width=".398" stroke-linecap="butt" stroke-miterlimit="10" stroke-linejoin="miter" fill="none" stroke="#000000" d="M0 0H476.381"/>
<path transform="matrix(1,0,0,-1,72,125.104007)" stroke-width=".398" stroke-linecap="butt" stroke-miterlimit="10" stroke-linejoin="miter" fill="none" stroke="#000000" d="M0 0H476.381"/>
<path transform="matrix(1,0,0,-1,72.199,143.23603)" stroke-width=".398" stroke-linecap="butt" stroke-miterlimit="10" stroke-linejoin="miter" fill="none" stroke="#000000" d="M0 0V17.933"/>
<text xml:space="preserve" transform="matrix(1 0 -0 1 0 841.89)" font-size="9.9626" font-family="CMBX10" font-weight="bold"><tspan y="-704.034" x="78.376 84.7421 89.83299 95.561489 102.24639">Scope</tspan></text>
<path transform="matrix(1,0,0,-1,197.372,143.23603)" stroke-width=".398" stroke-linecap="butt" stroke-miterlimit="10" stroke-linejoin="miter" fill="none" stroke="#000000" d="M0 0V17.933"/>
<text xml:space="preserve" transform="matrix(1 0 -0 1 0 841.89)" font-size="9.9626" font-family="CMR10"><tspan y="-704.034" x="203.549 211.02095 215.7233 222.91629 228.17655 235.36954 246.169 252.39563 257.37693 262.35823 265.1278 269.05308 272.92854 275.69813 280.12153 287.36433 292.3456 297.88484 306.74159 314.353 318.7764 321.546 324.31559 329.29689 333.72029 337.6256 346.21339 355.3491 360.33039 365.8696 370.8509 375.83219 380.25559 388.55445 392.97785 398.2381 405.4311 410.9703 416.23057 420.15583 424.03129 428.45469">HawkTULogisticsandDeliveryManagementSystem</tspan></text>
<path transform="matrix(1,0,0,-1,548.182,143.23603)" stroke-width=".398" stroke-linecap="butt" stroke-miterlimit="10" stroke-linejoin="miter" fill="none" stroke="#000000" d="M0 0V17.933"/>
<path transform="matrix(1,0,0,-1,72,143.435)" stroke-width=".398" stroke-linecap="butt" stroke-miterlimit="10" stroke-linejoin="miter" fill="none" stroke="#000000" d="M0 0H476.381"/>
<path transform="matrix(1,0,0,-1,72,143.435)" stroke-width=".398" stroke-linecap="butt" stroke-miterlimit="10" stroke-linejoin="miter" fill="none" stroke="#000000" d="M0 0H476.381"/>
<path transform="matrix(1,0,0,-1,72.199,161.56702)" stroke-width=".398" stroke-linecap="butt" stroke-miterlimit="10" stroke-linejoin="miter" fill="none" stroke="#000000" d="M0 0V17.933"/>
<text xml:space="preserve" transform="matrix(1 0 -0 1 0 841.89)" font-size="9.9626" font-family="CMBX10" font-weight="bold"><tspan y="-685.703" x="78.376 85.27012 90.52041 96.2489 101.49919">Level</tspan></text>
<path transform="matrix(1,0,0,-1,197.372,161.56702)" stroke-width=".398" stroke-linecap="butt" stroke-miterlimit="10" stroke-linejoin="miter" fill="none" stroke="#000000" d="M0 0V17.933"/>
<text xml:space="preserve" transform="matrix(1 0 -0 1 0 841.89)" font-size="9.9626" font-family="CMR10"><tspan y="-685.703" x="203.549 211.02095 214.94622 219.36962 226.5925 234.41315 239.39444 244.37574">UserGoal</tspan></text>
<path transform="matrix(1,0,0,-1,548.182,161.56702)" stroke-width=".398" stroke-linecap="butt" stroke-miterlimit="10" stroke-linejoin="miter" fill="none" stroke="#000000" d="M0 0V17.933"/>
<path transform="matrix(1,0,0,-1,72,161.76599)" stroke-width=".398" stroke-linecap="butt" stroke-miterlimit="10" stroke-linejoin="miter" fill="none" stroke="#000000" d="M0 0H476.381"/>
<path transform="matrix(1,0,0,-1,72,161.76599)" stroke-width=".398" stroke-linecap="butt" stroke-miterlimit="10" stroke-linejoin="miter" fill="none" stroke="#000000" d="M0 0H476.381"/>
<path transform="matrix(1,0,0,-1,72.199,179.89801)" stroke-width=".398" stroke-linecap="butt" stroke-miterlimit="10" stroke-linejoin="miter" fill="none" stroke="#000000" d="M0 0V17.933"/>
<text xml:space="preserve" transform="matrix(1 0 -0 1 0 841.89)" font-size="9.9626" font-family="CMBX10" font-weight="bold"><tspan y="-667.372" x="78.376 86.206607 90.92888 94.10695 103.65112 109.220218 113.94249 123.81543 132.47293 137.56381 142.01709 147.74559">PrimaryActor</tspan></text>
<path transform="matrix(1,0,0,-1,197.372,179.89801)" stroke-width=".398" stroke-linecap="butt" stroke-miterlimit="10" stroke-linejoin="miter" fill="none" stroke="#000000" d="M0 0V17.933"/>
<text xml:space="preserve" transform="matrix(1 0 -0 1 0 841.89)" font-size="9.9626" font-family="CMR10"><tspan y="-667.372" x="203.549 210.74199 216.28119 220.20645 224.08191 229.0632 237.36205 241.78545 245.69078 250.67208 256.21128 260.63468 263.40428 266.17387 270.59727">Customer/Seller</tspan></text>
<path transform="matrix(1,0,0,-1,548.182,179.89801)" stroke-width=".398" stroke-linecap="butt" stroke-miterlimit="10" stroke-linejoin="miter" fill="none" stroke="#000000" d="M0 0V17.933"/>
<path transform="matrix(1,0,0,-1,72,180.09803)" stroke-width=".398" stroke-linecap="butt" stroke-miterlimit="10" stroke-linejoin="miter" fill="none" stroke="#000000" d="M0 0H476.381"/>
<path transform="matrix(1,0,0,-1,72,180.09803)" stroke-width=".398" stroke-linecap="butt" stroke-miterlimit="10" stroke-linejoin="miter" fill="none" stroke="#000000" d="M0 0H476.381"/>
<path transform="matrix(1,0,0,-1,72.199,266.31904)" stroke-width=".398" stroke-linecap="butt" stroke-miterlimit="10" stroke-linejoin="miter" fill="none" stroke="#000000" d="M0 0V86.022"/>
<text xml:space="preserve" transform="matrix(1 0 -0 1 0 841.89)" font-size="9.9626" font-family="CMBX10" font-weight="bold"><tspan y="-620.973" x="78.376 84.7421 89.19539 94.76448 100.49298 105.74327 112.109378 117.83787 121.01594 127.38204 132.63234 137.35462 145.69332 151.2624 157.62851">Stakeholdersand</tspan><tspan y="-609.018" x="78.376 82.719699 88.767 93.22028 98.47057 103.19285 108.44314 112.966159 117.41944">Interests</tspan></text>
<path transform="matrix(1,0,0,-1,197.372,266.31904)" stroke-width=".398" stroke-linecap="butt" stroke-miterlimit="10" stroke-linejoin="miter" fill="none" stroke="#000000" d="M0 0V86.022"/>
<text xml:space="preserve" transform="matrix(1 0 -0 1 0 841.89)" font-size="4.9813" font-family="CMSY5" font-style="italic"><tspan y="-645.975" x="203.549">&#x2022;</tspan></text>
<text xml:space="preserve" transform="matrix(1 0 -0 1 0 841.89)" font-size="9.9626" font-family="CMR10"><tspan y="-644.712" x="212.19699 219.38999 224.92919 228.85445 232.7299 237.7112 246.01004 250.43344 254.33878 261.27275 270.68739 275.66868 280.92893 284.80439 291.52915 295.4046 303.1854 307.6088 312.5901 316.51536 319.28495 322.05455 330.1143 338.41316 343.6734 349.20268 351.97227 355.0208 363.08058 368.06187 374.7667 379.1901 384.1714 389.7106 394.134 398.5574 404.1265 409.1078 413.01313 418.55235 422.97575 426.88108 433.60585 439.14506 444.12635 448.0516 452.475 460.81373 465.795 474.13374 478.27818 483.81739 488.79869 494.3379 499.31919 502.08879 507.628 515.4088 520.93807 525.3714 529.7948 535.334 539.2593">Customer:Wantstoeasilymodifyorcancelordersbasedonchangingneeds.</tspan></text>
<text xml:space="preserve" transform="matrix(1 0 -0 1 0 841.89)" font-size="4.9813" font-family="CMSY5" font-style="italic"><tspan y="-626.04898" x="203.549">&#x2022;</tspan></text>
<text xml:space="preserve" transform="matrix(1 0 -0 1 0 841.89)" font-size="9.9626" font-family="CMR10"><tspan y="-624.7869" x="212.19699 217.73619 222.15959 224.9292 227.6988 232.12221 236.02754 243.22055 250.6925 255.1159 259.5393 265.07853 272.3313 276.20677 284.50559 292.80445 297.78575 303.32496 308.30625 313.28755 321.03846 323.80805 329.0683 334.0496 338.473 343.73326 347.6087 352.59 356.49534 365.07313 370.0544 375.59364 384.46037 389.99958 395.5388 401.078 405.5014 409.40675 413.332 417.20747 422.18876 427.72798 436.58473 440.72917 446.26838 451.24967 456.78889 461.77018 466.19358 473.43638 477.31184 485.62065 490.60194 494.50727 500.04649 504.46989 508.3752 512.3005">Seller:Needstomanageinventoryandunderstandchangestoorders.</tspan></text>
<text xml:space="preserve" transform="matrix(1 0 -0 1 0 841.89)" font-size="4.9813" font-family="CMSY5" font-style="italic"><tspan y="-606.1239" x="203.549">&#x2022;</tspan></text>
<text xml:space="preserve" transform="matrix(1 0 -0 1 0 841.89)" font-size="9.9626" font-family="CMR10"><tspan y="-604.8609" x="212.19699 217.73619 222.99645 226.9217 230.79717 235.22057 247.96273 255.43468 260.97389 269.27275 272.04234 277.58155 280.35115 284.2764 288.15187 292.0572 297.03849 300.91395 305.89524 309.80058 319.25508 326.0396 331.57884 335.5041 341.0433 344.94865 349.37205 357.74064 366.0395 371.29975 376.83897 379.60856 382.37318 385.14778 389.57118 394.55247 398.42793 401.1975 406.1788 411.71803 420.0866 425.0679 430.60713 440.5996 445.023 450.0043 455.54353 459.96693 464.39033 467.1599 469.9295 474.9108 478.78627 481.55586 486.53715 492.07637 500.44496 503.4935 508.4748 511.2444 514.014 518.7164 530.3627 534.7861 538.71139">SystemAdministrator:Ensuresmodificationsandcancellationsfollowes-</tspan><tspan y="-592.9059" x="212.19699 216.07245 221.05374 226.59294 229.36255 232.13216 236.05742 241.59662 246.02002 254.87677 258.7821 264.32133 267.0909 271.5143 275.43959">tablishedrules.</tspan></text>
<path transform="matrix(1,0,0,-1,548.182,266.31904)" stroke-width=".398" stroke-linecap="butt" stroke-miterlimit="10" stroke-linejoin="miter" fill="none" stroke="#000000" d="M0 0V86.022"/>
<path transform="matrix(1,0,0,-1,72,266.518)" stroke-width=".398" stroke-linecap="butt" stroke-miterlimit="10" stroke-linejoin="miter" fill="none" stroke="#000000" d="M0 0H476.381"/>
<path transform="matrix(1,0,0,-1,72,266.518)" stroke-width=".398" stroke-linecap="butt" stroke-miterlimit="10" stroke-linejoin="miter" fill="none" stroke="#000000" d="M0 0H476.381"/>
<path transform="matrix(1,0,0,-1,72.199,320.859)" stroke-width=".398" stroke-linecap="butt" stroke-miterlimit="10" stroke-linejoin="miter" fill="none" stroke="#000000" d="M0 0V54.141"/>
<text xml:space="preserve" transform="matrix(1 0 -0 1 0 841.89)" font-size="9.9626" font-family="CMBX10" font-weight="bold"><tspan y="-544.516" x="78.376 86.206607 90.92888 96.17917 101.27006 106.99855 113.364658 119.73076 122.90883 127.362117 130.54018 136.26868 142.63478">Preconditions</tspan></text>
<path transform="matrix(1,0,0,-1,197.372,320.859)" stroke-width=".398" stroke-linecap="butt" stroke-miterlimit="10" stroke-linejoin="miter" fill="none" stroke="#000000" d="M0 0V54.141"/>
<text xml:space="preserve" transform="matrix(1 0 -0 1 0 841.89)" font-size="4.9813" font-family="CMSY5" font-style="italic"><tspan y="-559.554" x="203.549">&#x2022;</tspan></text>
<text xml:space="preserve" transform="matrix(1 0 -0 1 0 841.89)" font-size="9.9626" font-family="CMR10"><tspan y="-558.292" x="212.19699 219.38999 224.92919 232.67014 237.09354 242.63274 246.558 250.43346 255.41475 263.7136 268.137 275.36985 278.13945 285.38224 288.15184 293.13313 298.1144 303.0957 307.5191 316.37586 319.14546 324.41569 328.29115 336.58998 340.46543 346.00465 353.74559 357.67085 362.9311 366.85636 370.7318 375.1552 383.45408">Thecustomerisloggedintothesystem.</tspan></text>
<text xml:space="preserve" transform="matrix(1 0 -0 1 0 841.89)" font-size="4.9813" font-family="CMSY5" font-style="italic"><tspan y="-539.62899" x="203.549">&#x2022;</tspan></text>
<text xml:space="preserve" transform="matrix(1 0 -0 1 0 841.89)" font-size="9.9626" font-family="CMR10"><tspan y="-538.36599" x="212.19699 219.38999 224.92919 232.67014 237.65143 241.55677 247.09597 251.51937 258.7522 261.5218 268.7646 274.3038 277.0734 282.0547 286.4781 290.9015 299.75825 304.73954 310.27876 319.14549 323.56889 328.55018 337.40693 343.2251 350.96604 359.2649 364.52516 370.06437 372.83396 375.59858 378.37318 382.79658 391.65333 396.6346 403.85749 408.28089 413.26219 418.8014 423.2248 427.6482 430.4178 434.85115 443.7079 449.2471 454.2284 458.15367 462.57707 471.4338 476.4151 485.27186 488.04145 491.9169 499.16969 503.09495 506.9704 511.9517 515.82717 521.36636 525.2916">Theorderisplacedandcanbemodifiedorcanceledbasedonitsstatus.</tspan></text>
<path transform="matrix(1,0,0,-1,548.182,320.859)" stroke-width=".398" stroke-linecap="butt" stroke-miterlimit="10" stroke-linejoin="miter" fill="none" stroke="#000000" d="M0 0V54.141"/>
<path transform="matrix(1,0,0,-1,72,321.05805)" stroke-width=".398" stroke-linecap="butt" stroke-miterlimit="10" stroke-linejoin="miter" fill="none" stroke="#000000" d="M0 0H476.381"/>
<path transform="matrix(1,0,0,-1,72,321.05805)" stroke-width=".398" stroke-linecap="butt" stroke-miterlimit="10" stroke-linejoin="miter" fill="none" stroke="#000000" d="M0 0H476.381"/>
<path transform="matrix(1,0,0,-1,72.199,375.39903)" stroke-width=".398" stroke-linecap="butt" stroke-miterlimit="10" stroke-linejoin="miter" fill="none" stroke="#000000" d="M0 0V54.141"/>
<text xml:space="preserve" transform="matrix(1 0 -0 1 0 841.89)" font-size="9.9626" font-family="CMBX10" font-weight="bold"><tspan y="-489.976" x="78.376 85.8878 91.616298 96.13931 100.5926 105.68349 111.41198 117.77808 124.14419 127.32226 131.77555 134.95362 140.68212 147.04822">Postconditions</tspan></text>
<path transform="matrix(1,0,0,-1,197.372,375.39903)" stroke-width=".398" stroke-linecap="butt" stroke-miterlimit="10" stroke-linejoin="miter" fill="none" stroke="#000000" d="M0 0V54.141"/>
<text xml:space="preserve" transform="matrix(1 0 -0 1 0 841.89)" font-size="4.9813" font-family="CMSY5" font-style="italic"><tspan y="-505.014" x="203.549">&#x2022;</tspan></text>
<text xml:space="preserve" transform="matrix(1 0 -0 1 0 841.89)" font-size="9.9626" font-family="CMR10"><tspan y="-503.752" x="212.19699 219.38999 224.92919 232.67014 237.65143 241.55677 247.09597 251.51937 258.7522 261.5218 268.7646 277.06346 282.3237 287.8629 290.6325 293.39714 296.17173 300.59513 309.45188 314.43318 321.65605 326.07945 331.06074 336.59996 341.02336 345.44676 348.21635 352.63975 361.50648 364.27607 373.1328 377.00828 382.5475 390.28843 394.21369 399.47395 403.3992 407.27467 411.69807 420.00688">Theorderismodifiedorcanceledinthesystem.</tspan></text>
<text xml:space="preserve" transform="matrix(1 0 -0 1 0 841.89)" font-size="4.9813" font-family="CMSY5" font-style="italic"><tspan y="-485.08903" x="203.549">&#x2022;</tspan></text>
<text xml:space="preserve" transform="matrix(1 0 -0 1 0 841.89)" font-size="9.9626" font-family="CMR10"><tspan y="-483.82603" x="212.19699 219.66895 224.65024 228.5257 231.2953 234.05992 236.8345 241.2579 246.2392 250.11466 252.88426 257.86558 263.4048 270.64759 275.62889 279.5342 287.28514 291.2104 295.6338 300.89405 308.08705 311.9625 320.2713 324.14677 329.68598 337.4269 341.8503 347.38954 351.3148 355.19026 360.17155 368.4704 372.8938 380.11668 385.09797 390.63719 399.5039 403.42918 407.85258 410.62217 413.39176 417.81517 425.03804 428.94337 433.36677 438.34806 443.32936 447.23469 452.7739 455.5435 461.0827 469.38154 473.257 478.7962 486.54713 490.69157 496.23078 501.21208 506.75129 511.73258 516.15597 520.08126">Notificationsaresenttothecustomerandsellerregardingthechanges.</tspan></text>
<path transform="matrix(1,0,0,-1,548.182,375.39903)" stroke-width=".398" stroke-linecap="butt" stroke-miterlimit="10" stroke-linejoin="miter" fill="none" stroke="#000000" d="M0 0V54.141"/>
<path transform="matrix(1,0,0,-1,72,375.59803)" stroke-width=".398" stroke-linecap="butt" stroke-miterlimit="10" stroke-linejoin="miter" fill="none" stroke="#000000" d="M0 0H476.381"/>
<path transform="matrix(1,0,0,-1,72,375.59803)" stroke-width=".398" stroke-linecap="butt" stroke-miterlimit="10" stroke-linejoin="miter" fill="none" stroke="#000000" d="M0 0H476.381"/>
<path transform="matrix(1,0,0,-1,72,375.49803)" stroke-width=".398" stroke-linecap="butt" stroke-miterlimit="10" stroke-linejoin="miter" fill="none" stroke="#000000" d="M0 0H476.381"/>
<path transform="matrix(1,0,0,-1,72,375.49803)" stroke-width=".398" stroke-linecap="butt" stroke-miterlimit="10" stroke-linejoin="miter" fill="none" stroke="#000000" d="M0 0H476.381"/>
<path transform="matrix(1,0,0,-1,72.199,393.63)" stroke-width=".398" stroke-linecap="butt" stroke-miterlimit="10" stroke-linejoin="miter" fill="none" stroke="#000000" d="M0 0V17.933"/>
<text xml:space="preserve" transform="matrix(1 0 -0 1 0 841.89)" font-size="9.9626" font-family="CMBX10" font-weight="bold"><tspan y="-453.64" x="253.638 264.51716 270.08625 273.2643 283.44609 289.81217 296.17826 301.26914 306.36003 311.61033 316.13334 324.482 330.84809 335.93898 341.18928 347.55537 353.12446 357.8467 361.02479">MainSuccessScenario</tspan></text>
<path transform="matrix(1,0,0,-1,548.182,393.63)" stroke-width=".398" stroke-linecap="butt" stroke-miterlimit="10" stroke-linejoin="miter" fill="none" stroke="#000000" d="M0 0V17.933"/>
<path transform="matrix(1,0,0,-1,72,393.83003)" stroke-width=".398" stroke-linecap="butt" stroke-miterlimit="10" stroke-linejoin="miter" fill="none" stroke="#000000" d="M0 0H476.381"/>
<path transform="matrix(1,0,0,-1,72,393.83003)" stroke-width=".398" stroke-linecap="butt" stroke-miterlimit="10" stroke-linejoin="miter" fill="none" stroke="#000000" d="M0 0H476.381"/>
<path transform="matrix(1,0,0,-1,72.199,411.962)" stroke-width=".398" stroke-linecap="butt" stroke-miterlimit="10" stroke-linejoin="miter" fill="none" stroke="#000000" d="M0 0V17.933"/>
<text xml:space="preserve" transform="matrix(1 0 -0 1 0 841.89)" font-size="9.9626" font-family="CMBX10" font-weight="bold"><tspan y="-435.308" x="121.779 130.4365 135.52738 139.98065 145.70915 154.2471 162.9046 167.99549 172.44876 175.62683 181.35533 191.54708 196.00035 201.72885 210.2668 214.61049 220.65779 225.11107 230.36136 236.40866 240.86194 244.04001 249.76851 256.1346">ActorAction(orIntention)</tspan></text>
<path transform="matrix(1,0,0,-1,310.191,411.962)" stroke-width=".398" stroke-linecap="butt" stroke-miterlimit="10" stroke-linejoin="miter" fill="none" stroke="#000000" d="M0 0V17.933"/>
<text xml:space="preserve" transform="matrix(1 0 -0 1 0 841.89)" font-size="9.9626" font-family="CMBX10" font-weight="bold"><tspan y="-435.308" x="373.636 380.00209 386.04939 390.5724 395.02568 400.27598 413.6358 422.23353 427.48384 432.00685 438.69175 444.42024 450.78633 455.30934 458.4874 464.8535 468.03157 471.20964 474.3877 478.53215">SystemResponsibility</tspan></text>
<path transform="matrix(1,0,0,-1,548.182,411.962)" stroke-width=".398" stroke-linecap="butt" stroke-miterlimit="10" stroke-linejoin="miter" fill="none" stroke="#000000" d="M0 0V17.933"/>
<path transform="matrix(1,0,0,-1,72,412.161)" stroke-width=".398" stroke-linecap="butt" stroke-miterlimit="10" stroke-linejoin="miter" fill="none" stroke="#000000" d="M0 0H476.381"/>
<path transform="matrix(1,0,0,-1,72,412.161)" stroke-width=".398" stroke-linecap="butt" stroke-miterlimit="10" stroke-linejoin="miter" fill="none" stroke="#000000" d="M0 0H476.381"/>
<path transform="matrix(1,0,0,-1,72.199,442.24803)" stroke-width=".398" stroke-linecap="butt" stroke-miterlimit="10" stroke-linejoin="miter" fill="none" stroke="#000000" d="M0 0V29.888"/>
<text xml:space="preserve" transform="matrix(1 0 -0 1 0 841.89)" font-size="9.9626" font-family="CMR10"><tspan y="-410.999" x="78.376 83.3573 90.55029 97.74329 103.2825 107.20776 111.08321 116.064517 124.36336 128.79673 136.0196 141.27986 144.04947 148.47287 155.66587 162.90868 166.78414 172.32334 176.74674 179.51634 186.74919 191.73049 195.63582 201.16506 205.59842 212.8213 218.3605 221.13011 225.05538 228.93083 233.91213 237.81746 242.24086">1.Customerviewstheirorderhistory.</tspan></text>
<path transform="matrix(1,0,0,-1,310.191,442.24803)" stroke-width=".398" stroke-linecap="butt" stroke-miterlimit="10" stroke-linejoin="miter" fill="none" stroke="#000000" d="M0 0V29.888"/>
<text xml:space="preserve" transform="matrix(1 0 -0 1 0 841.89)" font-size="9.9626" font-family="CMR10"><tspan y="-416.977" x="316.368 321.3493 331.85984 337.39906 342.6593 346.58457 350.46003 354.88343 367.60569 373.1449 375.9145 379.83976 385.37898 388.14857 392.86088 398.12113 406.4698 410.8932 416.4324 420.33775 424.24308 428.66648 433.92674 442.2256 447.20689 451.1122 456.65144 461.07484 464.98017 473.33879 480.53178 483.30137 487.17683 497.13945 502.12074 507.65995 511.5354 514.305 519.2863 524.8255 533.1742 537.0496">2.Systemdisplayscurrentorderswithoptionsto</tspan><tspan y="-405.022" x="316.368 324.66688 329.92713 335.46635 338.23594 341.2845 349.86228 354.84358 362.06645 366.48985 371.47114 377.01036 381.43376 385.85716 388.62675">modifyorcancel.</tspan></text>
<path transform="matrix(1,0,0,-1,548.182,442.24803)" stroke-width=".398" stroke-linecap="butt" stroke-miterlimit="10" stroke-linejoin="miter" fill="none" stroke="#000000" d="M0 0V29.888"/>
<path transform="matrix(1,0,0,-1,72,442.44703)" stroke-width=".398" stroke-linecap="butt" stroke-miterlimit="10" stroke-linejoin="miter" fill="none" stroke="#000000" d="M0 0H476.381"/>
<path transform="matrix(1,0,0,-1,72,442.44703)" stroke-width=".398" stroke-linecap="butt" stroke-miterlimit="10" stroke-linejoin="miter" fill="none" stroke="#000000" d="M0 0H476.381"/>
<path transform="matrix(1,0,0,-1,72.199,460.579)" stroke-width=".398" stroke-linecap="butt" stroke-miterlimit="10" stroke-linejoin="miter" fill="none" stroke="#000000" d="M0 0V17.933"/>
<text xml:space="preserve" transform="matrix(1 0 -0 1 0 841.89)" font-size="9.9626" font-family="CMR10"><tspan y="-386.691" x="78.376 83.3573 90.55029 97.74329 103.2825 107.20776 111.08321 116.064517 124.36336 128.79673 136.0196 139.94487 144.36827 147.13788 151.56128 155.98468 159.86014 167.10295 172.08425 180.95096 185.93225 189.83759 195.37679 199.80019 207.02307 210.89853 219.19738 227.49622 232.75646 238.29566 241.06526 244.11382 252.69162 257.6729 264.90577 269.32917 274.31047 279.84968 284.27308 288.69648 291.46607">3.Customerselectsanordertomodifyorcancel.</tspan></text>
<path transform="matrix(1,0,0,-1,310.191,460.579)" stroke-width=".398" stroke-linecap="butt" stroke-miterlimit="10" stroke-linejoin="miter" fill="none" stroke="#000000" d="M0 0V17.933"/>
<text xml:space="preserve" transform="matrix(1 0 -0 1 0 841.89)" font-size="9.9626" font-family="CMR10"><tspan y="-386.691" x="316.368 321.3493 328.5423 334.0815 339.34178 343.26704 347.1425 351.5659 363.19227 367.89463 372.87593 375.6455 378.4151 383.9543 388.9356 392.81108 397.23448 404.48725 408.3627 413.90193 421.64286 426.06626 431.60548 435.5108 439.41615 443.83955 449.0998 456.2928 460.21806 464.0935 469.0748 472.95027 478.48948 485.74226 490.72355 497.08964 500.9651 506.5043 514.24526 519.22659 523.1319 528.6711 533.0945 536.9998">4.Systemvalidatesthecurrentstatusoftheorder.</tspan></text>
<path transform="matrix(1,0,0,-1,548.182,460.579)" stroke-width=".398" stroke-linecap="butt" stroke-miterlimit="10" stroke-linejoin="miter" fill="none" stroke="#000000" d="M0 0V17.933"/>
<path transform="matrix(1,0,0,-1,72,460.778)" stroke-width=".398" stroke-linecap="butt" stroke-miterlimit="10" stroke-linejoin="miter" fill="none" stroke="#000000" d="M0 0H476.381"/>
<path transform="matrix(1,0,0,-1,72,460.778)" stroke-width=".398" stroke-linecap="butt" stroke-miterlimit="10" stroke-linejoin="miter" fill="none" stroke="#000000" d="M0 0H476.381"/>
<path transform="matrix(1,0,0,-1,72.199,490.86604)" stroke-width=".398" stroke-linecap="butt" stroke-miterlimit="10" stroke-linejoin="miter" fill="none" stroke="#000000" d="M0 0V29.888"/>
<text xml:space="preserve" transform="matrix(1 0 -0 1 0 841.89)" font-size="9.9626" font-family="CMR10"><tspan y="-362.382" x="78.376 83.3573 90.23149 97.42449 102.9637 106.88896 110.76441 115.74571 124.044559 128.46796 134.72447 143.02332 148.00461 152.98592 157.40932 163.68576 167.83022 173.36942 178.35071 183.88991 188.8712 193.2946 199.56108 204.54238 210.79889 215.22229 220.20359 225.74279 228.5074 231.28199 235.18732 243.48616 249.7626 254.186 259.1673 264.7065 269.1299 273.5533 276.3229 279.0925 284.0738 287.94926 290.71885 295.70014 301.23936">5.Customermakeschangesorconfirmscancellation.</tspan></text>
<path transform="matrix(1,0,0,-1,310.191,490.86604)" stroke-width=".398" stroke-linecap="butt" stroke-miterlimit="10" stroke-linejoin="miter" fill="none" stroke="#000000" d="M0 0V29.888"/>
<text xml:space="preserve" transform="matrix(1 0 -0 1 0 841.89)" font-size="9.9626" font-family="CMR10"><tspan y="-368.359" x="316.368 321.3493 332.9657 338.5049 343.76518 347.69044 351.5659 355.9893 369.09013 374.62934 378.53468 383.78495 388.20835 392.63175 396.557 400.49223 404.91563 413.6329 417.50837 423.04759 432.263 436.16835 440.59175 445.852 451.3912 455.8146 459.73988 468.4173 473.3986 478.9378 489.26905 494.80827 500.61647 506.15568 511.13697 515.0124 519.4358 528.1631 532.0385 537.5777">6.Systemprocessestherequestandupdatesthe</tspan><tspan y="-356.40403" x="316.368 321.3493 325.25465 330.79386 335.21726 342.44013 346.3654 350.24085 355.22215 359.0976 364.6368 368.56208">orderstatus.</tspan></text>
<path transform="matrix(1,0,0,-1,548.182,490.86604)" stroke-width=".398" stroke-linecap="butt" stroke-miterlimit="10" stroke-linejoin="miter" fill="none" stroke="#000000" d="M0 0V29.888"/>
<path transform="matrix(1,0,0,-1,72,491.065)" stroke-width=".398" stroke-linecap="butt" stroke-miterlimit="10" stroke-linejoin="miter" fill="none" stroke="#000000" d="M0 0H476.381"/>
<path transform="matrix(1,0,0,-1,72,491.065)" stroke-width=".398" stroke-linecap="butt" stroke-miterlimit="10" stroke-linejoin="miter" fill="none" stroke="#000000" d="M0 0H476.381"/>
<path transform="matrix(1,0,0,-1,72.199,509.19703)" stroke-width=".398" stroke-linecap="butt" stroke-miterlimit="10" stroke-linejoin="miter" fill="none" stroke="#000000" d="M0 0V17.933"/>
<text xml:space="preserve" transform="matrix(1 0 -0 1 0 841.89)" font-size="9.9626" font-family="CMBX10" font-weight="bold"><tspan y="-338.073" x="283.211 290.74275 296.79005 301.24333 306.49363 312.8597 317.38273 320.5608 326.28929 332.65538">Extensions</tspan></text>
<path transform="matrix(1,0,0,-1,548.182,509.19703)" stroke-width=".398" stroke-linecap="butt" stroke-miterlimit="10" stroke-linejoin="miter" fill="none" stroke="#000000" d="M0 0V17.933"/>
<path transform="matrix(1,0,0,-1,72,509.39604)" stroke-width=".398" stroke-linecap="butt" stroke-miterlimit="10" stroke-linejoin="miter" fill="none" stroke="#000000" d="M0 0H476.381"/>
<path transform="matrix(1,0,0,-1,72,509.39604)" stroke-width=".398" stroke-linecap="butt" stroke-miterlimit="10" stroke-linejoin="miter" fill="none" stroke="#000000" d="M0 0H476.381"/>
<path transform="matrix(1,0,0,-1,72.199,527.528)" stroke-width=".398" stroke-linecap="butt" stroke-miterlimit="10" stroke-linejoin="miter" fill="none" stroke="#000000" d="M0 0V17.933"/>
<text xml:space="preserve" transform="matrix(1 0 -0 1 0 841.89)" font-size="9.9626" font-family="CMBX10" font-weight="bold"><tspan y="-319.742" x="121.779 130.4365 135.52738 139.98065 145.70915 154.2471 162.9046 167.99549 172.44876 175.62683 181.35533 191.54708 196.00035 201.72885 210.2668 214.61049 220.65779 225.11107 230.36136 236.40866 240.86194 244.04001 249.76851 256.1346">ActorAction(orIntention)</tspan></text>
<path transform="matrix(1,0,0,-1,310.191,527.528)" stroke-width=".398" stroke-linecap="butt" stroke-miterlimit="10" stroke-linejoin="miter" fill="none" stroke="#000000" d="M0 0V17.933"/>
<text xml:space="preserve" transform="matrix(1 0 -0 1 0 841.89)" font-size="9.9626" font-family="CMBX10" font-weight="bold"><tspan y="-319.742" x="373.636 380.00209 386.04939 390.5724 395.02568 400.27598 413.6358 422.23353 427.48384 432.00685 438.69175 444.42024 450.78633 455.30934 458.4874 464.8535 468.03157 471.20964 474.3877 478.53215">SystemResponsibility</tspan></text>
<path transform="matrix(1,0,0,-1,548.182,527.528)" stroke-width=".398" stroke-linecap="butt" stroke-miterlimit="10" stroke-linejoin="miter" fill="none" stroke="#000000" d="M0 0V17.933"/>
<path transform="matrix(1,0,0,-1,72,527.72708)" stroke-width=".398" stroke-linecap="butt" stroke-miterlimit="10" stroke-linejoin="miter" fill="none" stroke="#000000" d="M0 0H476.381"/>
<path transform="matrix(1,0,0,-1,72,527.72708)" stroke-width=".398" stroke-linecap="butt" stroke-miterlimit="10" stroke-linejoin="miter" fill="none" stroke="#000000" d="M0 0H476.381"/>
<path transform="matrix(1,0,0,-1,72.199,545.859)" stroke-width=".398" stroke-linecap="butt" stroke-miterlimit="10" stroke-linejoin="miter" fill="none" stroke="#000000" d="M0 0V17.933"/>
<text xml:space="preserve" transform="matrix(1 0 -0 1 0 841.89)" font-size="9.9626" font-family="CMBX10" font-weight="bold"><tspan y="-301.41" x="78.376 84.10449 89.673587">1a.</tspan></text>
<text xml:space="preserve" transform="matrix(1 0 -0 1 0 841.89)" font-size="9.9626" font-family="CMR10"><tspan y="-301.41" x="97.284 104.75595 113.054798 120.805698 124.71104 130.25025 134.67365 138.57898 145.83176 150.81305 154.71839 162.45934 167.99854 170.76815 174.6934 180.2326 183.00222 187.70456 192.68587 197.10927 202.64847">NoOrdersaredisplayed.</tspan></text>
<path transform="matrix(1,0,0,-1,310.191,545.859)" stroke-width=".398" stroke-linecap="butt" stroke-miterlimit="10" stroke-linejoin="miter" fill="none" stroke="#000000" d="M0 0V17.933"/>
<text xml:space="preserve" transform="matrix(1 0 -0 1 0 841.89)" font-size="9.9626" font-family="CMBX10" font-weight="bold"><tspan y="-301.41" x="316.368 322.0965 327.6656">1a.</tspan></text>
<text xml:space="preserve" transform="matrix(1 0 -0 1 0 841.89)" font-size="9.9626" font-family="CMR10"><tspan y="-301.41" x="335.276 340.81523 346.07548 350.00074 353.8762 358.2996 369.916 375.4552 379.8786 383.75407 388.17747 392.60087 396.47633 403.7291 407.60456 413.14378 418.12507 425.31806 430.85728 439.1561 444.1374 448.04273 453.58195 458.00535 461.91069 469.16346 474.70268 479.405 484.3863 492.12724 497.9454 502.3688 506.7922 515.65896 523.95779 528.9391 534.4783 538.9017">Systemdetectsthatnoordershavebeenmade.</tspan></text>
<path transform="matrix(1,0,0,-1,548.182,545.859)" stroke-width=".398" stroke-linecap="butt" stroke-miterlimit="10" stroke-linejoin="miter" fill="none" stroke="#000000" d="M0 0V17.933"/>
<path transform="matrix(1,0,0,-1,72,546.059)" stroke-width=".398" stroke-linecap="butt" stroke-miterlimit="10" stroke-linejoin="miter" fill="none" stroke="#000000" d="M0 0H476.381"/>
<path transform="matrix(1,0,0,-1,72,546.059)" stroke-width=".398" stroke-linecap="butt" stroke-miterlimit="10" stroke-linejoin="miter" fill="none" stroke="#000000" d="M0 0H476.381"/>
<path transform="matrix(1,0,0,-1,72.199,576.146)" stroke-width=".398" stroke-linecap="butt" stroke-miterlimit="10" stroke-linejoin="miter" fill="none" stroke="#000000" d="M0 0V29.888"/>
<text xml:space="preserve" transform="matrix(1 0 -0 1 0 841.89)" font-size="9.9626" font-family="CMBX10" font-weight="bold"><tspan y="-283.079" x="78.376 84.10449 89.673587">3a.</tspan></text>
<text xml:space="preserve" transform="matrix(1 0 -0 1 0 841.89)" font-size="9.9626" font-family="CMR10"><tspan y="-283.079" x="97.169 100.765499 106.782909 110.658359 116.19756 123.59978 128.58107 132.4864 138.0256 142.449 149.33316 153.75656 158.73786 164.27706 169.80629 174.78759 181.64186 187.46 194.85227 203.15111 208.41135 213.95055 216.72016 219.48477 222.25936 226.68276 232.22196 237.20325 241.62665 246.60794 252.14714 256.57054 260.99394 263.76353 268.18693 276.70497 282.24418 287.7834 295.17564 299.0511">Iftheordercannotbemodified/canceleddueto</tspan><tspan y="-271.12403" x="78.376 82.30126 86.17671 91.15801 95.03346 100.57267 104.49793 110.585079 114.460529 119.99973 127.75063 132.17403 137.71323 141.63849 145.51395 150.49524 158.79409 163.21749 170.44037 173.20998 180.45279 183.2224 188.7616 191.81015 196.79145 200.69678 208.99562 213.41902 218.95822">status,thecustomerisinformed.</tspan></text>
<path transform="matrix(1,0,0,-1,310.191,576.146)" stroke-width=".398" stroke-linecap="butt" stroke-miterlimit="10" stroke-linejoin="miter" fill="none" stroke="#000000" d="M0 0V29.888"/>
<text xml:space="preserve" transform="matrix(1 0 -0 1 0 841.89)" font-size="9.9626" font-family="CMBX10" font-weight="bold"><tspan y="-283.079" x="316.368 322.0965 327.6656">3a.</tspan></text>
<text xml:space="preserve" transform="matrix(1 0 -0 1 0 841.89)" font-size="9.9626" font-family="CMR10"><tspan y="-283.079" x="335.418 340.9572 346.21748 350.14274 354.0182 358.4416 370.10783 375.64704 380.62834 384.50379 387.27339 390.038 392.8126 397.236 404.52864 408.40409 413.9433 421.73408 426.15748 431.6967 435.62196 439.4974 444.4787 452.77757 457.20097 464.4836 469.4649 475.88084 479.7563 485.2955 493.08628 498.06758 501.9729 507.51213 511.93553 515.8409 518.6105 525.90316 529.8284 533.70388 538.6852">Systemnotifiesthecustomeroftheorder&#x2019;ssta-</tspan><tspan y="-271.12403" x="316.368 320.24348 325.78269 333.02549 338.00679 343.546 352.41273 356.31806 360.74147 364.66673 368.54219 372.4475 375.2171 379.6405 383.51597 386.28556 391.26686 396.80607 400.73133">tusandrestrictions.</tspan></text>
<path transform="matrix(1,0,0,-1,548.182,576.146)" stroke-width=".398" stroke-linecap="butt" stroke-miterlimit="10" stroke-linejoin="miter" fill="none" stroke="#000000" d="M0 0V29.888"/>
<path transform="matrix(1,0,0,-1,72,576.345)" stroke-width=".398" stroke-linecap="butt" stroke-miterlimit="10" stroke-linejoin="miter" fill="none" stroke="#000000" d="M0 0H476.381"/>
<path transform="matrix(1,0,0,-1,72,576.345)" stroke-width=".398" stroke-linecap="butt" stroke-miterlimit="10" stroke-linejoin="miter" fill="none" stroke="#000000" d="M0 0H476.381"/>
<path transform="matrix(1,0,0,-1,72.199,606.432)" stroke-width=".398" stroke-linecap="butt" stroke-miterlimit="10" stroke-linejoin="miter" fill="none" stroke="#000000" d="M0 0V29.888"/>
<text xml:space="preserve" transform="matrix(1 0 -0 1 0 841.89)" font-size="9.9626" font-family="CMBX10" font-weight="bold"><tspan y="-252.793" x="78.376 84.10449 89.673587">5a.</tspan></text>
<text xml:space="preserve" transform="matrix(1 0 -0 1 0 841.89)" font-size="9.9626" font-family="CMR10"><tspan y="-252.793" x="99.736 103.3325 110.515529 118.81437 124.07462 129.61383 132.38344 135.14806 137.92264 142.34604 147.32733 151.20279 153.9724 158.95369 164.49289 172.55263 177.53392 181.43926 190.0071 192.7767 198.03696 202.7393 207.7206 210.4902 213.25981 218.79901 225.91231 229.78777 235.32697 243.8948 248.3182 253.8574 257.78269 261.65815 266.63945 274.9383 279.3617 287.40153 291.82493 296.8062 300.71156">Ifmodificationsareinvalid,thecustomercor-</tspan><tspan y="-240.838" x="78.376 82.28134 86.704738 91.12813 95.00358 102.24638 106.12183 111.66104 116.084438 124.38328">rectsthem.</tspan></text>
<path transform="matrix(1,0,0,-1,310.191,606.432)" stroke-width=".398" stroke-linecap="butt" stroke-miterlimit="10" stroke-linejoin="miter" fill="none" stroke="#000000" d="M0 0V29.888"/>
<text xml:space="preserve" transform="matrix(1 0 -0 1 0 841.89)" font-size="9.9626" font-family="CMBX10" font-weight="bold"><tspan y="-252.793" x="316.368 322.0965 327.6656">5a.</tspan></text>
<text xml:space="preserve" transform="matrix(1 0 -0 1 0 841.89)" font-size="9.9626" font-family="CMR10"><tspan y="-252.793" x="336.76203 342.30125 347.5615 351.48677 355.3622 359.7856 371.90016 377.43937 381.3447 386.326 394.62486 400.16407 404.03953 411.78047 415.6559 421.19514 429.4342 433.8576 439.39683 443.32209 447.19755 452.17884 460.4777 464.9011 472.6221 476.49757 485.3045 490.83378 494.7391 499.45143 504.71168 507.48127 513.02047 521.2595 525.96188 530.9432 533.71279 536.48239">Systempromptsthecustomertoprovidevalid</tspan><tspan y="-240.838" x="316.368 320.51246 326.05168 331.03297 336.57218 341.55348 345.97688 349.90214">changes.</tspan></text>
<path transform="matrix(1,0,0,-1,548.182,606.432)" stroke-width=".398" stroke-linecap="butt" stroke-miterlimit="10" stroke-linejoin="miter" fill="none" stroke="#000000" d="M0 0V29.888"/>
<path transform="matrix(1,0,0,-1,72,606.631)" stroke-width=".398" stroke-linecap="butt" stroke-miterlimit="10" stroke-linejoin="miter" fill="none" stroke="#000000" d="M0 0H476.381"/>
<path transform="matrix(1,0,0,-1,72,606.631)" stroke-width=".398" stroke-linecap="butt" stroke-miterlimit="10" stroke-linejoin="miter" fill="none" stroke="#000000" d="M0 0H476.381"/>
<text xml:space="preserve" transform="matrix(1 0 -0 1 0 841.89)" font-size="9.9626" font-family="CMR10"><tspan y="-42.112" x="295.147">6</tspan></text>
</svg>
