<svg xmlns="http://www.w3.org/2000/svg" xmlns:xlink="http://www.w3.org/1999/xlink" version="1.1" width="595.276" height="841.89" viewBox="0 0 595.276 841.89">
<rect x="0" y="0" width="595.276" height="841.89" fill="white" />
<text xml:space="preserve" transform="matrix(1 0 -0 1 0 841.89)" font-size="14.3462" font-family="CMBX12" font-weight="bold"><tspan y="-759.927" x="208.73 217.69637 226.66274 231.15309 245.49929 251.51035 257.79399 265.15357 278.6103 290.35984 302.72627 311.2479 319.3248 325.92405 331.30387 337.5875 345.6644 351.04423 363.41065 371.93229 380.0092">ShipItemsDoor-to-Door</tspan></text>
<path transform="matrix(1,0,0,-1,72,106.77301)" stroke-width=".398" stroke-linecap="butt" stroke-miterlimit="10" stroke-linejoin="miter" fill="none" stroke="#000000" d="M0 0H476.381"/>
<path transform="matrix(1,0,0,-1,72,106.77301)" stroke-width=".398" stroke-linecap="butt" stroke-miterlimit="10" stroke-linejoin="miter" fill="none" stroke="#000000" d="M0 0H476.381"/>
<path transform="matrix(1,0,0,-1,72.199,124.90503)" stroke-width=".398" stroke-linecap="butt" stroke-miterlimit="10" stroke-linejoin="miter" fill="none" stroke="#000000" d="M0 0V17.933"/>
<text xml:space="preserve" transform="matrix(1 0 -0 1 0 841.89)" font-size="9.9626" font-family="CMBX10" font-weight="bold"><tspan y="-722.365" x="78.376 87.1929 91.71592 100.78188 109.06081 114.6299 119.152919 128.22885 137.19519 142.76428 152.30846">UseCaseName</tspan></text>
<path transform="matrix(1,0,0,-1,197.372,124.90503)" stroke-width=".398" stroke-linecap="butt" stroke-miterlimit="10" stroke-linejoin="miter" fill="none" stroke="#000000" d="M0 0V17.933"/>
<text xml:space="preserve" transform="matrix(1 0 -0 1 0 841.89)" font-size="9.9626" font-family="CMR10"><tspan y="-722.365" x="203.549 209.0882 214.6274 217.397 226.25376 229.85025 233.72571 238.14911 246.44795 253.70073 261.31217 266.56245 271.54374 275.44908 278.7666 282.64207 287.62336 290.9409 298.5523 303.81257 308.79386">ShipItemsDoor-to-Door</tspan></text>
<path transform="matrix(1,0,0,-1,548.182,124.90503)" stroke-width=".398" stroke-linecap="butt" stroke-miterlimit="10" stroke-linejoin="miter" fill="none" stroke="#000000" d="M0 0V17.933"/>
<path transform="matrix(1,0,0,-1,72,125.104007)" stroke-width=".398" stroke-linecap="butt" stroke-miterlimit="10" stroke-linejoin="miter" fill="none" stroke="#000000" d="M0 0H476.381"/>
<path transform="matrix(1,0,0,-1,72,125.104007)" stroke-width=".398" stroke-linecap="butt" stroke-miterlimit="10" stroke-linejoin="miter" fill="none" stroke="#000000" d="M0 0H476.381"/>
<path transform="matrix(1,0,0,-1,72.199,143.23603)" stroke-width=".398" stroke-linecap="butt" stroke-miterlimit="10" stroke-linejoin="miter" fill="none" stroke="#000000" d="M0 0V17.933"/>
<text xml:space="preserve" transform="matrix(1 0 -0 1 0 841.89)" font-size="9.9626" font-family="CMBX10" font-weight="bold"><tspan y="-704.034" x="78.376 84.7421 89.83299 95.561489 102.24639">Scope</tspan></text>
<path transform="matrix(1,0,0,-1,197.372,143.23603)" stroke-width=".398" stroke-linecap="butt" stroke-miterlimit="10" stroke-linejoin="miter" fill="none" stroke="#000000" d="M0 0V17.933"/>
<text xml:space="preserve" transform="matrix(1 0 -0 1 0 841.89)" font-size="9.9626" font-family="CMR10"><tspan y="-704.034" x="203.549 211.02095 215.7233 222.91629 228.17655 235.36954 246.169 252.39563 257.37693 262.35823 265.1278 269.05308 272.92854 275.69813 280.12153 287.36433 292.3456 297.88484 306.74159 314.353 318.7764 321.546 324.31559 329.29689 333.72029 337.6256 346.21339 355.3491 360.33039 365.8696 370.8509 375.83219 380.25559 388.55445 392.97785 398.2381 405.4311 410.9703 416.23057 420.15583 424.03129 428.45469">HawkTULogisticsandDeliveryManagementSystem</tspan></text>
<path transform="matrix(1,0,0,-1,548.182,143.23603)" stroke-width=".398" stroke-linecap="butt" stroke-miterlimit="10" stroke-linejoin="miter" fill="none" stroke="#000000" d="M0 0V17.933"/>
<path transform="matrix(1,0,0,-1,72,143.435)" stroke-width=".398" stroke-linecap="butt" stroke-miterlimit="10" stroke-linejoin="miter" fill="none" stroke="#000000" d="M0 0H476.381"/>
<path transform="matrix(1,0,0,-1,72,143.435)" stroke-width=".398" stroke-linecap="butt" stroke-miterlimit="10" stroke-linejoin="miter" fill="none" stroke="#000000" d="M0 0H476.381"/>
<path transform="matrix(1,0,0,-1,72.199,161.56702)" stroke-width=".398" stroke-linecap="butt" stroke-miterlimit="10" stroke-linejoin="miter" fill="none" stroke="#000000" d="M0 0V17.933"/>
<text xml:space="preserve" transform="matrix(1 0 -0 1 0 841.89)" font-size="9.9626" font-family="CMBX10" font-weight="bold"><tspan y="-685.703" x="78.376 85.27012 90.52041 96.2489 101.49919">Level</tspan></text>
<path transform="matrix(1,0,0,-1,197.372,161.56702)" stroke-width=".398" stroke-linecap="butt" stroke-miterlimit="10" stroke-linejoin="miter" fill="none" stroke="#000000" d="M0 0V17.933"/>
<text xml:space="preserve" transform="matrix(1 0 -0 1 0 841.89)" font-size="9.9626" font-family="CMR10"><tspan y="-685.703" x="203.549 211.02095 214.94622 219.36962 226.5925 234.41315 239.39444 244.37574">UserGoal</tspan></text>
<path transform="matrix(1,0,0,-1,548.182,161.56702)" stroke-width=".398" stroke-linecap="butt" stroke-miterlimit="10" stroke-linejoin="miter" fill="none" stroke="#000000" d="M0 0V17.933"/>
<path transform="matrix(1,0,0,-1,72,161.76599)" stroke-width=".398" stroke-linecap="butt" stroke-miterlimit="10" stroke-linejoin="miter" fill="none" stroke="#000000" d="M0 0H476.381"/>
<path transform="matrix(1,0,0,-1,72,161.76599)" stroke-width=".398" stroke-linecap="butt" stroke-miterlimit="10" stroke-linejoin="miter" fill="none" stroke="#000000" d="M0 0H476.381"/>
<path transform="matrix(1,0,0,-1,72.199,179.89801)" stroke-width=".398" stroke-linecap="butt" stroke-miterlimit="10" stroke-linejoin="miter" fill="none" stroke="#000000" d="M0 0V17.933"/>
<text xml:space="preserve" transform="matrix(1 0 -0 1 0 841.89)" font-size="9.9626" font-family="CMBX10" font-weight="bold"><tspan y="-667.372" x="78.376 86.206607 90.92888 94.10695 103.65112 109.220218 113.94249 123.81543 132.47293 137.56381 142.01709 147.74559">PrimaryActor</tspan></text>
<path transform="matrix(1,0,0,-1,197.372,179.89801)" stroke-width=".398" stroke-linecap="butt" stroke-miterlimit="10" stroke-linejoin="miter" fill="none" stroke="#000000" d="M0 0V17.933"/>
<text xml:space="preserve" transform="matrix(1 0 -0 1 0 841.89)" font-size="9.9626" font-family="CMR10"><tspan y="-667.372" x="203.549 210.74199 216.28119 220.20645 224.08191 229.0632 237.36205 241.78545">Customer</tspan></text>
<path transform="matrix(1,0,0,-1,548.182,179.89801)" stroke-width=".398" stroke-linecap="butt" stroke-miterlimit="10" stroke-linejoin="miter" fill="none" stroke="#000000" d="M0 0V17.933"/>
<path transform="matrix(1,0,0,-1,72,180.09803)" stroke-width=".398" stroke-linecap="butt" stroke-miterlimit="10" stroke-linejoin="miter" fill="none" stroke="#000000" d="M0 0H476.381"/>
<path transform="matrix(1,0,0,-1,72,180.09803)" stroke-width=".398" stroke-linecap="butt" stroke-miterlimit="10" stroke-linejoin="miter" fill="none" stroke="#000000" d="M0 0H476.381"/>
<path transform="matrix(1,0,0,-1,72.199,254.36402)" stroke-width=".398" stroke-linecap="butt" stroke-miterlimit="10" stroke-linejoin="miter" fill="none" stroke="#000000" d="M0 0V74.067"/>
<text xml:space="preserve" transform="matrix(1 0 -0 1 0 841.89)" font-size="9.9626" font-family="CMBX10" font-weight="bold"><tspan y="-626.951" x="78.376 84.7421 89.19539 94.76448 100.49298 105.74327 112.109378 117.83787 121.01594 127.38204 132.63234 137.35462 145.69332 151.2624 157.62851">Stakeholdersand</tspan><tspan y="-614.996" x="78.376 82.719699 88.767 93.22028 98.47057 103.19285 108.44314 112.966159 117.41944">Interests</tspan></text>
<path transform="matrix(1,0,0,-1,197.372,254.36402)" stroke-width=".398" stroke-linecap="butt" stroke-miterlimit="10" stroke-linejoin="miter" fill="none" stroke="#000000" d="M0 0V74.067"/>
<text xml:space="preserve" transform="matrix(1 0 -0 1 0 841.89)" font-size="4.9813" font-family="CMSY5" font-style="italic"><tspan y="-645.975" x="203.549">&#x2022;</tspan></text>
<text xml:space="preserve" transform="matrix(1 0 -0 1 0 841.89)" font-size="9.9626" font-family="CMR10"><tspan y="-644.712" x="212.19699 219.38999 224.92919 228.85445 232.7299 237.7112 246.01004 250.43344 254.33878 261.53178 270.9464 275.9277 281.18797 285.06343 292.3162 296.19166 304.49049 308.41575 312.83915 318.37837 327.2351 330.0047 333.88017 338.30357 346.60243 353.8552 359.3944 362.164 366.06935 370.49275 374.91615 378.7916 381.5612 390.13899 394.01445 402.31327 407.29457 411.17 416.70924 421.13264 425.03797 432.29075 439.48374 442.25334 446.12879 454.98554 458.89088 463.31428 466.08387 468.85346 473.83476 479.37397 482.14356 489.8845 493.75996 497.66529 502.64659 506.801 512.0612 514.8308 520.36007 525.3414">Customer:Wantstosenditemsdirectlytootherswithreliabletracking.</tspan></text>
<text xml:space="preserve" transform="matrix(1 0 -0 1 0 841.89)" font-size="4.9813" font-family="CMSY5" font-style="italic"><tspan y="-626.04898" x="203.549">&#x2022;</tspan></text>
<text xml:space="preserve" transform="matrix(1 0 -0 1 0 841.89)" font-size="9.9626" font-family="CMR10"><tspan y="-624.7869" x="212.19699 219.52947 223.95287 228.37627 231.14588 236.68508 239.45468 243.87808 249.13834 253.0138 260.21678 267.0013 272.26158 278.06977 282.49317 286.91658 290.79203 298.0448 301.92027 310.2191 314.12443 318.54783 322.97123 327.39463 330.1642 335.1455 342.89643 345.66603 349.54148 353.96488 362.26374 369.50654 373.4318 377.8552 382.2786 387.8178 391.72315 396.14656 398.91615 407.5039 412.4852 418.0244 426.88117 430.75663 434.66197 439.64326 443.7877 452.36549 456.24095 461.78016 466.20356 468.97315 476.206 480.13127 485.67048 488.44007 493.97929 502.27815 506.70155 511.96177 515.8372">Recipient:Expectstoreceiveitemssecurelyandtracktheirshipment.</tspan></text>
<text xml:space="preserve" transform="matrix(1 0 -0 1 0 841.89)" font-size="4.9813" font-family="CMSY5" font-style="italic"><tspan y="-606.1239" x="203.549">&#x2022;</tspan></text>
<text xml:space="preserve" transform="matrix(1 0 -0 1 0 841.89)" font-size="9.9626" font-family="CMR10"><tspan y="-604.8609" x="212.19699 217.73619 222.99645 226.9217 230.79717 235.22057 246.83696 254.30892 259.8481 268.14698 270.91658 276.45579 279.22538 283.15065 287.0261 290.93144 295.91273 299.78819 304.76948 308.6748 315.87776 322.6623 328.2015 332.12678 337.666 341.57133 345.99473 353.23753 357.11299 362.6522 370.39314 374.3184 379.8576 382.6272 388.1664 393.70564 396.47523 402.01445 410.32325 415.8525 419.75785 425.0181 429.4415 433.8649 437.79017 445.04295 447.81254 455.05534 459.47874 462.24504 465.01133 467.7776 472.201 474.97059 479.39399 484.65425 491.8572 496.8385 502.37773 511.23448 515.1597 519.5831 524.00656 529.5457 533.45108 537.87448">SystemAdministrator:Ensurestheshippingprocessisefficientandsecure.</tspan></text>
<path transform="matrix(1,0,0,-1,548.182,254.36402)" stroke-width=".398" stroke-linecap="butt" stroke-miterlimit="10" stroke-linejoin="miter" fill="none" stroke="#000000" d="M0 0V74.067"/>
<path transform="matrix(1,0,0,-1,72,254.56299)" stroke-width=".398" stroke-linecap="butt" stroke-miterlimit="10" stroke-linejoin="miter" fill="none" stroke="#000000" d="M0 0H476.381"/>
<path transform="matrix(1,0,0,-1,72,254.56299)" stroke-width=".398" stroke-linecap="butt" stroke-miterlimit="10" stroke-linejoin="miter" fill="none" stroke="#000000" d="M0 0H476.381"/>
<path transform="matrix(1,0,0,-1,72.199,308.904)" stroke-width=".398" stroke-linecap="butt" stroke-miterlimit="10" stroke-linejoin="miter" fill="none" stroke="#000000" d="M0 0V54.141"/>
<text xml:space="preserve" transform="matrix(1 0 -0 1 0 841.89)" font-size="9.9626" font-family="CMBX10" font-weight="bold"><tspan y="-556.471" x="78.376 86.206607 90.92888 96.17917 101.27006 106.99855 113.364658 119.73076 122.90883 127.362117 130.54018 136.26868 142.63478">Preconditions</tspan></text>
<path transform="matrix(1,0,0,-1,197.372,308.904)" stroke-width=".398" stroke-linecap="butt" stroke-miterlimit="10" stroke-linejoin="miter" fill="none" stroke="#000000" d="M0 0V54.141"/>
<text xml:space="preserve" transform="matrix(1 0 -0 1 0 841.89)" font-size="4.9813" font-family="CMSY5" font-style="italic"><tspan y="-571.509" x="203.549">&#x2022;</tspan></text>
<text xml:space="preserve" transform="matrix(1 0 -0 1 0 841.89)" font-size="9.9626" font-family="CMR10"><tspan y="-570.24697" x="212.19699 219.38999 224.92919 232.67014 237.09354 242.63274 246.558 250.43346 255.41475 263.7136 268.137 275.36985 278.13945 285.38224 288.15184 293.13313 298.1144 303.0957 307.5191 316.37586 319.14546 324.41569 328.29115 336.58998 340.46543 346.00465 353.74559 357.67085 362.9311 366.85636 370.7318 375.1552 383.45408">Thecustomerisloggedintothesystem.</tspan></text>
<text xml:space="preserve" transform="matrix(1 0 -0 1 0 841.89)" font-size="4.9813" font-family="CMSY5" font-style="italic"><tspan y="-551.5839" x="203.549">&#x2022;</tspan></text>
<text xml:space="preserve" transform="matrix(1 0 -0 1 0 841.89)" font-size="9.9626" font-family="CMR10"><tspan y="-550.3209" x="212.19699 219.38999 224.92919 232.67014 235.43975 239.3152 243.7386 252.03745 259.29023 263.16569 271.4645 277.28269 285.02363 288.94889 294.4881 297.2577 302.7969 308.61509 313.03849 321.89524 326.87654 330.78187 338.53279 344.072 347.97734 352.40074 357.93995 362.92124 366.82658 371.24998 380.10673 383.15528 388.13658 395.35945 399.2847 404.8239 407.5935 413.13273 421.43159 425.85499 431.11524 434.9907">Theitemstobeshippedarepreparedforshipment.</tspan></text>
<path transform="matrix(1,0,0,-1,548.182,308.904)" stroke-width=".398" stroke-linecap="butt" stroke-miterlimit="10" stroke-linejoin="miter" fill="none" stroke="#000000" d="M0 0V54.141"/>
<path transform="matrix(1,0,0,-1,72,309.10304)" stroke-width=".398" stroke-linecap="butt" stroke-miterlimit="10" stroke-linejoin="miter" fill="none" stroke="#000000" d="M0 0H476.381"/>
<path transform="matrix(1,0,0,-1,72,309.10304)" stroke-width=".398" stroke-linecap="butt" stroke-miterlimit="10" stroke-linejoin="miter" fill="none" stroke="#000000" d="M0 0H476.381"/>
<path transform="matrix(1,0,0,-1,72.199,343.518)" stroke-width=".398" stroke-linecap="butt" stroke-miterlimit="10" stroke-linejoin="miter" fill="none" stroke="#000000" d="M0 0V34.216"/>
<text xml:space="preserve" transform="matrix(1 0 -0 1 0 841.89)" font-size="9.9626" font-family="CMBX10" font-weight="bold"><tspan y="-511.893" x="78.376 85.8878 91.616298 96.13931 100.5926 105.68349 111.41198 117.77808 124.14419 127.32226 131.77555 134.95362 140.68212 147.04822">Postconditions</tspan></text>
<path transform="matrix(1,0,0,-1,197.372,343.518)" stroke-width=".398" stroke-linecap="butt" stroke-miterlimit="10" stroke-linejoin="miter" fill="none" stroke="#000000" d="M0 0V34.216"/>
<text xml:space="preserve" transform="matrix(1 0 -0 1 0 841.89)" font-size="4.9813" font-family="CMSY5" font-style="italic"><tspan y="-516.969" x="203.549">&#x2022;</tspan></text>
<text xml:space="preserve" transform="matrix(1 0 -0 1 0 841.89)" font-size="9.9626" font-family="CMR10"><tspan y="-515.707" x="212.19699 219.38999 224.92919 232.67014 235.43975 239.3152 243.7386 255.36496 258.13456 265.37736 269.3026 274.84184 277.61143 283.15065 288.9688 293.3922 298.93144 305.01856 309.99986 315.53907 324.3958 330.214 335.19529 339.07075 347.9275 353.4667 358.448 362.35334 366.2288 368.99839 373.42179 380.67457 384.5799 389.0033 393.4267 397.8501 400.6197 405.60099 413.34193 417.21739 421.1227 426.104 430.25843 435.51869 438.28828 443.82749 452.1263 454.8959 460.43513 463.48368 468.46498 472.3703 480.66917 485.65046 489.5259 492.2955 497.2768 502.816">Theitemisshipped,andbothpartiesreceivetrackinginformation.</tspan></text>
<path transform="matrix(1,0,0,-1,548.182,343.518)" stroke-width=".398" stroke-linecap="butt" stroke-miterlimit="10" stroke-linejoin="miter" fill="none" stroke="#000000" d="M0 0V34.216"/>
<path transform="matrix(1,0,0,-1,72,343.717)" stroke-width=".398" stroke-linecap="butt" stroke-miterlimit="10" stroke-linejoin="miter" fill="none" stroke="#000000" d="M0 0H476.381"/>
<path transform="matrix(1,0,0,-1,72,343.717)" stroke-width=".398" stroke-linecap="butt" stroke-miterlimit="10" stroke-linejoin="miter" fill="none" stroke="#000000" d="M0 0H476.381"/>
<path transform="matrix(1,0,0,-1,72,343.618)" stroke-width=".398" stroke-linecap="butt" stroke-miterlimit="10" stroke-linejoin="miter" fill="none" stroke="#000000" d="M0 0H476.381"/>
<path transform="matrix(1,0,0,-1,72,343.618)" stroke-width=".398" stroke-linecap="butt" stroke-miterlimit="10" stroke-linejoin="miter" fill="none" stroke="#000000" d="M0 0H476.381"/>
<path transform="matrix(1,0,0,-1,72.199,361.75)" stroke-width=".398" stroke-linecap="butt" stroke-miterlimit="10" stroke-linejoin="miter" fill="none" stroke="#000000" d="M0 0V17.933"/>
<text xml:space="preserve" transform="matrix(1 0 -0 1 0 841.89)" font-size="9.9626" font-family="CMBX10" font-weight="bold"><tspan y="-485.52" x="253.638 264.51716 270.08625 273.2643 283.44609 289.81217 296.17826 301.26914 306.36003 311.61033 316.13334 324.482 330.84809 335.93898 341.18928 347.55537 353.12446 357.8467 361.02479">MainSuccessScenario</tspan></text>
<path transform="matrix(1,0,0,-1,548.182,361.75)" stroke-width=".398" stroke-linecap="butt" stroke-miterlimit="10" stroke-linejoin="miter" fill="none" stroke="#000000" d="M0 0V17.933"/>
<path transform="matrix(1,0,0,-1,72,361.949)" stroke-width=".398" stroke-linecap="butt" stroke-miterlimit="10" stroke-linejoin="miter" fill="none" stroke="#000000" d="M0 0H476.381"/>
<path transform="matrix(1,0,0,-1,72,361.949)" stroke-width=".398" stroke-linecap="butt" stroke-miterlimit="10" stroke-linejoin="miter" fill="none" stroke="#000000" d="M0 0H476.381"/>
<path transform="matrix(1,0,0,-1,72.199,380.08103)" stroke-width=".398" stroke-linecap="butt" stroke-miterlimit="10" stroke-linejoin="miter" fill="none" stroke="#000000" d="M0 0V17.933"/>
<text xml:space="preserve" transform="matrix(1 0 -0 1 0 841.89)" font-size="9.9626" font-family="CMBX10" font-weight="bold"><tspan y="-467.189" x="121.779 130.4365 135.52738 139.98065 145.70915 154.2471 162.9046 167.99549 172.44876 175.62683 181.35533 191.54708 196.00035 201.72885 210.2668 214.61049 220.65779 225.11107 230.36136 236.40866 240.86194 244.04001 249.76851 256.1346">ActorAction(orIntention)</tspan></text>
<path transform="matrix(1,0,0,-1,310.191,380.08103)" stroke-width=".398" stroke-linecap="butt" stroke-miterlimit="10" stroke-linejoin="miter" fill="none" stroke="#000000" d="M0 0V17.933"/>
<text xml:space="preserve" transform="matrix(1 0 -0 1 0 841.89)" font-size="9.9626" font-family="CMBX10" font-weight="bold"><tspan y="-467.189" x="373.636 380.00209 386.04939 390.5724 395.02568 400.27598 413.6358 422.23353 427.48384 432.00685 438.69175 444.42024 450.78633 455.30934 458.4874 464.8535 468.03157 471.20964 474.3877 478.53215">SystemResponsibility</tspan></text>
<path transform="matrix(1,0,0,-1,548.182,380.08103)" stroke-width=".398" stroke-linecap="butt" stroke-miterlimit="10" stroke-linejoin="miter" fill="none" stroke="#000000" d="M0 0V17.933"/>
<path transform="matrix(1,0,0,-1,72,380.28004)" stroke-width=".398" stroke-linecap="butt" stroke-miterlimit="10" stroke-linejoin="miter" fill="none" stroke="#000000" d="M0 0H476.381"/>
<path transform="matrix(1,0,0,-1,72,380.28004)" stroke-width=".398" stroke-linecap="butt" stroke-miterlimit="10" stroke-linejoin="miter" fill="none" stroke="#000000" d="M0 0H476.381"/>
<path transform="matrix(1,0,0,-1,72.199,410.368)" stroke-width=".398" stroke-linecap="butt" stroke-miterlimit="10" stroke-linejoin="miter" fill="none" stroke="#000000" d="M0 0V29.888"/>
<path transform="matrix(1,0,0,-1,310.191,410.368)" stroke-width=".398" stroke-linecap="butt" stroke-miterlimit="10" stroke-linejoin="miter" fill="none" stroke="#000000" d="M0 0V29.888"/>
<text xml:space="preserve" transform="matrix(1 0 -0 1 0 841.89)" font-size="9.9626" font-family="CMR10"><tspan y="-448.858" x="316.368 321.3493 328.4028 333.94203 339.20228 343.12754 347.003 351.4264 362.63435 367.61564 371.5409 376.80116 383.62553 386.67408 391.65538 398.4698 404.009 408.4324 411.202 413.9716 418.95289 423.37629 427.28163 435.44099 440.9802 445.4036 449.27906 454.26036 457.02995 459.79954 466.63389 470.50935 478.12077 482.0261 487.0074 495.4457 500.427 503.3311 506.2352 511.99357 518.7781 521.54769 525.69216 530.9524 536.4916">1.Systemasksfordeliverydetails(Dropoff,Pickup</tspan><tspan y="-436.902" x="316.368 323.83998 329.37919 334.9184 338.82374 343.24714 347.1724 351.09767 357.18479 360.78129 364.65675 369.08015 380.7065 387.62055 392.8808 398.69898 403.12239">Address,ItemType)</tspan></text>
<path transform="matrix(1,0,0,-1,548.182,410.368)" stroke-width=".398" stroke-linecap="butt" stroke-miterlimit="10" stroke-linejoin="miter" fill="none" stroke="#000000" d="M0 0V29.888"/>
<path transform="matrix(1,0,0,-1,72,410.56703)" stroke-width=".398" stroke-linecap="butt" stroke-miterlimit="10" stroke-linejoin="miter" fill="none" stroke="#000000" d="M0 0H476.381"/>
<path transform="matrix(1,0,0,-1,72,410.56703)" stroke-width=".398" stroke-linecap="butt" stroke-miterlimit="10" stroke-linejoin="miter" fill="none" stroke="#000000" d="M0 0H476.381"/>
<path transform="matrix(1,0,0,-1,72.199,440.65403)" stroke-width=".398" stroke-linecap="butt" stroke-miterlimit="10" stroke-linejoin="miter" fill="none" stroke="#000000" d="M0 0V29.888"/>
<text xml:space="preserve" transform="matrix(1 0 -0 1 0 841.89)" font-size="9.9626" font-family="CMR10"><tspan y="-412.594" x="78.376 83.3573 90.55029 97.74329 103.2825 107.20776 111.08321 116.064517 124.36336 128.79673 136.0196 141.5588 145.46414 150.16649 155.42675 158.19635 163.73555 168.15895 175.40177 179.3071 183.7305 186.5001 190.92351 195.63582 200.61711 205.87737 213.07038 215.83998 221.37918 224.42774 229.40903 233.31436 241.6132 246.5945 250.46996 253.23957 258.22087 263.76008">2.Customerprovidesrelevantinformation.</tspan></text>
<path transform="matrix(1,0,0,-1,310.191,440.65403)" stroke-width=".398" stroke-linecap="butt" stroke-miterlimit="10" stroke-linejoin="miter" fill="none" stroke="#000000" d="M0 0V29.888"/>
<text xml:space="preserve" transform="matrix(1 0 -0 1 0 841.89)" font-size="9.9626" font-family="CMR10"><tspan y="-418.571" x="316.368 321.3493 328.82127 334.36048 339.62074 343.546 347.42146 351.84486 363.56089 368.26325 373.24455 376.01414 378.78373 384.32295 389.30424 393.1797 397.6031 404.94554 407.71513 413.25434 416.3029 421.28419 425.1895 433.48838 438.46968 442.34513 445.11473 450.096 459.04243 464.0237 469.56294 478.51933 483.5006 487.42588 492.68614 500.02857 503.07713 508.0584 515.371 523.7695 528.1929 533.1742 538.7134">3.Systemvalidatesinformationandasksforacon-</tspan><tspan y="-406.61604" x="316.368 319.13264 321.90724 325.81257 334.11143 339.0927 342.96818 345.73777 350.71907">firmation</tspan></text>
<path transform="matrix(1,0,0,-1,548.182,440.65403)" stroke-width=".398" stroke-linecap="butt" stroke-miterlimit="10" stroke-linejoin="miter" fill="none" stroke="#000000" d="M0 0V29.888"/>
<path transform="matrix(1,0,0,-1,72,440.85304)" stroke-width=".398" stroke-linecap="butt" stroke-miterlimit="10" stroke-linejoin="miter" fill="none" stroke="#000000" d="M0 0H476.381"/>
<path transform="matrix(1,0,0,-1,72,440.85304)" stroke-width=".398" stroke-linecap="butt" stroke-miterlimit="10" stroke-linejoin="miter" fill="none" stroke="#000000" d="M0 0H476.381"/>
<path transform="matrix(1,0,0,-1,72.199,470.94)" stroke-width=".398" stroke-linecap="butt" stroke-miterlimit="10" stroke-linejoin="miter" fill="none" stroke="#000000" d="M0 0V29.888"/>
<text xml:space="preserve" transform="matrix(1 0 -0 1 0 841.89)" font-size="9.9626" font-family="CMR10"><tspan y="-388.285" x="78.376 83.3573 98.16172 105.35472 110.89393 114.81919 118.69464 123.67594 131.9748 136.40816 146.16155 150.59491 155.5762 161.10544 163.87006 166.64464 170.54998 178.84882 188.63208 192.50754 198.04674 208.32814 212.26337 217.7926 220.56221 226.10141 234.40026 238.82366 244.09386 253.82732 259.36653 263.78993 267.66539 272.64668 275.41627 278.18586 287.96913 292.9504 298.48963">4.Customerconfirmstheshipmentdetailsand</tspan><tspan y="-376.33003" x="78.376 82.52044 88.05965 93.3199 98.3012 102.22646 106.64986 113.89266 122.20147 127.74068 132.44303 137.70328 146.00212 150.42552 155.68578 162.88875 171.18759 175.611 179.48645 185.02565 190.27594 195.81514">choosesapaymentmethod.</tspan></text>
<path transform="matrix(1,0,0,-1,310.191,470.94)" stroke-width=".398" stroke-linecap="butt" stroke-miterlimit="10" stroke-linejoin="miter" fill="none" stroke="#000000" d="M0 0V29.888"/>
<text xml:space="preserve" transform="matrix(1 0 -0 1 0 841.89)" font-size="9.9626" font-family="CMR10"><tspan y="-388.285" x="316.368 321.3493 330.1164 335.6556 340.91587 344.84114 348.71659 353.13999 365.2844 370.8236 374.72895 379.9892 384.4126 388.836 392.76127 396.68653 401.10993 408.88075 412.7562 418.2954 426.56437 432.10359 436.8059 442.06617 450.36503 454.78843 460.04869 467.76969 472.75099 478.2902 487.67497 493.21418 497.1195 501.5429 507.08213 512.0634 515.96878 520.39218 528.163 532.03848 537.57766">5.Systemprocessesthepaymentandpreparesthe</tspan><tspan y="-376.33003" x="316.368 320.29328 325.8325 328.60209 334.1413 342.44017 346.86357 352.1238 355.99928">shipment.</tspan></text>
<path transform="matrix(1,0,0,-1,548.182,470.94)" stroke-width=".398" stroke-linecap="butt" stroke-miterlimit="10" stroke-linejoin="miter" fill="none" stroke="#000000" d="M0 0V29.888"/>
<path transform="matrix(1,0,0,-1,72,471.14)" stroke-width=".398" stroke-linecap="butt" stroke-miterlimit="10" stroke-linejoin="miter" fill="none" stroke="#000000" d="M0 0H476.381"/>
<path transform="matrix(1,0,0,-1,72,471.14)" stroke-width=".398" stroke-linecap="butt" stroke-miterlimit="10" stroke-linejoin="miter" fill="none" stroke="#000000" d="M0 0H476.381"/>
<path transform="matrix(1,0,0,-1,72.199,501.22703)" stroke-width=".398" stroke-linecap="butt" stroke-miterlimit="10" stroke-linejoin="miter" fill="none" stroke="#000000" d="M0 0V29.888"/>
<path transform="matrix(1,0,0,-1,310.191,501.22703)" stroke-width=".398" stroke-linecap="butt" stroke-miterlimit="10" stroke-linejoin="miter" fill="none" stroke="#000000" d="M0 0V29.888"/>
<text xml:space="preserve" transform="matrix(1 0 -0 1 0 841.89)" font-size="9.9626" font-family="CMR10"><tspan y="-357.998" x="316.368 321.3493 330.9931 336.53233 341.79258 345.71784 349.5933 354.0167 366.45005 371.43135 375.85475 381.39396 385.81736 389.7227 394.70399 398.57945 403.0128 411.07255 420.18833 425.72755 431.26676 434.03636 439.2966 444.83583 453.3937 457.26918 461.1745 466.1558 470.30024 475.5605 478.33009 483.8693 492.99504 498.25529 503.7945 511.81437 517.6325 522.0559 530.0957 533.1443 538.1256">6.Systemgeneratesauniquetrackingnumberfor</tspan><tspan y="-346.043" x="316.368 320.24348 325.78269 333.52363 337.44889 342.9881 345.7577 351.2969 359.59577 364.01918 369.27943 373.15489">theshipment.</tspan></text>
<path transform="matrix(1,0,0,-1,548.182,501.22703)" stroke-width=".398" stroke-linecap="butt" stroke-miterlimit="10" stroke-linejoin="miter" fill="none" stroke="#000000" d="M0 0V29.888"/>
<path transform="matrix(1,0,0,-1,72,501.42604)" stroke-width=".398" stroke-linecap="butt" stroke-miterlimit="10" stroke-linejoin="miter" fill="none" stroke="#000000" d="M0 0H476.381"/>
<path transform="matrix(1,0,0,-1,72,501.42604)" stroke-width=".398" stroke-linecap="butt" stroke-miterlimit="10" stroke-linejoin="miter" fill="none" stroke="#000000" d="M0 0H476.381"/>
<path transform="matrix(1,0,0,-1,72.199,531.513)" stroke-width=".398" stroke-linecap="butt" stroke-miterlimit="10" stroke-linejoin="miter" fill="none" stroke="#000000" d="M0 0V29.888"/>
<path transform="matrix(1,0,0,-1,310.191,531.513)" stroke-width=".398" stroke-linecap="butt" stroke-miterlimit="10" stroke-linejoin="miter" fill="none" stroke="#000000" d="M0 0V29.888"/>
<text xml:space="preserve" transform="matrix(1 0 -0 1 0 841.89)" font-size="9.9626" font-family="CMR10"><tspan y="-327.712" x="316.368 321.3493 331.81999 337.3592 342.61946 346.5447 350.42018 354.84358 367.56584 371.4911 375.9145 381.4537 386.99293 395.3316 399.20707 403.1124 408.0937 412.23814 417.49839 420.26799 425.8072 435.2019 437.9715 443.5107 446.55928 451.54057 455.4459 463.74476 468.72605 472.6015 475.3711 480.3524 490.30503 494.18049 503.5752 509.3834 514.3647 518.2401 528.19277 532.0682 537.60739">7.Systemsendstrackinginformationtoboththe</tspan><tspan y="-315.75703" x="316.368 320.7914 326.33064 330.2559 334.13136 339.11265 347.4115 351.8349 359.05778 364.03907 369.57829 378.445 382.35035 386.77375 391.19715 393.96675 399.50596 402.27555 406.69895 411.9592 415.83467">customerandrecipient.</tspan></text>
<path transform="matrix(1,0,0,-1,548.182,531.513)" stroke-width=".398" stroke-linecap="butt" stroke-miterlimit="10" stroke-linejoin="miter" fill="none" stroke="#000000" d="M0 0V29.888"/>
<path transform="matrix(1,0,0,-1,72,531.71206)" stroke-width=".398" stroke-linecap="butt" stroke-miterlimit="10" stroke-linejoin="miter" fill="none" stroke="#000000" d="M0 0H476.381"/>
<path transform="matrix(1,0,0,-1,72,531.71206)" stroke-width=".398" stroke-linecap="butt" stroke-miterlimit="10" stroke-linejoin="miter" fill="none" stroke="#000000" d="M0 0H476.381"/>
<path transform="matrix(1,0,0,-1,72.199,549.844)" stroke-width=".398" stroke-linecap="butt" stroke-miterlimit="10" stroke-linejoin="miter" fill="none" stroke="#000000" d="M0 0V17.933"/>
<text xml:space="preserve" transform="matrix(1 0 -0 1 0 841.89)" font-size="9.9626" font-family="CMBX10" font-weight="bold"><tspan y="-297.425" x="283.211 290.74275 296.79005 301.24333 306.49363 312.8597 317.38273 320.5608 326.28929 332.65538">Extensions</tspan></text>
<path transform="matrix(1,0,0,-1,548.182,549.844)" stroke-width=".398" stroke-linecap="butt" stroke-miterlimit="10" stroke-linejoin="miter" fill="none" stroke="#000000" d="M0 0V17.933"/>
<path transform="matrix(1,0,0,-1,72,550.044)" stroke-width=".398" stroke-linecap="butt" stroke-miterlimit="10" stroke-linejoin="miter" fill="none" stroke="#000000" d="M0 0H476.381"/>
<path transform="matrix(1,0,0,-1,72,550.044)" stroke-width=".398" stroke-linecap="butt" stroke-miterlimit="10" stroke-linejoin="miter" fill="none" stroke="#000000" d="M0 0H476.381"/>
<path transform="matrix(1,0,0,-1,72.199,568.176)" stroke-width=".398" stroke-linecap="butt" stroke-miterlimit="10" stroke-linejoin="miter" fill="none" stroke="#000000" d="M0 0V17.933"/>
<text xml:space="preserve" transform="matrix(1 0 -0 1 0 841.89)" font-size="9.9626" font-family="CMBX10" font-weight="bold"><tspan y="-279.094" x="121.779 130.4365 135.52738 139.98065 145.70915 154.2471 162.9046 167.99549 172.44876 175.62683 181.35533 191.54708 196.00035 201.72885 210.2668 214.61049 220.65779 225.11107 230.36136 236.40866 240.86194 244.04001 249.76851 256.1346">ActorAction(orIntention)</tspan></text>
<path transform="matrix(1,0,0,-1,310.191,568.176)" stroke-width=".398" stroke-linecap="butt" stroke-miterlimit="10" stroke-linejoin="miter" fill="none" stroke="#000000" d="M0 0V17.933"/>
<text xml:space="preserve" transform="matrix(1 0 -0 1 0 841.89)" font-size="9.9626" font-family="CMBX10" font-weight="bold"><tspan y="-279.094" x="373.636 380.00209 386.04939 390.5724 395.02568 400.27598 413.6358 422.23353 427.48384 432.00685 438.69175 444.42024 450.78633 455.30934 458.4874 464.8535 468.03157 471.20964 474.3877 478.53215">SystemResponsibility</tspan></text>
<path transform="matrix(1,0,0,-1,548.182,568.176)" stroke-width=".398" stroke-linecap="butt" stroke-miterlimit="10" stroke-linejoin="miter" fill="none" stroke="#000000" d="M0 0V17.933"/>
<path transform="matrix(1,0,0,-1,72,568.375)" stroke-width=".398" stroke-linecap="butt" stroke-miterlimit="10" stroke-linejoin="miter" fill="none" stroke="#000000" d="M0 0H476.381"/>
<path transform="matrix(1,0,0,-1,72,568.375)" stroke-width=".398" stroke-linecap="butt" stroke-miterlimit="10" stroke-linejoin="miter" fill="none" stroke="#000000" d="M0 0H476.381"/>
<path transform="matrix(1,0,0,-1,72.199,598.46206)" stroke-width=".398" stroke-linecap="butt" stroke-miterlimit="10" stroke-linejoin="miter" fill="none" stroke="#000000" d="M0 0V29.888"/>
<text xml:space="preserve" transform="matrix(1 0 -0 1 0 841.89)" font-size="9.9626" font-family="CMBX10" font-weight="bold"><tspan y="-254.785" x="78.376 84.10449 89.673587">3a.</tspan></text>
<text xml:space="preserve" transform="matrix(1 0 -0 1 0 841.89)" font-size="9.9626" font-family="CMR10"><tspan y="-254.785" x="97.284 104.477 110.016208 113.94147 117.81692 122.79822 131.09706 135.52046 142.74335 146.64868 151.07209 154.38964 158.823 164.08325 167.95871 172.38211 176.28745 183.53026 189.06946 193.49286 197.36832 202.34961 205.11922 207.88883 211.81409">Customerre-entersdetails.</tspan></text>
<path transform="matrix(1,0,0,-1,310.191,598.46206)" stroke-width=".398" stroke-linecap="butt" stroke-miterlimit="10" stroke-linejoin="miter" fill="none" stroke="#000000" d="M0 0V29.888"/>
<text xml:space="preserve" transform="matrix(1 0 -0 1 0 841.89)" font-size="9.9626" font-family="CMBX10" font-weight="bold"><tspan y="-260.763" x="316.368 322.0965 327.6656">3a.</tspan></text>
<text xml:space="preserve" transform="matrix(1 0 -0 1 0 841.89)" font-size="9.9626" font-family="CMR10"><tspan y="-260.763" x="342.187 347.72624 352.98649 356.91175 360.7872 365.2106 379.13835 384.11964 386.88923 391.31263 395.21797 399.0934 408.63758 413.06098 418.6002 422.52546 426.4009 431.3822 439.68107 444.10447 453.63868 457.51414 463.05335 468.03465 477.529 483.0682 487.4916 491.36708 496.34837 499.11796 501.88755 511.44169 516.423 520.3283 530.3706 533.1402 538.6794">Systemalertscustomerthatdetailsarein-</tspan><tspan y="-248.808" x="316.368 321.07038 326.05168 328.82127 331.59086 337.13008 342.11137 344.88096 350.42018 354.84358 359.82487 368.12373 373.66294 376.43254 380.85594 384.73139 392.4823 397.4636 403.0028 411.85957 416.84086 420.7661 426.02638 433.26918 437.14463 445.45344 449.35877 453.78218 457.65763 461.56297 465.98637">valid/incompleteandaskstoretry.</tspan></text>
<path transform="matrix(1,0,0,-1,548.182,598.46206)" stroke-width=".398" stroke-linecap="butt" stroke-miterlimit="10" stroke-linejoin="miter" fill="none" stroke="#000000" d="M0 0V29.888"/>
<path transform="matrix(1,0,0,-1,72,598.661)" stroke-width=".398" stroke-linecap="butt" stroke-miterlimit="10" stroke-linejoin="miter" fill="none" stroke="#000000" d="M0 0H476.381"/>
<path transform="matrix(1,0,0,-1,72,598.661)" stroke-width=".398" stroke-linecap="butt" stroke-miterlimit="10" stroke-linejoin="miter" fill="none" stroke="#000000" d="M0 0H476.381"/>
<path transform="matrix(1,0,0,-1,72.199,628.749)" stroke-width=".398" stroke-linecap="butt" stroke-miterlimit="10" stroke-linejoin="miter" fill="none" stroke="#000000" d="M0 0V29.888"/>
<text xml:space="preserve" transform="matrix(1 0 -0 1 0 841.89)" font-size="9.9626" font-family="CMBX10" font-weight="bold"><tspan y="-224.499" x="78.376 84.10449 89.673587">5a.</tspan></text>
<text xml:space="preserve" transform="matrix(1 0 -0 1 0 841.89)" font-size="9.9626" font-family="CMR10"><tspan y="-224.499" x="96.923007 100.5195 105.799678 111.33888 116.05119 121.31145 129.61029 134.03369 139.29395 145.40103 148.44959 153.43088 156.20049 158.9701 162.89536 168.11577 171.99123 177.53043 184.19542 188.61882 194.15802 198.08329 201.95874 206.94004 215.23888 219.66228 225.79924 228.56885 234.7357 240.2749 245.2562 249.13166 251.90126 254.66588 257.44047 261.86387 269.6347 273.51017 280.73304 284.63838 289.06178 292.93724 296.84257 301.26597">Ifpaymentfails,thecustomerisnotifiedtoretry.</tspan></text>
<path transform="matrix(1,0,0,-1,310.191,628.749)" stroke-width=".398" stroke-linecap="butt" stroke-miterlimit="10" stroke-linejoin="miter" fill="none" stroke="#000000" d="M0 0V29.888"/>
<text xml:space="preserve" transform="matrix(1 0 -0 1 0 841.89)" font-size="9.9626" font-family="CMBX10" font-weight="bold"><tspan y="-230.477" x="316.368 322.0965 327.6656">5a.</tspan></text>
<text xml:space="preserve" transform="matrix(1 0 -0 1 0 841.89)" font-size="9.9626" font-family="CMR10"><tspan y="-230.477" x="335.14 340.67924 345.93949 349.86476 353.7402 358.1636 369.3815 374.92073 377.6903 381.61558 387.1548 389.92439 394.6267 399.88697 406.73127 411.71257 420.16087 424.58427 428.4896 432.39494 437.37623 444.2006 452.49946 456.92286 460.8481 464.77339 469.75468 474.73597 482.0784 484.83805 490.37727 495.91648 498.68608 503.10948 508.09077 511.96623 514.73587 520.275 528.1754 532.05087 537.59">Systemdisplaysanerrormessageindicatingthe</tspan><tspan y="-218.52101" x="316.368 321.90724 326.60957 331.8698 340.16868 344.59208 349.85234 357.0553 360.10386 365.08515 367.85475 370.62434 376.16355 380.06889 384.49229">paymentfailure.</tspan></text>
<path transform="matrix(1,0,0,-1,548.182,628.749)" stroke-width=".398" stroke-linecap="butt" stroke-miterlimit="10" stroke-linejoin="miter" fill="none" stroke="#000000" d="M0 0V29.888"/>
<path transform="matrix(1,0,0,-1,72,628.948)" stroke-width=".398" stroke-linecap="butt" stroke-miterlimit="10" stroke-linejoin="miter" fill="none" stroke="#000000" d="M0 0H476.381"/>
<path transform="matrix(1,0,0,-1,72,628.948)" stroke-width=".398" stroke-linecap="butt" stroke-miterlimit="10" stroke-linejoin="miter" fill="none" stroke="#000000" d="M0 0H476.381"/>
<text xml:space="preserve" transform="matrix(1 0 -0 1 0 841.89)" font-size="9.9626" font-family="CMR10"><tspan y="-42.112" x="292.656 297.6373">12</tspan></text>
</svg>
