<svg xmlns="http://www.w3.org/2000/svg" xmlns:xlink="http://www.w3.org/1999/xlink" version="1.1" width="595.276" height="841.89" viewBox="0 0 595.276 841.89">
<text xml:space="preserve" transform="matrix(1 0 -0 1 0 841.89)" font-size="14.3462" font-family="CMBX12" font-weight="bold"><tspan y="-759.927" x="255.185 266.21723 270.70759 278.55497 285.72807 298.46748 310.59 317.18925 326.1556 333.5152">PlaceOrder</tspan></text>
<path transform="matrix(1,0,0,-1,72,103.98303)" stroke-width=".398" stroke-linecap="butt" stroke-miterlimit="10" stroke-linejoin="miter" fill="none" stroke="#000000" d="M0 0H476.381"/>
<path transform="matrix(1,0,0,-1,72,103.98303)" stroke-width=".398" stroke-linecap="butt" stroke-miterlimit="10" stroke-linejoin="miter" fill="none" stroke="#000000" d="M0 0H476.381"/>
<path transform="matrix(1,0,0,-1,72.199,122.11499)" stroke-width=".398" stroke-linecap="butt" stroke-miterlimit="10" stroke-linejoin="miter" fill="none" stroke="#000000" d="M0 0V17.933"/>
<text xml:space="preserve" transform="matrix(1 0 -0 1 0 841.89)" font-size="9.9626" font-family="CMBX10" font-weight="bold"><tspan y="-725.155" x="78.376 87.1929 91.71592 100.78188 109.06081 114.6299 119.152919 128.22885 137.19519 142.76428 152.30846">UseCaseName</tspan></text>
<path transform="matrix(1,0,0,-1,197.372,122.11499)" stroke-width=".398" stroke-linecap="butt" stroke-miterlimit="10" stroke-linejoin="miter" fill="none" stroke="#000000" d="M0 0V17.933"/>
<text xml:space="preserve" transform="matrix(1 0 -0 1 0 841.89)" font-size="9.9626" font-family="CMR10"><tspan y="-725.155" x="203.549 210.33353 213.10314 218.08443 222.50783 230.24878 237.99968 241.90502 247.44422 251.86762">PlaceOrder</tspan></text>
<path transform="matrix(1,0,0,-1,548.182,122.11499)" stroke-width=".398" stroke-linecap="butt" stroke-miterlimit="10" stroke-linejoin="miter" fill="none" stroke="#000000" d="M0 0V17.933"/>
<path transform="matrix(1,0,0,-1,72,122.314029)" stroke-width=".398" stroke-linecap="butt" stroke-miterlimit="10" stroke-linejoin="miter" fill="none" stroke="#000000" d="M0 0H476.381"/>
<path transform="matrix(1,0,0,-1,72,122.314029)" stroke-width=".398" stroke-linecap="butt" stroke-miterlimit="10" stroke-linejoin="miter" fill="none" stroke="#000000" d="M0 0H476.381"/>
<path transform="matrix(1,0,0,-1,72.199,140.44605)" stroke-width=".398" stroke-linecap="butt" stroke-miterlimit="10" stroke-linejoin="miter" fill="none" stroke="#000000" d="M0 0V17.933"/>
<text xml:space="preserve" transform="matrix(1 0 -0 1 0 841.89)" font-size="9.9626" font-family="CMBX10" font-weight="bold"><tspan y="-706.824" x="78.376 84.7421 89.83299 95.561489 102.24639">Scope</tspan></text>
<path transform="matrix(1,0,0,-1,197.372,140.44605)" stroke-width=".398" stroke-linecap="butt" stroke-miterlimit="10" stroke-linejoin="miter" fill="none" stroke="#000000" d="M0 0V17.933"/>
<text xml:space="preserve" transform="matrix(1 0 -0 1 0 841.89)" font-size="9.9626" font-family="CMR10"><tspan y="-706.824" x="203.549 211.02095 215.7233 222.91629 228.17655 235.36954 246.169 252.39563 257.37693 262.35823 265.1278 269.05308 272.92854 275.69813 280.12153 287.36433 292.3456 297.88484 306.74159 314.353 318.7764 321.546 324.31559 329.29689 333.72029 337.6256 346.21339 355.3491 360.33039 365.8696 370.8509 375.83219 380.25559 388.55445 392.97785 398.2381 405.4311 410.9703 416.23057 420.15583 424.03129 428.45469">HawkTULogisticsandDeliveryManagementSystem</tspan></text>
<path transform="matrix(1,0,0,-1,548.182,140.44605)" stroke-width=".398" stroke-linecap="butt" stroke-miterlimit="10" stroke-linejoin="miter" fill="none" stroke="#000000" d="M0 0V17.933"/>
<path transform="matrix(1,0,0,-1,72,140.646)" stroke-width=".398" stroke-linecap="butt" stroke-miterlimit="10" stroke-linejoin="miter" fill="none" stroke="#000000" d="M0 0H476.381"/>
<path transform="matrix(1,0,0,-1,72,140.646)" stroke-width=".398" stroke-linecap="butt" stroke-miterlimit="10" stroke-linejoin="miter" fill="none" stroke="#000000" d="M0 0H476.381"/>
<path transform="matrix(1,0,0,-1,72.199,158.77802)" stroke-width=".398" stroke-linecap="butt" stroke-miterlimit="10" stroke-linejoin="miter" fill="none" stroke="#000000" d="M0 0V17.933"/>
<text xml:space="preserve" transform="matrix(1 0 -0 1 0 841.89)" font-size="9.9626" font-family="CMBX10" font-weight="bold"><tspan y="-688.492" x="78.376 85.27012 90.52041 96.2489 101.49919">Level</tspan></text>
<path transform="matrix(1,0,0,-1,197.372,158.77802)" stroke-width=".398" stroke-linecap="butt" stroke-miterlimit="10" stroke-linejoin="miter" fill="none" stroke="#000000" d="M0 0V17.933"/>
<text xml:space="preserve" transform="matrix(1 0 -0 1 0 841.89)" font-size="9.9626" font-family="CMR10"><tspan y="-688.492" x="203.549 211.02095 214.94622 219.36962 226.5925 234.41315 239.39444 244.37574">UserGoal</tspan></text>
<path transform="matrix(1,0,0,-1,548.182,158.77802)" stroke-width=".398" stroke-linecap="butt" stroke-miterlimit="10" stroke-linejoin="miter" fill="none" stroke="#000000" d="M0 0V17.933"/>
<path transform="matrix(1,0,0,-1,72,158.97699)" stroke-width=".398" stroke-linecap="butt" stroke-miterlimit="10" stroke-linejoin="miter" fill="none" stroke="#000000" d="M0 0H476.381"/>
<path transform="matrix(1,0,0,-1,72,158.97699)" stroke-width=".398" stroke-linecap="butt" stroke-miterlimit="10" stroke-linejoin="miter" fill="none" stroke="#000000" d="M0 0H476.381"/>
<path transform="matrix(1,0,0,-1,72.199,177.10901)" stroke-width=".398" stroke-linecap="butt" stroke-miterlimit="10" stroke-linejoin="miter" fill="none" stroke="#000000" d="M0 0V17.933"/>
<text xml:space="preserve" transform="matrix(1 0 -0 1 0 841.89)" font-size="9.9626" font-family="CMBX10" font-weight="bold"><tspan y="-670.161" x="78.376 86.206607 90.92888 94.10695 103.65112 109.220218 113.94249 123.81543 132.47293 137.56381 142.01709 147.74559">PrimaryActor</tspan></text>
<path transform="matrix(1,0,0,-1,197.372,177.10901)" stroke-width=".398" stroke-linecap="butt" stroke-miterlimit="10" stroke-linejoin="miter" fill="none" stroke="#000000" d="M0 0V17.933"/>
<text xml:space="preserve" transform="matrix(1 0 -0 1 0 841.89)" font-size="9.9626" font-family="CMR10"><tspan y="-670.161" x="203.549 210.74199 216.28119 220.20645 224.08191 229.0632 237.36205 241.78545">Customer</tspan></text>
<path transform="matrix(1,0,0,-1,548.182,177.10901)" stroke-width=".398" stroke-linecap="butt" stroke-miterlimit="10" stroke-linejoin="miter" fill="none" stroke="#000000" d="M0 0V17.933"/>
<path transform="matrix(1,0,0,-1,72,177.30805)" stroke-width=".398" stroke-linecap="butt" stroke-miterlimit="10" stroke-linejoin="miter" fill="none" stroke="#000000" d="M0 0H476.381"/>
<path transform="matrix(1,0,0,-1,72,177.30805)" stroke-width=".398" stroke-linecap="butt" stroke-miterlimit="10" stroke-linejoin="miter" fill="none" stroke="#000000" d="M0 0H476.381"/>
<path transform="matrix(1,0,0,-1,72.199,263.529)" stroke-width=".398" stroke-linecap="butt" stroke-miterlimit="10" stroke-linejoin="miter" fill="none" stroke="#000000" d="M0 0V86.022"/>
<text xml:space="preserve" transform="matrix(1 0 -0 1 0 841.89)" font-size="9.9626" font-family="CMBX10" font-weight="bold"><tspan y="-623.763" x="78.376 84.7421 89.19539 94.76448 100.49298 105.74327 112.109378 117.83787 121.01594 127.38204 132.63234 137.35462 145.69332 151.2624 157.62851">Stakeholdersand</tspan><tspan y="-611.808" x="78.376 82.719699 88.767 93.22028 98.47057 103.19285 108.44314 112.966159 117.41944">Interests</tspan></text>
<path transform="matrix(1,0,0,-1,197.372,263.529)" stroke-width=".398" stroke-linecap="butt" stroke-miterlimit="10" stroke-linejoin="miter" fill="none" stroke="#000000" d="M0 0V86.022"/>
<text xml:space="preserve" transform="matrix(1 0 -0 1 0 841.89)" font-size="4.9813" font-family="CMSY5" font-style="italic"><tspan y="-648.764" x="203.549">&#x2022;</tspan></text>
<text xml:space="preserve" transform="matrix(1 0 -0 1 0 841.89)" font-size="9.9626" font-family="CMR10"><tspan y="-647.50198" x="212.19699 219.38999 224.92919 228.85445 232.7299 237.7112 246.01004 250.43344 254.33878 264.81944 274.23408 279.21537 284.47563 288.35108 297.2377 307.19035 311.1156 315.539 320.5203 328.81916 331.58876 336.01216 339.9374 348.82405 353.80534 357.71067 363.24989 367.67329 371.5786 374.3482 379.88743 389.83009 395.3693 399.27464 404.53489 408.95829 413.38169 417.30696 426.19358 430.06904 440.02168 445.55094 451.09016 454.99549 459.1499 464.68913 469.6704 473.59568 482.98045 488.51966 492.425 497.68525 503.22447 508.76368 513.1871 517.0625 525.94918 530.37258 533.13888 535.90518 538.6714">Customer:Wantsaseamlessorderingprocesstopurchaseproductseffi-</tspan><tspan y="-635.54598" x="212.19699 216.62039 219.39 223.8134 229.07366 232.94911 235.71872 240.15209">ciently.</tspan></text>
<text xml:space="preserve" transform="matrix(1 0 -0 1 0 841.89)" font-size="4.9813" font-family="CMSY5" font-style="italic"><tspan y="-616.884" x="203.549">&#x2022;</tspan></text>
<text xml:space="preserve" transform="matrix(1 0 -0 1 0 841.89)" font-size="9.9626" font-family="CMR10"><tspan y="-615.621" x="212.19699 217.73619 222.15959 224.9292 227.6988 232.12221 236.02754 243.22055 250.00508 255.26534 261.0835 265.5069 269.9303 273.80577 281.05854 284.934 293.23283 297.13816 301.56156 305.98497 310.40837 313.17796 318.15925 325.91017 330.33357 335.31486 340.85408 343.61869 346.38334 350.28868 358.58753 363.02088 371.87763 376.85893 380.76426 386.30348 390.72688 394.6322 401.875 404.92356 409.90486 417.12773 419.8973 425.16755 430.14884 434.57225 439.8325 443.70796 448.68925 452.59458 461.17237 469.47123 474.4525 479.99174 484.97303 489.9543 494.37773 502.67658 507.09999 512.3702 516.2456">Seller:Expectstoreceiveconfirmedordersforinventorymanagement.</tspan></text>
<text xml:space="preserve" transform="matrix(1 0 -0 1 0 841.89)" font-size="4.9813" font-family="CMSY5" font-style="italic"><tspan y="-596.95797" x="203.549">&#x2022;</tspan></text>
<text xml:space="preserve" transform="matrix(1 0 -0 1 0 841.89)" font-size="9.9626" font-family="CMR10"><tspan y="-595.6959" x="212.19699 217.73619 222.99645 226.9217 230.79717 235.22057 246.83696 254.30892 259.8481 268.14698 270.91658 276.45579 279.22538 283.15065 287.0261 290.93144 295.91273 299.78819 304.76948 308.6748 315.87776 322.6623 328.2015 332.12678 337.666 341.57133 345.99473 353.23753 357.11299 362.6522 370.39314 375.37443 379.27976 384.81898 389.24238 396.47523 402.01445 405.91978 411.17005 415.59346 420.01686 423.9421 431.1949 433.96449 441.20729 445.13255 449.55595 453.97935 459.51856 463.4239 471.1748 476.1561 481.6953 490.55207 494.97547 497.74177 500.50807 503.27433 507.69773 510.46733 514.8907 520.15097 524.02639">SystemAdministrator:Ensurestheorderprocessissecureandefficient.</tspan></text>
<path transform="matrix(1,0,0,-1,548.182,263.529)" stroke-width=".398" stroke-linecap="butt" stroke-miterlimit="10" stroke-linejoin="miter" fill="none" stroke="#000000" d="M0 0V86.022"/>
<path transform="matrix(1,0,0,-1,72,263.72804)" stroke-width=".398" stroke-linecap="butt" stroke-miterlimit="10" stroke-linejoin="miter" fill="none" stroke="#000000" d="M0 0H476.381"/>
<path transform="matrix(1,0,0,-1,72,263.72804)" stroke-width=".398" stroke-linecap="butt" stroke-miterlimit="10" stroke-linejoin="miter" fill="none" stroke="#000000" d="M0 0H476.381"/>
<path transform="matrix(1,0,0,-1,72.199,318.06904)" stroke-width=".398" stroke-linecap="butt" stroke-miterlimit="10" stroke-linejoin="miter" fill="none" stroke="#000000" d="M0 0V54.141"/>
<text xml:space="preserve" transform="matrix(1 0 -0 1 0 841.89)" font-size="9.9626" font-family="CMBX10" font-weight="bold"><tspan y="-547.305" x="78.376 86.206607 90.92888 96.17917 101.27006 106.99855 113.364658 119.73076 122.90883 127.362117 130.54018 136.26868 142.63478">Preconditions</tspan></text>
<path transform="matrix(1,0,0,-1,197.372,318.06904)" stroke-width=".398" stroke-linecap="butt" stroke-miterlimit="10" stroke-linejoin="miter" fill="none" stroke="#000000" d="M0 0V54.141"/>
<text xml:space="preserve" transform="matrix(1 0 -0 1 0 841.89)" font-size="4.9813" font-family="CMSY5" font-style="italic"><tspan y="-562.344" x="203.549">&#x2022;</tspan></text>
<text xml:space="preserve" transform="matrix(1 0 -0 1 0 841.89)" font-size="9.9626" font-family="CMR10"><tspan y="-561.081" x="212.19699 219.38999 224.92919 232.67014 237.09354 242.63274 246.558 250.43346 255.41475 263.7136 268.137 275.36985 278.13945 285.38224 288.15184 293.13313 298.1144 303.0957 307.5191 316.37586 319.14546 324.41569 328.29115 336.58998 340.46543 346.00465 353.74559 357.67085 362.9311 366.85636 370.7318 375.1552 383.45408">Thecustomerisloggedintothesystem.</tspan></text>
<text xml:space="preserve" transform="matrix(1 0 -0 1 0 841.89)" font-size="4.9813" font-family="CMSY5" font-style="italic"><tspan y="-542.41799" x="203.549">&#x2022;</tspan></text>
<text xml:space="preserve" transform="matrix(1 0 -0 1 0 841.89)" font-size="9.9626" font-family="CMR10"><tspan y="-541.15597" x="212.19699 219.38999 224.92919 232.67014 237.09354 242.63274 246.558 250.43346 255.41475 263.7136 268.137 275.36985 280.90907 285.89036 293.13316 297.0584 301.4818 304.2514 308.6748 313.0982 316.97367 321.39707 330.2638 335.803 339.70835 344.95863 350.49784 356.03706 360.46046 364.3359 371.58869 375.46415 383.76298 389.3022 394.8414 398.74674 402.89118 408.4304 413.41169 417.33695 421.76036">Thecustomerhasselectedproductstopurchase.</tspan></text>
<path transform="matrix(1,0,0,-1,548.182,318.06904)" stroke-width=".398" stroke-linecap="butt" stroke-miterlimit="10" stroke-linejoin="miter" fill="none" stroke="#000000" d="M0 0V54.141"/>
<path transform="matrix(1,0,0,-1,72,318.268)" stroke-width=".398" stroke-linecap="butt" stroke-miterlimit="10" stroke-linejoin="miter" fill="none" stroke="#000000" d="M0 0H476.381"/>
<path transform="matrix(1,0,0,-1,72,318.268)" stroke-width=".398" stroke-linecap="butt" stroke-miterlimit="10" stroke-linejoin="miter" fill="none" stroke="#000000" d="M0 0H476.381"/>
<path transform="matrix(1,0,0,-1,72.199,372.609)" stroke-width=".398" stroke-linecap="butt" stroke-miterlimit="10" stroke-linejoin="miter" fill="none" stroke="#000000" d="M0 0V54.141"/>
<text xml:space="preserve" transform="matrix(1 0 -0 1 0 841.89)" font-size="9.9626" font-family="CMBX10" font-weight="bold"><tspan y="-492.765" x="78.376 85.8878 91.616298 96.13931 100.5926 105.68349 111.41198 117.77808 124.14419 127.32226 131.77555 134.95362 140.68212 147.04822">Postconditions</tspan></text>
<path transform="matrix(1,0,0,-1,197.372,372.609)" stroke-width=".398" stroke-linecap="butt" stroke-miterlimit="10" stroke-linejoin="miter" fill="none" stroke="#000000" d="M0 0V54.141"/>
<text xml:space="preserve" transform="matrix(1 0 -0 1 0 841.89)" font-size="4.9813" font-family="CMSY5" font-style="italic"><tspan y="-507.804" x="203.549">&#x2022;</tspan></text>
<text xml:space="preserve" transform="matrix(1 0 -0 1 0 841.89)" font-size="9.9626" font-family="CMR10"><tspan y="-506.541" x="212.19699 219.66895 228.5257 233.50699 237.41233 242.95153 247.37493 254.60778 257.37739 264.62019 269.04359 272.9489 277.3723 282.3536 286.22908 290.65248 299.50923 304.4905 310.02973 318.89646 322.82173 326.69718 331.67848 335.5838 340.0072 348.86396 351.63356 360.4903 364.36576 369.90498 377.65589 383.18516 388.16645 392.0419 397.0232 402.5624 407.5437 411.46897 415.9023">Anorderiscreatedandstoredinthedatabase.</tspan></text>
<text xml:space="preserve" transform="matrix(1 0 -0 1 0 841.89)" font-size="4.9813" font-family="CMSY5" font-style="italic"><tspan y="-487.879" x="203.549">&#x2022;</tspan></text>
<text xml:space="preserve" transform="matrix(1 0 -0 1 0 841.89)" font-size="9.9626" font-family="CMR10"><tspan y="-486.616" x="212.19699 219.38999 224.92919 232.67014 237.09354 242.63274 246.558 250.43346 255.41475 263.7136 268.137 275.36985 279.27519 283.69859 288.12199 292.54539 295.31498 300.29627 304.71968 311.96247 316.94377 325.8105 330.79179 334.6971 340.23634 344.65974 351.8826 356.306 361.2873 366.8265 369.59114 372.36573 376.27107 384.56993 389.5512 393.42668 396.19627 401.17756 406.71678">Thecustomerreceivesanorderconfirmation.</tspan></text>
<path transform="matrix(1,0,0,-1,548.182,372.609)" stroke-width=".398" stroke-linecap="butt" stroke-miterlimit="10" stroke-linejoin="miter" fill="none" stroke="#000000" d="M0 0V54.141"/>
<path transform="matrix(1,0,0,-1,72,372.808)" stroke-width=".398" stroke-linecap="butt" stroke-miterlimit="10" stroke-linejoin="miter" fill="none" stroke="#000000" d="M0 0H476.381"/>
<path transform="matrix(1,0,0,-1,72,372.808)" stroke-width=".398" stroke-linecap="butt" stroke-miterlimit="10" stroke-linejoin="miter" fill="none" stroke="#000000" d="M0 0H476.381"/>
<path transform="matrix(1,0,0,-1,72,372.709)" stroke-width=".398" stroke-linecap="butt" stroke-miterlimit="10" stroke-linejoin="miter" fill="none" stroke="#000000" d="M0 0H476.381"/>
<path transform="matrix(1,0,0,-1,72,372.709)" stroke-width=".398" stroke-linecap="butt" stroke-miterlimit="10" stroke-linejoin="miter" fill="none" stroke="#000000" d="M0 0H476.381"/>
<path transform="matrix(1,0,0,-1,72.199,390.841)" stroke-width=".398" stroke-linecap="butt" stroke-miterlimit="10" stroke-linejoin="miter" fill="none" stroke="#000000" d="M0 0V17.933"/>
<text xml:space="preserve" transform="matrix(1 0 -0 1 0 841.89)" font-size="9.9626" font-family="CMBX10" font-weight="bold"><tspan y="-456.429" x="253.638 264.51716 270.08625 273.2643 283.44609 289.81217 296.17826 301.26914 306.36003 311.61033 316.13334 324.482 330.84809 335.93898 341.18928 347.55537 353.12446 357.8467 361.02479">MainSuccessScenario</tspan></text>
<path transform="matrix(1,0,0,-1,548.182,390.841)" stroke-width=".398" stroke-linecap="butt" stroke-miterlimit="10" stroke-linejoin="miter" fill="none" stroke="#000000" d="M0 0V17.933"/>
<path transform="matrix(1,0,0,-1,72,391.04)" stroke-width=".398" stroke-linecap="butt" stroke-miterlimit="10" stroke-linejoin="miter" fill="none" stroke="#000000" d="M0 0H476.381"/>
<path transform="matrix(1,0,0,-1,72,391.04)" stroke-width=".398" stroke-linecap="butt" stroke-miterlimit="10" stroke-linejoin="miter" fill="none" stroke="#000000" d="M0 0H476.381"/>
<path transform="matrix(1,0,0,-1,72.199,409.17204)" stroke-width=".398" stroke-linecap="butt" stroke-miterlimit="10" stroke-linejoin="miter" fill="none" stroke="#000000" d="M0 0V17.933"/>
<text xml:space="preserve" transform="matrix(1 0 -0 1 0 841.89)" font-size="9.9626" font-family="CMBX10" font-weight="bold"><tspan y="-438.098" x="121.779 130.4365 135.52738 139.98065 145.70915 154.2471 162.9046 167.99549 172.44876 175.62683 181.35533 191.54708 196.00035 201.72885 210.2668 214.61049 220.65779 225.11107 230.36136 236.40866 240.86194 244.04001 249.76851 256.1346">ActorAction(orIntention)</tspan></text>
<path transform="matrix(1,0,0,-1,310.191,409.17204)" stroke-width=".398" stroke-linecap="butt" stroke-miterlimit="10" stroke-linejoin="miter" fill="none" stroke="#000000" d="M0 0V17.933"/>
<text xml:space="preserve" transform="matrix(1 0 -0 1 0 841.89)" font-size="9.9626" font-family="CMBX10" font-weight="bold"><tspan y="-438.098" x="373.636 380.00209 386.04939 390.5724 395.02568 400.27598 413.6358 422.23353 427.48384 432.00685 438.69175 444.42024 450.78633 455.30934 458.4874 464.8535 468.03157 471.20964 474.3877 478.53215">SystemResponsibility</tspan></text>
<path transform="matrix(1,0,0,-1,548.182,409.17204)" stroke-width=".398" stroke-linecap="butt" stroke-miterlimit="10" stroke-linejoin="miter" fill="none" stroke="#000000" d="M0 0V17.933"/>
<path transform="matrix(1,0,0,-1,72,409.371)" stroke-width=".398" stroke-linecap="butt" stroke-miterlimit="10" stroke-linejoin="miter" fill="none" stroke="#000000" d="M0 0H476.381"/>
<path transform="matrix(1,0,0,-1,72,409.371)" stroke-width=".398" stroke-linecap="butt" stroke-miterlimit="10" stroke-linejoin="miter" fill="none" stroke="#000000" d="M0 0H476.381"/>
<path transform="matrix(1,0,0,-1,72.199,439.458)" stroke-width=".398" stroke-linecap="butt" stroke-miterlimit="10" stroke-linejoin="miter" fill="none" stroke="#000000" d="M0 0V29.888"/>
<text xml:space="preserve" transform="matrix(1 0 -0 1 0 841.89)" font-size="9.9626" font-family="CMR10"><tspan y="-419.767" x="78.376 83.3573 90.97868 98.171688 103.71089 107.636157 111.511608 116.492908 124.79175 129.21515 136.58747 140.51273 144.93613 147.70574 152.12914 156.55254 160.428 167.82024 173.35944 177.26477 182.51506 188.05426 193.59346 198.01686 201.89232 209.28456 214.26586 219.80506 228.81124 233.79253 239.33173 244.87093 252.2532 256.12867 261.66789 266.09129 277.85713 281.73258 290.1709 294.04637 299.58558">1.Customerselectsproductsandaddsthemtothe</tspan><tspan y="-407.811" x="78.376 82.79939 87.78069 91.686038 95.561489">cart.</tspan></text>
<path transform="matrix(1,0,0,-1,310.191,439.458)" stroke-width=".398" stroke-linecap="butt" stroke-miterlimit="10" stroke-linejoin="miter" fill="none" stroke="#000000" d="M0 0V29.888"/>
<text xml:space="preserve" transform="matrix(1 0 -0 1 0 841.89)" font-size="9.9626" font-family="CMR10"><tspan y="-413.789" x="316.368 321.3493 328.5423 334.0815 339.34178 343.26704 347.1425 351.5659 363.19227 368.73149 371.50108 375.42634 380.96556 383.73515 388.43748 393.69773 400.94053 404.81599 410.3552 418.1061 422.5295 427.5108 431.41615 438.60914 445.80213 448.57173 452.44718 461.30393 465.2292 469.6526 472.42219 476.84559 481.26899 485.14445 489.56785 498.43458 503.9738 507.87913 513.1294 518.6686 524.20779 528.63119 532.5066 536.4319">2.Systemdisplaysthecartwithselectedproducts.</tspan></text>
<path transform="matrix(1,0,0,-1,548.182,439.458)" stroke-width=".398" stroke-linecap="butt" stroke-miterlimit="10" stroke-linejoin="miter" fill="none" stroke="#000000" d="M0 0V29.888"/>
<path transform="matrix(1,0,0,-1,72,439.65803)" stroke-width=".398" stroke-linecap="butt" stroke-miterlimit="10" stroke-linejoin="miter" fill="none" stroke="#000000" d="M0 0H476.381"/>
<path transform="matrix(1,0,0,-1,72,439.65803)" stroke-width=".398" stroke-linecap="butt" stroke-miterlimit="10" stroke-linejoin="miter" fill="none" stroke="#000000" d="M0 0H476.381"/>
<path transform="matrix(1,0,0,-1,72.199,457.79)" stroke-width=".398" stroke-linecap="butt" stroke-miterlimit="10" stroke-linejoin="miter" fill="none" stroke="#000000" d="M0 0V17.933"/>
<text xml:space="preserve" transform="matrix(1 0 -0 1 0 841.89)" font-size="9.9626" font-family="CMR10"><tspan y="-389.48" x="78.376 83.3573 90.55029 97.74329 103.2825 107.20776 111.08321 116.064517 124.36336 128.79673 136.0196 140.44301 145.4243 150.9635 153.72812 156.5027 160.40804 168.70688 175.94969 181.48889 185.9123 188.6819 191.4515 196.43282 200.85622 204.76155 213.34932 218.88852 223.31192 227.18738 232.16867 234.93828 237.70789 241.63315">3.Customerconfirmsdeliverydetails.</tspan></text>
<path transform="matrix(1,0,0,-1,310.191,457.79)" stroke-width=".398" stroke-linecap="butt" stroke-miterlimit="10" stroke-linejoin="miter" fill="none" stroke="#000000" d="M0 0V17.933"/>
<text xml:space="preserve" transform="matrix(1 0 -0 1 0 841.89)" font-size="9.9626" font-family="CMR10"><tspan y="-389.48" x="316.368 321.3493 328.5423 334.0815 339.34178 343.26704 347.1425 351.5659 363.19227 367.89463 372.87593 375.6455 378.4151 383.9543 388.9356 392.81108 397.23448 404.48725 408.3627 413.90193 421.64286 427.18208 431.60548 434.37507 437.14466 442.12596 446.54936 450.45469 459.03248 461.80207 467.34129 470.38984 475.37113 479.27647 487.57533 492.5566 496.43208 499.20167 504.18296 509.72218">4.Systemvalidatesthedeliveryinformation.</tspan></text>
<path transform="matrix(1,0,0,-1,548.182,457.79)" stroke-width=".398" stroke-linecap="butt" stroke-miterlimit="10" stroke-linejoin="miter" fill="none" stroke="#000000" d="M0 0V17.933"/>
<path transform="matrix(1,0,0,-1,72,457.989)" stroke-width=".398" stroke-linecap="butt" stroke-miterlimit="10" stroke-linejoin="miter" fill="none" stroke="#000000" d="M0 0H476.381"/>
<path transform="matrix(1,0,0,-1,72,457.989)" stroke-width=".398" stroke-linecap="butt" stroke-miterlimit="10" stroke-linejoin="miter" fill="none" stroke="#000000" d="M0 0H476.381"/>
<path transform="matrix(1,0,0,-1,72.199,488.07603)" stroke-width=".398" stroke-linecap="butt" stroke-miterlimit="10" stroke-linejoin="miter" fill="none" stroke="#000000" d="M0 0V29.888"/>
<text xml:space="preserve" transform="matrix(1 0 -0 1 0 841.89)" font-size="9.9626" font-family="CMR10"><tspan y="-365.171" x="78.376 83.3573 90.55029 97.74329 103.2825 107.20776 111.08321 116.064517 124.36336 128.79673 136.0196 141.5588 145.46414 150.72438 155.14778 159.57118 163.99459 169.53379 176.7766 180.65206 188.9509 194.4901 199.2024 204.46265 212.76149 217.18489 222.44515 226.3206">5.Customerproceedstopayment.</tspan></text>
<path transform="matrix(1,0,0,-1,310.191,488.07603)" stroke-width=".398" stroke-linecap="butt" stroke-miterlimit="10" stroke-linejoin="miter" fill="none" stroke="#000000" d="M0 0V29.888"/>
<text xml:space="preserve" transform="matrix(1 0 -0 1 0 841.89)" font-size="9.9626" font-family="CMR10"><tspan y="-371.149" x="316.368 321.3493 335.42646 340.96568 346.22593 350.15119 354.02665 358.45005 372.35786 377.89707 380.66667 384.59193 390.13114 392.90074 397.60307 402.8633 412.40748 417.9467 422.64903 427.90928 436.20814 440.63154 445.89179 455.38615 460.36744 465.90666 469.7821 472.5517 477.533 483.0722 492.6064 496.48188 500.90528 503.67488 508.65617 511.42576 520.38217 524.80557 529.78689 533.71218 539.25137">6.Systemdisplayspaymentoptions(e.g.,cash,</tspan><tspan y="-359.194" x="316.368 320.7914 325.7727 329.67805 335.21726 339.0927">card).</tspan></text>
<path transform="matrix(1,0,0,-1,548.182,488.07603)" stroke-width=".398" stroke-linecap="butt" stroke-miterlimit="10" stroke-linejoin="miter" fill="none" stroke="#000000" d="M0 0V29.888"/>
<path transform="matrix(1,0,0,-1,72,488.27503)" stroke-width=".398" stroke-linecap="butt" stroke-miterlimit="10" stroke-linejoin="miter" fill="none" stroke="#000000" d="M0 0H476.381"/>
<path transform="matrix(1,0,0,-1,72,488.27503)" stroke-width=".398" stroke-linecap="butt" stroke-miterlimit="10" stroke-linejoin="miter" fill="none" stroke="#000000" d="M0 0H476.381"/>
<path transform="matrix(1,0,0,-1,72.199,518.36306)" stroke-width=".398" stroke-linecap="butt" stroke-miterlimit="10" stroke-linejoin="miter" fill="none" stroke="#000000" d="M0 0V29.888"/>
<text xml:space="preserve" transform="matrix(1 0 -0 1 0 841.89)" font-size="9.9626" font-family="CMR10"><tspan y="-334.885" x="78.376 83.3573 90.55029 97.74329 103.2825 107.20776 111.08321 116.064517 124.36336 128.79673 136.0196 140.44301 145.4243 153.72315 159.26235 162.03195 166.45536 170.33081 174.75421 181.99703 185.87248 191.41168 199.1626 204.7018 209.40415 214.6644 222.96324 227.38665 232.6469 239.8399 245.3791 249.28444 254.54468 258.96809 263.39149 267.31675 271.242">7.Customercompletesthepaymentprocess.</tspan></text>
<path transform="matrix(1,0,0,-1,310.191,518.36306)" stroke-width=".398" stroke-linecap="butt" stroke-miterlimit="10" stroke-linejoin="miter" fill="none" stroke="#000000" d="M0 0V29.888"/>
<text xml:space="preserve" transform="matrix(1 0 -0 1 0 841.89)" font-size="9.9626" font-family="CMR10"><tspan y="-340.863" x="316.368 321.3493 328.7814 334.32063 339.58088 343.50614 347.3816 351.805 363.5011 369.0403 372.94566 378.2059 382.6293 387.0527 390.97798 394.90324 399.32664 406.6591 410.53456 416.07377 423.8944 429.43363 434.13597 439.3962 447.69508 452.11848 457.37873 464.65144 469.63273 475.17195 484.11836 488.0436 491.91908 496.90037 500.8057 505.2291 512.5516 516.427 521.9662 529.7868 534.7681 538.67349">8.Systemprocessesthepaymentandstorestheor-</tspan><tspan y="-328.907" x="316.368 321.90724 326.33064 330.23597">der.</tspan></text>
<path transform="matrix(1,0,0,-1,548.182,518.36306)" stroke-width=".398" stroke-linecap="butt" stroke-miterlimit="10" stroke-linejoin="miter" fill="none" stroke="#000000" d="M0 0V29.888"/>
<path transform="matrix(1,0,0,-1,72,518.562)" stroke-width=".398" stroke-linecap="butt" stroke-miterlimit="10" stroke-linejoin="miter" fill="none" stroke="#000000" d="M0 0H476.381"/>
<path transform="matrix(1,0,0,-1,72,518.562)" stroke-width=".398" stroke-linecap="butt" stroke-miterlimit="10" stroke-linejoin="miter" fill="none" stroke="#000000" d="M0 0H476.381"/>
<path transform="matrix(1,0,0,-1,72.199,536.694)" stroke-width=".398" stroke-linecap="butt" stroke-miterlimit="10" stroke-linejoin="miter" fill="none" stroke="#000000" d="M0 0V17.933"/>
<text xml:space="preserve" transform="matrix(1 0 -0 1 0 841.89)" font-size="9.9626" font-family="CMBX10" font-weight="bold"><tspan y="-310.576" x="283.211 290.74275 296.79005 301.24333 306.49363 312.8597 317.38273 320.5608 326.28929 332.65538">Extensions</tspan></text>
<path transform="matrix(1,0,0,-1,548.182,536.694)" stroke-width=".398" stroke-linecap="butt" stroke-miterlimit="10" stroke-linejoin="miter" fill="none" stroke="#000000" d="M0 0V17.933"/>
<path transform="matrix(1,0,0,-1,72,536.893)" stroke-width=".398" stroke-linecap="butt" stroke-miterlimit="10" stroke-linejoin="miter" fill="none" stroke="#000000" d="M0 0H476.381"/>
<path transform="matrix(1,0,0,-1,72,536.893)" stroke-width=".398" stroke-linecap="butt" stroke-miterlimit="10" stroke-linejoin="miter" fill="none" stroke="#000000" d="M0 0H476.381"/>
<path transform="matrix(1,0,0,-1,72.199,555.025)" stroke-width=".398" stroke-linecap="butt" stroke-miterlimit="10" stroke-linejoin="miter" fill="none" stroke="#000000" d="M0 0V17.933"/>
<text xml:space="preserve" transform="matrix(1 0 -0 1 0 841.89)" font-size="9.9626" font-family="CMBX10" font-weight="bold"><tspan y="-292.245" x="121.779 130.4365 135.52738 139.98065 145.70915 154.2471 162.9046 167.99549 172.44876 175.62683 181.35533 191.54708 196.00035 201.72885 210.2668 214.61049 220.65779 225.11107 230.36136 236.40866 240.86194 244.04001 249.76851 256.1346">ActorAction(orIntention)</tspan></text>
<path transform="matrix(1,0,0,-1,310.191,555.025)" stroke-width=".398" stroke-linecap="butt" stroke-miterlimit="10" stroke-linejoin="miter" fill="none" stroke="#000000" d="M0 0V17.933"/>
<text xml:space="preserve" transform="matrix(1 0 -0 1 0 841.89)" font-size="9.9626" font-family="CMBX10" font-weight="bold"><tspan y="-292.245" x="373.636 380.00209 386.04939 390.5724 395.02568 400.27598 413.6358 422.23353 427.48384 432.00685 438.69175 444.42024 450.78633 455.30934 458.4874 464.8535 468.03157 471.20964 474.3877 478.53215">SystemResponsibility</tspan></text>
<path transform="matrix(1,0,0,-1,548.182,555.025)" stroke-width=".398" stroke-linecap="butt" stroke-miterlimit="10" stroke-linejoin="miter" fill="none" stroke="#000000" d="M0 0V17.933"/>
<path transform="matrix(1,0,0,-1,72,555.224)" stroke-width=".398" stroke-linecap="butt" stroke-miterlimit="10" stroke-linejoin="miter" fill="none" stroke="#000000" d="M0 0H476.381"/>
<path transform="matrix(1,0,0,-1,72,555.224)" stroke-width=".398" stroke-linecap="butt" stroke-miterlimit="10" stroke-linejoin="miter" fill="none" stroke="#000000" d="M0 0H476.381"/>
<path transform="matrix(1,0,0,-1,72.199,585.31106)" stroke-width=".398" stroke-linecap="butt" stroke-miterlimit="10" stroke-linejoin="miter" fill="none" stroke="#000000" d="M0 0V29.888"/>
<text xml:space="preserve" transform="matrix(1 0 -0 1 0 841.89)" font-size="9.9626" font-family="CMBX10" font-weight="bold"><tspan y="-273.914" x="78.376 84.10449 89.673587">3a.</tspan></text>
<text xml:space="preserve" transform="matrix(1 0 -0 1 0 841.89)" font-size="9.9626" font-family="CMR10"><tspan y="-273.914" x="97.761 101.3575 107.882999 113.4222 117.8456 120.6152 123.384799 128.3661 132.79947 136.69484 145.442 150.9812 155.4046 159.28006 164.26136 167.03096 169.80057 177.20278 182.18407 186.0894 193.98975 196.75936 202.29856 206.72196 211.70325 220.00209 225.54129 228.3109 232.7343 236.60976 241.03316 247.32953 251.20499 256.7442 264.64457 269.06797 274.60719 278.53245 282.4079 287.3892 295.68806 300.11146">Ifdeliverydetailsareincomplete,thecustomer</tspan><tspan y="-261.958" x="78.376 82.79939 87.78069 91.686038 95.59138 100.01477 104.43816 108.313617 115.55642 119.43187 124.97108 129.39447 137.69332">correctsthem.</tspan></text>
<path transform="matrix(1,0,0,-1,310.191,585.31106)" stroke-width=".398" stroke-linecap="butt" stroke-miterlimit="10" stroke-linejoin="miter" fill="none" stroke="#000000" d="M0 0V29.888"/>
<text xml:space="preserve" transform="matrix(1 0 -0 1 0 841.89)" font-size="9.9626" font-family="CMBX10" font-weight="bold"><tspan y="-273.914" x="316.368 322.0965 327.6656">3a.</tspan></text>
<text xml:space="preserve" transform="matrix(1 0 -0 1 0 841.89)" font-size="9.9626" font-family="CMR10"><tspan y="-273.914" x="335.084 340.62324 345.88349 349.80876 353.6842 358.1076 369.15614 374.69535 378.59074 383.57203 391.88084 397.4101 401.28556 407.96049 411.83595 417.37516 424.54823 428.97163 434.51084 438.4361 442.31156 447.29286 455.5917 460.0151 466.66017 470.5356 478.26658 482.68998 487.67127 495.97013 501.50935 504.27894 508.70234 512.57778 519.74087 528.0397 530.80929 534.73458 538.65988">Systempromptsthecustomertocompletemiss-</tspan><tspan y="-261.958" x="316.368 319.1376 324.67683 332.97566 335.74525 341.28446 344.333 349.3143 353.21965 361.5185 366.4998 370.37525 373.14485 378.12614 383.66535">inginformation.</tspan></text>
<path transform="matrix(1,0,0,-1,548.182,585.31106)" stroke-width=".398" stroke-linecap="butt" stroke-miterlimit="10" stroke-linejoin="miter" fill="none" stroke="#000000" d="M0 0V29.888"/>
<path transform="matrix(1,0,0,-1,72,585.511)" stroke-width=".398" stroke-linecap="butt" stroke-miterlimit="10" stroke-linejoin="miter" fill="none" stroke="#000000" d="M0 0H476.381"/>
<path transform="matrix(1,0,0,-1,72,585.511)" stroke-width=".398" stroke-linecap="butt" stroke-miterlimit="10" stroke-linejoin="miter" fill="none" stroke="#000000" d="M0 0H476.381"/>
<path transform="matrix(1,0,0,-1,72.199,615.598)" stroke-width=".398" stroke-linecap="butt" stroke-miterlimit="10" stroke-linejoin="miter" fill="none" stroke="#000000" d="M0 0V29.888"/>
<text xml:space="preserve" transform="matrix(1 0 -0 1 0 841.89)" font-size="9.9626" font-family="CMBX10" font-weight="bold"><tspan y="-243.627" x="78.376 84.10449 89.673587">7a.</tspan></text>
<text xml:space="preserve" transform="matrix(1 0 -0 1 0 841.89)" font-size="9.9626" font-family="CMR10"><tspan y="-243.627" x="97.143 100.739498 106.687168 112.22637 116.92872 122.18897 130.48783 134.91123 140.17148 146.94605 152.48525 156.39058 161.65082 166.07422 170.49762 174.42288 178.34815 181.11775 186.65695 194.53736 197.5859 202.5672 205.3368 208.10642 212.03168 217.7801 221.65557 227.19477 234.51728 238.94068 244.47988 248.40514 252.2806 257.2619 265.56077 269.98417 276.7886 280.69395 285.11735 288.9928 292.89814 295.66773 300.09114">Ifpaymentprocessingfails,thecustomerretries</tspan><tspan y="-231.672" x="78.376 83.3573 90.580188 94.50545 98.92884 101.69844 106.12183 110.54523 114.42068 121.67345 129.97229 135.51149 138.2811 141.1852 144.0893 148.5127 152.41803 156.84143 162.10169 169.30466 174.84386 179.5462 184.80646 193.1053 197.5287 202.78896 209.98197 218.29077 222.71417 226.58963 232.12883 237.37912 242.91832">orselectsadifferentpaymentmethod.</tspan></text>
<path transform="matrix(1,0,0,-1,310.191,615.598)" stroke-width=".398" stroke-linecap="butt" stroke-miterlimit="10" stroke-linejoin="miter" fill="none" stroke="#000000" d="M0 0V29.888"/>
<text xml:space="preserve" transform="matrix(1 0 -0 1 0 841.89)" font-size="9.9626" font-family="CMBX10" font-weight="bold"><tspan y="-243.627" x="316.368 322.0965 327.6656">7a.</tspan></text>
<text xml:space="preserve" transform="matrix(1 0 -0 1 0 841.89)" font-size="9.9626" font-family="CMR10"><tspan y="-243.627" x="336.04103 341.58024 346.84049 350.76576 354.6412 359.0646 370.94004 376.47926 381.46055 385.336 388.1056 390.8702 393.6448 398.0682 405.57005 409.4455 414.9847 422.98469 427.40809 432.9473 436.87257 440.74803 445.7293 454.02818 458.45158 465.93348 470.91477 477.5399 481.41535 486.95457 494.95454 498.00309 502.98439 505.75398 508.52357 514.06277 517.9681 525.9681 530.9494 536.47866">Systemnotifiesthecustomerofthefailureand</tspan><tspan y="-231.672" x="316.368 321.90724 325.81257 330.5149 335.77516 338.54475 344.08396 348.50736 355.75016 360.73146 366.27067 370.14613 372.9157 377.897 383.43623 390.689 394.56446 402.86329 406.76863 411.19203 415.06748 418.9728 423.40617">providesoptionstoretry.</tspan></text>
<path transform="matrix(1,0,0,-1,548.182,615.598)" stroke-width=".398" stroke-linecap="butt" stroke-miterlimit="10" stroke-linejoin="miter" fill="none" stroke="#000000" d="M0 0V29.888"/>
<path transform="matrix(1,0,0,-1,72,615.797)" stroke-width=".398" stroke-linecap="butt" stroke-miterlimit="10" stroke-linejoin="miter" fill="none" stroke="#000000" d="M0 0H476.381"/>
<path transform="matrix(1,0,0,-1,72,615.797)" stroke-width=".398" stroke-linecap="butt" stroke-miterlimit="10" stroke-linejoin="miter" fill="none" stroke="#000000" d="M0 0H476.381"/>
<text xml:space="preserve" transform="matrix(1 0 -0 1 0 841.89)" font-size="9.9626" font-family="CMR10"><tspan y="-42.112" x="295.147">5</tspan></text>
</svg>
