<svg xmlns="http://www.w3.org/2000/svg" xmlns:xlink="http://www.w3.org/1999/xlink" version="1.1" width="595.276" height="841.89" viewBox="0 0 595.276 841.89">
<rect x="0" y="0" width="595.276" height="841.89" fill="white" />
<text xml:space="preserve" transform="matrix(1 0 -0 1 0 841.89)" font-size="14.3462" font-family="CMBX12" font-weight="bold"><tspan y="-759.927" x="207.734 223.04138 231.11829 240.08466 244.57501 250.85865 258.93556 270.9146 276.92567 285.4473 293.5242 300.8838 309.39109 315.6747 323.75163 330.35087 344.25233 353.95036 361.30995 369.38685 376.74644 381.2368">MonitorInventoryLevels</tspan></text>
<path transform="matrix(1,0,0,-1,72,106.77301)" stroke-width=".398" stroke-linecap="butt" stroke-miterlimit="10" stroke-linejoin="miter" fill="none" stroke="#000000" d="M0 0H476.381"/>
<path transform="matrix(1,0,0,-1,72,106.77301)" stroke-width=".398" stroke-linecap="butt" stroke-miterlimit="10" stroke-linejoin="miter" fill="none" stroke="#000000" d="M0 0H476.381"/>
<path transform="matrix(1,0,0,-1,72.199,124.90503)" stroke-width=".398" stroke-linecap="butt" stroke-miterlimit="10" stroke-linejoin="miter" fill="none" stroke="#000000" d="M0 0V17.933"/>
<text xml:space="preserve" transform="matrix(1 0 -0 1 0 841.89)" font-size="9.9626" font-family="CMBX10" font-weight="bold"><tspan y="-722.365" x="78.376 87.1929 91.71592 100.78188 109.06081 114.6299 119.152919 128.22885 137.19519 142.76428 152.30846">UseCaseName</tspan></text>
<path transform="matrix(1,0,0,-1,197.372,124.90503)" stroke-width=".398" stroke-linecap="butt" stroke-miterlimit="10" stroke-linejoin="miter" fill="none" stroke="#000000" d="M0 0V17.933"/>
<text xml:space="preserve" transform="matrix(1 0 -0 1 0 841.89)" font-size="9.9626" font-family="CMR10"><tspan y="-722.365" x="203.549 212.68471 217.666 223.2052 225.97481 229.85027 234.83156 242.05445 245.65094 250.9112 255.90245 260.32585 265.5861 269.46156 274.44285 278.34819 286.92597 293.1526 297.576 302.55729 306.98069 309.75028">MonitorInventoryLevels</tspan></text>
<path transform="matrix(1,0,0,-1,548.182,124.90503)" stroke-width=".398" stroke-linecap="butt" stroke-miterlimit="10" stroke-linejoin="miter" fill="none" stroke="#000000" d="M0 0V17.933"/>
<path transform="matrix(1,0,0,-1,72,125.104007)" stroke-width=".398" stroke-linecap="butt" stroke-miterlimit="10" stroke-linejoin="miter" fill="none" stroke="#000000" d="M0 0H476.381"/>
<path transform="matrix(1,0,0,-1,72,125.104007)" stroke-width=".398" stroke-linecap="butt" stroke-miterlimit="10" stroke-linejoin="miter" fill="none" stroke="#000000" d="M0 0H476.381"/>
<path transform="matrix(1,0,0,-1,72.199,143.23603)" stroke-width=".398" stroke-linecap="butt" stroke-miterlimit="10" stroke-linejoin="miter" fill="none" stroke="#000000" d="M0 0V17.933"/>
<text xml:space="preserve" transform="matrix(1 0 -0 1 0 841.89)" font-size="9.9626" font-family="CMBX10" font-weight="bold"><tspan y="-704.034" x="78.376 84.7421 89.83299 95.561489 102.24639">Scope</tspan></text>
<path transform="matrix(1,0,0,-1,197.372,143.23603)" stroke-width=".398" stroke-linecap="butt" stroke-miterlimit="10" stroke-linejoin="miter" fill="none" stroke="#000000" d="M0 0V17.933"/>
<text xml:space="preserve" transform="matrix(1 0 -0 1 0 841.89)" font-size="9.9626" font-family="CMR10"><tspan y="-704.034" x="203.549 211.02095 215.7233 222.91629 228.17655 235.36954 246.169 252.39563 257.37693 262.35823 265.1278 269.05308 272.92854 275.69813 280.12153 287.36433 292.3456 297.88484 306.74159 314.353 318.7764 321.546 324.31559 329.29689 333.72029 337.6256 346.21339 355.3491 360.33039 365.8696 370.8509 375.83219 380.25559 388.55445 392.97785 398.2381 405.4311 410.9703 416.23057 420.15583 424.03129 428.45469">HawkTULogisticsandDeliveryManagementSystem</tspan></text>
<path transform="matrix(1,0,0,-1,548.182,143.23603)" stroke-width=".398" stroke-linecap="butt" stroke-miterlimit="10" stroke-linejoin="miter" fill="none" stroke="#000000" d="M0 0V17.933"/>
<path transform="matrix(1,0,0,-1,72,143.435)" stroke-width=".398" stroke-linecap="butt" stroke-miterlimit="10" stroke-linejoin="miter" fill="none" stroke="#000000" d="M0 0H476.381"/>
<path transform="matrix(1,0,0,-1,72,143.435)" stroke-width=".398" stroke-linecap="butt" stroke-miterlimit="10" stroke-linejoin="miter" fill="none" stroke="#000000" d="M0 0H476.381"/>
<path transform="matrix(1,0,0,-1,72.199,161.56702)" stroke-width=".398" stroke-linecap="butt" stroke-miterlimit="10" stroke-linejoin="miter" fill="none" stroke="#000000" d="M0 0V17.933"/>
<text xml:space="preserve" transform="matrix(1 0 -0 1 0 841.89)" font-size="9.9626" font-family="CMBX10" font-weight="bold"><tspan y="-685.703" x="78.376 85.27012 90.52041 96.2489 101.49919">Level</tspan></text>
<path transform="matrix(1,0,0,-1,197.372,161.56702)" stroke-width=".398" stroke-linecap="butt" stroke-miterlimit="10" stroke-linejoin="miter" fill="none" stroke="#000000" d="M0 0V17.933"/>
<text xml:space="preserve" transform="matrix(1 0 -0 1 0 841.89)" font-size="9.9626" font-family="CMR10"><tspan y="-685.703" x="203.549 209.0882 214.34845 218.27371 222.14917 226.57257 238.18897 244.41559 248.83899 253.83025 258.25364">SystemLevel</tspan></text>
<path transform="matrix(1,0,0,-1,548.182,161.56702)" stroke-width=".398" stroke-linecap="butt" stroke-miterlimit="10" stroke-linejoin="miter" fill="none" stroke="#000000" d="M0 0V17.933"/>
<path transform="matrix(1,0,0,-1,72,161.76599)" stroke-width=".398" stroke-linecap="butt" stroke-miterlimit="10" stroke-linejoin="miter" fill="none" stroke="#000000" d="M0 0H476.381"/>
<path transform="matrix(1,0,0,-1,72,161.76599)" stroke-width=".398" stroke-linecap="butt" stroke-miterlimit="10" stroke-linejoin="miter" fill="none" stroke="#000000" d="M0 0H476.381"/>
<path transform="matrix(1,0,0,-1,72.199,179.89801)" stroke-width=".398" stroke-linecap="butt" stroke-miterlimit="10" stroke-linejoin="miter" fill="none" stroke="#000000" d="M0 0V17.933"/>
<text xml:space="preserve" transform="matrix(1 0 -0 1 0 841.89)" font-size="9.9626" font-family="CMBX10" font-weight="bold"><tspan y="-667.372" x="78.376 86.206607 90.92888 94.10695 103.65112 109.220218 113.94249 123.81543 132.47293 137.56381 142.01709 147.74559">PrimaryActor</tspan></text>
<path transform="matrix(1,0,0,-1,197.372,179.89801)" stroke-width=".398" stroke-linecap="butt" stroke-miterlimit="10" stroke-linejoin="miter" fill="none" stroke="#000000" d="M0 0V17.933"/>
<text xml:space="preserve" transform="matrix(1 0 -0 1 0 841.89)" font-size="9.9626" font-family="CMR10"><tspan y="-667.372" x="203.549 211.02095 216.56015 220.43561 225.4169 233.71575 238.69704 242.5725 246.9959 255.85265 264.98835 269.96965 275.50886 280.49015 285.47145 289.89485 298.1937 302.6171 307.88734 315.08033 320.61955 325.8798 329.80506 333.6805 338.1039">AutomatedManagementSystem</tspan></text>
<path transform="matrix(1,0,0,-1,548.182,179.89801)" stroke-width=".398" stroke-linecap="butt" stroke-miterlimit="10" stroke-linejoin="miter" fill="none" stroke="#000000" d="M0 0V17.933"/>
<path transform="matrix(1,0,0,-1,72,180.09803)" stroke-width=".398" stroke-linecap="butt" stroke-miterlimit="10" stroke-linejoin="miter" fill="none" stroke="#000000" d="M0 0H476.381"/>
<path transform="matrix(1,0,0,-1,72,180.09803)" stroke-width=".398" stroke-linecap="butt" stroke-miterlimit="10" stroke-linejoin="miter" fill="none" stroke="#000000" d="M0 0H476.381"/>
<path transform="matrix(1,0,0,-1,72.199,258.349)" stroke-width=".398" stroke-linecap="butt" stroke-miterlimit="10" stroke-linejoin="miter" fill="none" stroke="#000000" d="M0 0V78.052"/>
<text xml:space="preserve" transform="matrix(1 0 -0 1 0 841.89)" font-size="9.9626" font-family="CMBX10" font-weight="bold"><tspan y="-624.958" x="78.376 84.7421 89.19539 94.76448 100.49298 105.74327 112.109378 117.83787 121.01594 127.38204 132.63234 137.35462 145.69332 151.2624 157.62851">Stakeholdersand</tspan><tspan y="-613.003" x="78.376 82.719699 88.767 93.22028 98.47057 103.19285 108.44314 112.966159 117.41944">Interests</tspan></text>
<path transform="matrix(1,0,0,-1,197.372,258.349)" stroke-width=".398" stroke-linecap="butt" stroke-miterlimit="10" stroke-linejoin="miter" fill="none" stroke="#000000" d="M0 0V78.052"/>
<text xml:space="preserve" transform="matrix(1 0 -0 1 0 841.89)" font-size="4.9813" font-family="CMSY5" font-style="italic"><tspan y="-645.975" x="203.549">&#x2022;</tspan></text>
<text xml:space="preserve" transform="matrix(1 0 -0 1 0 841.89)" font-size="9.9626" font-family="CMR10"><tspan y="-644.712" x="212.19699 217.73619 222.15959 224.9292 227.6988 232.12221 236.02754 239.9528 248.84941 256.1819 260.6053 263.37489 272.7995 277.7808 287.48439 291.35984 296.89906 305.49678 309.42204 314.68229 318.60755 322.483 326.9064 339.36964 343.2451 352.4007 360.69956 365.68086 368.45045 373.7107 377.58616 382.56745 385.33705 395.04063 400.0219 405.56114 409.43659 412.20619 420.50505 425.48634 432.43025 436.3555 440.23097 445.4912 449.63566 459.06028 461.82987 466.25328 471.24455 475.66795 478.43754 486.52717 489.5757 494.557 502.6267 507.0501 512.5893 516.5146 520.39 525.37136 533.6801 538.1035">Sellers:Relyonthesystemtomaintainoptimalstocklevelsforcustomer</tspan><tspan y="-632.75698" x="212.19699 217.73619 222.15959 230.45844 235.43973 240.97893 246.51813">demand.</tspan></text>
<text xml:space="preserve" transform="matrix(1 0 -0 1 0 841.89)" font-size="4.9813" font-family="CMSY5" font-style="italic"><tspan y="-614.09396" x="203.549">&#x2022;</tspan></text>
<text xml:space="preserve" transform="matrix(1 0 -0 1 0 841.89)" font-size="9.9626" font-family="CMR10"><tspan y="-612.8319" x="212.19699 217.73619 222.99645 226.9217 230.79717 235.22057 247.624 255.09595 260.63517 268.93403 271.7036 277.24284 280.01243 283.93769 287.81315 291.71849 296.69978 300.57524 305.55653 309.46186 313.38713 322.14424 328.92878 334.468 338.39326 343.93247 347.8378 356.36579 360.24125 365.78047 374.30845 378.2337 383.49397 387.41923 391.29469 395.71809 408.12153 413.1028 418.921 423.3444 427.24974 432.23103 436.10649 440.52989 448.55973 452.98313 455.8872 458.79133 463.21473 467.63813 471.51359 474.28318 479.26448 483.68788 486.45747 495.8223 499.69776 508.78364 517.08248 522.0638 527.60299 532.5843 537.5656">SystemAdministrators:Ensurethesystemoperateseffectivelytomanage</tspan><tspan y="-600.8759" x="212.19699 214.9666 220.22686 225.20816 229.63156 234.90177 238.77722 243.75852 247.66385 252.08725">inventory.</tspan></text>
<path transform="matrix(1,0,0,-1,548.182,258.349)" stroke-width=".398" stroke-linecap="butt" stroke-miterlimit="10" stroke-linejoin="miter" fill="none" stroke="#000000" d="M0 0V78.052"/>
<path transform="matrix(1,0,0,-1,72,258.54804)" stroke-width=".398" stroke-linecap="butt" stroke-miterlimit="10" stroke-linejoin="miter" fill="none" stroke="#000000" d="M0 0H476.381"/>
<path transform="matrix(1,0,0,-1,72,258.54804)" stroke-width=".398" stroke-linecap="butt" stroke-miterlimit="10" stroke-linejoin="miter" fill="none" stroke="#000000" d="M0 0H476.381"/>
<path transform="matrix(1,0,0,-1,72.199,312.88905)" stroke-width=".398" stroke-linecap="butt" stroke-miterlimit="10" stroke-linejoin="miter" fill="none" stroke="#000000" d="M0 0V54.141"/>
<text xml:space="preserve" transform="matrix(1 0 -0 1 0 841.89)" font-size="9.9626" font-family="CMBX10" font-weight="bold"><tspan y="-552.486" x="78.376 86.206607 90.92888 96.17917 101.27006 106.99855 113.364658 119.73076 122.90883 127.362117 130.54018 136.26868 142.63478">Preconditions</tspan></text>
<path transform="matrix(1,0,0,-1,197.372,312.88905)" stroke-width=".398" stroke-linecap="butt" stroke-miterlimit="10" stroke-linejoin="miter" fill="none" stroke="#000000" d="M0 0V54.141"/>
<text xml:space="preserve" transform="matrix(1 0 -0 1 0 841.89)" font-size="4.9813" font-family="CMSY5" font-style="italic"><tspan y="-567.524" x="203.549">&#x2022;</tspan></text>
<text xml:space="preserve" transform="matrix(1 0 -0 1 0 841.89)" font-size="9.9626" font-family="CMR10"><tspan y="-566.26199" x="212.19699 219.38999 224.92919 232.67014 236.5954 241.85565 245.78092 249.65637 254.07978 265.70616 268.47575 275.71855 278.48814 284.02735 286.79695 290.6724 293.442 298.42329 301.19288 303.96247 308.38587 312.80928 321.66603 326.6473 332.18653 341.05326 344.9586 350.4978 356.03703 361.57624 364.34584 369.8751 374.85639">Thesystemisinitializedandrunning.</tspan></text>
<text xml:space="preserve" transform="matrix(1 0 -0 1 0 841.89)" font-size="4.9813" font-family="CMSY5" font-style="italic"><tspan y="-547.59896" x="203.549">&#x2022;</tspan></text>
<text xml:space="preserve" transform="matrix(1 0 -0 1 0 841.89)" font-size="9.9626" font-family="CMR10"><tspan y="-546.33596" x="212.19699 215.79349 221.05374 226.03505 230.45845 235.72866 239.60411 244.5854 248.49074 257.06855 262.60777 267.58906 271.4645 279.76335 282.53294 289.7857 294.2091 299.74833 303.65367 307.54905 311.9824 317.24266 324.43565 329.41694 334.95616 343.8129 348.7942 353.2176 357.641 363.1802 367.08555 372.06684 375.9423 380.3657 383.13529 391.72306 395.6284 400.0518 402.8164 405.591 410.0144 414.4378 418.31327 425.55607 429.48133 433.35679 438.61705 442.76148 451.33927 454.10887 458.5422 463.5235 467.9469 470.7165 474.64176">Inventorydataiscurrentandaccuratelyreflectsstocklevels.</tspan></text>
<path transform="matrix(1,0,0,-1,548.182,312.88905)" stroke-width=".398" stroke-linecap="butt" stroke-miterlimit="10" stroke-linejoin="miter" fill="none" stroke="#000000" d="M0 0V54.141"/>
<path transform="matrix(1,0,0,-1,72,313.088)" stroke-width=".398" stroke-linecap="butt" stroke-miterlimit="10" stroke-linejoin="miter" fill="none" stroke="#000000" d="M0 0H476.381"/>
<path transform="matrix(1,0,0,-1,72,313.088)" stroke-width=".398" stroke-linecap="butt" stroke-miterlimit="10" stroke-linejoin="miter" fill="none" stroke="#000000" d="M0 0H476.381"/>
<path transform="matrix(1,0,0,-1,72.199,367.42903)" stroke-width=".398" stroke-linecap="butt" stroke-miterlimit="10" stroke-linejoin="miter" fill="none" stroke="#000000" d="M0 0V54.141"/>
<text xml:space="preserve" transform="matrix(1 0 -0 1 0 841.89)" font-size="9.9626" font-family="CMBX10" font-weight="bold"><tspan y="-497.946" x="78.376 85.8878 91.616298 96.13931 100.5926 105.68349 111.41198 117.77808 124.14419 127.32226 131.77555 134.95362 140.68212 147.04822">Postconditions</tspan></text>
<path transform="matrix(1,0,0,-1,197.372,367.42903)" stroke-width=".398" stroke-linecap="butt" stroke-miterlimit="10" stroke-linejoin="miter" fill="none" stroke="#000000" d="M0 0V54.141"/>
<text xml:space="preserve" transform="matrix(1 0 -0 1 0 841.89)" font-size="4.9813" font-family="CMSY5" font-style="italic"><tspan y="-512.984" x="203.549">&#x2022;</tspan></text>
<text xml:space="preserve" transform="matrix(1 0 -0 1 0 841.89)" font-size="9.9626" font-family="CMR10"><tspan y="-511.72203" x="212.19699 215.79349 221.05374 226.03505 230.45845 235.72866 239.60411 244.5854 248.49074 257.06855 259.83815 264.26155 269.24284 273.66624 276.43583 283.6886 288.6699 292.56529 300.3162 304.7396 309.7209 314.98115 318.8566 321.6262 326.88645 332.42567 337.40696 342.94618 346.87144 349.64103 358.2288 366.52766 371.50895 377.04817 379.81776 383.68327 388.66456 392.5699 397.00325 405.86 410.84129 416.3805 425.23725 430.77647 436.59465 442.13386 447.11515 450.9906 455.414 464.27076 469.531 478.11878 481.99424 487.53346 495.27439 499.19966 504.4599 508.38517 512.2606 516.684 524.98287">Inventorylevelsarecontinuouslymonitoredandupdatedbythesystem.</tspan></text>
<text xml:space="preserve" transform="matrix(1 0 -0 1 0 841.89)" font-size="4.9813" font-family="CMSY5" font-style="italic"><tspan y="-493.05903" x="203.549">&#x2022;</tspan></text>
<text xml:space="preserve" transform="matrix(1 0 -0 1 0 841.89)" font-size="9.9626" font-family="CMR10"><tspan y="-491.79603" x="212.19699 219.66895 224.65024 228.5257 231.2953 234.05992 236.8345 241.2579 246.2392 250.11466 252.88426 257.86558 263.4048 270.64759 275.62889 279.5342 287.28514 292.26643 296.68983 302.22904 306.65245 310.55778 315.53907 319.41453 323.83793 332.69468 335.74324 340.72453 347.9474 350.71699 354.59245 359.01585 367.3147 374.56748 378.44294 383.98216 388.96345 396.15644 400.06178 404.48518 409.74543 415.28465 418.05424 421.95957 429.7005 433.60585 438.02925 441.9545 445.82997 451.0902 455.23466 460.4949 463.2645 468.8037 473.785">Notificationsaregeneratedforitemsthatrequirerestocking.</tspan></text>
<path transform="matrix(1,0,0,-1,548.182,367.42903)" stroke-width=".398" stroke-linecap="butt" stroke-miterlimit="10" stroke-linejoin="miter" fill="none" stroke="#000000" d="M0 0V54.141"/>
<path transform="matrix(1,0,0,-1,72,367.62803)" stroke-width=".398" stroke-linecap="butt" stroke-miterlimit="10" stroke-linejoin="miter" fill="none" stroke="#000000" d="M0 0H476.381"/>
<path transform="matrix(1,0,0,-1,72,367.62803)" stroke-width=".398" stroke-linecap="butt" stroke-miterlimit="10" stroke-linejoin="miter" fill="none" stroke="#000000" d="M0 0H476.381"/>
<path transform="matrix(1,0,0,-1,72,367.528)" stroke-width=".398" stroke-linecap="butt" stroke-miterlimit="10" stroke-linejoin="miter" fill="none" stroke="#000000" d="M0 0H476.381"/>
<path transform="matrix(1,0,0,-1,72,367.528)" stroke-width=".398" stroke-linecap="butt" stroke-miterlimit="10" stroke-linejoin="miter" fill="none" stroke="#000000" d="M0 0H476.381"/>
<path transform="matrix(1,0,0,-1,72.199,385.66)" stroke-width=".398" stroke-linecap="butt" stroke-miterlimit="10" stroke-linejoin="miter" fill="none" stroke="#000000" d="M0 0V17.933"/>
<text xml:space="preserve" transform="matrix(1 0 -0 1 0 841.89)" font-size="9.9626" font-family="CMBX10" font-weight="bold"><tspan y="-461.61" x="253.638 264.51716 270.08625 273.2643 283.44609 289.81217 296.17826 301.26914 306.36003 311.61033 316.13334 324.482 330.84809 335.93898 341.18928 347.55537 353.12446 357.8467 361.02479">MainSuccessScenario</tspan></text>
<path transform="matrix(1,0,0,-1,548.182,385.66)" stroke-width=".398" stroke-linecap="butt" stroke-miterlimit="10" stroke-linejoin="miter" fill="none" stroke="#000000" d="M0 0V17.933"/>
<path transform="matrix(1,0,0,-1,72,385.859)" stroke-width=".398" stroke-linecap="butt" stroke-miterlimit="10" stroke-linejoin="miter" fill="none" stroke="#000000" d="M0 0H476.381"/>
<path transform="matrix(1,0,0,-1,72,385.859)" stroke-width=".398" stroke-linecap="butt" stroke-miterlimit="10" stroke-linejoin="miter" fill="none" stroke="#000000" d="M0 0H476.381"/>
<path transform="matrix(1,0,0,-1,72.199,403.99104)" stroke-width=".398" stroke-linecap="butt" stroke-miterlimit="10" stroke-linejoin="miter" fill="none" stroke="#000000" d="M0 0V17.933"/>
<text xml:space="preserve" transform="matrix(1 0 -0 1 0 841.89)" font-size="9.9626" font-family="CMBX10" font-weight="bold"><tspan y="-443.278" x="121.779 130.4365 135.52738 139.98065 145.70915 154.2471 162.9046 167.99549 172.44876 175.62683 181.35533 191.54708 196.00035 201.72885 210.2668 214.61049 220.65779 225.11107 230.36136 236.40866 240.86194 244.04001 249.76851 256.1346">ActorAction(orIntention)</tspan></text>
<path transform="matrix(1,0,0,-1,310.191,403.99104)" stroke-width=".398" stroke-linecap="butt" stroke-miterlimit="10" stroke-linejoin="miter" fill="none" stroke="#000000" d="M0 0V17.933"/>
<text xml:space="preserve" transform="matrix(1 0 -0 1 0 841.89)" font-size="9.9626" font-family="CMBX10" font-weight="bold"><tspan y="-443.278" x="373.636 380.00209 386.04939 390.5724 395.02568 400.27598 413.6358 422.23353 427.48384 432.00685 438.69175 444.42024 450.78633 455.30934 458.4874 464.8535 468.03157 471.20964 474.3877 478.53215">SystemResponsibility</tspan></text>
<path transform="matrix(1,0,0,-1,548.182,403.99104)" stroke-width=".398" stroke-linecap="butt" stroke-miterlimit="10" stroke-linejoin="miter" fill="none" stroke="#000000" d="M0 0V17.933"/>
<path transform="matrix(1,0,0,-1,72,404.191)" stroke-width=".398" stroke-linecap="butt" stroke-miterlimit="10" stroke-linejoin="miter" fill="none" stroke="#000000" d="M0 0H476.381"/>
<path transform="matrix(1,0,0,-1,72,404.191)" stroke-width=".398" stroke-linecap="butt" stroke-miterlimit="10" stroke-linejoin="miter" fill="none" stroke="#000000" d="M0 0H476.381"/>
<path transform="matrix(1,0,0,-1,72.199,434.278)" stroke-width=".398" stroke-linecap="butt" stroke-miterlimit="10" stroke-linejoin="miter" fill="none" stroke="#000000" d="M0 0V29.888"/>
<text xml:space="preserve" transform="matrix(1 0 -0 1 0 841.89)" font-size="9.9626" font-family="CMR10"><tspan y="-424.947" x="78.376 83.3573 92.2539 97.793109 103.05336 106.97862 110.85407 115.277469 127.46172 131.89508 136.87638 142.13663 146.01209 148.7817 154.04195 159.58115 164.56244 170.10164 174.0269 176.79651 185.94217 194.24102 199.2223 204.7615 207.53112 211.40657 216.38787 220.2932 228.10387 232.52727 238.06647 241.9718 245.87714 250.30054 255.56079 263.33164 266.10124 271.36149 276.34278 280.76618 286.02644 289.9019 294.88319 298.7885">1.Systemcontinuouslymonitorscurrentinventory</tspan><tspan y="-412.992" x="78.376 81.1456 85.56899 90.55029 94.97369 97.743289 101.66855">levels.</tspan></text>
<path transform="matrix(1,0,0,-1,310.191,434.278)" stroke-width=".398" stroke-linecap="butt" stroke-miterlimit="10" stroke-linejoin="miter" fill="none" stroke="#000000" d="M0 0V29.888"/>
<text xml:space="preserve" transform="matrix(1 0 -0 1 0 841.89)" font-size="9.9626" font-family="CMR10"><tspan y="-424.947" x="316.368 321.3493 328.4925 334.0317 339.29197 343.21723 347.09269 351.51609 362.97309 368.5123 371.2819 375.20716 380.74638 383.51597 388.22828 393.48854 400.57194 403.34153 408.60179 413.58308 418.00648 423.2767 427.15217 432.13346 436.02885 444.4572 448.38249 452.25794 457.23924 461.1147 466.6539 470.57917 476.53678 479.30638 484.84559 489.26899 492.03858 497.5778 503.117 505.8866 511.4258 519.56527 523.5005 527.3759 532.6262 536.78067">2.Systemdisplaysinventorystatus,includingstock</tspan><tspan y="-412.992" x="316.368 321.62828 327.16749 332.14878 337.40904 341.2845 344.05409 347.92955 350.69914 355.12254 362.36534 367.34663 372.88584 381.75257 386.73387 389.50346 393.92686 397.83219 401.70765 405.6329">quantitiesandalerts.</tspan></text>
<path transform="matrix(1,0,0,-1,548.182,434.278)" stroke-width=".398" stroke-linecap="butt" stroke-miterlimit="10" stroke-linejoin="miter" fill="none" stroke="#000000" d="M0 0V29.888"/>
<path transform="matrix(1,0,0,-1,72,434.47703)" stroke-width=".398" stroke-linecap="butt" stroke-miterlimit="10" stroke-linejoin="miter" fill="none" stroke="#000000" d="M0 0H476.381"/>
<path transform="matrix(1,0,0,-1,72,434.47703)" stroke-width=".398" stroke-linecap="butt" stroke-miterlimit="10" stroke-linejoin="miter" fill="none" stroke="#000000" d="M0 0H476.381"/>
<path transform="matrix(1,0,0,-1,72.199,464.56404)" stroke-width=".398" stroke-linecap="butt" stroke-miterlimit="10" stroke-linejoin="miter" fill="none" stroke="#000000" d="M0 0V29.888"/>
<text xml:space="preserve" transform="matrix(1 0 -0 1 0 841.89)" font-size="9.9626" font-family="CMR10"><tspan y="-394.661" x="78.376 83.3573 90.54033 96.07954 101.33979 105.26505 109.1405 113.563899 125.140438 129.04578 133.46918 137.89258 142.87387 146.7792 152.3184 159.52136 165.06056 170.87871 176.41791 181.3992 185.27466 189.69806 196.90102 200.77648 209.03546 211.80507 217.07527 222.05658 226.47998 231.74024 235.61569 240.59699 244.50232 253.04027 255.80988 260.23329 265.21458 269.63798 272.40757 279.61054 285.14976 290.13105 294.0563 298.48966">3.Systemrecordsupdatestoinventorylevelsbased</tspan><tspan y="-382.70603" x="78.376 83.3573 92.21405 96.13931 101.12061 103.89021 108.31361 115.566379 120.547679 127.77056 133.30977 137.73317 148.24372 152.16898 156.04444 161.30467 165.45908 170.70937">onsalesornewstock.</tspan></text>
<path transform="matrix(1,0,0,-1,310.191,464.56404)" stroke-width=".398" stroke-linecap="butt" stroke-miterlimit="10" stroke-linejoin="miter" fill="none" stroke="#000000" d="M0 0V29.888"/>
<text xml:space="preserve" transform="matrix(1 0 -0 1 0 841.89)" font-size="9.9626" font-family="CMR10"><tspan y="-388.683" x="316.368 321.3493 328.5423 334.0815 339.34178 343.26704 347.1425 351.5659 363.19227 367.06773 370.97306 373.74266 378.72395 383.70524 388.12864 392.03398 399.27677 404.81599 409.79728 413.67274 416.44233 419.20695 421.98155 426.40495 431.38624 435.2617 438.03129 443.01258 448.5518 455.7946 458.84315 463.82444 471.05729 473.82688 478.5292 485.7222 489.03974 492.965 496.84046 502.1007 506.24516 514.82296 517.5925 521.46798 525.89138 534.1902 538.1155">4.Systemtriggersnotificationsforlow-stockitems.</tspan></text>
<path transform="matrix(1,0,0,-1,548.182,464.56404)" stroke-width=".398" stroke-linecap="butt" stroke-miterlimit="10" stroke-linejoin="miter" fill="none" stroke="#000000" d="M0 0V29.888"/>
<path transform="matrix(1,0,0,-1,72,464.764)" stroke-width=".398" stroke-linecap="butt" stroke-miterlimit="10" stroke-linejoin="miter" fill="none" stroke="#000000" d="M0 0H476.381"/>
<path transform="matrix(1,0,0,-1,72,464.764)" stroke-width=".398" stroke-linecap="butt" stroke-miterlimit="10" stroke-linejoin="miter" fill="none" stroke="#000000" d="M0 0H476.381"/>
<path transform="matrix(1,0,0,-1,72.199,482.89604)" stroke-width=".398" stroke-linecap="butt" stroke-miterlimit="10" stroke-linejoin="miter" fill="none" stroke="#000000" d="M0 0V17.933"/>
<text xml:space="preserve" transform="matrix(1 0 -0 1 0 841.89)" font-size="9.9626" font-family="CMBX10" font-weight="bold"><tspan y="-364.374" x="283.211 290.74275 296.79005 301.24333 306.49363 312.8597 317.38273 320.5608 326.28929 332.65538">Extensions</tspan></text>
<path transform="matrix(1,0,0,-1,548.182,482.89604)" stroke-width=".398" stroke-linecap="butt" stroke-miterlimit="10" stroke-linejoin="miter" fill="none" stroke="#000000" d="M0 0V17.933"/>
<path transform="matrix(1,0,0,-1,72,483.095)" stroke-width=".398" stroke-linecap="butt" stroke-miterlimit="10" stroke-linejoin="miter" fill="none" stroke="#000000" d="M0 0H476.381"/>
<path transform="matrix(1,0,0,-1,72,483.095)" stroke-width=".398" stroke-linecap="butt" stroke-miterlimit="10" stroke-linejoin="miter" fill="none" stroke="#000000" d="M0 0H476.381"/>
<path transform="matrix(1,0,0,-1,72.199,501.22703)" stroke-width=".398" stroke-linecap="butt" stroke-miterlimit="10" stroke-linejoin="miter" fill="none" stroke="#000000" d="M0 0V17.933"/>
<text xml:space="preserve" transform="matrix(1 0 -0 1 0 841.89)" font-size="9.9626" font-family="CMBX10" font-weight="bold"><tspan y="-346.043" x="166.372 174.65091 180.37941 186.74552 193.11162 196.28969 200.74297 203.92104 209.64954">Condition</tspan></text>
<path transform="matrix(1,0,0,-1,310.191,501.22703)" stroke-width=".398" stroke-linecap="butt" stroke-miterlimit="10" stroke-linejoin="miter" fill="none" stroke="#000000" d="M0 0V17.933"/>
<text xml:space="preserve" transform="matrix(1 0 -0 1 0 841.89)" font-size="9.9626" font-family="CMBX10" font-weight="bold"><tspan y="-346.043" x="373.636 380.00209 386.04939 390.5724 395.02568 400.27598 413.6358 422.23353 427.48384 432.00685 438.69175 444.42024 450.78633 455.30934 458.4874 464.8535 468.03157 471.20964 474.3877 478.53215">SystemResponsibility</tspan></text>
<path transform="matrix(1,0,0,-1,548.182,501.22703)" stroke-width=".398" stroke-linecap="butt" stroke-miterlimit="10" stroke-linejoin="miter" fill="none" stroke="#000000" d="M0 0V17.933"/>
<path transform="matrix(1,0,0,-1,72,501.42604)" stroke-width=".398" stroke-linecap="butt" stroke-miterlimit="10" stroke-linejoin="miter" fill="none" stroke="#000000" d="M0 0H476.381"/>
<path transform="matrix(1,0,0,-1,72,501.42604)" stroke-width=".398" stroke-linecap="butt" stroke-miterlimit="10" stroke-linejoin="miter" fill="none" stroke="#000000" d="M0 0H476.381"/>
<path transform="matrix(1,0,0,-1,72.199,531.513)" stroke-width=".398" stroke-linecap="butt" stroke-miterlimit="10" stroke-linejoin="miter" fill="none" stroke="#000000" d="M0 0V29.888"/>
<text xml:space="preserve" transform="matrix(1 0 -0 1 0 841.89)" font-size="9.9626" font-family="CMBX10" font-weight="bold"><tspan y="-327.712" x="78.376 84.10449 89.673587">1a.</tspan></text>
<text xml:space="preserve" transform="matrix(1 0 -0 1 0 841.89)" font-size="9.9626" font-family="CMR10"><tspan y="-327.712" x="106.466999 110.06349 119.49807 122.26767 127.52792 132.50923 136.93264 142.19289 146.06835 151.04964 154.95497 166.60126 172.14046 177.12175 180.99721 192.35457 195.12418 205.43547 210.41677 215.95597 219.83142 225.37062 230.35192 234.22737 238.65077 244.18997 254.10277 257.9782 263.51744 274.32685 278.2521 283.51237 287.43763 291.31309 295.73649">Ifinventorydataisoutdated,thesystem</tspan><tspan y="-315.75703" x="78.37599 83.9152 87.82054 92.80184 101.100688 106.63989 110.51534 117.75815 120.8067 125.788 133.02086 141.3197 145.22504 149.64844 152.69699 156.60233 161.02573 164.95099 170.49019">promptsforarefresh.</tspan></text>
<path transform="matrix(1,0,0,-1,310.191,531.513)" stroke-width=".398" stroke-linecap="butt" stroke-miterlimit="10" stroke-linejoin="miter" fill="none" stroke="#000000" d="M0 0V29.888"/>
<text xml:space="preserve" transform="matrix(1 0 -0 1 0 841.89)" font-size="9.9626" font-family="CMBX10" font-weight="bold"><tspan y="-327.712" x="316.368 322.0965 327.6656">1a.</tspan></text>
<text xml:space="preserve" transform="matrix(1 0 -0 1 0 841.89)" font-size="9.9626" font-family="CMR10"><tspan y="-327.712" x="336.93803 342.47724 347.7375 351.66276 355.5382 359.9616 372.13594 377.67515 382.65644 386.5319 389.30149 392.0661 394.8407 399.2641 407.06483 410.99009 414.86555 419.84684 424.82814 429.25154 434.79075 439.77204 442.54164 448.08085 452.50425 456.40959 464.2103 469.1916 476.1156 479.99107 485.53028 493.82914 499.36836 503.79176 508.21516 517.62979 521.5052 530.36196 534.2673 538.6907">Systemnotifiesstakeholdersoftheneedtore-</tspan><tspan y="-315.75703" x="316.368 319.41658 323.3219 327.7453 331.67057 340.5273 346.06654 351.04783 354.92329 359.90458">freshdata.</tspan></text>
<path transform="matrix(1,0,0,-1,548.182,531.513)" stroke-width=".398" stroke-linecap="butt" stroke-miterlimit="10" stroke-linejoin="miter" fill="none" stroke="#000000" d="M0 0V29.888"/>
<path transform="matrix(1,0,0,-1,72,531.71206)" stroke-width=".398" stroke-linecap="butt" stroke-miterlimit="10" stroke-linejoin="miter" fill="none" stroke="#000000" d="M0 0H476.381"/>
<path transform="matrix(1,0,0,-1,72,531.71206)" stroke-width=".398" stroke-linecap="butt" stroke-miterlimit="10" stroke-linejoin="miter" fill="none" stroke="#000000" d="M0 0H476.381"/>
<path transform="matrix(1,0,0,-1,72.199,561.80007)" stroke-width=".398" stroke-linecap="butt" stroke-miterlimit="10" stroke-linejoin="miter" fill="none" stroke="#000000" d="M0 0V29.888"/>
<text xml:space="preserve" transform="matrix(1 0 -0 1 0 841.89)" font-size="9.9626" font-family="CMBX10" font-weight="bold"><tspan y="-291.448" x="78.376 84.10449 89.673587">3a.</tspan></text>
<text xml:space="preserve" transform="matrix(1 0 -0 1 0 841.89)" font-size="9.9626" font-family="CMR10"><tspan y="-291.448" x="97.284 100.88049 107.24659 112.22789 121.094608 126.63381 132.44202 137.98122 142.96251 146.83797 154.58889 157.63744 162.61873 165.38834 168.15795 172.0832 178.17037 182.04582 187.58502 195.32598 199.25124 204.51149 208.43675 212.31221 216.73561 228.36197 231.13158 236.11287 241.09416 248.33698 252.21244 257.75166 265.49259 269.916 273.82133 277.72666 282.70796 286.61329">Ifanupdatefails,thesystemlogstheerror.</tspan></text>
<path transform="matrix(1,0,0,-1,310.191,561.80007)" stroke-width=".398" stroke-linecap="butt" stroke-miterlimit="10" stroke-linejoin="miter" fill="none" stroke="#000000" d="M0 0V29.888"/>
<text xml:space="preserve" transform="matrix(1 0 -0 1 0 841.89)" font-size="9.9626" font-family="CMBX10" font-weight="bold"><tspan y="-297.425" x="316.368 322.0965 327.6656">3a.</tspan></text>
<text xml:space="preserve" transform="matrix(1 0 -0 1 0 841.89)" font-size="9.9626" font-family="CMR10"><tspan y="-297.425" x="335.056 340.5952 345.85548 349.78074 353.6562 358.0796 369.03846 374.01976 376.78935 381.21275 385.11808 388.99354 395.5788 399.50407 403.37953 408.3608 413.35209 417.77549 423.3147 428.296 431.06559 436.6048 441.0282 444.93354 451.5188 456.5001 462.31828 467.29957 472.83879 479.37425 483.2497 488.7889 495.8723 498.92088 503.90217 506.67176 509.44136 514.9805 518.88589 525.9693 530.9506 536.4898">Systemalertsstakeholdersaboutthefailureand</tspan><tspan y="-285.47" x="316.368 320.29328 325.8325 330.81379 335.79508 340.21849 344.14375 348.0192 355.262 359.16734 363.59074 367.4662 371.37153 376.63179 379.40138 384.94059 389.92189">suggestsretrying.</tspan></text>
<path transform="matrix(1,0,0,-1,548.182,561.80007)" stroke-width=".398" stroke-linecap="butt" stroke-miterlimit="10" stroke-linejoin="miter" fill="none" stroke="#000000" d="M0 0V29.888"/>
<path transform="matrix(1,0,0,-1,72,561.999)" stroke-width=".398" stroke-linecap="butt" stroke-miterlimit="10" stroke-linejoin="miter" fill="none" stroke="#000000" d="M0 0H476.381"/>
<path transform="matrix(1,0,0,-1,72,561.999)" stroke-width=".398" stroke-linecap="butt" stroke-miterlimit="10" stroke-linejoin="miter" fill="none" stroke="#000000" d="M0 0H476.381"/>
<text xml:space="preserve" transform="matrix(1 0 -0 1 0 841.89)" font-size="9.9626" font-family="CMR10"><tspan y="-42.112" x="295.147">9</tspan></text>
</svg>
