<svg xmlns="http://www.w3.org/2000/svg" xmlns:xlink="http://www.w3.org/1999/xlink" version="1.1" width="595.276" height="841.89" viewBox="0 0 595.276 841.89">
<rect x="0" y="0" width="595.276" height="841.89" fill="white" />
<text xml:space="preserve" transform="matrix(1 0 -0 1 0 841.89)" font-size="14.3462" font-family="CMBX12" font-weight="bold"><tspan y="-759.927" x="199.477 214.7844 222.63176 231.59813 239.4455 247.5224 260.26185 271.29408 277.8933 285.9702 290.4534 294.93659 299.42695 312.16636 318.1774 327.14378 332.07887 340.15577 346.755 360.21174 368.0591 374.34275 378.8331 386.91">ManageProfileInformation</tspan></text>
<path transform="matrix(1,0,0,-1,72,106.77301)" stroke-width=".398" stroke-linecap="butt" stroke-miterlimit="10" stroke-linejoin="miter" fill="none" stroke="#000000" d="M0 0H476.381"/>
<path transform="matrix(1,0,0,-1,72,106.77301)" stroke-width=".398" stroke-linecap="butt" stroke-miterlimit="10" stroke-linejoin="miter" fill="none" stroke="#000000" d="M0 0H476.381"/>
<path transform="matrix(1,0,0,-1,72.199,124.90503)" stroke-width=".398" stroke-linecap="butt" stroke-miterlimit="10" stroke-linejoin="miter" fill="none" stroke="#000000" d="M0 0V17.933"/>
<text xml:space="preserve" transform="matrix(1 0 -0 1 0 841.89)" font-size="9.9626" font-family="CMBX10" font-weight="bold"><tspan y="-722.365" x="78.376 87.1929 91.71592 100.78188 109.06081 114.6299 119.152919 128.22885 137.19519 142.76428 152.30846">UseCaseName</tspan></text>
<path transform="matrix(1,0,0,-1,197.372,124.90503)" stroke-width=".398" stroke-linecap="butt" stroke-miterlimit="10" stroke-linejoin="miter" fill="none" stroke="#000000" d="M0 0V17.933"/>
<text xml:space="preserve" transform="matrix(1 0 -0 1 0 841.89)" font-size="9.9626" font-family="CMR10"><tspan y="-722.365" x="203.549 212.68471 217.666 223.2052 228.1865 233.16779 240.90874 247.69327 251.5986 256.5799 259.3445 262.1191 264.8887 272.63963 276.2361 281.77534 284.81394 289.79524 293.70057 301.99943 306.9807 310.85618 313.62577 318.60707">ManageProfileInformation</tspan></text>
<path transform="matrix(1,0,0,-1,548.182,124.90503)" stroke-width=".398" stroke-linecap="butt" stroke-miterlimit="10" stroke-linejoin="miter" fill="none" stroke="#000000" d="M0 0V17.933"/>
<path transform="matrix(1,0,0,-1,72,125.104007)" stroke-width=".398" stroke-linecap="butt" stroke-miterlimit="10" stroke-linejoin="miter" fill="none" stroke="#000000" d="M0 0H476.381"/>
<path transform="matrix(1,0,0,-1,72,125.104007)" stroke-width=".398" stroke-linecap="butt" stroke-miterlimit="10" stroke-linejoin="miter" fill="none" stroke="#000000" d="M0 0H476.381"/>
<path transform="matrix(1,0,0,-1,72.199,143.23603)" stroke-width=".398" stroke-linecap="butt" stroke-miterlimit="10" stroke-linejoin="miter" fill="none" stroke="#000000" d="M0 0V17.933"/>
<text xml:space="preserve" transform="matrix(1 0 -0 1 0 841.89)" font-size="9.9626" font-family="CMBX10" font-weight="bold"><tspan y="-704.034" x="78.376 84.7421 89.83299 95.561489 102.24639">Scope</tspan></text>
<path transform="matrix(1,0,0,-1,197.372,143.23603)" stroke-width=".398" stroke-linecap="butt" stroke-miterlimit="10" stroke-linejoin="miter" fill="none" stroke="#000000" d="M0 0V17.933"/>
<text xml:space="preserve" transform="matrix(1 0 -0 1 0 841.89)" font-size="9.9626" font-family="CMR10"><tspan y="-704.034" x="203.549 211.02095 215.7233 222.91629 228.17655 235.36954 246.169 252.39563 257.37693 262.35823 265.1278 269.05308 272.92854 275.69813 280.12153 287.36433 292.3456 297.88484 306.74159 314.353 318.7764 321.546 324.31559 329.29689 333.72029 337.6256 346.21339 355.3491 360.33039 365.8696 370.8509 375.83219 380.25559 388.55445 392.97785 398.2381 405.4311 410.9703 416.23057 420.15583 424.03129 428.45469">HawkTULogisticsandDeliveryManagementSystem</tspan></text>
<path transform="matrix(1,0,0,-1,548.182,143.23603)" stroke-width=".398" stroke-linecap="butt" stroke-miterlimit="10" stroke-linejoin="miter" fill="none" stroke="#000000" d="M0 0V17.933"/>
<path transform="matrix(1,0,0,-1,72,143.435)" stroke-width=".398" stroke-linecap="butt" stroke-miterlimit="10" stroke-linejoin="miter" fill="none" stroke="#000000" d="M0 0H476.381"/>
<path transform="matrix(1,0,0,-1,72,143.435)" stroke-width=".398" stroke-linecap="butt" stroke-miterlimit="10" stroke-linejoin="miter" fill="none" stroke="#000000" d="M0 0H476.381"/>
<path transform="matrix(1,0,0,-1,72.199,161.56702)" stroke-width=".398" stroke-linecap="butt" stroke-miterlimit="10" stroke-linejoin="miter" fill="none" stroke="#000000" d="M0 0V17.933"/>
<text xml:space="preserve" transform="matrix(1 0 -0 1 0 841.89)" font-size="9.9626" font-family="CMBX10" font-weight="bold"><tspan y="-685.703" x="78.376 85.27012 90.52041 96.2489 101.49919">Level</tspan></text>
<path transform="matrix(1,0,0,-1,197.372,161.56702)" stroke-width=".398" stroke-linecap="butt" stroke-miterlimit="10" stroke-linejoin="miter" fill="none" stroke="#000000" d="M0 0V17.933"/>
<text xml:space="preserve" transform="matrix(1 0 -0 1 0 841.89)" font-size="9.9626" font-family="CMR10"><tspan y="-685.703" x="203.549 211.02095 214.94622 219.36962 226.5925 234.41315 239.39444 244.37574">UserGoal</tspan></text>
<path transform="matrix(1,0,0,-1,548.182,161.56702)" stroke-width=".398" stroke-linecap="butt" stroke-miterlimit="10" stroke-linejoin="miter" fill="none" stroke="#000000" d="M0 0V17.933"/>
<path transform="matrix(1,0,0,-1,72,161.76599)" stroke-width=".398" stroke-linecap="butt" stroke-miterlimit="10" stroke-linejoin="miter" fill="none" stroke="#000000" d="M0 0H476.381"/>
<path transform="matrix(1,0,0,-1,72,161.76599)" stroke-width=".398" stroke-linecap="butt" stroke-miterlimit="10" stroke-linejoin="miter" fill="none" stroke="#000000" d="M0 0H476.381"/>
<path transform="matrix(1,0,0,-1,72.199,179.89801)" stroke-width=".398" stroke-linecap="butt" stroke-miterlimit="10" stroke-linejoin="miter" fill="none" stroke="#000000" d="M0 0V17.933"/>
<text xml:space="preserve" transform="matrix(1 0 -0 1 0 841.89)" font-size="9.9626" font-family="CMBX10" font-weight="bold"><tspan y="-667.372" x="78.376 86.206607 90.92888 94.10695 103.65112 109.220218 113.94249 123.81543 132.47293 137.56381 142.01709 147.74559">PrimaryActor</tspan></text>
<path transform="matrix(1,0,0,-1,197.372,179.89801)" stroke-width=".398" stroke-linecap="butt" stroke-miterlimit="10" stroke-linejoin="miter" fill="none" stroke="#000000" d="M0 0V17.933"/>
<text xml:space="preserve" transform="matrix(1 0 -0 1 0 841.89)" font-size="9.9626" font-family="CMR10"><tspan y="-667.372" x="203.549 210.74199 216.28119 220.20645 224.08191 229.0632 237.36205 241.78545 245.69078 250.67208 256.21128 260.63468 263.40428 266.17387 270.59727">Customer/Seller</tspan></text>
<path transform="matrix(1,0,0,-1,548.182,179.89801)" stroke-width=".398" stroke-linecap="butt" stroke-miterlimit="10" stroke-linejoin="miter" fill="none" stroke="#000000" d="M0 0V17.933"/>
<path transform="matrix(1,0,0,-1,72,180.09803)" stroke-width=".398" stroke-linecap="butt" stroke-miterlimit="10" stroke-linejoin="miter" fill="none" stroke="#000000" d="M0 0H476.381"/>
<path transform="matrix(1,0,0,-1,72,180.09803)" stroke-width=".398" stroke-linecap="butt" stroke-miterlimit="10" stroke-linejoin="miter" fill="none" stroke="#000000" d="M0 0H476.381"/>
<path transform="matrix(1,0,0,-1,72.199,258.90205)" stroke-width=".398" stroke-linecap="butt" stroke-miterlimit="10" stroke-linejoin="miter" fill="none" stroke="#000000" d="M0 0V78.605"/>
<text xml:space="preserve" transform="matrix(1 0 -0 1 0 841.89)" font-size="9.9626" font-family="CMBX10" font-weight="bold"><tspan y="-624.682" x="78.376 84.7421 89.19539 94.76448 100.49298 105.74327 112.109378 117.83787 121.01594 127.38204 132.63234 137.35462 145.69332 151.2624 157.62851">Stakeholdersand</tspan><tspan y="-612.726" x="78.376 82.719699 88.767 93.22028 98.47057 103.19285 108.44314 112.966159 117.41944">Interests</tspan></text>
<path transform="matrix(1,0,0,-1,197.372,258.90205)" stroke-width=".398" stroke-linecap="butt" stroke-miterlimit="10" stroke-linejoin="miter" fill="none" stroke="#000000" d="M0 0V78.605"/>
<text xml:space="preserve" transform="matrix(1 0 -0 1 0 841.89)" font-size="4.9813" font-family="CMSY5" font-style="italic"><tspan y="-645.421" x="203.549">&#x2022;</tspan></text>
<text xml:space="preserve" transform="matrix(1 0 -0 1 0 841.89)" font-size="9.9626" font-family="CMR10"><tspan y="-644.159" x="212.19699 219.38999 224.92919 228.85445 232.7299 237.7112 246.01004 250.43344 254.33878 259.32008 264.85929 269.28269 272.05229 274.82188 279.24528 283.1506 290.62257 300.0372 305.0185 310.27876 314.1542 321.5365 325.41197 333.85029 338.27369 343.25498 347.18025 349.94984 352.71943 361.4367 369.73558 374.71687 380.25608 385.23738 390.21867 398.0991 403.91728 408.34068 412.246 416.17127 421.15257 426.69178 431.67308 437.8997 443.4389 447.8623 451.73777 456.71907 459.48866 462.25825 469.64054 474.62184 480.16105 489.1573 493.08256 497.5159 501.9393 507.47853 511.38386 514.1435 517.74996 526.4672 530.3925 534.8159 538.69137">Customer/Seller:Wantstoeasilymanagepersonaldetailsandsecurityset-</tspan><tspan y="-632.203" x="212.19699 216.07245 218.84206 224.38126 229.36255 233.28781">tings.</tspan></text>
<text xml:space="preserve" transform="matrix(1 0 -0 1 0 841.89)" font-size="4.9813" font-family="CMSY5" font-style="italic"><tspan y="-613.541" x="203.549">&#x2022;</tspan></text>
<text xml:space="preserve" transform="matrix(1 0 -0 1 0 841.89)" font-size="9.9626" font-family="CMR10"><tspan y="-612.278" x="212.19699 217.73619 222.99645 226.9217 230.79717 235.22057 247.5144 254.98636 260.52558 268.82444 271.59403 277.13325 279.90284 283.8281 287.70356 291.6089 296.59019 300.46565 305.44694 309.35227 317.91014 324.69468 330.22395 334.15916 339.68843 343.59376 348.01716 355.9474 361.4866 366.4679 370.34336 379.31965 382.08924 387.3495 391.22496 395.64836 400.62965 404.53498 407.30458 410.90107 420.1663 425.14759 430.6868 440.221 444.14628 448.56968 452.99308 458.5323 462.43763 465.2072 468.8037 478.05897 483.04026 490.09379 495.90199 500.32539 504.2307 508.15599 513.13729 518.67648 523.6578 530.4323 533.2019 538.7411">SystemAdministrator:Ensuresdataintegrityandsecurityofpersonalin-</tspan><tspan y="-600.323" x="212.19699 215.24555 220.22684 224.13217 232.43102 237.41231 241.28777 244.05738 249.03867 254.57787">formation.</tspan></text>
<path transform="matrix(1,0,0,-1,548.182,258.90205)" stroke-width=".398" stroke-linecap="butt" stroke-miterlimit="10" stroke-linejoin="miter" fill="none" stroke="#000000" d="M0 0V78.605"/>
<path transform="matrix(1,0,0,-1,72,259.101)" stroke-width=".398" stroke-linecap="butt" stroke-miterlimit="10" stroke-linejoin="miter" fill="none" stroke="#000000" d="M0 0H476.381"/>
<path transform="matrix(1,0,0,-1,72,259.101)" stroke-width=".398" stroke-linecap="butt" stroke-miterlimit="10" stroke-linejoin="miter" fill="none" stroke="#000000" d="M0 0H476.381"/>
<path transform="matrix(1,0,0,-1,72.199,313.44203)" stroke-width=".398" stroke-linecap="butt" stroke-miterlimit="10" stroke-linejoin="miter" fill="none" stroke="#000000" d="M0 0V54.141"/>
<text xml:space="preserve" transform="matrix(1 0 -0 1 0 841.89)" font-size="9.9626" font-family="CMBX10" font-weight="bold"><tspan y="-551.932" x="78.376 86.206607 90.92888 96.17917 101.27006 106.99855 113.364658 119.73076 122.90883 127.362117 130.54018 136.26868 142.63478">Preconditions</tspan></text>
<path transform="matrix(1,0,0,-1,197.372,313.44203)" stroke-width=".398" stroke-linecap="butt" stroke-miterlimit="10" stroke-linejoin="miter" fill="none" stroke="#000000" d="M0 0V54.141"/>
<text xml:space="preserve" transform="matrix(1 0 -0 1 0 841.89)" font-size="4.9813" font-family="CMSY5" font-style="italic"><tspan y="-566.971" x="203.549">&#x2022;</tspan></text>
<text xml:space="preserve" transform="matrix(1 0 -0 1 0 841.89)" font-size="9.9626" font-family="CMR10"><tspan y="-565.708" x="212.19699 219.38999 224.92919 232.67014 238.20934 242.1346 246.558 253.79085 256.56047 263.80326 266.57286 271.55415 276.53544 281.51673 285.94013 294.79689 297.56648 302.8367 306.71217 315.011 318.88645 324.42567 332.1666 336.09187 341.3521 345.27738 349.15284 353.57624 361.8751">Theuserisloggedintothesystem.</tspan></text>
<text xml:space="preserve" transform="matrix(1 0 -0 1 0 841.89)" font-size="4.9813" font-family="CMSY5" font-style="italic"><tspan y="-547.046" x="203.549">&#x2022;</tspan></text>
<text xml:space="preserve" transform="matrix(1 0 -0 1 0 841.89)" font-size="9.9626" font-family="CMR10"><tspan y="-545.783" x="212.19699 219.38999 224.92919 232.67014 236.5954 241.85565 245.78092 249.65637 254.07978 265.70616 271.24537 274.01496 277.94023 283.47944 286.24903 290.95137 296.2116 303.4544 307.32987 312.86909 320.62 326.1592 330.06455 335.04585 337.81047 340.58506 343.35466 351.09559 359.39445 364.37574 369.91496 374.89625 379.87754 384.30094 392.5998 397.0232 402.28346 409.48643 412.256 417.51628 421.39173 425.81513 429.72047 432.769 437.7503 442.1737 446.5971">Thesystemdisplaystheprofilemanagementinterface.</tspan></text>
<path transform="matrix(1,0,0,-1,548.182,313.44203)" stroke-width=".398" stroke-linecap="butt" stroke-miterlimit="10" stroke-linejoin="miter" fill="none" stroke="#000000" d="M0 0V54.141"/>
<path transform="matrix(1,0,0,-1,72,313.641)" stroke-width=".398" stroke-linecap="butt" stroke-miterlimit="10" stroke-linejoin="miter" fill="none" stroke="#000000" d="M0 0H476.381"/>
<path transform="matrix(1,0,0,-1,72,313.641)" stroke-width=".398" stroke-linecap="butt" stroke-miterlimit="10" stroke-linejoin="miter" fill="none" stroke="#000000" d="M0 0H476.381"/>
<path transform="matrix(1,0,0,-1,72.199,367.98204)" stroke-width=".398" stroke-linecap="butt" stroke-miterlimit="10" stroke-linejoin="miter" fill="none" stroke="#000000" d="M0 0V54.141"/>
<text xml:space="preserve" transform="matrix(1 0 -0 1 0 841.89)" font-size="9.9626" font-family="CMBX10" font-weight="bold"><tspan y="-497.392" x="78.376 85.8878 91.616298 96.13931 100.5926 104.40827 109.49916 115.22765 121.59376 127.95986 131.13793 135.5912 138.76927 144.49777 150.86388">Post-conditions</tspan></text>
<path transform="matrix(1,0,0,-1,197.372,367.98204)" stroke-width=".398" stroke-linecap="butt" stroke-miterlimit="10" stroke-linejoin="miter" fill="none" stroke="#000000" d="M0 0V54.141"/>
<text xml:space="preserve" transform="matrix(1 0 -0 1 0 841.89)" font-size="4.9813" font-family="CMSY5" font-style="italic"><tspan y="-512.431" x="203.549">&#x2022;</tspan></text>
<text xml:space="preserve" transform="matrix(1 0 -0 1 0 841.89)" font-size="9.9626" font-family="CMR10"><tspan y="-511.16804" x="212.19699 219.66895 223.59421 228.01761 235.2405 240.7797 244.68503 249.66632 252.43094 255.20552 257.97514 265.72605 268.49565 275.73844 281.27766 287.09584 292.63505 297.61634 301.4918 305.9152 314.77195 321.96495 324.73454 328.61 337.46675 341.3422 346.8814 354.63233 360.17155 364.59495 375.10548 377.87507 383.41429 386.46284 391.44413 395.34947 403.64833 408.6296 412.50508 415.27467 420.25596 425.79518">Userprofileisupdatedwiththenewinformation.</tspan></text>
<text xml:space="preserve" transform="matrix(1 0 -0 1 0 841.89)" font-size="4.9813" font-family="CMSY5" font-style="italic"><tspan y="-492.50605" x="203.549">&#x2022;</tspan></text>
<text xml:space="preserve" transform="matrix(1 0 -0 1 0 841.89)" font-size="9.9626" font-family="CMR10"><tspan y="-491.24305" x="212.19699 219.38999 224.92919 229.91048 235.44968 240.43097 244.85437 252.09719 257.0785 260.98384 268.73475 272.66 277.36235 282.34364 286.76704 295.63377 299.55903 303.98243 308.40583 313.94505 317.85038 322.27378 325.04338 333.62117 336.39076 345.2475 349.12297 354.66218 362.4131 367.94236 372.92366 376.7991 381.7804 387.3196 392.3009 396.22618 400.65953">Changesaresavedsecurelyinthedatabase.</tspan></text>
<path transform="matrix(1,0,0,-1,548.182,367.98204)" stroke-width=".398" stroke-linecap="butt" stroke-miterlimit="10" stroke-linejoin="miter" fill="none" stroke="#000000" d="M0 0V54.141"/>
<path transform="matrix(1,0,0,-1,72,368.181)" stroke-width=".398" stroke-linecap="butt" stroke-miterlimit="10" stroke-linejoin="miter" fill="none" stroke="#000000" d="M0 0H476.381"/>
<path transform="matrix(1,0,0,-1,72,368.181)" stroke-width=".398" stroke-linecap="butt" stroke-miterlimit="10" stroke-linejoin="miter" fill="none" stroke="#000000" d="M0 0H476.381"/>
<path transform="matrix(1,0,0,-1,72,368.082)" stroke-width=".398" stroke-linecap="butt" stroke-miterlimit="10" stroke-linejoin="miter" fill="none" stroke="#000000" d="M0 0H476.381"/>
<path transform="matrix(1,0,0,-1,72,368.082)" stroke-width=".398" stroke-linecap="butt" stroke-miterlimit="10" stroke-linejoin="miter" fill="none" stroke="#000000" d="M0 0H476.381"/>
<path transform="matrix(1,0,0,-1,72.199,386.21403)" stroke-width=".398" stroke-linecap="butt" stroke-miterlimit="10" stroke-linejoin="miter" fill="none" stroke="#000000" d="M0 0V17.933"/>
<text xml:space="preserve" transform="matrix(1 0 -0 1 0 841.89)" font-size="9.9626" font-family="CMBX10" font-weight="bold"><tspan y="-461.056" x="253.638 264.51716 270.08625 273.2643 283.44609 289.81217 296.17826 301.26914 306.36003 311.61033 316.13334 324.482 330.84809 335.93898 341.18928 347.55537 353.12446 357.8467 361.02479">MainSuccessScenario</tspan></text>
<path transform="matrix(1,0,0,-1,548.182,386.21403)" stroke-width=".398" stroke-linecap="butt" stroke-miterlimit="10" stroke-linejoin="miter" fill="none" stroke="#000000" d="M0 0V17.933"/>
<path transform="matrix(1,0,0,-1,72,386.41304)" stroke-width=".398" stroke-linecap="butt" stroke-miterlimit="10" stroke-linejoin="miter" fill="none" stroke="#000000" d="M0 0H476.381"/>
<path transform="matrix(1,0,0,-1,72,386.41304)" stroke-width=".398" stroke-linecap="butt" stroke-miterlimit="10" stroke-linejoin="miter" fill="none" stroke="#000000" d="M0 0H476.381"/>
<path transform="matrix(1,0,0,-1,72.199,404.545)" stroke-width=".398" stroke-linecap="butt" stroke-miterlimit="10" stroke-linejoin="miter" fill="none" stroke="#000000" d="M0 0V17.933"/>
<text xml:space="preserve" transform="matrix(1 0 -0 1 0 841.89)" font-size="9.9626" font-family="CMBX10" font-weight="bold"><tspan y="-442.725" x="121.779 130.4365 135.52738 139.98065 145.70915 154.2471 162.9046 167.99549 172.44876 175.62683 181.35533 191.54708 196.00035 201.72885 210.2668 214.61049 220.65779 225.11107 230.36136 236.40866 240.86194 244.04001 249.76851 256.1346">ActorAction(orIntention)</tspan></text>
<path transform="matrix(1,0,0,-1,310.191,404.545)" stroke-width=".398" stroke-linecap="butt" stroke-miterlimit="10" stroke-linejoin="miter" fill="none" stroke="#000000" d="M0 0V17.933"/>
<text xml:space="preserve" transform="matrix(1 0 -0 1 0 841.89)" font-size="9.9626" font-family="CMBX10" font-weight="bold"><tspan y="-442.725" x="373.636 380.00209 386.04939 390.5724 395.02568 400.27598 413.6358 422.23353 427.48384 432.00685 438.69175 444.42024 450.78633 455.30934 458.4874 464.8535 468.03157 471.20964 474.3877 478.53215">SystemResponsibility</tspan></text>
<path transform="matrix(1,0,0,-1,548.182,404.545)" stroke-width=".398" stroke-linecap="butt" stroke-miterlimit="10" stroke-linejoin="miter" fill="none" stroke="#000000" d="M0 0V17.933"/>
<path transform="matrix(1,0,0,-1,72,404.74403)" stroke-width=".398" stroke-linecap="butt" stroke-miterlimit="10" stroke-linejoin="miter" fill="none" stroke="#000000" d="M0 0H476.381"/>
<path transform="matrix(1,0,0,-1,72,404.74403)" stroke-width=".398" stroke-linecap="butt" stroke-miterlimit="10" stroke-linejoin="miter" fill="none" stroke="#000000" d="M0 0H476.381"/>
<path transform="matrix(1,0,0,-1,72.199,422.876)" stroke-width=".398" stroke-linecap="butt" stroke-miterlimit="10" stroke-linejoin="miter" fill="none" stroke="#000000" d="M0 0V17.933"/>
<text xml:space="preserve" transform="matrix(1 0 -0 1 0 841.89)" font-size="9.9626" font-family="CMR10"><tspan y="-424.394" x="78.376 83.3573 90.55029 98.02225 101.94751 106.38087 113.60375 119.14296 123.84531 129.10556 131.87517 136.85646 141.83776 145.71321 150.13661 157.37943 161.25489 169.56369 173.43915 178.97835 186.7193 192.2585 196.16384 201.14513 203.90975 206.68433 209.45394 217.19489 221.12015 225.54355 229.96695 233.8424 236.61202 241.5933 247.1325">1.Usernavigatestotheprofilesection.</tspan></text>
<path transform="matrix(1,0,0,-1,310.191,422.876)" stroke-width=".398" stroke-linecap="butt" stroke-miterlimit="10" stroke-linejoin="miter" fill="none" stroke="#000000" d="M0 0V17.933"/>
<text xml:space="preserve" transform="matrix(1 0 -0 1 0 841.89)" font-size="9.9626" font-family="CMR10"><tspan y="-424.394" x="316.368 321.3493 328.2434 333.78263 339.04289 342.96815 346.8436 351.267 361.98677 367.51603 370.2856 374.22084 379.7501 382.51969 387.232 392.49226 398.82847 402.70393 408.24314 415.08744 420.6167 424.52204 429.50334 432.26795 435.04255 437.81214 444.65644 452.9553 457.93659 463.4758 468.4571 473.4384 477.8618 486.16065 490.58406 495.8443 502.14067 504.91026 510.1705 514.04598 518.46939 522.3747 525.4233 530.4046 534.828 539.2514">2.Systemdisplaystheprofilemanagementinterface.</tspan></text>
<path transform="matrix(1,0,0,-1,548.182,422.876)" stroke-width=".398" stroke-linecap="butt" stroke-miterlimit="10" stroke-linejoin="miter" fill="none" stroke="#000000" d="M0 0V17.933"/>
<path transform="matrix(1,0,0,-1,72,423.075)" stroke-width=".398" stroke-linecap="butt" stroke-miterlimit="10" stroke-linejoin="miter" fill="none" stroke="#000000" d="M0 0H476.381"/>
<path transform="matrix(1,0,0,-1,72,423.075)" stroke-width=".398" stroke-linecap="butt" stroke-miterlimit="10" stroke-linejoin="miter" fill="none" stroke="#000000" d="M0 0H476.381"/>
<path transform="matrix(1,0,0,-1,72.199,453.16304)" stroke-width=".398" stroke-linecap="butt" stroke-miterlimit="10" stroke-linejoin="miter" fill="none" stroke="#000000" d="M0 0V29.888"/>
<text xml:space="preserve" transform="matrix(1 0 -0 1 0 841.89)" font-size="9.9626" font-family="CMR10"><tspan y="-406.062" x="78.376 83.3573 92.82177 100.29372 104.21898 108.64237 116.62242 122.16163 127.97979 133.519 138.50029 142.37575 146.79915 154.79912 158.67458 164.21378 168.63718 171.40679 179.38683 185.20497 189.62837 193.5337 197.45897 202.44026 207.97946 212.96076 219.80507 225.34427 229.76767 233.64313 238.62442 241.39403 244.16364 252.1636 256.03907 260.46247 263.23207 268.21336 270.98295 278.01655 283.55577 288.53706 296.8359 301.2593">3.Userupdatestheirpersonaldetails(e.g.,name,</tspan><tspan y="-394.10704" x="78.376 83.3573 88.89651 94.435718 98.34106 102.76445 106.68971 110.614978 116.70212 122.241329 127.78053 132.76183 138.30103 146.05194 151.3122 156.8514 164.87129 170.68944 175.11284 179.01818 182.89363">address,phonenumber).</tspan></text>
<path transform="matrix(1,0,0,-1,310.191,453.16304)" stroke-width=".398" stroke-linecap="butt" stroke-miterlimit="10" stroke-linejoin="miter" fill="none" stroke="#000000" d="M0 0V29.888"/>
<text xml:space="preserve" transform="matrix(1 0 -0 1 0 841.89)" font-size="9.9626" font-family="CMR10"><tspan y="-406.062" x="316.368 321.3493 331.24217 336.78138 342.04164 345.9669 349.84236 354.26576 366.77879 371.4911 376.47239 379.24198 382.01158 387.55079 392.53208 396.40754 400.83094 408.97038 412.84584 418.38505 427.0326 429.8022 435.3414 440.87068 446.40989 450.28535 458.43476 463.41606 468.95527 478.70866 482.86308 488.40229 492.82569 496.97013 502.23039 510.3698 513.4184 518.3997 526.5292 531.5105 536.77078">4.Systemvalidatestheinputsandchecksforany</tspan><tspan y="-394.10704" x="316.368 320.27336 324.69676 329.957 335.49623 338.2658 342.17115 346.59455 355.4513 358.2159 360.9905 365.4139 368.1835 373.72273 377.64799">requiredfields.</tspan></text>
<path transform="matrix(1,0,0,-1,548.182,453.16304)" stroke-width=".398" stroke-linecap="butt" stroke-miterlimit="10" stroke-linejoin="miter" fill="none" stroke="#000000" d="M0 0V29.888"/>
<path transform="matrix(1,0,0,-1,72,453.362)" stroke-width=".398" stroke-linecap="butt" stroke-miterlimit="10" stroke-linejoin="miter" fill="none" stroke="#000000" d="M0 0H476.381"/>
<path transform="matrix(1,0,0,-1,72,453.362)" stroke-width=".398" stroke-linecap="butt" stroke-miterlimit="10" stroke-linejoin="miter" fill="none" stroke="#000000" d="M0 0H476.381"/>
<path transform="matrix(1,0,0,-1,72.199,483.449)" stroke-width=".398" stroke-linecap="butt" stroke-miterlimit="10" stroke-linejoin="miter" fill="none" stroke="#000000" d="M0 0V29.888"/>
<text xml:space="preserve" transform="matrix(1 0 -0 1 0 841.89)" font-size="9.9626" font-family="CMR10"><tspan y="-375.776" x="78.376 83.3573 90.23149 97.703449 101.62871 106.0521 112.31858 120.617427 125.87768 131.41689 134.1865 136.95111 139.7257 144.1491 150.43549 155.41678 159.84018 164.26358 169.24488 174.78408 180.05428 186.29087 190.21613 194.63953 199.06293 204.60213 208.50746 211.27707 214.87358 222.49497 226.42023 230.84363 234.71909 238.59455 241.36415 246.90335 251.88465 258.17106 262.0465 266.4699 269.2395 274.2208 276.9904 282.3104 287.8496 292.8309 296.75617 300.68144">5.Usermodifiesaccountsecuritysettings(e.g.,pass-</tspan><tspan y="-363.821" x="78.376 85.29005 90.27135 94.17669 99.7159 103.59135">word).</tspan></text>
<path transform="matrix(1,0,0,-1,310.191,483.449)" stroke-width=".398" stroke-linecap="butt" stroke-miterlimit="10" stroke-linejoin="miter" fill="none" stroke="#000000" d="M0 0V29.888"/>
<text xml:space="preserve" transform="matrix(1 0 -0 1 0 841.89)" font-size="9.9626" font-family="CMR10"><tspan y="-375.776" x="316.368 321.3493 328.41279 333.952 339.21226 343.1375 347.01298 351.43638 362.64433 367.06773 372.60694 375.6555 380.63679 384.5421 388.9655 393.38893 400.22328 405.76249 410.74378 414.66905 418.5943 425.5183 430.4996 434.40495 442.85325 446.7785 450.65397 454.5593 458.9827 464.5219 469.5032 473.37867 481.82698 485.7323 491.2715 494.0411 498.4645 505.29887 510.28016 515.81936 524.2776 529.8168 533.7221 538.7034">6.Systemenforcespasswordstrengthrulesandpro-</tspan><tspan y="-363.821" x="316.368 321.62828 324.39787 329.93708 334.36048 341.60328 344.65184 349.07524 353.49864 359.03785 364.57707 369.55836 373.71278 378.97303">videsfeedback.</tspan></text>
<path transform="matrix(1,0,0,-1,548.182,483.449)" stroke-width=".398" stroke-linecap="butt" stroke-miterlimit="10" stroke-linejoin="miter" fill="none" stroke="#000000" d="M0 0V29.888"/>
<path transform="matrix(1,0,0,-1,72,483.648)" stroke-width=".398" stroke-linecap="butt" stroke-miterlimit="10" stroke-linejoin="miter" fill="none" stroke="#000000" d="M0 0H476.381"/>
<path transform="matrix(1,0,0,-1,72,483.648)" stroke-width=".398" stroke-linecap="butt" stroke-miterlimit="10" stroke-linejoin="miter" fill="none" stroke="#000000" d="M0 0H476.381"/>
<path transform="matrix(1,0,0,-1,72.199,513.735)" stroke-width=".398" stroke-linecap="butt" stroke-miterlimit="10" stroke-linejoin="miter" fill="none" stroke="#000000" d="M0 0V29.888"/>
<text xml:space="preserve" transform="matrix(1 0 -0 1 0 841.89)" font-size="9.9626" font-family="CMR10"><tspan y="-339.512" x="78.376 83.3573 90.55029 98.02225 101.94751 106.38087 113.60375 117.529018 123.06822 128.60742 136.90627 139.67588 143.55133 150.79415 154.6696 160.2088 167.95972 173.48896 179.3071 184.8463 189.82759 193.70305 198.12645 206.99317 209.7528 215.292 218.34056 223.32186 227.22719 235.52603 240.50733 244.38278 247.15239 252.13368 257.67289">7.Usersubmitstheupdatedinformation.</tspan></text>
<path transform="matrix(1,0,0,-1,310.191,513.735)" stroke-width=".398" stroke-linecap="butt" stroke-miterlimit="10" stroke-linejoin="miter" fill="none" stroke="#000000" d="M0 0V29.888"/>
<text xml:space="preserve" transform="matrix(1 0 -0 1 0 841.89)" font-size="9.9626" font-family="CMR10"><tspan y="-345.49" x="316.368 321.3493 332.30818 337.84739 343.10765 347.0329 350.90837 355.33177 368.2134 372.13868 376.841 381.8223 386.2457 394.7438 398.61927 404.15849 413.16468 417.3091 422.84834 427.82963 433.36885 438.35014 442.77354 451.27165 455.1471 464.71119 468.58665 474.1159 483.1221 488.66133 493.6426 497.51808 502.49937 508.03858 513.0199 516.9452 525.9414 530.9227 536.4619">8.Systemsavesthechangestothedatabaseand</tspan><tspan y="-333.534" x="316.368 320.7914 325.7727 331.31193 334.07655 336.85115 340.75648 349.05534 356.29814 360.17359 365.7128 373.4637 379.00294 384.81114 390.35035 395.33164 399.2071 403.6305">confirmstheupdate.</tspan></text>
<path transform="matrix(1,0,0,-1,548.182,513.735)" stroke-width=".398" stroke-linecap="butt" stroke-miterlimit="10" stroke-linejoin="miter" fill="none" stroke="#000000" d="M0 0V29.888"/>
<path transform="matrix(1,0,0,-1,72,513.93508)" stroke-width=".398" stroke-linecap="butt" stroke-miterlimit="10" stroke-linejoin="miter" fill="none" stroke="#000000" d="M0 0H476.381"/>
<path transform="matrix(1,0,0,-1,72,513.93508)" stroke-width=".398" stroke-linecap="butt" stroke-miterlimit="10" stroke-linejoin="miter" fill="none" stroke="#000000" d="M0 0H476.381"/>
<path transform="matrix(1,0,0,-1,72.199,532.067)" stroke-width=".398" stroke-linecap="butt" stroke-miterlimit="10" stroke-linejoin="miter" fill="none" stroke="#000000" d="M0 0V17.933"/>
<text xml:space="preserve" transform="matrix(1 0 -0 1 0 841.89)" font-size="9.9626" font-family="CMBX10" font-weight="bold"><tspan y="-315.203" x="283.211 290.74275 296.79005 301.24333 306.49363 312.8597 317.38273 320.5608 326.28929 332.65538">Extensions</tspan></text>
<path transform="matrix(1,0,0,-1,548.182,532.067)" stroke-width=".398" stroke-linecap="butt" stroke-miterlimit="10" stroke-linejoin="miter" fill="none" stroke="#000000" d="M0 0V17.933"/>
<path transform="matrix(1,0,0,-1,72,532.266)" stroke-width=".398" stroke-linecap="butt" stroke-miterlimit="10" stroke-linejoin="miter" fill="none" stroke="#000000" d="M0 0H476.381"/>
<path transform="matrix(1,0,0,-1,72,532.266)" stroke-width=".398" stroke-linecap="butt" stroke-miterlimit="10" stroke-linejoin="miter" fill="none" stroke="#000000" d="M0 0H476.381"/>
<path transform="matrix(1,0,0,-1,72.199,550.398)" stroke-width=".398" stroke-linecap="butt" stroke-miterlimit="10" stroke-linejoin="miter" fill="none" stroke="#000000" d="M0 0V17.933"/>
<text xml:space="preserve" transform="matrix(1 0 -0 1 0 841.89)" font-size="9.9626" font-family="CMBX10" font-weight="bold"><tspan y="-296.872" x="121.779 130.4365 135.52738 139.98065 145.70915 154.2471 162.9046 167.99549 172.44876 175.62683 181.35533 191.54708 196.00035 201.72885 210.2668 214.61049 220.65779 225.11107 230.36136 236.40866 240.86194 244.04001 249.76851 256.1346">ActorAction(orIntention)</tspan></text>
<path transform="matrix(1,0,0,-1,310.191,550.398)" stroke-width=".398" stroke-linecap="butt" stroke-miterlimit="10" stroke-linejoin="miter" fill="none" stroke="#000000" d="M0 0V17.933"/>
<text xml:space="preserve" transform="matrix(1 0 -0 1 0 841.89)" font-size="9.9626" font-family="CMBX10" font-weight="bold"><tspan y="-296.872" x="373.636 380.00209 386.04939 390.5724 395.02568 400.27598 413.6358 422.23353 427.48384 432.00685 438.69175 444.42024 450.78633 455.30934 458.4874 464.8535 468.03157 471.20964 474.3877 478.53215">SystemResponsibility</tspan></text>
<path transform="matrix(1,0,0,-1,548.182,550.398)" stroke-width=".398" stroke-linecap="butt" stroke-miterlimit="10" stroke-linejoin="miter" fill="none" stroke="#000000" d="M0 0V17.933"/>
<path transform="matrix(1,0,0,-1,72,550.59707)" stroke-width=".398" stroke-linecap="butt" stroke-miterlimit="10" stroke-linejoin="miter" fill="none" stroke="#000000" d="M0 0H476.381"/>
<path transform="matrix(1,0,0,-1,72,550.59707)" stroke-width=".398" stroke-linecap="butt" stroke-miterlimit="10" stroke-linejoin="miter" fill="none" stroke="#000000" d="M0 0H476.381"/>
<path transform="matrix(1,0,0,-1,72.199,580.684)" stroke-width=".398" stroke-linecap="butt" stroke-miterlimit="10" stroke-linejoin="miter" fill="none" stroke="#000000" d="M0 0V29.888"/>
<text xml:space="preserve" transform="matrix(1 0 -0 1 0 841.89)" font-size="9.9626" font-family="CMBX10" font-weight="bold"><tspan y="-278.541" x="78.376 84.10449 89.673587">3a.</tspan></text>
<text xml:space="preserve" transform="matrix(1 0 -0 1 0 841.89)" font-size="9.9626" font-family="CMR10"><tspan y="-278.541" x="101.254 104.850498 112.54162 116.41707 121.956279 131.02225 136.56145 141.54274 145.468 149.39327 156.31726 161.29856 165.20389 175.38567 180.92487 186.17516 190.59856 199.17636 204.71556 209.69686 218.21489 226.51374 230.93714 235.36054 243.87857 247.80384 252.22724 256.65065 262.18986 266.09519 268.86479 272.46128 282.3641 286.28938 290.16484 295.14613 300.68534">Ifthepassworddoesnotmeetsecuritystan-</tspan><tspan y="-266.586" x="78.376 83.91521 88.89651 92.80185 98.34106 102.26632 108.35346 112.22891 117.76812 125.51902 131.05823 134.98349 139.40689 146.62978 151.05318 156.31343 160.18889 164.61229 168.51763 175.7704 184.06925 187.9945 191.86997 195.7753 200.75659 206.29579 211.27709 215.70049 222.92337 228.46257 233.44387 237.36913 241.29439 248.21839 253.19968 257.09507 262.63429">dards,theuserentersastrongerpassword.</tspan></text>
<path transform="matrix(1,0,0,-1,310.191,580.684)" stroke-width=".398" stroke-linecap="butt" stroke-miterlimit="10" stroke-linejoin="miter" fill="none" stroke="#000000" d="M0 0V29.888"/>
<text xml:space="preserve" transform="matrix(1 0 -0 1 0 841.89)" font-size="9.9626" font-family="CMBX10" font-weight="bold"><tspan y="-278.541" x="316.368 322.0965 327.6656">3a.</tspan></text>
<text xml:space="preserve" transform="matrix(1 0 -0 1 0 841.89)" font-size="9.9626" font-family="CMR10"><tspan y="-278.541" x="339.237 344.7762 350.03648 353.96174 357.8372 362.2606 375.20204 380.74125 384.64659 389.62788 397.92674 403.46595 407.3414 415.90925 419.7847 425.3239 434.3899 439.9291 443.85438 448.27778 456.82569 460.70115 470.31504 474.74839 480.00865 483.8841 488.3075 496.8554 506.4693 510.4045 514.27999 518.17538 523.1567 528.69589 533.6772 538.1006">Systempromptstheusertoenterastronger</tspan><tspan y="-266.586" x="316.368 321.90724 326.88853 330.81379 334.73905 341.65309 346.63438 350.5397 356.07893">password.</tspan></text>
<path transform="matrix(1,0,0,-1,548.182,580.684)" stroke-width=".398" stroke-linecap="butt" stroke-miterlimit="10" stroke-linejoin="miter" fill="none" stroke="#000000" d="M0 0V29.888"/>
<path transform="matrix(1,0,0,-1,72.199,610.572)" stroke-width=".398" stroke-linecap="butt" stroke-miterlimit="10" stroke-linejoin="miter" fill="none" stroke="#000000" d="M0 0V29.888"/>
<text xml:space="preserve" transform="matrix(1 0 -0 1 0 841.89)" font-size="9.9626" font-family="CMBX10" font-weight="bold"><tspan y="-248.653" x="78.376 84.10449 89.673587">5a.</tspan></text>
<text xml:space="preserve" transform="matrix(1 0 -0 1 0 841.89)" font-size="9.9626" font-family="CMR10"><tspan y="-248.653" x="98.482 102.0785 108.8431 112.71855 118.25776 126.407169 130.33243 135.59268 139.51795 143.3934 147.8168 159.8317 162.88025 167.86154 170.63115 173.40076 181.05204 184.92749 193.62483 199.16403 204.98218 210.52138 215.50267 219.37813 227.51758 231.39304 236.93224 245.08165 250.62085 254.52619 259.50749 262.2721 265.0467 267.81629 275.95576 281.49497 287.03419 295.17366 299.0491">Ifthesystemfailstoupdatetheprofiledueto</tspan><tspan y="-236.698" x="78.376 82.30126 86.724658 90.63 95.6113 100.03469 107.26754 110.03714 113.9624 117.887668 123.42687 127.850269 131.77553 137.86269 141.73815 147.27735 155.0183 160.5575 164.48276 168.90616 176.139 180.01447 183.9198 186.6894 191.11281 198.35562 203.33692 208.3182 213.2995 216.0691 224.92586 227.69547 232.67676 236.55222 240.97562 244.88095">serverissues,theusertriesagainlater.</tspan></text>
<path transform="matrix(1,0,0,-1,310.191,610.572)" stroke-width=".398" stroke-linecap="butt" stroke-miterlimit="10" stroke-linejoin="miter" fill="none" stroke="#000000" d="M0 0V29.888"/>
<text xml:space="preserve" transform="matrix(1 0 -0 1 0 841.89)" font-size="9.9626" font-family="CMBX10" font-weight="bold"><tspan y="-248.653" x="316.368 322.0965 327.6656">5a.</tspan></text>
<text xml:space="preserve" transform="matrix(1 0 -0 1 0 841.89)" font-size="9.9626" font-family="CMR10"><tspan y="-248.653" x="337.17903 342.71824 347.9785 351.90376 355.7792 360.2026 372.4566 377.99583 382.9771 386.85258 389.62217 392.38679 395.16139 399.58479 407.46519 411.34065 416.87986 425.2584 430.7976 434.72288 439.14628 447.00675 451.98805 458.99174 462.8672 468.4064 476.78495 479.8335 484.8148 487.58439 490.35398 495.8932 499.79853 508.17707 513.1584 518.6976 528.1919 533.1732 538.7124">Systemnotifiestheuserofthefailureandad-</tspan><tspan y="-236.698" x="316.368 321.62828 324.39787 328.32313 332.74653 339.98933 343.89466 348.31806 352.1935 356.09886 361.3591 364.1287 369.6679 374.6492">visesretrying.</tspan></text>
<path transform="matrix(1,0,0,-1,548.182,610.572)" stroke-width=".398" stroke-linecap="butt" stroke-miterlimit="10" stroke-linejoin="miter" fill="none" stroke="#000000" d="M0 0V29.888"/>
<path transform="matrix(1,0,0,-1,72,610.77206)" stroke-width=".398" stroke-linecap="butt" stroke-miterlimit="10" stroke-linejoin="miter" fill="none" stroke="#000000" d="M0 0H476.381"/>
<path transform="matrix(1,0,0,-1,72,610.77206)" stroke-width=".398" stroke-linecap="butt" stroke-miterlimit="10" stroke-linejoin="miter" fill="none" stroke="#000000" d="M0 0H476.381"/>
<text xml:space="preserve" transform="matrix(1 0 -0 1 0 841.89)" font-size="9.9626" font-family="CMR10"><tspan y="-42.112" x="295.147">1</tspan></text>
</svg>
